G04 #@! TF.GenerationSoftware,KiCad,Pcbnew,8.0.5*
G04 #@! TF.CreationDate,2024-12-10T21:34:54+01:00*
G04 #@! TF.ProjectId,xmasOrnament2024,786d6173-4f72-46e6-916d-656e74323032,rev?*
G04 #@! TF.SameCoordinates,Original*
G04 #@! TF.FileFunction,Legend,Top*
G04 #@! TF.FilePolarity,Positive*
%FSLAX46Y46*%
G04 Gerber Fmt 4.6, Leading zero omitted, Abs format (unit mm)*
G04 Created by KiCad (PCBNEW 8.0.5) date 2024-12-10 21:34:54*
%MOMM*%
%LPD*%
G01*
G04 APERTURE LIST*
G04 Aperture macros list*
%AMRotRect*
0 Rectangle, with rotation*
0 The origin of the aperture is its center*
0 $1 length*
0 $2 width*
0 $3 Rotation angle, in degrees counterclockwise*
0 Add horizontal line*
21,1,$1,$2,0,0,$3*%
G04 Aperture macros list end*
%ADD10C,1.250000*%
%ADD11C,3.000000*%
%ADD12C,1.000000*%
%ADD13C,0.100000*%
%ADD14C,0.200000*%
%ADD15R,0.700000X0.700000*%
%ADD16RotRect,0.700000X0.700000X30.000000*%
%ADD17RotRect,0.700000X0.700000X210.000000*%
%ADD18RotRect,1.350000X0.400000X45.000000*%
%ADD19RotRect,0.800000X0.950000X45.000000*%
%ADD20RotRect,0.700000X0.700000X330.000000*%
%ADD21RotRect,0.700000X0.700000X150.000000*%
%ADD22RotRect,0.700000X0.700000X240.000000*%
%ADD23RotRect,0.800000X0.950000X225.000000*%
%ADD24RotRect,0.700000X0.700000X300.000000*%
%ADD25RotRect,0.700000X0.700000X120.000000*%
%ADD26RotRect,0.700000X0.700000X60.000000*%
%ADD27C,0.100000*%
%ADD28O,1.200000X2.000000*%
%ADD29O,1.200000X2.300000*%
G04 APERTURE END LIST*
D10*
X123475000Y-95700000D02*
G75*
G02*
X122225000Y-95700000I-625000J0D01*
G01*
X122225000Y-95700000D02*
G75*
G02*
X123475000Y-95700000I625000J0D01*
G01*
D11*
X114850000Y-104700000D02*
X172850000Y-104700000D01*
D10*
X171475000Y-95700000D02*
G75*
G02*
X170225000Y-95700000I-625000J0D01*
G01*
X170225000Y-95700000D02*
G75*
G02*
X171475000Y-95700000I625000J0D01*
G01*
D12*
X114850000Y-82200000D02*
X172850000Y-82200000D01*
D10*
X135475000Y-95700000D02*
G75*
G02*
X134225000Y-95700000I-625000J0D01*
G01*
X134225000Y-95700000D02*
G75*
G02*
X135475000Y-95700000I625000J0D01*
G01*
X144475000Y-95700000D02*
G75*
G02*
X143225000Y-95700000I-625000J0D01*
G01*
X143225000Y-95700000D02*
G75*
G02*
X144475000Y-95700000I625000J0D01*
G01*
X153475000Y-95700000D02*
G75*
G02*
X152225000Y-95700000I-625000J0D01*
G01*
X152225000Y-95700000D02*
G75*
G02*
X153475000Y-95700000I625000J0D01*
G01*
D12*
X114850000Y-109200000D02*
X172850000Y-109200000D01*
D11*
X114850000Y-86700000D02*
X172850000Y-86700000D01*
D10*
X159475000Y-95700000D02*
G75*
G02*
X158225000Y-95700000I-625000J0D01*
G01*
X158225000Y-95700000D02*
G75*
G02*
X159475000Y-95700000I625000J0D01*
G01*
X129475000Y-95700000D02*
G75*
G02*
X128225000Y-95700000I-625000J0D01*
G01*
X128225000Y-95700000D02*
G75*
G02*
X129475000Y-95700000I625000J0D01*
G01*
X117475000Y-95700000D02*
G75*
G02*
X116225000Y-95700000I-625000J0D01*
G01*
X116225000Y-95700000D02*
G75*
G02*
X117475000Y-95700000I625000J0D01*
G01*
X165475000Y-95700000D02*
G75*
G02*
X164225000Y-95700000I-625000J0D01*
G01*
X164225000Y-95700000D02*
G75*
G02*
X165475000Y-95700000I625000J0D01*
G01*
D13*
G36*
X132105094Y-77864080D02*
G01*
X132605181Y-77864080D01*
X132831805Y-77891343D01*
X133014362Y-78034472D01*
X133034926Y-78143250D01*
X132976108Y-78358947D01*
X132884351Y-78455392D01*
X132677588Y-78546041D01*
X132463398Y-78567500D01*
X131876483Y-78567500D01*
X131655668Y-78548489D01*
X131437899Y-78471257D01*
X131379693Y-78432311D01*
X131243335Y-78255483D01*
X131204937Y-78044331D01*
X131245972Y-77815274D01*
X131326651Y-77591016D01*
X131334630Y-77571721D01*
X132129274Y-75697768D01*
X131532466Y-76358323D01*
X131362850Y-76513456D01*
X131151991Y-76596989D01*
X131128000Y-76597925D01*
X130921646Y-76508624D01*
X130819131Y-76304556D01*
X130803768Y-76240720D01*
X130716940Y-75840650D01*
X129962962Y-77704712D01*
X129868320Y-77934989D01*
X129779482Y-78146066D01*
X129676598Y-78382913D01*
X129582783Y-78589760D01*
X129482178Y-78798378D01*
X129368353Y-79009335D01*
X129244415Y-79196777D01*
X129101350Y-79369614D01*
X128939159Y-79527845D01*
X128840788Y-79609439D01*
X128628356Y-79751622D01*
X128402671Y-79858882D01*
X128163732Y-79931220D01*
X127911540Y-79968637D01*
X127761479Y-79974338D01*
X127526844Y-79959848D01*
X127309288Y-79916378D01*
X127077059Y-79829036D01*
X126868075Y-79702248D01*
X126707449Y-79562178D01*
X126549849Y-79369867D01*
X126430958Y-79153574D01*
X126350776Y-78913297D01*
X126312858Y-78688258D01*
X126302983Y-78487266D01*
X126318519Y-78221026D01*
X126365129Y-77964982D01*
X126442811Y-77719135D01*
X126551567Y-77483485D01*
X126691395Y-77258031D01*
X126862297Y-77042774D01*
X126939358Y-76959527D01*
X127121464Y-76792190D01*
X127298275Y-76659745D01*
X127491390Y-76540343D01*
X127700809Y-76433984D01*
X127795551Y-76392395D01*
X128019373Y-76308028D01*
X128241722Y-76244382D01*
X128462599Y-76201459D01*
X128682004Y-76179257D01*
X128806716Y-76175874D01*
X129034229Y-76203626D01*
X129211182Y-76286882D01*
X129344935Y-76462852D01*
X129362857Y-76580340D01*
X129300175Y-76792860D01*
X129202390Y-76893581D01*
X128992892Y-76968010D01*
X128844085Y-76988103D01*
X128621661Y-77015641D01*
X128383361Y-77063200D01*
X128167886Y-77127379D01*
X127949578Y-77221076D01*
X127851605Y-77276065D01*
X127668966Y-77407763D01*
X127511229Y-77562431D01*
X127378394Y-77740067D01*
X127354815Y-77778351D01*
X127250314Y-77994684D01*
X127189191Y-78217511D01*
X127171266Y-78425717D01*
X127192436Y-78655380D01*
X127263816Y-78864448D01*
X127350418Y-78992848D01*
X127532632Y-79134850D01*
X127747415Y-79195505D01*
X127841713Y-79200577D01*
X128066297Y-79169450D01*
X128271561Y-79076070D01*
X128457505Y-78920437D01*
X128492376Y-78881840D01*
X128634227Y-78691903D01*
X128763870Y-78475557D01*
X128879094Y-78252862D01*
X128978007Y-78041013D01*
X129079550Y-77805282D01*
X129100174Y-77755270D01*
X130327861Y-74744855D01*
X130439101Y-74535040D01*
X130601492Y-74385838D01*
X130760903Y-74346983D01*
X130978936Y-74406952D01*
X131033478Y-74453595D01*
X131149141Y-74647740D01*
X131208234Y-74823989D01*
X131397278Y-75499931D01*
X132324912Y-74632747D01*
X132512016Y-74482051D01*
X132708904Y-74380750D01*
X132896441Y-74346983D01*
X133115146Y-74395737D01*
X133209682Y-74460190D01*
X133328104Y-74646327D01*
X133338276Y-74732765D01*
X133288817Y-74954781D01*
X133217376Y-75127339D01*
X132105094Y-77864080D01*
G37*
G36*
X134944454Y-76196267D02*
G01*
X135169843Y-76265808D01*
X135357309Y-76384701D01*
X135507336Y-76559199D01*
X135588119Y-76771101D01*
X135603506Y-76933148D01*
X135570340Y-77168659D01*
X135457244Y-77379869D01*
X135284781Y-77528375D01*
X135263887Y-77540947D01*
X135046086Y-77621415D01*
X134813422Y-77650317D01*
X134701151Y-77653054D01*
X134082362Y-77653054D01*
X134218890Y-77834405D01*
X134431873Y-77864080D01*
X135350715Y-77864080D01*
X135572231Y-77897977D01*
X135730295Y-78068302D01*
X135739794Y-78150943D01*
X135680626Y-78371768D01*
X135602407Y-78457590D01*
X135400513Y-78549360D01*
X135217725Y-78567500D01*
X134342847Y-78567500D01*
X134112930Y-78552524D01*
X133889253Y-78499877D01*
X133684161Y-78396923D01*
X133598761Y-78327897D01*
X133453586Y-78137066D01*
X133373902Y-77918278D01*
X133344767Y-77684477D01*
X133343771Y-77627775D01*
X133363073Y-77376379D01*
X133420978Y-77140551D01*
X133442988Y-77090319D01*
X134230739Y-77090319D01*
X134571458Y-77090319D01*
X134795716Y-77065074D01*
X134892393Y-76958428D01*
X134727220Y-76811287D01*
X134679169Y-76808951D01*
X134453228Y-76862807D01*
X134284868Y-77009261D01*
X134230739Y-77090319D01*
X133442988Y-77090319D01*
X133517487Y-76920290D01*
X133652599Y-76715597D01*
X133747138Y-76605619D01*
X133930922Y-76438169D01*
X134129327Y-76311848D01*
X134342352Y-76226654D01*
X134569998Y-76182588D01*
X134706647Y-76175874D01*
X134944454Y-76196267D01*
G37*
G36*
X136615771Y-76879293D02*
G01*
X136510258Y-77119994D01*
X136391710Y-77316234D01*
X136195660Y-77436997D01*
X136139864Y-77442028D01*
X135924778Y-77374328D01*
X135906856Y-77359596D01*
X135814532Y-77154066D01*
X135874424Y-76936201D01*
X135882676Y-76915563D01*
X136232187Y-76062667D01*
X136352298Y-75862702D01*
X136547936Y-75756536D01*
X136590492Y-75753822D01*
X136799972Y-75829767D01*
X136871859Y-75969244D01*
X136896039Y-76064865D01*
X136952093Y-76157189D01*
X137134543Y-76175874D01*
X137857746Y-76175874D01*
X138088648Y-76210809D01*
X138249053Y-76371053D01*
X138263311Y-76471530D01*
X138213186Y-76686561D01*
X138042261Y-76831110D01*
X137812189Y-76877700D01*
X137750035Y-76879293D01*
X137715963Y-76908968D01*
X137548999Y-77073085D01*
X137397869Y-77245997D01*
X137272646Y-77438946D01*
X137224668Y-77614586D01*
X137314390Y-77816325D01*
X137508234Y-77864080D01*
X137898412Y-77864080D01*
X138121806Y-77897587D01*
X138281209Y-78065955D01*
X138290788Y-78147646D01*
X138237122Y-78362484D01*
X138153402Y-78457590D01*
X137951508Y-78549360D01*
X137768719Y-78567500D01*
X137162020Y-78567500D01*
X136929585Y-78532309D01*
X136734155Y-78426738D01*
X136656437Y-78354275D01*
X136529769Y-78159989D01*
X136470160Y-77943296D01*
X136460799Y-77800333D01*
X136490267Y-77574001D01*
X136565212Y-77380479D01*
X136688251Y-77183931D01*
X136828018Y-77004705D01*
X136936706Y-76879293D01*
X136615771Y-76879293D01*
G37*
G36*
X139187648Y-76879293D02*
G01*
X139082135Y-77119994D01*
X138963588Y-77316234D01*
X138767537Y-77436997D01*
X138711741Y-77442028D01*
X138496656Y-77374328D01*
X138478733Y-77359596D01*
X138386409Y-77154066D01*
X138446301Y-76936201D01*
X138454553Y-76915563D01*
X138804065Y-76062667D01*
X138924175Y-75862702D01*
X139119813Y-75756536D01*
X139162369Y-75753822D01*
X139371849Y-75829767D01*
X139443737Y-75969244D01*
X139467917Y-76064865D01*
X139523970Y-76157189D01*
X139706420Y-76175874D01*
X140429623Y-76175874D01*
X140660526Y-76210809D01*
X140820930Y-76371053D01*
X140835188Y-76471530D01*
X140785063Y-76686561D01*
X140614138Y-76831110D01*
X140384066Y-76877700D01*
X140321912Y-76879293D01*
X140287840Y-76908968D01*
X140120876Y-77073085D01*
X139969746Y-77245997D01*
X139844523Y-77438946D01*
X139796545Y-77614586D01*
X139886267Y-77816325D01*
X140080111Y-77864080D01*
X140470289Y-77864080D01*
X140693683Y-77897587D01*
X140853086Y-78065955D01*
X140862665Y-78147646D01*
X140808999Y-78362484D01*
X140725279Y-78457590D01*
X140523385Y-78549360D01*
X140340596Y-78567500D01*
X139733897Y-78567500D01*
X139501463Y-78532309D01*
X139306032Y-78426738D01*
X139228314Y-78354275D01*
X139101646Y-78159989D01*
X139042037Y-77943296D01*
X139032676Y-77800333D01*
X139062144Y-77574001D01*
X139137090Y-77380479D01*
X139260128Y-77183931D01*
X139399895Y-77004705D01*
X139508583Y-76879293D01*
X139187648Y-76879293D01*
G37*
G36*
X143496177Y-76247185D02*
G01*
X143513677Y-76262702D01*
X143604813Y-76470128D01*
X143604902Y-76478124D01*
X143558740Y-76682555D01*
X143521371Y-76764987D01*
X142750907Y-78637841D01*
X143110310Y-78637841D01*
X143333704Y-78671738D01*
X143493107Y-78842063D01*
X143502686Y-78924705D01*
X143443045Y-79145529D01*
X143364201Y-79231352D01*
X143162307Y-79323122D01*
X142979518Y-79341261D01*
X142479431Y-79341261D01*
X142391589Y-79565012D01*
X142299134Y-79764675D01*
X142197828Y-79965070D01*
X142155199Y-80045779D01*
X142018386Y-80268372D01*
X141863488Y-80453238D01*
X141690504Y-80600376D01*
X141499435Y-80709786D01*
X141290280Y-80781468D01*
X141063039Y-80815423D01*
X140967079Y-80818442D01*
X140740254Y-80799620D01*
X140507738Y-80733449D01*
X140299217Y-80619635D01*
X140173534Y-80517290D01*
X140017863Y-80337035D01*
X139913139Y-80133827D01*
X139859362Y-79907667D01*
X139851627Y-79774303D01*
X140596685Y-79774303D01*
X140661261Y-79984441D01*
X140694504Y-80021599D01*
X140895934Y-80111738D01*
X140954989Y-80115022D01*
X141180974Y-80066632D01*
X141356158Y-79943564D01*
X141503952Y-79761445D01*
X141625539Y-79563093D01*
X141727754Y-79367935D01*
X141740841Y-79341261D01*
X141307798Y-79341261D01*
X141066131Y-79356485D01*
X140847380Y-79412730D01*
X140666130Y-79545941D01*
X140596685Y-79774303D01*
X139851627Y-79774303D01*
X139851500Y-79772105D01*
X139876075Y-79545520D01*
X139949800Y-79330682D01*
X140026256Y-79193982D01*
X140172779Y-79011705D01*
X140350213Y-78867140D01*
X140485677Y-78791714D01*
X140694603Y-78717332D01*
X140921772Y-78671651D01*
X141152551Y-78647459D01*
X141374139Y-78638443D01*
X141452878Y-78637841D01*
X141957362Y-78637841D01*
X142046388Y-78470779D01*
X141827119Y-78543319D01*
X141626535Y-78567500D01*
X141396034Y-78543543D01*
X141186093Y-78463520D01*
X141090178Y-78397140D01*
X140942653Y-78214969D01*
X140885450Y-77987878D01*
X140884647Y-77954206D01*
X140922181Y-77731888D01*
X140993871Y-77518184D01*
X141017637Y-77457416D01*
X141353960Y-76616610D01*
X141388032Y-76528682D01*
X141509392Y-76327816D01*
X141702716Y-76197924D01*
X141848552Y-76175874D01*
X142058563Y-76248990D01*
X142076064Y-76264900D01*
X142166932Y-76472268D01*
X142167289Y-76489115D01*
X142114322Y-76712815D01*
X142087055Y-76785870D01*
X141783705Y-77542046D01*
X141713659Y-77754695D01*
X141710066Y-77779450D01*
X141876991Y-77933817D01*
X141901308Y-77934422D01*
X142118722Y-77886818D01*
X142192568Y-77849792D01*
X142357995Y-77702423D01*
X142380513Y-77656352D01*
X142794871Y-76622105D01*
X142825645Y-76533079D01*
X142945518Y-76329709D01*
X143139093Y-76198199D01*
X143286165Y-76175874D01*
X143496177Y-76247185D01*
G37*
G36*
X148835485Y-76497908D02*
G01*
X149225663Y-78504851D01*
X149317986Y-78666418D01*
X149538492Y-78708020D01*
X149559787Y-78708183D01*
X150733618Y-78708183D01*
X150960241Y-78735231D01*
X151142799Y-78877233D01*
X151163363Y-78985155D01*
X151104545Y-79202741D01*
X151012787Y-79299495D01*
X150806025Y-79390145D01*
X150591835Y-79411603D01*
X149420202Y-79411603D01*
X149253140Y-79411603D01*
X149021033Y-79394849D01*
X148797376Y-79325065D01*
X148715684Y-79269820D01*
X148581715Y-79084010D01*
X148502710Y-78859202D01*
X148477180Y-78745553D01*
X148202407Y-77291453D01*
X147296755Y-78437807D01*
X147228611Y-78524635D01*
X147070960Y-78679349D01*
X146861724Y-78772327D01*
X146788974Y-78778525D01*
X146573032Y-78710321D01*
X146532885Y-78675211D01*
X146434263Y-78470320D01*
X146430670Y-78412527D01*
X146499178Y-78189266D01*
X146620971Y-78002557D01*
X146647191Y-77968494D01*
X147989183Y-76273693D01*
X147868283Y-75634021D01*
X147803849Y-75409462D01*
X147676551Y-75218989D01*
X147476523Y-75125256D01*
X147411060Y-75120744D01*
X147185072Y-75164279D01*
X146990636Y-75281744D01*
X146883496Y-75384527D01*
X146747082Y-75571981D01*
X146662846Y-75790400D01*
X146643894Y-75963749D01*
X146692116Y-76182709D01*
X146870272Y-76337363D01*
X146986811Y-76370413D01*
X147198315Y-76440190D01*
X147345244Y-76616550D01*
X147358304Y-76713330D01*
X147297339Y-76927911D01*
X147202233Y-77033166D01*
X147001614Y-77136257D01*
X146810956Y-77160661D01*
X146583627Y-77135535D01*
X146356123Y-77048681D01*
X146173946Y-76917469D01*
X146099843Y-76843023D01*
X145961173Y-76652083D01*
X145867887Y-76437844D01*
X145819983Y-76200305D01*
X145812979Y-76058271D01*
X145831063Y-75808231D01*
X145885313Y-75570016D01*
X145975731Y-75343624D01*
X146102316Y-75129056D01*
X146265067Y-74926312D01*
X146327355Y-74861359D01*
X146492439Y-74713174D01*
X146701095Y-74568506D01*
X146921265Y-74460005D01*
X147152951Y-74387671D01*
X147396151Y-74351504D01*
X147522069Y-74346983D01*
X147763526Y-74369738D01*
X147980940Y-74438002D01*
X148174312Y-74551775D01*
X148210101Y-74579991D01*
X148367859Y-74742214D01*
X148488051Y-74938999D01*
X148564104Y-75145655D01*
X148582693Y-75220762D01*
X148647540Y-75518616D01*
X149333374Y-74677810D01*
X149450977Y-74533829D01*
X149615841Y-74382154D01*
X149834194Y-74347292D01*
X149865335Y-74346983D01*
X150517097Y-74346983D01*
X150742561Y-74374246D01*
X150924185Y-74517375D01*
X150944644Y-74626153D01*
X150886684Y-74844254D01*
X150796266Y-74940493D01*
X150590045Y-75029365D01*
X150375314Y-75050403D01*
X149964253Y-75050403D01*
X148835485Y-76497908D01*
G37*
G36*
X153831961Y-77864080D02*
G01*
X154200157Y-77864080D01*
X154421673Y-77897977D01*
X154579737Y-78068302D01*
X154589235Y-78150943D01*
X154529595Y-78371768D01*
X154450750Y-78457590D01*
X154250018Y-78549360D01*
X154069365Y-78567500D01*
X153441783Y-78567500D01*
X153216726Y-78526713D01*
X153110956Y-78463086D01*
X152992460Y-78268340D01*
X152984560Y-78187213D01*
X153031546Y-77964853D01*
X153068091Y-77869576D01*
X153358252Y-77184841D01*
X153383531Y-77073832D01*
X153258756Y-76888602D01*
X153179099Y-76879293D01*
X152964029Y-76942671D01*
X152866957Y-77013382D01*
X152720528Y-77180668D01*
X152619661Y-77369488D01*
X152273447Y-78176222D01*
X152152418Y-78382560D01*
X151966946Y-78529289D01*
X151778855Y-78567500D01*
X151568002Y-78493233D01*
X151562334Y-78488365D01*
X151473307Y-78301519D01*
X151519469Y-78102583D01*
X151553541Y-78024548D01*
X151903053Y-77209021D01*
X151949215Y-77039760D01*
X151886566Y-76927653D01*
X151742585Y-76879293D01*
X151529369Y-76933190D01*
X151349140Y-77094883D01*
X151226216Y-77307354D01*
X151213921Y-77335416D01*
X150851221Y-78172925D01*
X150730514Y-78381001D01*
X150546278Y-78528967D01*
X150359926Y-78567500D01*
X150148042Y-78491171D01*
X150142306Y-78486167D01*
X150051081Y-78288330D01*
X150097243Y-78079502D01*
X150131315Y-77995971D01*
X150746807Y-76492412D01*
X150862315Y-76299521D01*
X151057994Y-76183602D01*
X151135886Y-76175874D01*
X151354056Y-76239346D01*
X151470010Y-76429764D01*
X151660153Y-76301994D01*
X151810729Y-76226432D01*
X152031551Y-76179873D01*
X152134961Y-76175874D01*
X152373649Y-76206893D01*
X152589345Y-76312669D01*
X152742831Y-76473969D01*
X152755949Y-76493511D01*
X152934483Y-76354545D01*
X153148307Y-76245667D01*
X153375867Y-76187040D01*
X153535205Y-76175874D01*
X153760175Y-76203445D01*
X153966341Y-76294807D01*
X154030896Y-76342936D01*
X154174476Y-76516461D01*
X154230736Y-76738822D01*
X154230931Y-76753996D01*
X154195728Y-76978719D01*
X154162787Y-77069436D01*
X153831961Y-77864080D01*
G37*
G36*
X157211756Y-76247185D02*
G01*
X157229256Y-76262702D01*
X157320392Y-76466967D01*
X157320481Y-76474827D01*
X157271022Y-76682555D01*
X157236950Y-76764987D01*
X156791817Y-77864080D01*
X157132536Y-77864080D01*
X157354053Y-77897587D01*
X157512116Y-78065955D01*
X157521615Y-78147646D01*
X157461501Y-78369417D01*
X157382030Y-78456491D01*
X157180381Y-78549179D01*
X156999546Y-78567500D01*
X156603873Y-78567500D01*
X156380482Y-78512270D01*
X156242271Y-78346582D01*
X156056385Y-78489617D01*
X155848212Y-78564048D01*
X155793841Y-78567500D01*
X155441032Y-78567500D01*
X155222999Y-78539057D01*
X155020397Y-78443153D01*
X154892585Y-78326798D01*
X154765331Y-78124737D01*
X154700276Y-77903126D01*
X154683757Y-77695919D01*
X154695437Y-77545343D01*
X155413555Y-77545343D01*
X155462572Y-77763230D01*
X155669644Y-77864080D01*
X155747679Y-77864080D01*
X155969358Y-77805764D01*
X156085101Y-77657451D01*
X156301622Y-77122192D01*
X156344487Y-76945239D01*
X156262055Y-76801257D01*
X156066416Y-76738609D01*
X155843300Y-76804280D01*
X155666875Y-76954348D01*
X155626779Y-77001292D01*
X155496846Y-77200932D01*
X155423758Y-77423139D01*
X155413555Y-77545343D01*
X154695437Y-77545343D01*
X154703322Y-77443696D01*
X154762016Y-77203465D01*
X154859840Y-76975225D01*
X154996793Y-76758977D01*
X155092620Y-76640790D01*
X155250104Y-76482791D01*
X155443309Y-76339775D01*
X155646717Y-76241252D01*
X155860329Y-76187224D01*
X156019155Y-76175874D01*
X156245628Y-76198521D01*
X156462425Y-76285487D01*
X156597278Y-76407782D01*
X156750971Y-76249251D01*
X156970927Y-76176779D01*
X157001744Y-76175874D01*
X157211756Y-76247185D01*
G37*
G36*
X158651483Y-77018878D02*
G01*
X158593231Y-77152967D01*
X158463632Y-77340123D01*
X158252332Y-77439488D01*
X158206350Y-77442028D01*
X157998019Y-77370717D01*
X157978838Y-77355200D01*
X157878820Y-77155165D01*
X157938317Y-76936210D01*
X157968946Y-76872698D01*
X158380007Y-76049478D01*
X158514866Y-75858052D01*
X158715210Y-75756420D01*
X158756995Y-75753822D01*
X158963625Y-75834056D01*
X159050453Y-76022001D01*
X159031769Y-76144000D01*
X159019679Y-76265999D01*
X159065583Y-76490111D01*
X159164759Y-76668267D01*
X159340614Y-76915563D01*
X159458423Y-77103027D01*
X159550724Y-77310147D01*
X159603317Y-77535590D01*
X159609891Y-77646460D01*
X159581448Y-77879716D01*
X159496118Y-78087642D01*
X159353902Y-78270238D01*
X159318632Y-78303717D01*
X159123328Y-78442821D01*
X158900118Y-78530405D01*
X158675368Y-78565181D01*
X158595429Y-78567500D01*
X157950261Y-78567500D01*
X157726242Y-78533992D01*
X157566392Y-78365625D01*
X157556786Y-78283934D01*
X157616427Y-78062636D01*
X157695272Y-77976188D01*
X157898226Y-77882582D01*
X158079954Y-77864080D01*
X158438259Y-77864080D01*
X158664882Y-77833705D01*
X158841145Y-77689118D01*
X158868004Y-77553037D01*
X158810884Y-77331195D01*
X158787770Y-77283759D01*
X158651483Y-77018878D01*
G37*
G36*
X160506751Y-77793738D02*
G01*
X160725174Y-77852441D01*
X160809002Y-77917936D01*
X160924046Y-78111565D01*
X160936496Y-78214691D01*
X160876235Y-78431083D01*
X160809002Y-78513644D01*
X160611830Y-78625713D01*
X160506751Y-78637841D01*
X160284833Y-78579139D01*
X160200104Y-78513644D01*
X160086052Y-78318976D01*
X160073709Y-78214691D01*
X160133450Y-78000282D01*
X160200104Y-77917936D01*
X160399826Y-77805867D01*
X160506751Y-77793738D01*
G37*
G36*
X161894905Y-75318581D02*
G01*
X161216765Y-77121093D01*
X161126159Y-77323052D01*
X160987442Y-77506527D01*
X160802407Y-77582712D01*
X160596877Y-77499181D01*
X160512247Y-77293651D01*
X160546319Y-77096913D01*
X161131036Y-75017430D01*
X161221239Y-74812251D01*
X161400762Y-74659128D01*
X161566277Y-74628351D01*
X161783914Y-74685130D01*
X161854239Y-74738260D01*
X161964492Y-74929296D01*
X161971842Y-75005340D01*
X161928565Y-75221518D01*
X161894905Y-75318581D01*
G37*
G36*
X137678217Y-112174618D02*
G01*
X137700209Y-112192138D01*
X137767754Y-112324510D01*
X137768353Y-112340882D01*
X137734556Y-112487062D01*
X137708269Y-112554839D01*
X137358025Y-113397477D01*
X137517027Y-113397477D01*
X137572714Y-113397477D01*
X137720731Y-113429160D01*
X137799317Y-113555144D01*
X137801326Y-113589452D01*
X137757779Y-113735691D01*
X137700209Y-113793150D01*
X137562934Y-113852398D01*
X137422505Y-113866423D01*
X137158723Y-113866423D01*
X136929379Y-114476053D01*
X137286218Y-114476053D01*
X137339707Y-114476053D01*
X137489147Y-114507737D01*
X137568488Y-114633720D01*
X137570516Y-114668028D01*
X137526969Y-114814268D01*
X137469400Y-114871727D01*
X137331429Y-114930975D01*
X137189497Y-114945000D01*
X136766713Y-114945000D01*
X136617850Y-114929521D01*
X136480044Y-114873192D01*
X136449442Y-114851210D01*
X136357965Y-114732327D01*
X136332205Y-114595488D01*
X136354716Y-114448487D01*
X136379832Y-114376402D01*
X136412805Y-114294337D01*
X136583531Y-113866423D01*
X135926273Y-113866423D01*
X135524738Y-114857072D01*
X135443397Y-115040397D01*
X135354894Y-115205691D01*
X135259230Y-115352952D01*
X135156405Y-115482181D01*
X135046418Y-115593378D01*
X134929270Y-115686544D01*
X134761933Y-115782714D01*
X134581865Y-115846828D01*
X134389066Y-115878885D01*
X134287892Y-115882892D01*
X134129511Y-115873335D01*
X133981898Y-115844664D01*
X133823292Y-115787057D01*
X133679341Y-115703434D01*
X133567620Y-115611050D01*
X133457129Y-115485322D01*
X133373776Y-115345358D01*
X133317562Y-115191160D01*
X133288485Y-115022726D01*
X133284054Y-114920087D01*
X133287787Y-114862201D01*
X133857048Y-114862201D01*
X133875286Y-115015009D01*
X133936206Y-115157064D01*
X133986741Y-115223436D01*
X134103363Y-115316421D01*
X134254110Y-115363545D01*
X134314271Y-115367051D01*
X134473004Y-115341781D01*
X134621124Y-115265969D01*
X134736450Y-115164185D01*
X134844405Y-115027303D01*
X134925464Y-114892526D01*
X135001805Y-114735287D01*
X135038206Y-114648244D01*
X135351082Y-113866423D01*
X135239707Y-113866423D01*
X135091123Y-113870842D01*
X134916148Y-113888796D01*
X134753124Y-113920559D01*
X134602048Y-113966133D01*
X134462923Y-114025517D01*
X134335747Y-114098711D01*
X134265178Y-114149256D01*
X134144230Y-114255288D01*
X134042331Y-114371883D01*
X133966225Y-114487044D01*
X133899695Y-114629102D01*
X133862272Y-114781137D01*
X133857048Y-114862201D01*
X133287787Y-114862201D01*
X133294358Y-114760306D01*
X133325270Y-114604098D01*
X133376790Y-114451461D01*
X133448918Y-114302397D01*
X133527568Y-114177134D01*
X133619260Y-114059726D01*
X133723996Y-113950172D01*
X133841775Y-113848471D01*
X133914934Y-113793883D01*
X134046916Y-113709482D01*
X134189340Y-113634331D01*
X134342206Y-113568432D01*
X134484528Y-113518358D01*
X134505513Y-113511782D01*
X134652413Y-113470955D01*
X134798192Y-113440155D01*
X134963422Y-113417235D01*
X135127187Y-113407412D01*
X135167899Y-113407002D01*
X135460258Y-113399675D01*
X135551116Y-113397477D01*
X135952652Y-112431741D01*
X135975366Y-112373122D01*
X136051602Y-112245610D01*
X136173876Y-112154935D01*
X136301430Y-112131322D01*
X136443271Y-112170503D01*
X136469958Y-112190673D01*
X136537836Y-112324496D01*
X136538102Y-112335020D01*
X136502771Y-112484876D01*
X136480216Y-112542383D01*
X136126308Y-113397477D01*
X136783566Y-113397477D01*
X137181437Y-112439801D01*
X137205617Y-112378984D01*
X137283155Y-112248381D01*
X137406803Y-112155508D01*
X137535345Y-112131322D01*
X137678217Y-112174618D01*
G37*
G36*
X138971515Y-113365478D02*
G01*
X139114464Y-113410165D01*
X139253582Y-113494758D01*
X139303419Y-113538893D01*
X139396574Y-113652933D01*
X139464323Y-113798677D01*
X139493116Y-113946977D01*
X139496127Y-114018098D01*
X139484179Y-114168373D01*
X139448334Y-114317956D01*
X139395010Y-114453339D01*
X139318480Y-114591225D01*
X139227922Y-114708677D01*
X139133426Y-114797721D01*
X139003806Y-114878832D01*
X138912142Y-114913492D01*
X138764636Y-114938077D01*
X138616675Y-114944876D01*
X138591207Y-114945000D01*
X138437059Y-114940008D01*
X138282757Y-114919729D01*
X138138381Y-114865132D01*
X138017527Y-114759711D01*
X137931202Y-114631758D01*
X137879407Y-114481274D01*
X137862412Y-114331118D01*
X137862142Y-114308258D01*
X137866220Y-114258433D01*
X138358932Y-114258433D01*
X138403192Y-114399334D01*
X138535972Y-114468403D01*
X138627111Y-114476053D01*
X138772877Y-114451238D01*
X138868179Y-114388126D01*
X138958791Y-114263951D01*
X139004713Y-114114806D01*
X139008130Y-114057665D01*
X138966538Y-113916003D01*
X138939986Y-113885474D01*
X138802164Y-113821847D01*
X138762666Y-113819528D01*
X138616853Y-113853784D01*
X138492131Y-113948119D01*
X138484229Y-113956549D01*
X138398577Y-114081771D01*
X138360033Y-114227766D01*
X138358932Y-114258433D01*
X137866220Y-114258433D01*
X137875641Y-114143336D01*
X137916138Y-113988371D01*
X137983633Y-113843364D01*
X138078125Y-113708314D01*
X138144243Y-113635614D01*
X138272856Y-113524552D01*
X138411216Y-113440768D01*
X138559324Y-113384263D01*
X138717179Y-113355036D01*
X138811758Y-113350582D01*
X138971515Y-113365478D01*
G37*
G36*
X139795813Y-113866423D02*
G01*
X140133601Y-113866423D01*
X140173168Y-113866423D01*
X140319897Y-113913135D01*
X140368807Y-114053269D01*
X140319897Y-114194502D01*
X140173168Y-114241580D01*
X140133601Y-114241580D01*
X139795813Y-114241580D01*
X139756978Y-114241580D01*
X139615562Y-114190289D01*
X139561340Y-114053269D01*
X139614829Y-113918447D01*
X139756978Y-113866423D01*
X139795813Y-113866423D01*
G37*
G36*
X144554141Y-112174618D02*
G01*
X144576134Y-112192138D01*
X144643679Y-112324510D01*
X144644278Y-112340882D01*
X144610481Y-112487062D01*
X144584194Y-112554839D01*
X144233950Y-113397477D01*
X144392952Y-113397477D01*
X144448639Y-113397477D01*
X144596656Y-113429160D01*
X144675241Y-113555144D01*
X144677250Y-113589452D01*
X144633703Y-113735691D01*
X144576134Y-113793150D01*
X144438859Y-113852398D01*
X144298430Y-113866423D01*
X144034647Y-113866423D01*
X143805303Y-114476053D01*
X144162142Y-114476053D01*
X144215631Y-114476053D01*
X144365072Y-114507737D01*
X144444412Y-114633720D01*
X144446441Y-114668028D01*
X144402894Y-114814268D01*
X144345324Y-114871727D01*
X144207354Y-114930975D01*
X144065422Y-114945000D01*
X143642638Y-114945000D01*
X143493774Y-114929521D01*
X143355969Y-114873192D01*
X143325366Y-114851210D01*
X143233890Y-114732327D01*
X143208130Y-114595488D01*
X143230641Y-114448487D01*
X143255757Y-114376402D01*
X143288730Y-114294337D01*
X143459456Y-113866423D01*
X142802198Y-113866423D01*
X142400663Y-114857072D01*
X142319321Y-115040397D01*
X142230819Y-115205691D01*
X142135155Y-115352952D01*
X142032329Y-115482181D01*
X141922343Y-115593378D01*
X141805195Y-115686544D01*
X141637858Y-115782714D01*
X141457790Y-115846828D01*
X141264991Y-115878885D01*
X141163817Y-115882892D01*
X141005436Y-115873335D01*
X140857823Y-115844664D01*
X140699216Y-115787057D01*
X140555266Y-115703434D01*
X140443545Y-115611050D01*
X140333054Y-115485322D01*
X140249701Y-115345358D01*
X140193486Y-115191160D01*
X140164410Y-115022726D01*
X140159979Y-114920087D01*
X140163712Y-114862201D01*
X140732973Y-114862201D01*
X140751211Y-115015009D01*
X140812131Y-115157064D01*
X140862666Y-115223436D01*
X140979288Y-115316421D01*
X141130035Y-115363545D01*
X141190195Y-115367051D01*
X141348928Y-115341781D01*
X141497048Y-115265969D01*
X141612374Y-115164185D01*
X141720330Y-115027303D01*
X141801388Y-114892526D01*
X141877729Y-114735287D01*
X141914131Y-114648244D01*
X142227006Y-113866423D01*
X142115631Y-113866423D01*
X141967048Y-113870842D01*
X141792073Y-113888796D01*
X141629048Y-113920559D01*
X141477973Y-113966133D01*
X141338848Y-114025517D01*
X141211672Y-114098711D01*
X141141102Y-114149256D01*
X141020155Y-114255288D01*
X140918256Y-114371883D01*
X140842149Y-114487044D01*
X140775620Y-114629102D01*
X140738197Y-114781137D01*
X140732973Y-114862201D01*
X140163712Y-114862201D01*
X140170283Y-114760306D01*
X140201195Y-114604098D01*
X140252715Y-114451461D01*
X140324843Y-114302397D01*
X140403492Y-114177134D01*
X140495185Y-114059726D01*
X140599921Y-113950172D01*
X140717700Y-113848471D01*
X140790858Y-113793883D01*
X140922841Y-113709482D01*
X141065265Y-113634331D01*
X141218131Y-113568432D01*
X141360453Y-113518358D01*
X141381437Y-113511782D01*
X141528338Y-113470955D01*
X141674117Y-113440155D01*
X141839347Y-113417235D01*
X142003112Y-113407412D01*
X142043824Y-113407002D01*
X142336183Y-113399675D01*
X142427041Y-113397477D01*
X142828576Y-112431741D01*
X142851291Y-112373122D01*
X142927526Y-112245610D01*
X143049800Y-112154935D01*
X143177355Y-112131322D01*
X143319195Y-112170503D01*
X143345883Y-112190673D01*
X143413760Y-112324496D01*
X143414026Y-112335020D01*
X143378696Y-112484876D01*
X143356141Y-112542383D01*
X143002233Y-113397477D01*
X143659490Y-113397477D01*
X144057362Y-112439801D01*
X144081542Y-112378984D01*
X144159080Y-112248381D01*
X144282728Y-112155508D01*
X144411270Y-112131322D01*
X144554141Y-112174618D01*
G37*
G36*
X145847440Y-113365478D02*
G01*
X145990389Y-113410165D01*
X146129507Y-113494758D01*
X146179344Y-113538893D01*
X146272498Y-113652933D01*
X146340247Y-113798677D01*
X146369040Y-113946977D01*
X146372052Y-114018098D01*
X146360103Y-114168373D01*
X146324258Y-114317956D01*
X146270935Y-114453339D01*
X146194404Y-114591225D01*
X146103847Y-114708677D01*
X146009351Y-114797721D01*
X145879731Y-114878832D01*
X145788067Y-114913492D01*
X145640561Y-114938077D01*
X145492600Y-114944876D01*
X145467132Y-114945000D01*
X145312984Y-114940008D01*
X145158682Y-114919729D01*
X145014306Y-114865132D01*
X144893451Y-114759711D01*
X144807127Y-114631758D01*
X144755332Y-114481274D01*
X144738337Y-114331118D01*
X144738067Y-114308258D01*
X144742145Y-114258433D01*
X145234857Y-114258433D01*
X145279117Y-114399334D01*
X145411897Y-114468403D01*
X145503035Y-114476053D01*
X145648802Y-114451238D01*
X145744103Y-114388126D01*
X145834716Y-114263951D01*
X145880638Y-114114806D01*
X145884054Y-114057665D01*
X145842463Y-113916003D01*
X145815911Y-113885474D01*
X145678089Y-113821847D01*
X145638590Y-113819528D01*
X145492777Y-113853784D01*
X145368056Y-113948119D01*
X145360153Y-113956549D01*
X145274501Y-114081771D01*
X145235958Y-114227766D01*
X145234857Y-114258433D01*
X144742145Y-114258433D01*
X144751566Y-114143336D01*
X144792063Y-113988371D01*
X144859557Y-113843364D01*
X144954050Y-113708314D01*
X145020167Y-113635614D01*
X145148781Y-113524552D01*
X145287141Y-113440768D01*
X145435249Y-113384263D01*
X145593104Y-113355036D01*
X145687683Y-113350582D01*
X145847440Y-113365478D01*
G37*
G36*
X146671738Y-113866423D02*
G01*
X147009525Y-113866423D01*
X147049093Y-113866423D01*
X147195822Y-113913135D01*
X147244731Y-114053269D01*
X147195822Y-114194502D01*
X147049093Y-114241580D01*
X147009525Y-114241580D01*
X146671738Y-114241580D01*
X146632903Y-114241580D01*
X146491486Y-114190289D01*
X146437264Y-114053269D01*
X146490754Y-113918447D01*
X146632903Y-113866423D01*
X146671738Y-113866423D01*
G37*
G36*
X151430066Y-112174618D02*
G01*
X151452059Y-112192138D01*
X151519603Y-112324510D01*
X151520202Y-112340882D01*
X151486405Y-112487062D01*
X151460119Y-112554839D01*
X151109874Y-113397477D01*
X151268876Y-113397477D01*
X151324564Y-113397477D01*
X151472581Y-113429160D01*
X151551166Y-113555144D01*
X151553175Y-113589452D01*
X151509628Y-113735691D01*
X151452059Y-113793150D01*
X151314784Y-113852398D01*
X151174354Y-113866423D01*
X150910572Y-113866423D01*
X150681228Y-114476053D01*
X151038067Y-114476053D01*
X151091556Y-114476053D01*
X151240996Y-114507737D01*
X151320337Y-114633720D01*
X151322366Y-114668028D01*
X151278818Y-114814268D01*
X151221249Y-114871727D01*
X151083279Y-114930975D01*
X150941347Y-114945000D01*
X150518562Y-114945000D01*
X150369699Y-114929521D01*
X150231894Y-114873192D01*
X150201291Y-114851210D01*
X150109814Y-114732327D01*
X150084054Y-114595488D01*
X150106566Y-114448487D01*
X150131682Y-114376402D01*
X150164654Y-114294337D01*
X150335380Y-113866423D01*
X149678123Y-113866423D01*
X149276587Y-114857072D01*
X149195246Y-115040397D01*
X149106743Y-115205691D01*
X149011079Y-115352952D01*
X148908254Y-115482181D01*
X148798267Y-115593378D01*
X148681120Y-115686544D01*
X148513783Y-115782714D01*
X148333715Y-115846828D01*
X148140915Y-115878885D01*
X148039742Y-115882892D01*
X147881361Y-115873335D01*
X147733747Y-115844664D01*
X147575141Y-115787057D01*
X147431191Y-115703434D01*
X147319470Y-115611050D01*
X147208979Y-115485322D01*
X147125626Y-115345358D01*
X147069411Y-115191160D01*
X147040334Y-115022726D01*
X147035904Y-114920087D01*
X147039637Y-114862201D01*
X147608897Y-114862201D01*
X147627135Y-115015009D01*
X147688056Y-115157064D01*
X147738590Y-115223436D01*
X147855212Y-115316421D01*
X148005960Y-115363545D01*
X148066120Y-115367051D01*
X148224853Y-115341781D01*
X148372973Y-115265969D01*
X148488299Y-115164185D01*
X148596255Y-115027303D01*
X148677313Y-114892526D01*
X148753654Y-114735287D01*
X148790056Y-114648244D01*
X149102931Y-113866423D01*
X148991556Y-113866423D01*
X148842972Y-113870842D01*
X148667998Y-113888796D01*
X148504973Y-113920559D01*
X148353898Y-113966133D01*
X148214772Y-114025517D01*
X148087597Y-114098711D01*
X148017027Y-114149256D01*
X147896080Y-114255288D01*
X147794180Y-114371883D01*
X147718074Y-114487044D01*
X147651544Y-114629102D01*
X147614122Y-114781137D01*
X147608897Y-114862201D01*
X147039637Y-114862201D01*
X147046208Y-114760306D01*
X147077120Y-114604098D01*
X147128640Y-114451461D01*
X147200768Y-114302397D01*
X147279417Y-114177134D01*
X147371110Y-114059726D01*
X147475846Y-113950172D01*
X147593625Y-113848471D01*
X147666783Y-113793883D01*
X147798766Y-113709482D01*
X147941190Y-113634331D01*
X148094055Y-113568432D01*
X148236378Y-113518358D01*
X148257362Y-113511782D01*
X148404263Y-113470955D01*
X148550041Y-113440155D01*
X148715272Y-113417235D01*
X148879036Y-113407412D01*
X148919749Y-113407002D01*
X149212107Y-113399675D01*
X149302966Y-113397477D01*
X149704501Y-112431741D01*
X149727216Y-112373122D01*
X149803451Y-112245610D01*
X149925725Y-112154935D01*
X150053280Y-112131322D01*
X150195120Y-112170503D01*
X150221807Y-112190673D01*
X150289685Y-112324496D01*
X150289951Y-112335020D01*
X150254621Y-112484876D01*
X150232065Y-112542383D01*
X149878158Y-113397477D01*
X150535415Y-113397477D01*
X150933287Y-112439801D01*
X150957467Y-112378984D01*
X151035004Y-112248381D01*
X151158652Y-112155508D01*
X151287195Y-112131322D01*
X151430066Y-112174618D01*
G37*
G36*
X152723365Y-113365478D02*
G01*
X152866313Y-113410165D01*
X153005432Y-113494758D01*
X153055269Y-113538893D01*
X153148423Y-113652933D01*
X153216172Y-113798677D01*
X153244965Y-113946977D01*
X153247976Y-114018098D01*
X153236028Y-114168373D01*
X153200183Y-114317956D01*
X153146860Y-114453339D01*
X153070329Y-114591225D01*
X152979772Y-114708677D01*
X152885276Y-114797721D01*
X152755656Y-114878832D01*
X152663992Y-114913492D01*
X152516486Y-114938077D01*
X152368524Y-114944876D01*
X152343056Y-114945000D01*
X152188909Y-114940008D01*
X152034606Y-114919729D01*
X151890230Y-114865132D01*
X151769376Y-114759711D01*
X151683051Y-114631758D01*
X151631256Y-114481274D01*
X151614261Y-114331118D01*
X151613992Y-114308258D01*
X151618070Y-114258433D01*
X152110781Y-114258433D01*
X152155041Y-114399334D01*
X152287821Y-114468403D01*
X152378960Y-114476053D01*
X152524727Y-114451238D01*
X152620028Y-114388126D01*
X152710641Y-114263951D01*
X152756562Y-114114806D01*
X152759979Y-114057665D01*
X152718387Y-113916003D01*
X152691835Y-113885474D01*
X152554014Y-113821847D01*
X152514515Y-113819528D01*
X152368702Y-113853784D01*
X152243981Y-113948119D01*
X152236078Y-113956549D01*
X152150426Y-114081771D01*
X152111883Y-114227766D01*
X152110781Y-114258433D01*
X151618070Y-114258433D01*
X151627490Y-114143336D01*
X151667987Y-113988371D01*
X151735482Y-113843364D01*
X151829975Y-113708314D01*
X151896092Y-113635614D01*
X152024705Y-113524552D01*
X152163066Y-113440768D01*
X152311173Y-113384263D01*
X152469028Y-113355036D01*
X152563608Y-113350582D01*
X152723365Y-113365478D01*
G37*
G36*
X153805583Y-114429159D02*
G01*
X153951198Y-114468294D01*
X154007083Y-114511957D01*
X154083779Y-114641043D01*
X154092079Y-114709794D01*
X154051905Y-114854055D01*
X154007083Y-114909096D01*
X153875635Y-114983808D01*
X153805583Y-114991894D01*
X153657637Y-114952759D01*
X153601151Y-114909096D01*
X153525116Y-114779317D01*
X153516888Y-114709794D01*
X153556715Y-114566854D01*
X153601151Y-114511957D01*
X153734299Y-114437244D01*
X153805583Y-114429159D01*
G37*
G36*
X154731019Y-112779054D02*
G01*
X154278925Y-113980729D01*
X154218521Y-114115368D01*
X154126043Y-114237685D01*
X154002687Y-114288475D01*
X153865666Y-114232787D01*
X153809246Y-114095767D01*
X153831961Y-113964609D01*
X154221772Y-112578286D01*
X154281908Y-112441501D01*
X154401590Y-112339418D01*
X154511933Y-112318900D01*
X154657025Y-112356753D01*
X154703908Y-112392173D01*
X154777410Y-112519531D01*
X154782310Y-112570226D01*
X154753459Y-112714345D01*
X154731019Y-112779054D01*
G37*
X142600000Y-123600001D02*
X142700000Y-123700000D01*
X142600000Y-123800000D02*
X142600000Y-123600001D01*
X142700000Y-123700000D02*
X142600000Y-123800000D01*
X142850000Y-121600000D02*
X142850000Y-123800000D01*
X142850000Y-123800000D02*
X144850000Y-123800000D01*
X144850000Y-121600000D02*
X142850000Y-121600000D01*
X144850000Y-123800000D02*
X144850000Y-121600000D01*
D14*
X143400000Y-123000000D02*
G75*
G02*
X143200000Y-123000000I-100000J0D01*
G01*
X143200000Y-123000000D02*
G75*
G02*
X143400000Y-123000000I100000J0D01*
G01*
D13*
X118889686Y-108667468D02*
X119062891Y-108567468D01*
X119014686Y-108883975D02*
X120014686Y-110616025D01*
X119026289Y-108704071D02*
X118889686Y-108667468D01*
X119062891Y-108567468D02*
X119026289Y-108704071D01*
X120014686Y-110616025D02*
X121919942Y-109516025D01*
X120919942Y-107783975D02*
X119014686Y-108883975D01*
X121919942Y-109516025D02*
X120919942Y-107783975D01*
D14*
X120032506Y-108873686D02*
G75*
G02*
X119832506Y-108873686I-100000J0D01*
G01*
X119832506Y-108873686D02*
G75*
G02*
X120032506Y-108873686I100000J0D01*
G01*
D13*
X165780058Y-81883975D02*
X166780058Y-83616025D01*
X166780058Y-83616025D02*
X168685314Y-82516025D01*
X167685314Y-80783975D02*
X165780058Y-81883975D01*
X168637109Y-82832532D02*
X168673711Y-82695929D01*
X168673711Y-82695929D02*
X168810314Y-82732532D01*
X168685314Y-82516025D02*
X167685314Y-80783975D01*
X168810314Y-82732532D02*
X168637109Y-82832532D01*
D14*
X167867494Y-82526314D02*
G75*
G02*
X167667494Y-82526314I-100000J0D01*
G01*
X167667494Y-82526314D02*
G75*
G02*
X167867494Y-82526314I100000J0D01*
G01*
D13*
X139395227Y-95487868D02*
X139536649Y-95346447D01*
X139536649Y-95346447D02*
X139536649Y-95487868D01*
X139536649Y-95487868D02*
X139395227Y-95487868D01*
X139996268Y-94957538D02*
X144592462Y-99553732D01*
X143107538Y-91846268D02*
X139996268Y-94957538D01*
X144592462Y-99553732D02*
X147703732Y-96442462D01*
X147703732Y-96442462D02*
X143107538Y-91846268D01*
D14*
X140626598Y-94922183D02*
G75*
G02*
X140426598Y-94922183I-100000J0D01*
G01*
X140426598Y-94922183D02*
G75*
G02*
X140626598Y-94922183I100000J0D01*
G01*
D13*
X145992633Y-98774004D02*
X147124004Y-97642633D01*
X147707367Y-98225996D02*
X146575996Y-99357367D01*
X119014686Y-82516025D02*
X120919942Y-83616025D01*
X120014686Y-80783975D02*
X119014686Y-82516025D01*
X120139686Y-80567468D02*
X120312891Y-80667468D01*
X120176289Y-80704071D02*
X120139686Y-80567468D01*
X120312891Y-80667468D02*
X120176289Y-80704071D01*
X120919942Y-83616025D02*
X121919942Y-81883975D01*
X121919942Y-81883975D02*
X120014686Y-80783975D01*
D14*
X120582506Y-81573686D02*
G75*
G02*
X120382506Y-81573686I-100000J0D01*
G01*
X120382506Y-81573686D02*
G75*
G02*
X120582506Y-81573686I100000J0D01*
G01*
D13*
X115750000Y-94450000D02*
X115950000Y-94450000D01*
X115750000Y-94700000D02*
X115750000Y-96700000D01*
X115750000Y-96700000D02*
X117950000Y-96700000D01*
X115850000Y-94550000D02*
X115750000Y-94450000D01*
X115950000Y-94450000D02*
X115850000Y-94550000D01*
X117950000Y-94700000D02*
X115750000Y-94700000D01*
X117950000Y-96700000D02*
X117950000Y-94700000D01*
D14*
X116650000Y-95150000D02*
G75*
G02*
X116450000Y-95150000I-100000J0D01*
G01*
X116450000Y-95150000D02*
G75*
G02*
X116650000Y-95150000I100000J0D01*
G01*
D13*
X165780058Y-109516025D02*
X167685314Y-110616025D01*
X166780058Y-107783975D02*
X165780058Y-109516025D01*
X167387109Y-110732532D02*
X167523711Y-110695929D01*
X167523711Y-110695929D02*
X167560314Y-110832532D01*
X167560314Y-110832532D02*
X167387109Y-110732532D01*
X167685314Y-110616025D02*
X168685314Y-108883975D01*
X168685314Y-108883975D02*
X166780058Y-107783975D01*
D14*
X167317494Y-109826314D02*
G75*
G02*
X167117494Y-109826314I-100000J0D01*
G01*
X167117494Y-109826314D02*
G75*
G02*
X167317494Y-109826314I100000J0D01*
G01*
D13*
X155933975Y-72769942D02*
X157666025Y-73769942D01*
X157033975Y-70864686D02*
X155933975Y-72769942D01*
X157666025Y-73769942D02*
X158766025Y-71864686D01*
X158766025Y-71864686D02*
X157033975Y-70864686D01*
X158845930Y-72026288D02*
X158982532Y-71989686D01*
X158882532Y-72162891D02*
X158845930Y-72026288D01*
X158982532Y-71989686D02*
X158882532Y-72162891D01*
D14*
X158076314Y-72332506D02*
G75*
G02*
X157876314Y-72332506I-100000J0D01*
G01*
X157876314Y-72332506D02*
G75*
G02*
X158076314Y-72332506I100000J0D01*
G01*
D13*
X139992633Y-93174004D02*
X141124004Y-92042633D01*
X141707367Y-92625996D02*
X140575996Y-93757367D01*
X128933975Y-71864686D02*
X130033975Y-73769942D01*
X130033975Y-73769942D02*
X131766025Y-72769942D01*
X130666025Y-70864686D02*
X128933975Y-71864686D01*
X130845929Y-70876289D02*
X130882532Y-70739686D01*
X130882532Y-70739686D02*
X130982532Y-70912891D01*
X130982532Y-70912891D02*
X130845929Y-70876289D01*
X131766025Y-72769942D02*
X130666025Y-70864686D01*
D14*
X130776314Y-71782506D02*
G75*
G02*
X130576314Y-71782506I-100000J0D01*
G01*
X130576314Y-71782506D02*
G75*
G02*
X130776314Y-71782506I100000J0D01*
G01*
D13*
X155933975Y-118630058D02*
X157033975Y-120535314D01*
X156717468Y-120487109D02*
X156854071Y-120523712D01*
X156817468Y-120660314D02*
X156717468Y-120487109D01*
X156854071Y-120523712D02*
X156817468Y-120660314D01*
X157033975Y-120535314D02*
X158766025Y-119535314D01*
X157666025Y-117630058D02*
X155933975Y-118630058D01*
X158766025Y-119535314D02*
X157666025Y-117630058D01*
D14*
X157123686Y-119617494D02*
G75*
G02*
X156923686Y-119617494I-100000J0D01*
G01*
X156923686Y-119617494D02*
G75*
G02*
X157123686Y-119617494I100000J0D01*
G01*
D13*
X128717468Y-119410314D02*
X128817468Y-119237109D01*
X128817468Y-119237109D02*
X128854071Y-119373711D01*
X128854071Y-119373711D02*
X128717468Y-119410314D01*
X128933975Y-119535314D02*
X130666025Y-120535314D01*
X130033975Y-117630058D02*
X128933975Y-119535314D01*
X130666025Y-120535314D02*
X131766025Y-118630058D01*
X131766025Y-118630058D02*
X130033975Y-117630058D01*
D14*
X129823686Y-119067494D02*
G75*
G02*
X129623686Y-119067494I-100000J0D01*
G01*
X129623686Y-119067494D02*
G75*
G02*
X129823686Y-119067494I100000J0D01*
G01*
D13*
X142850000Y-67600000D02*
X142850000Y-69800000D01*
X142850000Y-69800000D02*
X144850000Y-69800000D01*
X144850000Y-67600000D02*
X142850000Y-67600000D01*
X144850000Y-69800000D02*
X144850000Y-67600000D01*
X145000000Y-67700000D02*
X145100000Y-67600000D01*
X145100000Y-67600000D02*
X145100000Y-67800000D01*
X145100000Y-67800000D02*
X145000000Y-67700000D01*
D14*
X144500000Y-68400000D02*
G75*
G02*
X144300000Y-68400000I-100000J0D01*
G01*
X144300000Y-68400000D02*
G75*
G02*
X144500000Y-68400000I100000J0D01*
G01*
D13*
X169750000Y-94700000D02*
X169750000Y-96700000D01*
X169750000Y-96700000D02*
X171950000Y-96700000D01*
X171750001Y-96950000D02*
X171850000Y-96850000D01*
X171850000Y-96850000D02*
X171950000Y-96950000D01*
X171950000Y-94700000D02*
X169750000Y-94700000D01*
X171950000Y-96700000D02*
X171950000Y-94700000D01*
X171950000Y-96950000D02*
X171750001Y-96950000D01*
D14*
X171250000Y-96250000D02*
G75*
G02*
X171050000Y-96250000I-100000J0D01*
G01*
X171050000Y-96250000D02*
G75*
G02*
X171250000Y-96250000I100000J0D01*
G01*
%LPC*%
D15*
X143300000Y-123615000D03*
X144400000Y-123615000D03*
X144400000Y-121785000D03*
X143300000Y-121785000D03*
D16*
X119399901Y-109181186D03*
X119949901Y-110133814D03*
X121534727Y-109218814D03*
X120984727Y-108266186D03*
D17*
X168300099Y-82218814D03*
X167750099Y-81266186D03*
X166165273Y-82181186D03*
X166715273Y-83133814D03*
D18*
X139748781Y-95664645D03*
X140208400Y-96124264D03*
X140668019Y-96583883D03*
X141127639Y-97043503D03*
X141587258Y-97503122D03*
X142046878Y-97962742D03*
X142506497Y-98422361D03*
X142966117Y-98881981D03*
X143425736Y-99341600D03*
X143885355Y-99801219D03*
X147951219Y-95735355D03*
X147491600Y-95275736D03*
X147031981Y-94816117D03*
X146572361Y-94356497D03*
X146112742Y-93896878D03*
X145653122Y-93437258D03*
X145193503Y-92977639D03*
X144733883Y-92518019D03*
X144274264Y-92058400D03*
X143814645Y-91598781D03*
D19*
X146266637Y-99083363D03*
X147433363Y-97916637D03*
D20*
X119949901Y-81266186D03*
X119399901Y-82218814D03*
X120984727Y-83133814D03*
X121534727Y-82181186D03*
D15*
X115935000Y-95150000D03*
X115935000Y-96250000D03*
X117765000Y-96250000D03*
X117765000Y-95150000D03*
D21*
X167750099Y-110133814D03*
X168300099Y-109181186D03*
X166715273Y-108266186D03*
X166165273Y-109218814D03*
D22*
X158283814Y-71799901D03*
X157331186Y-71249901D03*
X156416186Y-72834727D03*
X157368814Y-73384727D03*
D23*
X141433363Y-92316637D03*
X140266637Y-93483363D03*
D24*
X130368814Y-71249901D03*
X129416186Y-71799901D03*
X130331186Y-73384727D03*
X131283814Y-72834727D03*
D25*
X157331186Y-120150099D03*
X158283814Y-119600099D03*
X157368814Y-118015273D03*
X156416186Y-118565273D03*
D26*
X129416186Y-119600099D03*
X130368814Y-120150099D03*
X131283814Y-118565273D03*
X130331186Y-118015273D03*
D15*
X144400000Y-67785000D03*
X143300000Y-67785000D03*
X143300000Y-69615000D03*
X144400000Y-69615000D03*
X171765000Y-96250000D03*
X171765000Y-95150000D03*
X169935000Y-95150000D03*
X169935000Y-96250000D03*
D27*
X146740000Y-118960000D03*
X140960000Y-118960000D03*
D28*
X148175000Y-122660000D03*
D29*
X148175000Y-118480000D03*
D28*
X139525000Y-122660000D03*
D29*
X139525000Y-118480000D03*
%LPD*%
M02*
