G04 #@! TF.GenerationSoftware,KiCad,Pcbnew,8.0.5*
G04 #@! TF.CreationDate,2024-12-10T21:34:54+01:00*
G04 #@! TF.ProjectId,xmasOrnament2024,786d6173-4f72-46e6-916d-656e74323032,rev?*
G04 #@! TF.SameCoordinates,Original*
G04 #@! TF.FileFunction,Copper,L2,Bot*
G04 #@! TF.FilePolarity,Positive*
%FSLAX46Y46*%
G04 Gerber Fmt 4.6, Leading zero omitted, Abs format (unit mm)*
G04 Created by KiCad (PCBNEW 8.0.5) date 2024-12-10 21:34:54*
%MOMM*%
%LPD*%
G01*
G04 APERTURE LIST*
G04 Aperture macros list*
%AMRotRect*
0 Rectangle, with rotation*
0 The origin of the aperture is its center*
0 $1 length*
0 $2 width*
0 $3 Rotation angle, in degrees counterclockwise*
0 Add horizontal line*
21,1,$1,$2,0,0,$3*%
G04 Aperture macros list end*
G04 #@! TA.AperFunction,SMDPad,CuDef*
%ADD10C,1.500000*%
G04 #@! TD*
G04 #@! TA.AperFunction,SMDPad,CuDef*
%ADD11RotRect,0.800000X0.950000X135.000000*%
G04 #@! TD*
G04 #@! TA.AperFunction,SMDPad,CuDef*
%ADD12R,0.800000X0.950000*%
G04 #@! TD*
G04 #@! TA.AperFunction,SMDPad,CuDef*
%ADD13R,0.900000X0.800000*%
G04 #@! TD*
G04 #@! TA.AperFunction,SMDPad,CuDef*
%ADD14RotRect,1.000000X3.500000X225.000000*%
G04 #@! TD*
G04 #@! TA.AperFunction,SMDPad,CuDef*
%ADD15RotRect,1.500000X3.400000X225.000000*%
G04 #@! TD*
G04 #@! TA.AperFunction,SMDPad,CuDef*
%ADD16R,0.950000X0.800000*%
G04 #@! TD*
G04 #@! TA.AperFunction,SMDPad,CuDef*
%ADD17RotRect,0.800000X0.950000X45.000000*%
G04 #@! TD*
G04 #@! TA.AperFunction,SMDPad,CuDef*
%ADD18R,1.125000X1.750000*%
G04 #@! TD*
G04 #@! TA.AperFunction,SMDPad,CuDef*
%ADD19RotRect,1.125000X1.750000X135.000000*%
G04 #@! TD*
G04 #@! TA.AperFunction,SMDPad,CuDef*
%ADD20R,0.590000X0.450000*%
G04 #@! TD*
G04 #@! TA.AperFunction,SMDPad,CuDef*
%ADD21R,0.300000X1.140000*%
G04 #@! TD*
G04 #@! TA.AperFunction,ComponentPad*
%ADD22O,1.200000X2.000000*%
G04 #@! TD*
G04 #@! TA.AperFunction,ComponentPad*
%ADD23O,1.200000X2.300000*%
G04 #@! TD*
G04 #@! TA.AperFunction,SMDPad,CuDef*
%ADD24R,1.400000X0.450000*%
G04 #@! TD*
G04 #@! TA.AperFunction,SMDPad,CuDef*
%ADD25R,1.880000X2.000000*%
G04 #@! TD*
G04 #@! TA.AperFunction,SMDPad,CuDef*
%ADD26R,0.700000X1.100000*%
G04 #@! TD*
G04 #@! TA.AperFunction,SMDPad,CuDef*
%ADD27R,0.250000X0.700000*%
G04 #@! TD*
G04 #@! TA.AperFunction,SMDPad,CuDef*
%ADD28R,0.300000X0.450000*%
G04 #@! TD*
G04 #@! TA.AperFunction,SMDPad,CuDef*
%ADD29R,1.600000X1.000000*%
G04 #@! TD*
G04 #@! TA.AperFunction,SMDPad,CuDef*
%ADD30RotRect,0.800000X0.950000X225.000000*%
G04 #@! TD*
G04 #@! TA.AperFunction,SMDPad,CuDef*
%ADD31R,1.800000X1.800000*%
G04 #@! TD*
G04 #@! TA.AperFunction,ViaPad*
%ADD32C,0.600000*%
G04 #@! TD*
G04 #@! TA.AperFunction,Conductor*
%ADD33C,0.200000*%
G04 #@! TD*
G04 #@! TA.AperFunction,Conductor*
%ADD34C,0.300000*%
G04 #@! TD*
G04 #@! TA.AperFunction,Conductor*
%ADD35C,0.256000*%
G04 #@! TD*
G04 APERTURE END LIST*
D10*
X133190000Y-82100000D03*
X125550000Y-82100000D03*
D11*
X122183363Y-81033363D03*
X121016637Y-79866637D03*
D12*
X149450000Y-113650000D03*
X147800000Y-113650000D03*
X137725000Y-114000000D03*
X139375000Y-114000000D03*
D13*
X129050000Y-111750001D03*
X126850001Y-112700000D03*
X129050000Y-113649999D03*
D10*
X130650000Y-82100000D03*
D14*
X160674406Y-111838620D03*
X162088620Y-110424406D03*
D15*
X159684457Y-104696841D03*
X154946841Y-109434457D03*
D16*
X130550000Y-113525000D03*
X130550000Y-111875000D03*
D12*
X141525000Y-110100000D03*
X143175000Y-110100000D03*
D17*
X121016637Y-111533363D03*
X122183363Y-110366637D03*
D18*
X134412500Y-103700000D03*
X131487500Y-103700000D03*
D10*
X135750000Y-82000000D03*
D12*
X136675000Y-72300000D03*
X138325000Y-72300000D03*
D19*
X161784144Y-118034144D03*
X159715856Y-115965856D03*
D20*
X142845000Y-76600000D03*
X144955000Y-76600000D03*
D16*
X151200000Y-118375000D03*
X151200000Y-120025000D03*
D21*
X147200000Y-117890000D03*
X146400000Y-117890000D03*
X145100000Y-117890000D03*
X144100000Y-117890000D03*
X143600000Y-117890000D03*
X142600000Y-117890000D03*
X141300000Y-117890000D03*
X140500000Y-117890000D03*
X140800000Y-117890000D03*
X141600000Y-117890000D03*
X142100000Y-117890000D03*
X143100000Y-117890000D03*
X144600000Y-117890000D03*
X145600000Y-117890000D03*
X146100000Y-117890000D03*
X146900000Y-117890000D03*
D22*
X148175000Y-122660000D03*
D23*
X148175000Y-118480000D03*
D22*
X139525000Y-122660000D03*
D23*
X139525000Y-118480000D03*
D16*
X133450000Y-74025000D03*
X133450000Y-75675000D03*
X136550000Y-118425000D03*
X136550000Y-120075000D03*
D12*
X133225000Y-77200000D03*
X134875000Y-77200000D03*
X136375000Y-77100000D03*
X138025000Y-77100000D03*
D24*
X141650000Y-113575000D03*
X141650000Y-112925000D03*
X141650000Y-112275000D03*
X141650000Y-111625000D03*
X146050000Y-111625000D03*
X146050000Y-112275000D03*
X146050000Y-112925000D03*
X146050000Y-113575000D03*
D25*
X143850000Y-112600000D03*
D12*
X148600000Y-76700000D03*
X146950000Y-76700000D03*
D26*
X132850000Y-117250000D03*
X132850000Y-121150000D03*
X134850000Y-117250000D03*
X134850000Y-121150000D03*
D27*
X135350000Y-119200000D03*
X132350000Y-119200000D03*
D28*
X132300000Y-105225000D03*
X132950000Y-105225000D03*
X133600000Y-105225000D03*
X133600000Y-107175000D03*
X132950000Y-107175000D03*
X132300000Y-107175000D03*
D29*
X132950000Y-106200000D03*
D12*
X137725000Y-112500000D03*
X139375000Y-112500000D03*
D13*
X136350000Y-75750000D03*
X138550000Y-74800000D03*
X136350000Y-73850000D03*
D12*
X133025000Y-115750000D03*
X134675000Y-115750000D03*
X154675000Y-115750000D03*
X153025000Y-115750000D03*
X144487000Y-110096500D03*
X146137000Y-110096500D03*
D16*
X132150000Y-113525000D03*
X132150000Y-111875000D03*
X134950000Y-75675000D03*
X134950000Y-74025000D03*
D26*
X154850000Y-121150000D03*
X154850000Y-117250000D03*
X152850000Y-121150000D03*
X152850000Y-117250000D03*
D27*
X152350000Y-119200000D03*
X155350000Y-119200000D03*
D30*
X166683362Y-79866637D03*
X165516638Y-81033363D03*
D12*
X141025000Y-115200000D03*
X142675000Y-115200000D03*
D11*
X166683363Y-111783363D03*
X165516637Y-110616637D03*
D10*
X128110000Y-82100000D03*
D31*
X146925000Y-74775000D03*
X140775000Y-74775000D03*
X140775000Y-68625000D03*
X146925000Y-68625000D03*
D12*
X146975000Y-115200000D03*
X145325000Y-115200000D03*
X143075000Y-78100000D03*
X144725000Y-78100000D03*
D32*
X129050000Y-71100000D03*
X168450000Y-80900000D03*
X115150000Y-96300000D03*
X172550000Y-95100000D03*
X157750000Y-70600000D03*
X138100000Y-117700000D03*
X138100000Y-119200000D03*
X143850000Y-120200000D03*
X149850000Y-119200000D03*
X158650000Y-120200000D03*
X119250000Y-110500000D03*
X149850000Y-117700000D03*
X144450000Y-124400000D03*
X143250000Y-67000000D03*
X142850000Y-94700000D03*
X143850000Y-71950000D03*
X143850000Y-106950000D03*
X129950000Y-120800000D03*
X156050000Y-115700000D03*
X132850000Y-108450000D03*
X130200000Y-115750000D03*
X149950000Y-110100000D03*
X170850000Y-95700000D03*
X120450000Y-82200000D03*
X143850000Y-122700000D03*
X130350000Y-119000000D03*
X130350000Y-72300000D03*
X116850000Y-95700000D03*
X157350000Y-72300000D03*
X120450000Y-109100000D03*
X167250000Y-109200000D03*
X143850000Y-68700000D03*
X157350000Y-119100000D03*
X167250000Y-82200000D03*
X136150000Y-110400000D03*
X140550000Y-111028000D03*
X152756000Y-111856000D03*
X147750000Y-111400000D03*
X142850000Y-68700000D03*
X153850000Y-81000000D03*
X142850000Y-80600000D03*
X146150000Y-95700000D03*
X144850000Y-68700000D03*
X156550000Y-71800000D03*
X166750000Y-81300000D03*
X158250000Y-72800000D03*
X167750000Y-83000000D03*
X170850000Y-94700000D03*
X167750000Y-108300000D03*
X170850000Y-96700000D03*
X158250000Y-118600000D03*
X166750000Y-110100000D03*
X131250000Y-119500000D03*
X142850000Y-122700000D03*
X144150000Y-98400000D03*
X149200000Y-111250000D03*
X137650000Y-110400000D03*
X143450000Y-97700000D03*
X156450000Y-119600000D03*
X144850000Y-122700000D03*
X145350000Y-95100000D03*
X131550000Y-107300000D03*
X150100000Y-107200000D03*
X144350000Y-95450000D03*
X142900000Y-96950000D03*
X142450000Y-93900000D03*
X143650000Y-93800000D03*
X120950000Y-110000000D03*
X129450000Y-118500000D03*
X116850000Y-96800000D03*
X119950000Y-108300000D03*
X119950000Y-83100000D03*
X116850000Y-94500000D03*
X120950000Y-81300000D03*
X129450000Y-72800000D03*
X127850000Y-107450000D03*
X144687608Y-96862392D03*
X155400000Y-114700000D03*
X153600000Y-112450000D03*
X142050000Y-96100000D03*
X131600000Y-114950000D03*
D33*
X133350000Y-106200000D02*
X134100000Y-106200000D01*
X132950000Y-106200000D02*
X132600000Y-106200000D01*
X132600000Y-106200000D02*
X131850000Y-106200000D01*
X132950000Y-106200000D02*
X133350000Y-106200000D01*
D34*
X141650000Y-112275000D02*
X140675000Y-112275000D01*
X140675000Y-112275000D02*
X140650000Y-112300000D01*
D33*
X132950000Y-107175000D02*
X132950000Y-106200000D01*
X122114471Y-110315942D02*
X122114471Y-110337500D01*
X132850000Y-108450000D02*
X132600000Y-108450000D01*
D35*
X160674406Y-111838620D02*
X160674406Y-112375594D01*
D34*
X148600000Y-76700000D02*
X152250000Y-80350000D01*
D33*
X132850000Y-108450000D02*
X133350000Y-108450000D01*
D34*
X152250000Y-80350000D02*
X152250000Y-109600000D01*
D33*
X132300000Y-108150000D02*
X132300000Y-107175000D01*
D35*
X156050000Y-115700000D02*
X157350000Y-115700000D01*
D33*
X133600000Y-108200000D02*
X133600000Y-107175000D01*
D35*
X156000000Y-115750000D02*
X156050000Y-115700000D01*
X146050000Y-111625000D02*
X146125000Y-111625000D01*
X155978000Y-113328000D02*
X156050000Y-113400000D01*
X157350000Y-115700000D02*
X158850000Y-114200000D01*
D34*
X156050000Y-113400000D02*
X156050000Y-115700000D01*
D35*
X149950000Y-110100000D02*
X153178000Y-113328000D01*
D34*
X129050000Y-114600000D02*
X129050000Y-113649999D01*
D35*
X149850000Y-110000000D02*
X149950000Y-110100000D01*
D34*
X130200000Y-115750000D02*
X129050000Y-114600000D01*
D35*
X158850000Y-115100000D02*
X159715856Y-115965856D01*
X160674406Y-112375594D02*
X158850000Y-114200000D01*
X130200000Y-115750000D02*
X130250000Y-115750000D01*
X147750000Y-110000000D02*
X149850000Y-110000000D01*
D33*
X133350000Y-108450000D02*
X133600000Y-108200000D01*
X132600000Y-108450000D02*
X132300000Y-108150000D01*
D35*
X158850000Y-114200000D02*
X158850000Y-115100000D01*
X130425001Y-113649999D02*
X130550000Y-113525000D01*
X129050000Y-113649999D02*
X130425001Y-113649999D01*
D34*
X152250000Y-109600000D02*
X156050000Y-113400000D01*
D35*
X153178000Y-113328000D02*
X155978000Y-113328000D01*
X146125000Y-111625000D02*
X147750000Y-110000000D01*
D34*
X130500000Y-72450000D02*
X130350000Y-72300000D01*
X158750000Y-72100000D02*
X166837500Y-80187500D01*
X120250000Y-80623029D02*
X120685529Y-80187500D01*
X120750000Y-91800000D02*
X116850000Y-95700000D01*
X156430761Y-72600000D02*
X154850000Y-71019239D01*
X157350000Y-72300000D02*
X157050000Y-72600000D01*
D33*
X167064471Y-111185529D02*
X167064471Y-111162500D01*
D34*
X130200000Y-119150000D02*
X128673028Y-119150000D01*
X134050000Y-119100000D02*
X133250000Y-118300000D01*
D33*
X167362194Y-80535224D02*
X167014470Y-80187500D01*
D34*
X157350000Y-119100000D02*
X157750000Y-119500000D01*
X120250000Y-110726971D02*
X120337805Y-110814776D01*
X170850000Y-95700000D02*
X169850000Y-94700000D01*
X130350000Y-119000000D02*
X130200000Y-119150000D01*
X134200000Y-72450000D02*
X130500000Y-72450000D01*
X153650000Y-121850000D02*
X153650000Y-118900000D01*
X120550000Y-82300000D02*
X120750000Y-82500000D01*
X130350000Y-118400000D02*
X130350000Y-119000000D01*
X167100000Y-108025735D02*
X167100000Y-109050000D01*
X154850000Y-71019239D02*
X146069239Y-71019239D01*
X167362194Y-81987806D02*
X167450000Y-81900000D01*
X167100000Y-83350000D02*
X167100000Y-82350000D01*
X134300000Y-122100000D02*
X134050000Y-121850000D01*
D33*
X167150000Y-82300000D02*
X167250000Y-82200000D01*
X128623028Y-119100000D02*
X128586514Y-119063486D01*
X143850000Y-68700000D02*
X143850000Y-68800000D01*
D34*
X120337805Y-109212195D02*
X120250000Y-109300000D01*
X134050000Y-121850000D02*
X134050000Y-119100000D01*
X139350000Y-67300000D02*
X134200000Y-72450000D01*
X157550000Y-72100000D02*
X158750000Y-72100000D01*
X143850000Y-121700000D02*
X142450000Y-120300000D01*
X126850001Y-114900001D02*
X130350000Y-118400000D01*
D33*
X120450000Y-82200000D02*
X120350000Y-82100000D01*
D34*
X120250000Y-82000000D02*
X120250000Y-80623029D01*
X142450000Y-120300000D02*
X137850000Y-120300000D01*
X120685529Y-80187500D02*
X128773029Y-72100000D01*
X131150000Y-118300000D02*
X130450000Y-119000000D01*
X151750000Y-122100000D02*
X153400000Y-122100000D01*
X130150000Y-72100000D02*
X130250000Y-72200000D01*
X143850000Y-68700000D02*
X142450000Y-67300000D01*
X167350000Y-80523030D02*
X167014470Y-80187500D01*
X149950000Y-120300000D02*
X151750000Y-122100000D01*
X157050000Y-72600000D02*
X156430761Y-72600000D01*
D33*
X167250000Y-82100000D02*
X167362194Y-81987806D01*
D34*
X156850000Y-118300000D02*
X157350000Y-118800000D01*
D33*
X120450000Y-82200000D02*
X120550000Y-82300000D01*
D34*
X137850000Y-120300000D02*
X136050000Y-122100000D01*
X133250000Y-118300000D02*
X131150000Y-118300000D01*
D33*
X167250000Y-109200000D02*
X167150000Y-109100000D01*
D34*
X167064471Y-111162500D02*
X167550000Y-110676971D01*
X120600000Y-107901471D02*
X120600000Y-108950000D01*
X167100000Y-109050000D02*
X167250000Y-109200000D01*
X158750000Y-119500000D02*
X167064471Y-111185529D01*
X143850000Y-122700000D02*
X143850000Y-121700000D01*
X120250000Y-109300000D02*
X120250000Y-110726971D01*
X117550000Y-96400000D02*
X116850000Y-95700000D01*
X142450000Y-67300000D02*
X139350000Y-67300000D01*
X153400000Y-122100000D02*
X153650000Y-121850000D01*
X145250000Y-120300000D02*
X149950000Y-120300000D01*
X120750000Y-82500000D02*
X120750000Y-91800000D01*
X153650000Y-118900000D02*
X154250000Y-118300000D01*
X128673028Y-119150000D02*
X128586514Y-119063486D01*
X120350000Y-82100000D02*
X120250000Y-82000000D01*
X157750000Y-119500000D02*
X158750000Y-119500000D01*
X169850000Y-94700000D02*
X169850000Y-86100000D01*
X120600000Y-108950000D02*
X120450000Y-109100000D01*
X167450000Y-81900000D02*
X167450000Y-80623030D01*
X128773029Y-72100000D02*
X130150000Y-72100000D01*
X167100000Y-82350000D02*
X167250000Y-82200000D01*
X169850000Y-86100000D02*
X167100000Y-83350000D01*
X157450000Y-72200000D02*
X157550000Y-72100000D01*
X167450000Y-80623030D02*
X167362194Y-80535224D01*
X120685529Y-111162500D02*
X128586514Y-119063486D01*
X117550000Y-104851471D02*
X117550000Y-96400000D01*
D33*
X143850000Y-122700000D02*
X143750000Y-122700000D01*
X120450000Y-109100000D02*
X120550000Y-109000000D01*
X167250000Y-82200000D02*
X167250000Y-82100000D01*
D34*
X136050000Y-122100000D02*
X134300000Y-122100000D01*
X167550000Y-110676971D02*
X167550000Y-109500000D01*
X169850000Y-105275735D02*
X167100000Y-108025735D01*
D33*
X166837500Y-80187500D02*
X167014470Y-80187500D01*
X120450000Y-109100000D02*
X120337805Y-109212195D01*
D34*
X157350000Y-118800000D02*
X157350000Y-119100000D01*
X143850000Y-121700000D02*
X145250000Y-120300000D01*
D33*
X130350000Y-72300000D02*
X130450000Y-72400000D01*
X157250000Y-72400000D02*
X157350000Y-72300000D01*
D35*
X120337805Y-110814776D02*
X120685529Y-111162500D01*
D33*
X130350000Y-119000000D02*
X130450000Y-119000000D01*
X116850000Y-95700000D02*
X116850000Y-95900000D01*
X157350000Y-72300000D02*
X157450000Y-72200000D01*
D34*
X117550000Y-104851471D02*
X120600000Y-107901471D01*
X169850000Y-94700000D02*
X169850000Y-105275735D01*
X126850001Y-112700000D02*
X126850001Y-114900001D01*
X154250000Y-118300000D02*
X156850000Y-118300000D01*
D33*
X130250000Y-72200000D02*
X130350000Y-72300000D01*
D34*
X146069239Y-71019239D02*
X143850000Y-68800000D01*
X167550000Y-109500000D02*
X167250000Y-109200000D01*
D35*
X140550000Y-111028000D02*
X141147000Y-111625000D01*
D34*
X146100000Y-117890000D02*
X146100000Y-118610051D01*
D35*
X140850000Y-116300000D02*
X141300000Y-116750000D01*
D34*
X145410051Y-119300000D02*
X142289949Y-119300000D01*
X146125000Y-113650000D02*
X146125000Y-117865000D01*
X146050000Y-113575000D02*
X147725000Y-113575000D01*
D35*
X136150000Y-110400000D02*
X136150000Y-114550000D01*
X136150000Y-114550000D02*
X137900000Y-116300000D01*
D34*
X146100000Y-118610051D02*
X145410051Y-119300000D01*
D35*
X141147000Y-111625000D02*
X141650000Y-111625000D01*
D34*
X146125000Y-117865000D02*
X146100000Y-117890000D01*
X141600000Y-118610051D02*
X141600000Y-117890000D01*
X147725000Y-113575000D02*
X147800000Y-113650000D01*
X146050000Y-113575000D02*
X146125000Y-113650000D01*
D35*
X141300000Y-116750000D02*
X141300000Y-117890000D01*
D34*
X142289949Y-119300000D02*
X141600000Y-118610051D01*
D35*
X141650000Y-110150000D02*
X141600000Y-110100000D01*
X137900000Y-116300000D02*
X140850000Y-116300000D01*
X141650000Y-111625000D02*
X141650000Y-110150000D01*
X142150000Y-115500000D02*
X142100000Y-115550000D01*
D33*
X142100000Y-115550000D02*
X142100000Y-117890000D01*
X143100000Y-116850000D02*
X143100000Y-117890000D01*
X144100000Y-116850000D02*
X144050000Y-116800000D01*
X143150000Y-116800000D02*
X143100000Y-116850000D01*
X144100000Y-117890000D02*
X144100000Y-116850000D01*
X144050000Y-116800000D02*
X143150000Y-116800000D01*
X143690000Y-118800000D02*
X143600000Y-118710000D01*
X143600000Y-118710000D02*
X143600000Y-117890000D01*
X144600000Y-118750000D02*
X144550000Y-118800000D01*
X144550000Y-118800000D02*
X143690000Y-118800000D01*
X144600000Y-117890000D02*
X144600000Y-118750000D01*
X145100000Y-117890000D02*
X145100000Y-115775000D01*
D35*
X145100000Y-115775000D02*
X145375000Y-115500000D01*
D33*
X140400000Y-112925000D02*
X139975000Y-112500000D01*
X139975000Y-112500000D02*
X139375000Y-112500000D01*
X141650000Y-112925000D02*
X140400000Y-112925000D01*
X141650000Y-113575000D02*
X140425000Y-113575000D01*
X140000000Y-114000000D02*
X139375000Y-114000000D01*
X140425000Y-113575000D02*
X140000000Y-114000000D01*
X152756000Y-111806000D02*
X150450000Y-109500000D01*
X152756000Y-111856000D02*
X152756000Y-111806000D01*
X147750000Y-111400000D02*
X147750000Y-112181000D01*
X146650000Y-109500000D02*
X146221500Y-109928500D01*
X146221500Y-109928500D02*
X146221500Y-110096500D01*
X147006000Y-112925000D02*
X146050000Y-112925000D01*
X147750000Y-112181000D02*
X147006000Y-112925000D01*
X150450000Y-109500000D02*
X146650000Y-109500000D01*
D35*
X144568000Y-110100000D02*
X144571500Y-110096500D01*
D33*
X143250000Y-110100000D02*
X144568000Y-110100000D01*
X142850000Y-80600000D02*
X142850000Y-81100000D01*
X150900000Y-73850000D02*
X150950000Y-73900000D01*
X153850000Y-76800000D02*
X153850000Y-81000000D01*
X150950000Y-73900000D02*
X153850000Y-76800000D01*
X142850000Y-68700000D02*
X145950000Y-71800000D01*
X142850000Y-81100000D02*
X146150000Y-84400000D01*
X146150000Y-84400000D02*
X146150000Y-95700000D01*
X145950000Y-71800000D02*
X148850000Y-71800000D01*
X148850000Y-71800000D02*
X150900000Y-73850000D01*
X144850000Y-69000000D02*
X146250000Y-70400000D01*
X144850000Y-68700000D02*
X144850000Y-69000000D01*
X155450000Y-70400000D02*
X156550000Y-71500000D01*
X146250000Y-70400000D02*
X155450000Y-70400000D01*
X156550000Y-71500000D02*
X156550000Y-71800000D01*
X158550000Y-72800000D02*
X158250000Y-72800000D01*
X166469440Y-80719440D02*
X158550000Y-72800000D01*
X166750000Y-81300000D02*
X166469440Y-81019440D01*
X166469440Y-81019440D02*
X166469440Y-80719440D01*
X170850000Y-94700000D02*
X170350000Y-94200000D01*
X170350000Y-94200000D02*
X170350000Y-85600000D01*
X170350000Y-85600000D02*
X167750000Y-83000000D01*
X170350000Y-105700000D02*
X167750000Y-108300000D01*
X170850000Y-96700000D02*
X170350000Y-97200000D01*
X170350000Y-97200000D02*
X170350000Y-105700000D01*
X166519439Y-110730561D02*
X158650000Y-118600000D01*
X166750000Y-110100000D02*
X166519439Y-110330561D01*
X166519439Y-110330561D02*
X166519439Y-110730561D01*
X158650000Y-118600000D02*
X158250000Y-118600000D01*
X144955000Y-77195000D02*
X144650000Y-77500000D01*
D35*
X146850000Y-76600000D02*
X146950000Y-76700000D01*
X144650000Y-77950000D02*
X144750000Y-78050000D01*
D33*
X144955000Y-76600000D02*
X144955000Y-77195000D01*
D35*
X146950000Y-74800000D02*
X146925000Y-74775000D01*
D33*
X146950000Y-76700000D02*
X146950000Y-74800000D01*
X144650000Y-77500000D02*
X144650000Y-77950000D01*
X144955000Y-76600000D02*
X146850000Y-76600000D01*
X134050000Y-122600000D02*
X136450000Y-122600000D01*
X136450000Y-122600000D02*
X138350000Y-120700000D01*
X133650000Y-120500000D02*
X133650000Y-122200000D01*
X133250000Y-120100000D02*
X133650000Y-120500000D01*
X142850000Y-121700000D02*
X142850000Y-122700000D01*
X133650000Y-122200000D02*
X134050000Y-122600000D01*
X138350000Y-120700000D02*
X141850000Y-120700000D01*
X131850000Y-120100000D02*
X133250000Y-120100000D01*
X131250000Y-119500000D02*
X131850000Y-120100000D01*
X141850000Y-120700000D02*
X142850000Y-121700000D01*
X138550000Y-74800000D02*
X138550000Y-72525000D01*
D35*
X138550000Y-72525000D02*
X138325000Y-72300000D01*
X140750000Y-74800000D02*
X140775000Y-74775000D01*
D33*
X141250000Y-76600000D02*
X142845000Y-76600000D01*
X142845000Y-76600000D02*
X142845000Y-77795000D01*
D35*
X142845000Y-77795000D02*
X143100000Y-78050000D01*
D33*
X140775000Y-76125000D02*
X141250000Y-76600000D01*
X138550000Y-74800000D02*
X140750000Y-74800000D01*
X140775000Y-74775000D02*
X140775000Y-76125000D01*
D35*
X135025000Y-75750000D02*
X134950000Y-75675000D01*
D33*
X136350000Y-75750000D02*
X136350000Y-77075000D01*
X133450000Y-75675000D02*
X134950000Y-75675000D01*
D35*
X136350000Y-77075000D02*
X136375000Y-77100000D01*
D33*
X136350000Y-75750000D02*
X135025000Y-75750000D01*
X152850000Y-121150000D02*
X152325000Y-121150000D01*
X149200000Y-111250000D02*
X153025000Y-115075000D01*
D35*
X152850000Y-115925000D02*
X153025000Y-115750000D01*
D33*
X143650000Y-98400000D02*
X137350000Y-104700000D01*
X137350000Y-104700000D02*
X137350000Y-110100000D01*
X144150000Y-98400000D02*
X143650000Y-98400000D01*
X152325000Y-121150000D02*
X151200000Y-120025000D01*
X137350000Y-110100000D02*
X137650000Y-110400000D01*
X153025000Y-115075000D02*
X153025000Y-115750000D01*
X152850000Y-117250000D02*
X152850000Y-121150000D01*
X152850000Y-117250000D02*
X152850000Y-115925000D01*
X134675000Y-106175000D02*
X134675000Y-115750000D01*
X134675000Y-115750000D02*
X134675000Y-117075000D01*
X143450000Y-97700000D02*
X143150000Y-97700000D01*
X135475000Y-121150000D02*
X134850000Y-121150000D01*
X134675000Y-117075000D02*
X134850000Y-117250000D01*
X143150000Y-97700000D02*
X134675000Y-106175000D01*
X134850000Y-117250000D02*
X134850000Y-121150000D01*
X136550000Y-120075000D02*
X135475000Y-121150000D01*
X154550000Y-120000000D02*
X154200000Y-120350000D01*
X149700000Y-120750000D02*
X145800000Y-120750000D01*
X156050000Y-120000000D02*
X154550000Y-120000000D01*
X144850000Y-121700000D02*
X144850000Y-122700000D01*
X145800000Y-120750000D02*
X144850000Y-121700000D01*
X154200000Y-121936396D02*
X153586396Y-122550000D01*
X156450000Y-119600000D02*
X156050000Y-120000000D01*
X154200000Y-120350000D02*
X154200000Y-121936396D01*
X151500000Y-122550000D02*
X149700000Y-120750000D01*
X153586396Y-122550000D02*
X151500000Y-122550000D01*
X129050000Y-111750001D02*
X130425001Y-111750001D01*
X130550000Y-111925000D02*
X132150000Y-113525000D01*
D35*
X130425001Y-111750001D02*
X130550000Y-111875000D01*
X130550000Y-111875000D02*
X130550000Y-111925000D01*
D33*
X131550000Y-110650000D02*
X131550000Y-107300000D01*
X145350000Y-96700000D02*
X145350000Y-95100000D01*
X150100000Y-101450000D02*
X145350000Y-96700000D01*
X150100000Y-107200000D02*
X150100000Y-101450000D01*
X132150000Y-111250000D02*
X131550000Y-110650000D01*
X132150000Y-111875000D02*
X132150000Y-111250000D01*
X138025000Y-86650477D02*
X138025000Y-77100000D01*
X144350000Y-95450000D02*
X144350000Y-92975477D01*
X144350000Y-92975477D02*
X138025000Y-86650477D01*
X142900000Y-96050000D02*
X142900000Y-96950000D01*
X130450000Y-84400000D02*
X140850000Y-94800000D01*
X141650000Y-94800000D02*
X142900000Y-96050000D01*
X130450000Y-82100000D02*
X130450000Y-84400000D01*
X140850000Y-94800000D02*
X141650000Y-94800000D01*
X133225000Y-77200000D02*
X133225000Y-81975000D01*
X142050000Y-93900000D02*
X133350000Y-85200000D01*
X133225000Y-81975000D02*
X133350000Y-82100000D01*
X142450000Y-93900000D02*
X142050000Y-93900000D01*
X133350000Y-85200000D02*
X133350000Y-82100000D01*
X136250000Y-86400000D02*
X143650000Y-93800000D01*
X136250000Y-82000000D02*
X136250000Y-86400000D01*
X129450000Y-118500000D02*
X129132433Y-118500000D01*
X121250000Y-110300000D02*
X120950000Y-110000000D01*
X129132433Y-118500000D02*
X121250000Y-110617567D01*
X121250000Y-110617567D02*
X121250000Y-110300000D01*
X119950000Y-108300000D02*
X116850000Y-105200000D01*
X116850000Y-105200000D02*
X116850000Y-96800000D01*
X119950000Y-91400000D02*
X119950000Y-83100000D01*
X116850000Y-94500000D02*
X119950000Y-91400000D01*
X121230561Y-81019439D02*
X121230561Y-80751872D01*
X120950000Y-81300000D02*
X121230561Y-81019439D01*
X121230561Y-80751872D02*
X129182433Y-72800000D01*
X129182433Y-72800000D02*
X129450000Y-72800000D01*
D35*
X131487500Y-103700000D02*
X127850000Y-107337500D01*
D33*
X154675000Y-115425000D02*
X154675000Y-115750000D01*
D35*
X127850000Y-107337500D02*
X127850000Y-107450000D01*
X131487500Y-97562500D02*
X131487500Y-103700000D01*
X125550000Y-88200000D02*
X125550000Y-82100000D01*
X131487500Y-104412500D02*
X132300000Y-105225000D01*
D33*
X155400000Y-114700000D02*
X154675000Y-115425000D01*
X153600000Y-112450000D02*
X153600000Y-111851471D01*
D35*
X133150000Y-95900000D02*
X131487500Y-97562500D01*
X133250000Y-95900000D02*
X125550000Y-88200000D01*
X133250000Y-95900000D02*
X133150000Y-95900000D01*
X131487500Y-103700000D02*
X131487500Y-104412500D01*
D33*
X133025000Y-115750000D02*
X132400000Y-115750000D01*
D35*
X142050000Y-96100000D02*
X141850000Y-95900000D01*
X141850000Y-95900000D02*
X133250000Y-95900000D01*
D33*
X149500000Y-107751471D02*
X149500000Y-101674784D01*
X132400000Y-115750000D02*
X131600000Y-114950000D01*
X153600000Y-111851471D02*
X149500000Y-107751471D01*
X149500000Y-101674784D02*
X144687608Y-96862392D01*
G04 #@! TA.AperFunction,Conductor*
G36*
X145076701Y-119724185D02*
G01*
X145122456Y-119776989D01*
X145132400Y-119846147D01*
X145103375Y-119909703D01*
X145071663Y-119935887D01*
X145001631Y-119976320D01*
X145001628Y-119976322D01*
X143937681Y-121040270D01*
X143876358Y-121073755D01*
X143806666Y-121068771D01*
X143762319Y-121040270D01*
X142698371Y-119976322D01*
X142698369Y-119976320D01*
X142628336Y-119935886D01*
X142580122Y-119885319D01*
X142566900Y-119816712D01*
X142592868Y-119751848D01*
X142649782Y-119711320D01*
X142690338Y-119704500D01*
X145009662Y-119704500D01*
X145076701Y-119724185D01*
G37*
G04 #@! TD.AperFunction*
G04 #@! TA.AperFunction,Conductor*
G36*
X142298128Y-67724185D02*
G01*
X142318770Y-67740819D01*
X142597616Y-68019665D01*
X142631101Y-68080988D01*
X142626117Y-68150680D01*
X142584245Y-68206613D01*
X142571949Y-68214725D01*
X142570367Y-68215638D01*
X142570358Y-68215645D01*
X142454526Y-68304526D01*
X142413572Y-68357899D01*
X142365643Y-68420361D01*
X142309772Y-68555245D01*
X142309771Y-68555247D01*
X142290715Y-68699998D01*
X142290715Y-68700001D01*
X142309771Y-68844752D01*
X142309773Y-68844757D01*
X142365642Y-68979638D01*
X142365645Y-68979644D01*
X142454525Y-69095473D01*
X142454526Y-69095474D01*
X142570355Y-69184354D01*
X142570361Y-69184357D01*
X142637801Y-69212291D01*
X142705246Y-69240228D01*
X142777623Y-69249756D01*
X142849999Y-69259285D01*
X142856584Y-69259285D01*
X142923623Y-69278970D01*
X142944265Y-69295604D01*
X145666329Y-72017668D01*
X145732332Y-72083671D01*
X145813168Y-72130341D01*
X145903329Y-72154500D01*
X148651799Y-72154500D01*
X148718838Y-72174185D01*
X148739480Y-72190819D01*
X153459181Y-76910520D01*
X153492666Y-76971843D01*
X153495500Y-76998201D01*
X153495500Y-80512189D01*
X153475815Y-80579228D01*
X153459185Y-80599866D01*
X153454532Y-80604519D01*
X153454527Y-80604524D01*
X153454526Y-80604526D01*
X153396759Y-80679810D01*
X153365643Y-80720361D01*
X153309772Y-80855245D01*
X153309771Y-80855247D01*
X153290715Y-80999998D01*
X153290715Y-81000001D01*
X153309771Y-81144752D01*
X153309773Y-81144757D01*
X153365642Y-81279638D01*
X153365645Y-81279644D01*
X153454525Y-81395473D01*
X153454526Y-81395474D01*
X153570355Y-81484354D01*
X153570361Y-81484357D01*
X153637801Y-81512291D01*
X153705246Y-81540228D01*
X153777623Y-81549756D01*
X153849999Y-81559285D01*
X153850000Y-81559285D01*
X153850001Y-81559285D01*
X153898251Y-81552932D01*
X153994754Y-81540228D01*
X154129643Y-81484355D01*
X154245474Y-81395474D01*
X154334355Y-81279643D01*
X154390228Y-81144754D01*
X154409285Y-81000000D01*
X154408589Y-80994716D01*
X154406695Y-80980329D01*
X164638943Y-80980329D01*
X164638943Y-80980332D01*
X164658655Y-81079434D01*
X164658656Y-81079435D01*
X164700622Y-81142242D01*
X164700625Y-81142245D01*
X164877414Y-81319033D01*
X165163085Y-81033363D01*
X164824381Y-80694659D01*
X164700623Y-80818417D01*
X164658657Y-80881222D01*
X164638943Y-80980329D01*
X154406695Y-80980329D01*
X154390228Y-80855247D01*
X154390228Y-80855246D01*
X154334355Y-80720358D01*
X154245474Y-80604526D01*
X154245470Y-80604522D01*
X154245467Y-80604519D01*
X154240815Y-80599866D01*
X154207333Y-80538541D01*
X154204500Y-80512189D01*
X154204500Y-76753330D01*
X154190193Y-76699936D01*
X154180341Y-76663168D01*
X154133671Y-76582332D01*
X154067668Y-76516329D01*
X151167668Y-73616329D01*
X151117668Y-73566329D01*
X149186759Y-71635420D01*
X149153274Y-71574097D01*
X149158258Y-71504405D01*
X149200130Y-71448472D01*
X149265594Y-71424055D01*
X149274440Y-71423739D01*
X154631089Y-71423739D01*
X154698128Y-71443424D01*
X154718769Y-71460057D01*
X156182392Y-72923681D01*
X156274630Y-72976934D01*
X156377508Y-73004500D01*
X156377510Y-73004500D01*
X157103251Y-73004500D01*
X157103253Y-73004500D01*
X157206131Y-72976934D01*
X157298369Y-72923680D01*
X157334934Y-72887113D01*
X157396256Y-72853627D01*
X157406414Y-72851857D01*
X157494754Y-72840228D01*
X157536305Y-72823016D01*
X157605773Y-72815548D01*
X157668253Y-72846823D01*
X157703905Y-72906912D01*
X157706696Y-72921390D01*
X157709772Y-72944754D01*
X157709773Y-72944757D01*
X157765642Y-73079638D01*
X157765645Y-73079644D01*
X157854525Y-73195473D01*
X157854526Y-73195474D01*
X157970355Y-73284354D01*
X157970361Y-73284357D01*
X158035999Y-73311545D01*
X158105246Y-73340228D01*
X158177623Y-73349756D01*
X158249999Y-73359285D01*
X158250000Y-73359285D01*
X158250001Y-73359285D01*
X158313767Y-73350890D01*
X158394754Y-73340228D01*
X158455481Y-73315073D01*
X158524948Y-73307604D01*
X158587428Y-73338878D01*
X158590614Y-73341953D01*
X162322661Y-77074000D01*
X165296169Y-80047507D01*
X165329654Y-80108830D01*
X165324670Y-80178522D01*
X165296170Y-80222869D01*
X165177934Y-80341106D01*
X166169120Y-81332292D01*
X166202605Y-81393615D01*
X166204378Y-81403786D01*
X166209772Y-81444754D01*
X166265642Y-81579638D01*
X166265645Y-81579644D01*
X166354525Y-81695473D01*
X166354526Y-81695474D01*
X166470355Y-81784354D01*
X166470361Y-81784357D01*
X166515575Y-81803085D01*
X166605246Y-81840228D01*
X166628607Y-81843303D01*
X166692503Y-81871568D01*
X166730975Y-81929892D01*
X166731807Y-81999757D01*
X166726983Y-82013694D01*
X166709773Y-82055242D01*
X166709771Y-82055247D01*
X166690715Y-82199998D01*
X166690715Y-82200002D01*
X166697612Y-82252395D01*
X166695248Y-82288520D01*
X166696561Y-82288693D01*
X166695500Y-82296744D01*
X166695500Y-82296747D01*
X166695500Y-83296747D01*
X166695500Y-83403253D01*
X166723066Y-83506131D01*
X166776320Y-83598369D01*
X166776322Y-83598371D01*
X169409181Y-86231230D01*
X169442666Y-86292553D01*
X169445500Y-86318911D01*
X169445500Y-105056824D01*
X169425815Y-105123863D01*
X169409181Y-105144505D01*
X166776322Y-107777363D01*
X166776320Y-107777366D01*
X166723066Y-107869603D01*
X166695500Y-107972482D01*
X166695500Y-109103250D01*
X166696561Y-109111308D01*
X166695246Y-109111481D01*
X166697612Y-109147604D01*
X166690715Y-109199997D01*
X166690715Y-109200001D01*
X166709771Y-109344752D01*
X166709772Y-109344754D01*
X166726983Y-109386306D01*
X166734450Y-109455776D01*
X166703175Y-109518254D01*
X166643085Y-109553906D01*
X166628609Y-109556696D01*
X166605246Y-109559772D01*
X166605245Y-109559772D01*
X166470361Y-109615643D01*
X166470358Y-109615644D01*
X166470358Y-109615645D01*
X166354526Y-109704526D01*
X166312992Y-109758655D01*
X166265643Y-109820361D01*
X166209772Y-109955245D01*
X166209772Y-109955246D01*
X166204949Y-109991876D01*
X166176681Y-110055772D01*
X166118355Y-110094242D01*
X166048491Y-110095072D01*
X165994329Y-110063369D01*
X165731587Y-109800627D01*
X165731579Y-109800621D01*
X165668777Y-109758656D01*
X165569671Y-109738942D01*
X165569668Y-109738942D01*
X165470565Y-109758654D01*
X165470564Y-109758655D01*
X165407755Y-109800623D01*
X165407751Y-109800626D01*
X165230966Y-109977412D01*
X165230966Y-109977413D01*
X165782508Y-110528955D01*
X165815993Y-110590278D01*
X165811009Y-110659970D01*
X165782508Y-110704317D01*
X165177933Y-111308892D01*
X165221169Y-111352129D01*
X165254653Y-111413453D01*
X165249668Y-111483144D01*
X165221168Y-111527491D01*
X161131375Y-115617285D01*
X161070052Y-115650770D01*
X161000360Y-115645786D01*
X160944427Y-115603914D01*
X160940591Y-115598494D01*
X160930004Y-115582649D01*
X160930003Y-115582648D01*
X160099060Y-114751708D01*
X160099052Y-114751701D01*
X160036127Y-114709655D01*
X160036125Y-114709654D01*
X159936829Y-114689904D01*
X159936825Y-114689904D01*
X159837526Y-114709655D01*
X159837525Y-114709655D01*
X159774590Y-114751707D01*
X159496298Y-115029999D01*
X159434975Y-115063484D01*
X159365283Y-115058500D01*
X159320936Y-115029999D01*
X159268819Y-114977882D01*
X159235334Y-114916559D01*
X159232500Y-114890201D01*
X159232500Y-114409797D01*
X159252185Y-114342758D01*
X159268814Y-114322121D01*
X160592168Y-112998766D01*
X160653491Y-112965282D01*
X160723183Y-112970266D01*
X160767530Y-112998767D01*
X161396056Y-113627293D01*
X161406206Y-113634075D01*
X161458987Y-113669344D01*
X161458989Y-113669345D01*
X161558287Y-113689096D01*
X161558289Y-113689096D01*
X161558291Y-113689096D01*
X161657588Y-113669345D01*
X161657588Y-113669344D01*
X161657591Y-113669344D01*
X161720523Y-113627294D01*
X162463079Y-112884737D01*
X162505130Y-112821805D01*
X162524882Y-112722503D01*
X162524882Y-112722501D01*
X162524882Y-112722500D01*
X162505131Y-112623204D01*
X162486123Y-112594757D01*
X162463080Y-112560270D01*
X162463078Y-112560267D01*
X162463077Y-112560266D01*
X159952758Y-110049949D01*
X159952757Y-110049948D01*
X159952756Y-110049947D01*
X159952177Y-110049560D01*
X159889824Y-110007895D01*
X159889822Y-110007894D01*
X159790525Y-109988144D01*
X159790521Y-109988144D01*
X159691223Y-110007894D01*
X159691223Y-110007895D01*
X159691221Y-110007895D01*
X159691221Y-110007896D01*
X159683457Y-110013084D01*
X159628286Y-110049947D01*
X159628285Y-110049948D01*
X158885737Y-110792497D01*
X158885730Y-110792505D01*
X158843682Y-110855433D01*
X158823930Y-110954738D01*
X158823930Y-110954739D01*
X158843680Y-111054035D01*
X158885733Y-111116972D01*
X158885734Y-111116973D01*
X160051231Y-112282469D01*
X160084716Y-112343792D01*
X160079732Y-112413484D01*
X160051231Y-112457831D01*
X159366394Y-113142668D01*
X158615141Y-113893921D01*
X158615139Y-113893923D01*
X158543923Y-113965139D01*
X158543921Y-113965141D01*
X157883167Y-114625896D01*
X157227882Y-115281181D01*
X157166559Y-115314666D01*
X157140201Y-115317500D01*
X156578500Y-115317500D01*
X156511461Y-115297815D01*
X156465706Y-115245011D01*
X156454500Y-115193500D01*
X156454500Y-113346749D01*
X156454500Y-113346747D01*
X156426934Y-113243869D01*
X156418638Y-113229500D01*
X156373681Y-113151631D01*
X152690819Y-109468769D01*
X152657334Y-109407446D01*
X152654500Y-109381088D01*
X152654500Y-108762706D01*
X152954944Y-108762706D01*
X152963257Y-108804500D01*
X152974695Y-108862008D01*
X152978547Y-108867772D01*
X153016746Y-108924939D01*
X155456359Y-111364551D01*
X155456362Y-111364553D01*
X155519289Y-111406602D01*
X155519291Y-111406603D01*
X155618592Y-111426354D01*
X155717894Y-111406603D01*
X155780826Y-111364552D01*
X156876935Y-110268442D01*
X156918987Y-110205510D01*
X156938738Y-110106208D01*
X156918987Y-110006907D01*
X156876936Y-109943975D01*
X156473481Y-109540520D01*
X160238653Y-109540520D01*
X160238653Y-109540523D01*
X160258365Y-109639624D01*
X160258366Y-109639626D01*
X160300336Y-109702440D01*
X160300337Y-109702441D01*
X162810580Y-112212683D01*
X162810588Y-112212689D01*
X162873396Y-112254658D01*
X162873395Y-112254658D01*
X162972504Y-112274373D01*
X162972505Y-112274373D01*
X163071604Y-112254660D01*
X163071607Y-112254659D01*
X163134419Y-112212690D01*
X163328885Y-112018223D01*
X162088620Y-110777959D01*
X161735066Y-110424405D01*
X162442173Y-110424405D01*
X162442173Y-110424406D01*
X163682438Y-111664671D01*
X163876898Y-111470211D01*
X163876903Y-111470204D01*
X163918873Y-111407395D01*
X163918874Y-111407393D01*
X163938587Y-111308291D01*
X163938587Y-111308288D01*
X163918874Y-111209187D01*
X163918873Y-111209185D01*
X163876903Y-111146371D01*
X163876902Y-111146370D01*
X163400200Y-110669669D01*
X164638942Y-110669669D01*
X164638942Y-110669672D01*
X164658654Y-110768774D01*
X164658655Y-110768775D01*
X164700620Y-110831580D01*
X164824380Y-110955339D01*
X165163084Y-110616637D01*
X164877413Y-110330966D01*
X164877412Y-110330966D01*
X164700629Y-110507749D01*
X164700622Y-110507757D01*
X164658656Y-110570562D01*
X164638942Y-110669669D01*
X163400200Y-110669669D01*
X162798554Y-110068024D01*
X162798553Y-110068024D01*
X162442173Y-110424405D01*
X161735066Y-110424405D01*
X160494801Y-109184140D01*
X160300334Y-109378608D01*
X160258366Y-109441417D01*
X160258365Y-109441418D01*
X160238653Y-109540520D01*
X156473481Y-109540520D01*
X155763548Y-108830587D01*
X160848354Y-108830587D01*
X162088618Y-110070852D01*
X162088619Y-110070852D01*
X162445001Y-109714471D01*
X162445001Y-109714470D01*
X161366658Y-108636127D01*
X161366651Y-108636122D01*
X161303843Y-108594153D01*
X161303844Y-108594153D01*
X161204736Y-108574439D01*
X161204735Y-108574439D01*
X161105635Y-108594151D01*
X161105628Y-108594154D01*
X161042826Y-108636117D01*
X161042823Y-108636119D01*
X160848354Y-108830587D01*
X155763548Y-108830587D01*
X154437323Y-107504363D01*
X154429745Y-107499299D01*
X154374392Y-107462311D01*
X154324740Y-107452435D01*
X154275090Y-107442560D01*
X154275089Y-107442560D01*
X154175786Y-107462311D01*
X154112861Y-107504358D01*
X154112853Y-107504364D01*
X153016750Y-108600468D01*
X153016744Y-108600475D01*
X152974695Y-108663402D01*
X152961520Y-108729643D01*
X152954944Y-108762706D01*
X152654500Y-108762706D01*
X152654500Y-104025089D01*
X157692560Y-104025089D01*
X157712311Y-104124392D01*
X157753787Y-104186463D01*
X157754362Y-104187323D01*
X160193975Y-106626935D01*
X160193978Y-106626937D01*
X160256905Y-106668986D01*
X160256907Y-106668987D01*
X160356208Y-106688738D01*
X160455510Y-106668987D01*
X160518442Y-106626936D01*
X161614551Y-105530826D01*
X161656603Y-105467894D01*
X161676354Y-105368592D01*
X161656603Y-105269291D01*
X161614552Y-105206359D01*
X159174939Y-102766747D01*
X159174932Y-102766742D01*
X159112008Y-102724695D01*
X159062356Y-102714819D01*
X159012706Y-102704944D01*
X159012705Y-102704944D01*
X158913402Y-102724695D01*
X158850477Y-102766742D01*
X158850469Y-102766748D01*
X157754366Y-103862852D01*
X157754360Y-103862859D01*
X157712311Y-103925786D01*
X157692560Y-104025089D01*
X152654500Y-104025089D01*
X152654500Y-81672585D01*
X165230967Y-81672585D01*
X165230967Y-81672586D01*
X165407753Y-81849372D01*
X165407761Y-81849378D01*
X165470563Y-81891343D01*
X165569670Y-81911058D01*
X165569673Y-81911058D01*
X165668775Y-81891345D01*
X165668777Y-81891344D01*
X165731583Y-81849377D01*
X165855341Y-81725618D01*
X165516639Y-81386916D01*
X165516638Y-81386916D01*
X165230967Y-81672585D01*
X152654500Y-81672585D01*
X152654500Y-80296749D01*
X152654500Y-80296747D01*
X152626934Y-80193869D01*
X152624965Y-80190458D01*
X152624961Y-80190451D01*
X152624961Y-80190450D01*
X152573683Y-80101634D01*
X152573679Y-80101629D01*
X149290818Y-76818768D01*
X149257333Y-76757445D01*
X149254499Y-76731087D01*
X149254499Y-76199936D01*
X149254499Y-76199934D01*
X149239734Y-76125699D01*
X149203282Y-76071145D01*
X149183484Y-76041515D01*
X149124325Y-76001987D01*
X149099301Y-75985266D01*
X149099299Y-75985265D01*
X149099296Y-75985264D01*
X149025069Y-75970500D01*
X149025067Y-75970500D01*
X149024787Y-75970500D01*
X148168843Y-75970501D01*
X148168843Y-75968594D01*
X148108892Y-75957218D01*
X148058188Y-75909147D01*
X148041521Y-75841294D01*
X148062297Y-75777947D01*
X148064734Y-75774301D01*
X148079500Y-75700067D01*
X148079499Y-73849934D01*
X148064734Y-73775699D01*
X148046068Y-73747765D01*
X148008484Y-73691515D01*
X147956769Y-73656961D01*
X147924301Y-73635266D01*
X147924299Y-73635265D01*
X147924296Y-73635264D01*
X147850069Y-73620500D01*
X145999936Y-73620500D01*
X145925698Y-73635266D01*
X145841515Y-73691515D01*
X145785266Y-73775699D01*
X145785264Y-73775703D01*
X145770500Y-73849928D01*
X145770500Y-75700063D01*
X145785266Y-75774301D01*
X145841515Y-75858484D01*
X145875234Y-75881014D01*
X145925699Y-75914734D01*
X145925702Y-75914734D01*
X145925703Y-75914735D01*
X145950666Y-75919700D01*
X145999933Y-75929500D01*
X146209375Y-75929499D01*
X146276413Y-75949183D01*
X146322168Y-76001987D01*
X146332112Y-76071145D01*
X146312481Y-76122383D01*
X146310267Y-76125696D01*
X146310266Y-76125699D01*
X146308364Y-76135264D01*
X146306290Y-76145690D01*
X146273905Y-76207601D01*
X146213190Y-76242176D01*
X146184672Y-76245500D01*
X145535834Y-76245500D01*
X145468795Y-76225815D01*
X145442389Y-76199877D01*
X145442117Y-76200150D01*
X145433481Y-76191513D01*
X145364901Y-76145690D01*
X145349301Y-76135266D01*
X145349299Y-76135265D01*
X145349296Y-76135264D01*
X145275069Y-76120500D01*
X144634936Y-76120500D01*
X144560698Y-76135266D01*
X144476515Y-76191515D01*
X144420266Y-76275699D01*
X144420264Y-76275703D01*
X144405500Y-76349928D01*
X144405500Y-76850063D01*
X144420266Y-76924299D01*
X144420266Y-76924301D01*
X144483301Y-77018639D01*
X144480445Y-77020546D01*
X144504149Y-77063956D01*
X144499165Y-77133648D01*
X144470665Y-77177994D01*
X144432332Y-77216328D01*
X144432332Y-77216329D01*
X144366327Y-77282334D01*
X144366324Y-77282338D01*
X144345527Y-77318361D01*
X144294961Y-77366577D01*
X144262331Y-77377979D01*
X144225702Y-77385264D01*
X144225698Y-77385266D01*
X144141515Y-77441515D01*
X144085266Y-77525699D01*
X144085264Y-77525703D01*
X144070500Y-77599928D01*
X144070500Y-78600063D01*
X144085266Y-78674301D01*
X144141515Y-78758484D01*
X144175234Y-78781014D01*
X144225699Y-78814734D01*
X144225702Y-78814734D01*
X144225703Y-78814735D01*
X144250666Y-78819700D01*
X144299933Y-78829500D01*
X145150066Y-78829499D01*
X145224301Y-78814734D01*
X145308484Y-78758484D01*
X145364734Y-78674301D01*
X145379500Y-78600067D01*
X145379499Y-77599934D01*
X145364734Y-77525699D01*
X145364732Y-77525697D01*
X145364732Y-77525695D01*
X145302202Y-77432112D01*
X145281324Y-77365435D01*
X145285528Y-77331132D01*
X145309500Y-77241671D01*
X145309500Y-77157607D01*
X145329185Y-77090568D01*
X145364607Y-77054506D01*
X145433484Y-77008484D01*
X145433486Y-77008480D01*
X145442117Y-76999850D01*
X145443160Y-77000893D01*
X145486344Y-76964804D01*
X145535834Y-76954500D01*
X146171501Y-76954500D01*
X146238540Y-76974185D01*
X146284295Y-77026989D01*
X146295501Y-77078500D01*
X146295501Y-77200066D01*
X146298736Y-77216329D01*
X146310266Y-77274301D01*
X146366515Y-77358484D01*
X146384499Y-77370500D01*
X146450699Y-77414734D01*
X146450702Y-77414734D01*
X146450703Y-77414735D01*
X146475666Y-77419700D01*
X146524933Y-77429500D01*
X147375066Y-77429499D01*
X147449301Y-77414734D01*
X147533484Y-77358484D01*
X147589734Y-77274301D01*
X147604500Y-77200067D01*
X147604499Y-76199934D01*
X147589734Y-76125699D01*
X147587522Y-76122388D01*
X147566645Y-76055710D01*
X147585131Y-75988330D01*
X147637111Y-75941641D01*
X147690625Y-75929499D01*
X147856157Y-75929499D01*
X147856157Y-75931413D01*
X147916072Y-75942764D01*
X147966792Y-75990818D01*
X147983480Y-76058666D01*
X147962706Y-76122047D01*
X147960266Y-76125697D01*
X147960264Y-76125703D01*
X147945500Y-76199928D01*
X147945500Y-77200063D01*
X147960266Y-77274301D01*
X148016515Y-77358484D01*
X148034499Y-77370500D01*
X148100699Y-77414734D01*
X148100702Y-77414734D01*
X148100703Y-77414735D01*
X148125666Y-77419700D01*
X148174933Y-77429500D01*
X148706088Y-77429499D01*
X148773127Y-77449183D01*
X148793769Y-77465818D01*
X151809181Y-80481230D01*
X151842666Y-80542553D01*
X151845500Y-80568911D01*
X151845500Y-109296270D01*
X151825815Y-109363309D01*
X151773011Y-109409064D01*
X151703853Y-109419008D01*
X151640297Y-109389983D01*
X151633819Y-109383951D01*
X150195779Y-107945911D01*
X150162294Y-107884588D01*
X150167278Y-107814896D01*
X150209150Y-107758963D01*
X150237931Y-107744991D01*
X150237246Y-107743338D01*
X150311015Y-107712781D01*
X150379643Y-107684355D01*
X150495474Y-107595474D01*
X150584355Y-107479643D01*
X150640228Y-107344754D01*
X150659285Y-107200000D01*
X150640228Y-107055246D01*
X150584355Y-106920358D01*
X150495474Y-106804526D01*
X150495470Y-106804522D01*
X150495467Y-106804519D01*
X150490815Y-106799866D01*
X150457333Y-106738541D01*
X150454500Y-106712189D01*
X150454500Y-101403330D01*
X150454500Y-101403329D01*
X150430341Y-101313168D01*
X150383671Y-101232332D01*
X150317668Y-101166329D01*
X150313337Y-101161998D01*
X150313326Y-101161988D01*
X145740819Y-96589480D01*
X145707334Y-96528157D01*
X145704500Y-96501799D01*
X145704500Y-96301234D01*
X145724185Y-96234195D01*
X145776989Y-96188440D01*
X145846147Y-96178496D01*
X145875953Y-96186673D01*
X146005246Y-96240228D01*
X146077623Y-96249756D01*
X146149999Y-96259285D01*
X146150000Y-96259285D01*
X146150001Y-96259285D01*
X146220527Y-96250000D01*
X146294754Y-96240228D01*
X146429643Y-96184355D01*
X146545474Y-96095474D01*
X146634355Y-95979643D01*
X146690228Y-95844754D01*
X146705382Y-95729644D01*
X146709285Y-95700001D01*
X146709285Y-95699998D01*
X146690228Y-95555247D01*
X146690228Y-95555246D01*
X146634355Y-95420358D01*
X146545474Y-95304526D01*
X146545470Y-95304522D01*
X146545467Y-95304519D01*
X146540815Y-95299866D01*
X146507333Y-95238541D01*
X146504500Y-95212189D01*
X146504500Y-84353330D01*
X146487391Y-84289480D01*
X146480341Y-84263168D01*
X146433671Y-84182332D01*
X146367668Y-84116329D01*
X143322949Y-81071610D01*
X143289464Y-81010287D01*
X143294448Y-80940595D01*
X143312252Y-80908446D01*
X143334355Y-80879643D01*
X143390228Y-80744754D01*
X143409285Y-80600000D01*
X143409267Y-80599866D01*
X143390228Y-80455247D01*
X143390228Y-80455246D01*
X143334355Y-80320358D01*
X143245474Y-80204526D01*
X143129643Y-80115645D01*
X143129640Y-80115644D01*
X143129638Y-80115642D01*
X142994757Y-80059773D01*
X142994752Y-80059771D01*
X142850001Y-80040715D01*
X142849999Y-80040715D01*
X142705247Y-80059771D01*
X142705245Y-80059772D01*
X142570361Y-80115643D01*
X142570358Y-80115644D01*
X142570358Y-80115645D01*
X142454526Y-80204526D01*
X142383763Y-80296747D01*
X142365643Y-80320361D01*
X142309772Y-80455245D01*
X142309771Y-80455247D01*
X142290715Y-80599998D01*
X142290715Y-80600001D01*
X142309771Y-80744752D01*
X142309773Y-80744757D01*
X142365642Y-80879638D01*
X142365642Y-80879639D01*
X142365644Y-80879641D01*
X142365645Y-80879643D01*
X142453944Y-80994716D01*
X142454530Y-80995479D01*
X142459181Y-81000130D01*
X142492666Y-81061453D01*
X142495500Y-81087811D01*
X142495500Y-81146671D01*
X142509570Y-81199179D01*
X142519659Y-81236832D01*
X142566328Y-81317666D01*
X142566330Y-81317669D01*
X145759181Y-84510520D01*
X145792666Y-84571843D01*
X145795500Y-84598201D01*
X145795500Y-94498765D01*
X145775815Y-94565804D01*
X145723011Y-94611559D01*
X145653853Y-94621503D01*
X145624048Y-94613326D01*
X145494757Y-94559773D01*
X145494752Y-94559771D01*
X145350001Y-94540715D01*
X145349999Y-94540715D01*
X145205247Y-94559771D01*
X145205245Y-94559772D01*
X145070361Y-94615643D01*
X145070358Y-94615644D01*
X145070358Y-94615645D01*
X144954526Y-94704526D01*
X144954525Y-94704527D01*
X144954524Y-94704528D01*
X144926875Y-94740561D01*
X144870447Y-94781763D01*
X144800701Y-94785918D01*
X144739781Y-94751705D01*
X144707029Y-94689988D01*
X144704500Y-94665074D01*
X144704500Y-92928807D01*
X144704500Y-92928806D01*
X144680341Y-92838645D01*
X144633671Y-92757809D01*
X144567668Y-92691806D01*
X138415819Y-86539957D01*
X138382334Y-86478634D01*
X138379500Y-86452276D01*
X138379500Y-77945300D01*
X138399185Y-77878261D01*
X138451989Y-77832506D01*
X138479308Y-77823682D01*
X138524301Y-77814734D01*
X138608484Y-77758484D01*
X138664734Y-77674301D01*
X138679500Y-77600067D01*
X138679499Y-76599934D01*
X138664734Y-76525699D01*
X138630923Y-76475098D01*
X138608484Y-76441515D01*
X138558019Y-76407796D01*
X138524301Y-76385266D01*
X138524299Y-76385265D01*
X138524296Y-76385264D01*
X138450069Y-76370500D01*
X137599936Y-76370500D01*
X137525698Y-76385266D01*
X137441515Y-76441515D01*
X137385266Y-76525699D01*
X137385264Y-76525703D01*
X137370500Y-76599928D01*
X137370500Y-77600063D01*
X137385266Y-77674301D01*
X137441515Y-77758484D01*
X137475234Y-77781014D01*
X137525699Y-77814734D01*
X137525702Y-77814734D01*
X137525703Y-77814735D01*
X137570691Y-77823684D01*
X137632602Y-77856068D01*
X137667176Y-77916784D01*
X137670500Y-77945300D01*
X137670500Y-86603806D01*
X137670500Y-86697148D01*
X137694659Y-86787309D01*
X137741328Y-86868143D01*
X137741330Y-86868146D01*
X143931298Y-93058114D01*
X143964783Y-93119437D01*
X143959799Y-93189129D01*
X143917927Y-93245062D01*
X143852463Y-93269479D01*
X143802726Y-93261420D01*
X143802605Y-93261876D01*
X143798119Y-93260674D01*
X143796169Y-93260358D01*
X143794754Y-93259772D01*
X143794752Y-93259771D01*
X143650001Y-93240715D01*
X143643415Y-93240715D01*
X143576376Y-93221030D01*
X143555734Y-93204396D01*
X140098355Y-89747017D01*
X136640819Y-86289480D01*
X136607334Y-86228157D01*
X136604500Y-86201799D01*
X136604500Y-82563302D01*
X136619141Y-82504851D01*
X136682527Y-82386265D01*
X136739965Y-82196916D01*
X136759360Y-82000000D01*
X136739965Y-81803084D01*
X136682527Y-81613735D01*
X136682525Y-81613732D01*
X136682525Y-81613730D01*
X136589255Y-81439235D01*
X136589251Y-81439228D01*
X136463725Y-81286274D01*
X136310771Y-81160748D01*
X136310764Y-81160744D01*
X136136269Y-81067474D01*
X136002559Y-81026914D01*
X135946916Y-81010035D01*
X135946914Y-81010034D01*
X135946916Y-81010034D01*
X135750000Y-80990640D01*
X135553085Y-81010034D01*
X135363730Y-81067474D01*
X135189235Y-81160744D01*
X135189228Y-81160748D01*
X135036274Y-81286274D01*
X134910748Y-81439228D01*
X134910744Y-81439235D01*
X134817474Y-81613730D01*
X134760034Y-81803085D01*
X134740640Y-82000000D01*
X134760034Y-82196914D01*
X134817474Y-82386269D01*
X134910744Y-82560764D01*
X134910748Y-82560771D01*
X135036274Y-82713725D01*
X135189228Y-82839251D01*
X135189235Y-82839255D01*
X135363730Y-82932525D01*
X135363732Y-82932525D01*
X135363735Y-82932527D01*
X135553084Y-82989965D01*
X135553083Y-82989965D01*
X135577235Y-82992343D01*
X135750000Y-83009360D01*
X135759344Y-83008439D01*
X135827989Y-83021456D01*
X135878700Y-83069520D01*
X135895500Y-83131842D01*
X135895500Y-86353329D01*
X135895500Y-86446671D01*
X135919659Y-86536832D01*
X135964372Y-86614279D01*
X135966328Y-86617666D01*
X135966330Y-86617669D01*
X142483728Y-93135067D01*
X142517213Y-93196390D01*
X142512229Y-93266082D01*
X142470357Y-93322015D01*
X142412232Y-93345687D01*
X142305247Y-93359771D01*
X142305242Y-93359773D01*
X142173807Y-93414215D01*
X142104338Y-93421684D01*
X142041859Y-93390409D01*
X142038674Y-93387335D01*
X133740819Y-85089480D01*
X133707334Y-85028157D01*
X133704500Y-85001799D01*
X133704500Y-83035871D01*
X133724185Y-82968832D01*
X133749836Y-82940017D01*
X133750764Y-82939254D01*
X133750770Y-82939252D01*
X133903725Y-82813725D01*
X134029252Y-82660770D01*
X134097951Y-82532243D01*
X134122525Y-82486269D01*
X134122525Y-82486268D01*
X134122527Y-82486265D01*
X134179965Y-82296916D01*
X134199360Y-82100000D01*
X134179965Y-81903084D01*
X134122527Y-81713735D01*
X134122525Y-81713732D01*
X134122525Y-81713730D01*
X134029255Y-81539235D01*
X134029251Y-81539228D01*
X133903725Y-81386274D01*
X133750771Y-81260748D01*
X133750764Y-81260744D01*
X133645047Y-81204237D01*
X133595203Y-81155275D01*
X133579500Y-81094879D01*
X133579500Y-78045300D01*
X133599185Y-77978261D01*
X133651989Y-77932506D01*
X133679308Y-77923682D01*
X133724301Y-77914734D01*
X133808484Y-77858484D01*
X133864734Y-77774301D01*
X133879500Y-77700067D01*
X133879500Y-77700014D01*
X134221001Y-77700014D01*
X134235737Y-77774106D01*
X134235738Y-77774109D01*
X134291876Y-77858123D01*
X134375895Y-77914263D01*
X134375896Y-77914264D01*
X134449980Y-77928999D01*
X134624999Y-77928999D01*
X134625000Y-77928998D01*
X134625000Y-77450000D01*
X134221001Y-77450000D01*
X134221001Y-77700014D01*
X133879500Y-77700014D01*
X133879499Y-76699934D01*
X133864734Y-76625699D01*
X133808484Y-76541516D01*
X133808483Y-76541514D01*
X133808149Y-76541180D01*
X133807653Y-76540272D01*
X133801699Y-76531361D01*
X133802496Y-76530828D01*
X133774664Y-76479857D01*
X133779648Y-76410165D01*
X133821520Y-76354232D01*
X133886984Y-76329815D01*
X133895828Y-76329499D01*
X133950066Y-76329499D01*
X134024301Y-76314734D01*
X134108484Y-76258484D01*
X134108485Y-76258483D01*
X134112319Y-76254650D01*
X134173642Y-76221165D01*
X134243334Y-76226149D01*
X134287681Y-76254650D01*
X134291514Y-76258483D01*
X134349455Y-76297198D01*
X134394260Y-76350810D01*
X134402967Y-76420135D01*
X134372813Y-76483163D01*
X134349456Y-76503401D01*
X134291876Y-76541875D01*
X134235736Y-76625895D01*
X134235735Y-76625896D01*
X134221000Y-76699978D01*
X134221000Y-76950000D01*
X135001000Y-76950000D01*
X135068039Y-76969685D01*
X135113794Y-77022489D01*
X135125000Y-77074000D01*
X135125000Y-77928999D01*
X135300015Y-77928999D01*
X135374106Y-77914262D01*
X135374109Y-77914261D01*
X135458123Y-77858123D01*
X135514262Y-77774105D01*
X135521856Y-77735929D01*
X135554240Y-77674017D01*
X135614955Y-77639442D01*
X135684725Y-77643181D01*
X135741398Y-77684046D01*
X135746576Y-77691227D01*
X135791515Y-77758484D01*
X135825234Y-77781014D01*
X135875699Y-77814734D01*
X135875702Y-77814734D01*
X135875703Y-77814735D01*
X135900666Y-77819700D01*
X135949933Y-77829500D01*
X136800066Y-77829499D01*
X136874301Y-77814734D01*
X136958484Y-77758484D01*
X137014734Y-77674301D01*
X137029500Y-77600067D01*
X137029499Y-76599934D01*
X137014734Y-76525699D01*
X136980922Y-76475097D01*
X136960045Y-76408420D01*
X136978529Y-76341040D01*
X136980923Y-76337316D01*
X136983483Y-76333484D01*
X136983484Y-76333484D01*
X137039734Y-76249301D01*
X137054500Y-76175067D01*
X137054499Y-75324934D01*
X137039734Y-75250699D01*
X136989623Y-75175703D01*
X136983484Y-75166515D01*
X136927091Y-75128835D01*
X136899301Y-75110266D01*
X136899299Y-75110265D01*
X136899296Y-75110264D01*
X136825069Y-75095500D01*
X135874936Y-75095500D01*
X135800698Y-75110266D01*
X135800696Y-75110267D01*
X135779575Y-75124380D01*
X135712898Y-75145257D01*
X135645518Y-75126772D01*
X135617517Y-75099753D01*
X135617120Y-75100151D01*
X135608485Y-75091516D01*
X135566392Y-75063391D01*
X135524301Y-75035266D01*
X135524299Y-75035265D01*
X135524296Y-75035264D01*
X135450069Y-75020500D01*
X134449936Y-75020500D01*
X134375698Y-75035266D01*
X134291514Y-75091516D01*
X134287681Y-75095350D01*
X134226358Y-75128835D01*
X134156666Y-75123851D01*
X134112319Y-75095350D01*
X134108485Y-75091516D01*
X134066392Y-75063391D01*
X134024301Y-75035266D01*
X134024299Y-75035265D01*
X134024296Y-75035264D01*
X133950069Y-75020500D01*
X132949936Y-75020500D01*
X132875698Y-75035266D01*
X132791515Y-75091515D01*
X132735266Y-75175699D01*
X132735264Y-75175703D01*
X132720500Y-75249928D01*
X132720500Y-76100063D01*
X132735266Y-76174301D01*
X132791516Y-76258485D01*
X132800151Y-76267120D01*
X132798785Y-76268485D01*
X132833856Y-76310453D01*
X132842562Y-76379778D01*
X132812405Y-76442805D01*
X132752961Y-76479522D01*
X132744359Y-76481554D01*
X132731900Y-76484032D01*
X132725698Y-76485266D01*
X132641515Y-76541515D01*
X132585266Y-76625699D01*
X132585264Y-76625703D01*
X132570500Y-76699928D01*
X132570500Y-77700063D01*
X132585266Y-77774301D01*
X132641515Y-77858484D01*
X132671114Y-77878261D01*
X132725699Y-77914734D01*
X132725702Y-77914734D01*
X132725703Y-77914735D01*
X132770691Y-77923684D01*
X132832602Y-77956068D01*
X132867176Y-78016784D01*
X132870500Y-78045301D01*
X132870500Y-81057463D01*
X132850815Y-81124502D01*
X132804953Y-81166821D01*
X132629235Y-81260743D01*
X132629228Y-81260748D01*
X132476274Y-81386274D01*
X132350748Y-81539228D01*
X132350744Y-81539235D01*
X132257474Y-81713730D01*
X132200034Y-81903085D01*
X132180640Y-82100000D01*
X132200034Y-82296914D01*
X132257474Y-82486269D01*
X132350744Y-82660764D01*
X132350748Y-82660771D01*
X132476274Y-82813725D01*
X132629228Y-82939251D01*
X132629235Y-82939255D01*
X132659154Y-82955247D01*
X132803735Y-83032527D01*
X132907497Y-83064002D01*
X132965933Y-83102298D01*
X132994390Y-83166110D01*
X132995500Y-83182662D01*
X132995500Y-85153329D01*
X132995500Y-85246671D01*
X133019659Y-85336832D01*
X133066329Y-85417668D01*
X141766329Y-94117668D01*
X141832332Y-94183671D01*
X141913168Y-94230341D01*
X141987541Y-94250269D01*
X142047200Y-94286633D01*
X142053823Y-94294558D01*
X142054525Y-94295473D01*
X142170355Y-94384354D01*
X142170361Y-94384357D01*
X142230292Y-94409181D01*
X142305246Y-94440228D01*
X142370320Y-94448795D01*
X142449999Y-94459285D01*
X142450000Y-94459285D01*
X142450001Y-94459285D01*
X142529680Y-94448795D01*
X142594754Y-94440228D01*
X142729643Y-94384355D01*
X142845474Y-94295474D01*
X142934355Y-94179643D01*
X142960149Y-94117370D01*
X143003988Y-94062970D01*
X143070282Y-94040904D01*
X143137981Y-94058183D01*
X143173084Y-94089338D01*
X143254525Y-94195473D01*
X143254526Y-94195474D01*
X143370355Y-94284354D01*
X143370361Y-94284357D01*
X143419049Y-94304524D01*
X143505246Y-94340228D01*
X143577623Y-94349756D01*
X143649999Y-94359285D01*
X143650000Y-94359285D01*
X143650001Y-94359285D01*
X143706095Y-94351900D01*
X143794754Y-94340228D01*
X143824048Y-94328093D01*
X143893516Y-94320625D01*
X143955996Y-94351900D01*
X143991648Y-94411989D01*
X143995500Y-94442655D01*
X143995500Y-94962189D01*
X143975815Y-95029228D01*
X143959185Y-95049866D01*
X143954532Y-95054519D01*
X143954527Y-95054524D01*
X143954526Y-95054526D01*
X143873768Y-95159772D01*
X143865643Y-95170361D01*
X143809772Y-95305245D01*
X143809771Y-95305247D01*
X143790715Y-95449998D01*
X143790715Y-95450001D01*
X143809771Y-95594752D01*
X143809773Y-95594757D01*
X143865642Y-95729638D01*
X143865645Y-95729644D01*
X143954525Y-95845473D01*
X143954526Y-95845474D01*
X144070355Y-95934354D01*
X144070361Y-95934357D01*
X144078384Y-95937680D01*
X144205246Y-95990228D01*
X144277623Y-95999756D01*
X144349999Y-96009285D01*
X144350000Y-96009285D01*
X144350001Y-96009285D01*
X144398251Y-96002932D01*
X144494754Y-95990228D01*
X144629643Y-95934355D01*
X144745474Y-95845474D01*
X144773125Y-95809437D01*
X144829551Y-95768236D01*
X144899297Y-95764081D01*
X144960218Y-95798293D01*
X144992971Y-95860010D01*
X144995500Y-95884925D01*
X144995500Y-96204277D01*
X144975815Y-96271316D01*
X144923011Y-96317071D01*
X144853853Y-96327015D01*
X144839407Y-96324052D01*
X144832360Y-96322163D01*
X144687609Y-96303107D01*
X144687607Y-96303107D01*
X144542855Y-96322163D01*
X144542853Y-96322164D01*
X144407969Y-96378035D01*
X144407966Y-96378036D01*
X144407966Y-96378037D01*
X144292134Y-96466918D01*
X144224359Y-96555245D01*
X144203251Y-96582753D01*
X144147380Y-96717637D01*
X144147379Y-96717639D01*
X144128323Y-96862390D01*
X144128323Y-96862393D01*
X144147379Y-97007144D01*
X144147381Y-97007149D01*
X144203250Y-97142030D01*
X144203253Y-97142036D01*
X144292133Y-97257865D01*
X144292134Y-97257866D01*
X144407963Y-97346746D01*
X144407969Y-97346749D01*
X144463277Y-97369658D01*
X144542854Y-97402620D01*
X144615231Y-97412148D01*
X144687607Y-97421677D01*
X144694192Y-97421677D01*
X144761231Y-97441362D01*
X144781873Y-97457996D01*
X149109181Y-101785304D01*
X149142666Y-101846627D01*
X149145500Y-101872985D01*
X149145500Y-107704800D01*
X149145500Y-107798142D01*
X149158183Y-107845473D01*
X149169659Y-107888303D01*
X149216328Y-107969137D01*
X149216330Y-107969140D01*
X150181009Y-108933819D01*
X150214494Y-108995142D01*
X150209510Y-109064834D01*
X150167638Y-109120767D01*
X150102174Y-109145184D01*
X150093328Y-109145500D01*
X146704284Y-109145500D01*
X146704268Y-109145499D01*
X146696672Y-109145499D01*
X146603329Y-109145499D01*
X146513169Y-109169658D01*
X146513162Y-109169661D01*
X146432338Y-109216324D01*
X146432334Y-109216327D01*
X146317978Y-109330682D01*
X146256654Y-109364166D01*
X146230297Y-109367000D01*
X145711936Y-109367000D01*
X145637698Y-109381766D01*
X145553515Y-109438015D01*
X145497266Y-109522199D01*
X145497264Y-109522203D01*
X145482500Y-109596428D01*
X145482500Y-110596563D01*
X145497266Y-110670801D01*
X145553515Y-110754984D01*
X145574154Y-110768774D01*
X145637699Y-110811234D01*
X145637702Y-110811234D01*
X145637703Y-110811235D01*
X145662666Y-110816200D01*
X145711933Y-110826000D01*
X146083701Y-110825999D01*
X146150739Y-110845683D01*
X146196494Y-110898487D01*
X146206438Y-110967646D01*
X146177413Y-111031201D01*
X146171381Y-111037680D01*
X146099880Y-111109181D01*
X146038557Y-111142666D01*
X146012199Y-111145500D01*
X145324936Y-111145500D01*
X145250698Y-111160266D01*
X145166515Y-111216515D01*
X145110266Y-111300699D01*
X145110263Y-111300705D01*
X145110087Y-111301593D01*
X145109168Y-111303347D01*
X145105591Y-111311985D01*
X145104817Y-111311664D01*
X145077699Y-111363502D01*
X145016982Y-111398074D01*
X144947213Y-111394331D01*
X144919581Y-111380498D01*
X144889303Y-111360267D01*
X144889296Y-111360264D01*
X144815069Y-111345500D01*
X142884936Y-111345500D01*
X142810698Y-111360266D01*
X142810697Y-111360267D01*
X142780415Y-111380500D01*
X142713737Y-111401376D01*
X142646357Y-111382890D01*
X142599669Y-111330910D01*
X142589910Y-111301584D01*
X142589734Y-111300699D01*
X142571068Y-111272765D01*
X142533484Y-111216515D01*
X142479224Y-111180260D01*
X142449301Y-111160266D01*
X142449299Y-111160265D01*
X142449296Y-111160264D01*
X142375071Y-111145500D01*
X142375067Y-111145500D01*
X142156500Y-111145500D01*
X142089461Y-111125815D01*
X142043706Y-111073011D01*
X142032500Y-111021500D01*
X142032500Y-110875534D01*
X142052185Y-110808495D01*
X142087609Y-110772432D01*
X142093082Y-110768775D01*
X142108484Y-110758484D01*
X142164734Y-110674301D01*
X142179500Y-110600067D01*
X142179499Y-109599934D01*
X142179498Y-109599928D01*
X142520500Y-109599928D01*
X142520500Y-110600063D01*
X142535266Y-110674301D01*
X142591515Y-110758484D01*
X142624050Y-110780223D01*
X142675699Y-110814734D01*
X142675702Y-110814734D01*
X142675703Y-110814735D01*
X142700666Y-110819700D01*
X142749933Y-110829500D01*
X143600066Y-110829499D01*
X143674301Y-110814734D01*
X143758484Y-110758484D01*
X143758483Y-110758484D01*
X143764728Y-110754312D01*
X143831406Y-110733434D01*
X143898786Y-110751918D01*
X143902510Y-110754312D01*
X143908754Y-110758484D01*
X143987699Y-110811234D01*
X143987702Y-110811234D01*
X143987703Y-110811235D01*
X144012666Y-110816200D01*
X144061933Y-110826000D01*
X144912066Y-110825999D01*
X144986301Y-110811234D01*
X145070484Y-110754984D01*
X145126734Y-110670801D01*
X145141500Y-110596567D01*
X145141499Y-109596434D01*
X145126734Y-109522199D01*
X145091033Y-109468769D01*
X145070484Y-109438015D01*
X144998598Y-109389983D01*
X144986301Y-109381766D01*
X144986299Y-109381765D01*
X144986296Y-109381764D01*
X144912069Y-109367000D01*
X144061936Y-109367000D01*
X143987698Y-109381766D01*
X143897270Y-109442188D01*
X143830592Y-109463065D01*
X143763212Y-109444580D01*
X143759489Y-109442187D01*
X143681360Y-109389983D01*
X143674301Y-109385266D01*
X143674299Y-109385265D01*
X143674296Y-109385264D01*
X143600069Y-109370500D01*
X142749936Y-109370500D01*
X142675698Y-109385266D01*
X142591515Y-109441515D01*
X142535266Y-109525699D01*
X142535264Y-109525703D01*
X142520500Y-109599928D01*
X142179498Y-109599928D01*
X142164734Y-109525699D01*
X142146068Y-109497765D01*
X142108484Y-109441515D01*
X142031360Y-109389983D01*
X142024301Y-109385266D01*
X142024299Y-109385265D01*
X142024296Y-109385264D01*
X141950069Y-109370500D01*
X141099936Y-109370500D01*
X141025698Y-109385266D01*
X140941515Y-109441515D01*
X140885266Y-109525699D01*
X140885264Y-109525703D01*
X140870500Y-109599928D01*
X140870500Y-110374989D01*
X140850815Y-110442028D01*
X140798011Y-110487783D01*
X140728853Y-110497727D01*
X140699052Y-110489552D01*
X140694757Y-110487773D01*
X140694752Y-110487771D01*
X140550001Y-110468715D01*
X140549999Y-110468715D01*
X140405247Y-110487771D01*
X140405245Y-110487772D01*
X140270361Y-110543643D01*
X140270358Y-110543644D01*
X140270358Y-110543645D01*
X140154526Y-110632526D01*
X140079561Y-110730223D01*
X140065643Y-110748361D01*
X140009772Y-110883245D01*
X140009771Y-110883247D01*
X139990715Y-111027998D01*
X139990715Y-111028001D01*
X140009771Y-111172752D01*
X140009773Y-111172757D01*
X140065642Y-111307638D01*
X140065645Y-111307644D01*
X140154525Y-111423473D01*
X140154526Y-111423474D01*
X140270355Y-111512354D01*
X140270361Y-111512357D01*
X140312096Y-111529644D01*
X140405246Y-111568228D01*
X140529398Y-111584572D01*
X140593293Y-111612838D01*
X140600893Y-111619830D01*
X140659181Y-111678118D01*
X140692666Y-111739441D01*
X140695500Y-111765798D01*
X140695500Y-111875064D01*
X140695501Y-111875067D01*
X140705848Y-111927091D01*
X140705848Y-111975468D01*
X140696000Y-112024982D01*
X140696000Y-112420299D01*
X140676315Y-112487338D01*
X140623511Y-112533093D01*
X140554353Y-112543037D01*
X140490797Y-112514012D01*
X140484319Y-112507980D01*
X140192669Y-112216330D01*
X140192668Y-112216329D01*
X140111832Y-112169659D01*
X140111831Y-112169658D01*
X140111830Y-112169658D01*
X140106043Y-112167261D01*
X140051641Y-112123418D01*
X140029578Y-112057123D01*
X140029499Y-112052701D01*
X140029499Y-111999936D01*
X140029499Y-111999934D01*
X140014734Y-111925699D01*
X139980903Y-111875068D01*
X139958484Y-111841515D01*
X139908019Y-111807796D01*
X139874301Y-111785266D01*
X139874299Y-111785265D01*
X139874296Y-111785264D01*
X139800069Y-111770500D01*
X138949936Y-111770500D01*
X138875698Y-111785266D01*
X138791515Y-111841515D01*
X138735266Y-111925699D01*
X138735264Y-111925703D01*
X138720500Y-111999928D01*
X138720500Y-113000063D01*
X138735266Y-113074301D01*
X138791516Y-113158485D01*
X138795350Y-113162319D01*
X138828835Y-113223642D01*
X138823851Y-113293334D01*
X138795350Y-113337681D01*
X138791516Y-113341514D01*
X138735266Y-113425699D01*
X138735264Y-113425703D01*
X138720500Y-113499928D01*
X138720500Y-114500063D01*
X138735266Y-114574301D01*
X138791515Y-114658484D01*
X138825234Y-114681014D01*
X138875699Y-114714734D01*
X138875702Y-114714734D01*
X138875703Y-114714735D01*
X138900666Y-114719700D01*
X138949933Y-114729500D01*
X139800066Y-114729499D01*
X139874301Y-114714734D01*
X139896385Y-114699978D01*
X140371000Y-114699978D01*
X140371000Y-114950000D01*
X140775000Y-114950000D01*
X141275000Y-114950000D01*
X141678999Y-114950000D01*
X141678999Y-114699985D01*
X141664262Y-114625893D01*
X141664261Y-114625890D01*
X141608123Y-114541876D01*
X141524104Y-114485736D01*
X141524103Y-114485735D01*
X141450021Y-114471000D01*
X141275000Y-114471000D01*
X141275000Y-114950000D01*
X140775000Y-114950000D01*
X140775000Y-114471000D01*
X140599985Y-114471000D01*
X140525893Y-114485737D01*
X140525890Y-114485738D01*
X140441876Y-114541876D01*
X140385736Y-114625895D01*
X140385735Y-114625896D01*
X140371000Y-114699978D01*
X139896385Y-114699978D01*
X139958484Y-114658484D01*
X140014734Y-114574301D01*
X140029500Y-114500067D01*
X140029500Y-114454248D01*
X140049185Y-114387209D01*
X140101989Y-114341454D01*
X140121394Y-114334477D01*
X140136832Y-114330341D01*
X140217668Y-114283671D01*
X140535520Y-113965819D01*
X140596843Y-113932334D01*
X140623201Y-113929500D01*
X140664166Y-113929500D01*
X140731205Y-113949185D01*
X140757610Y-113975122D01*
X140757883Y-113974850D01*
X140766518Y-113983486D01*
X140790014Y-113999185D01*
X140850699Y-114039734D01*
X140850702Y-114039734D01*
X140850703Y-114039735D01*
X140875666Y-114044700D01*
X140924933Y-114054500D01*
X142375066Y-114054499D01*
X142449301Y-114039734D01*
X142533484Y-113983484D01*
X142589734Y-113899301D01*
X142589910Y-113898417D01*
X142590823Y-113896670D01*
X142594409Y-113888015D01*
X142595182Y-113888335D01*
X142622292Y-113836505D01*
X142683006Y-113801928D01*
X142752776Y-113805664D01*
X142780419Y-113819501D01*
X142810699Y-113839734D01*
X142810703Y-113839735D01*
X142835666Y-113844700D01*
X142884933Y-113854500D01*
X144815066Y-113854499D01*
X144889301Y-113839734D01*
X144919581Y-113819500D01*
X144986258Y-113798623D01*
X145053638Y-113817107D01*
X145100329Y-113869086D01*
X145110088Y-113898410D01*
X145110265Y-113899298D01*
X145110266Y-113899301D01*
X145166515Y-113983484D01*
X145190014Y-113999185D01*
X145250699Y-114039734D01*
X145250702Y-114039734D01*
X145250703Y-114039735D01*
X145275666Y-114044700D01*
X145324933Y-114054500D01*
X145596501Y-114054499D01*
X145663539Y-114074183D01*
X145709294Y-114126987D01*
X145720500Y-114178499D01*
X145720500Y-114346500D01*
X145700815Y-114413539D01*
X145648011Y-114459294D01*
X145596500Y-114470500D01*
X144899936Y-114470500D01*
X144825698Y-114485266D01*
X144741515Y-114541515D01*
X144685266Y-114625699D01*
X144685264Y-114625703D01*
X144670500Y-114699928D01*
X144670500Y-115700063D01*
X144685266Y-115774301D01*
X144704866Y-115803634D01*
X144721536Y-115840426D01*
X144741276Y-115914093D01*
X144745500Y-115946181D01*
X144745500Y-116941500D01*
X144725815Y-117008539D01*
X144673011Y-117054294D01*
X144621500Y-117065500D01*
X144578500Y-117065500D01*
X144511461Y-117045815D01*
X144465706Y-116993011D01*
X144454500Y-116941500D01*
X144454500Y-116803330D01*
X144453704Y-116800360D01*
X144430341Y-116713168D01*
X144383671Y-116632332D01*
X144317668Y-116566329D01*
X144267668Y-116516329D01*
X144186832Y-116469659D01*
X144186833Y-116469659D01*
X144151777Y-116460266D01*
X144096671Y-116445500D01*
X143103329Y-116445500D01*
X143062714Y-116456383D01*
X143013166Y-116469659D01*
X143013165Y-116469660D01*
X142970458Y-116494317D01*
X142934393Y-116515139D01*
X142932334Y-116516328D01*
X142932327Y-116516332D01*
X142882333Y-116566328D01*
X142882332Y-116566329D01*
X142816330Y-116632330D01*
X142816328Y-116632333D01*
X142769659Y-116713167D01*
X142769659Y-116713168D01*
X142746297Y-116800357D01*
X142745500Y-116803330D01*
X142745500Y-116941500D01*
X142725815Y-117008539D01*
X142673011Y-117054294D01*
X142621500Y-117065500D01*
X142578500Y-117065500D01*
X142511461Y-117045815D01*
X142465706Y-116993011D01*
X142454500Y-116941500D01*
X142454500Y-116053499D01*
X142474185Y-115986460D01*
X142526989Y-115940705D01*
X142578500Y-115929499D01*
X143100064Y-115929499D01*
X143100066Y-115929499D01*
X143174301Y-115914734D01*
X143258484Y-115858484D01*
X143314734Y-115774301D01*
X143329500Y-115700067D01*
X143329499Y-114699934D01*
X143314734Y-114625699D01*
X143280387Y-114574296D01*
X143258484Y-114541515D01*
X143204902Y-114505713D01*
X143174301Y-114485266D01*
X143174299Y-114485265D01*
X143174296Y-114485264D01*
X143100069Y-114470500D01*
X142249936Y-114470500D01*
X142175698Y-114485266D01*
X142091515Y-114541515D01*
X142035266Y-114625699D01*
X142035264Y-114625703D01*
X142020500Y-114699928D01*
X142020500Y-115061502D01*
X142000815Y-115128541D01*
X141958502Y-115168888D01*
X141915143Y-115193922D01*
X141915141Y-115193923D01*
X141793923Y-115315139D01*
X141751855Y-115388002D01*
X141701287Y-115436217D01*
X141644469Y-115450000D01*
X140371001Y-115450000D01*
X140371001Y-115700013D01*
X140384784Y-115769310D01*
X140378555Y-115838902D01*
X140335692Y-115894079D01*
X140269802Y-115917322D01*
X140263166Y-115917500D01*
X138109798Y-115917500D01*
X138042759Y-115897815D01*
X138022117Y-115881181D01*
X136998984Y-114858047D01*
X136978717Y-114820931D01*
X136950115Y-114808481D01*
X136941959Y-114801022D01*
X136640951Y-114500014D01*
X137071001Y-114500014D01*
X137085737Y-114574106D01*
X137085738Y-114574109D01*
X137132734Y-114644443D01*
X137137500Y-114659664D01*
X137146092Y-114661534D01*
X137155556Y-114667264D01*
X137225895Y-114714263D01*
X137225896Y-114714264D01*
X137299980Y-114728999D01*
X137474999Y-114728999D01*
X137975000Y-114728999D01*
X138150015Y-114728999D01*
X138224106Y-114714262D01*
X138224109Y-114714261D01*
X138308123Y-114658123D01*
X138364263Y-114574104D01*
X138364264Y-114574103D01*
X138378999Y-114500021D01*
X138379000Y-114500018D01*
X138379000Y-114250000D01*
X137975000Y-114250000D01*
X137975000Y-114728999D01*
X137474999Y-114728999D01*
X137475000Y-114728998D01*
X137475000Y-114250000D01*
X137071001Y-114250000D01*
X137071001Y-114500014D01*
X136640951Y-114500014D01*
X136568819Y-114427882D01*
X136535334Y-114366559D01*
X136532500Y-114340201D01*
X136532500Y-113499978D01*
X137071000Y-113499978D01*
X137071000Y-113750000D01*
X137475000Y-113750000D01*
X137975000Y-113750000D01*
X138378999Y-113750000D01*
X138378999Y-113499985D01*
X138364262Y-113425893D01*
X138364261Y-113425890D01*
X138308123Y-113341875D01*
X138303929Y-113337681D01*
X138270444Y-113276358D01*
X138275428Y-113206666D01*
X138303929Y-113162319D01*
X138308123Y-113158124D01*
X138364263Y-113074104D01*
X138364264Y-113074103D01*
X138378999Y-113000021D01*
X138379000Y-113000018D01*
X138379000Y-112750000D01*
X137975000Y-112750000D01*
X137975000Y-113750000D01*
X137475000Y-113750000D01*
X137475000Y-112750000D01*
X137071001Y-112750000D01*
X137071001Y-113000014D01*
X137085737Y-113074106D01*
X137085738Y-113074109D01*
X137141876Y-113158124D01*
X137146071Y-113162319D01*
X137179556Y-113223642D01*
X137174572Y-113293334D01*
X137146071Y-113337681D01*
X137141876Y-113341875D01*
X137085736Y-113425895D01*
X137085735Y-113425896D01*
X137071000Y-113499978D01*
X136532500Y-113499978D01*
X136532500Y-111999978D01*
X137071000Y-111999978D01*
X137071000Y-112250000D01*
X137475000Y-112250000D01*
X137975000Y-112250000D01*
X138378999Y-112250000D01*
X138378999Y-111999985D01*
X138364262Y-111925893D01*
X138364261Y-111925890D01*
X138308123Y-111841876D01*
X138224104Y-111785736D01*
X138224103Y-111785735D01*
X138150021Y-111771000D01*
X137975000Y-111771000D01*
X137975000Y-112250000D01*
X137475000Y-112250000D01*
X137475000Y-111771000D01*
X137299985Y-111771000D01*
X137225893Y-111785737D01*
X137225890Y-111785738D01*
X137141876Y-111841876D01*
X137085736Y-111925895D01*
X137085735Y-111925896D01*
X137071000Y-111999978D01*
X136532500Y-111999978D01*
X136532500Y-110854474D01*
X136552185Y-110787435D01*
X136558125Y-110778987D01*
X136593079Y-110733434D01*
X136634355Y-110679643D01*
X136690228Y-110544754D01*
X136706072Y-110424405D01*
X136709285Y-110400001D01*
X136709285Y-110399998D01*
X136691965Y-110268438D01*
X136690228Y-110255246D01*
X136634355Y-110120358D01*
X136545474Y-110004526D01*
X136429643Y-109915645D01*
X136429640Y-109915644D01*
X136429638Y-109915642D01*
X136294757Y-109859773D01*
X136294752Y-109859771D01*
X136150001Y-109840715D01*
X136149999Y-109840715D01*
X136005247Y-109859771D01*
X136005245Y-109859772D01*
X135870361Y-109915643D01*
X135870358Y-109915644D01*
X135870358Y-109915645D01*
X135754526Y-110004526D01*
X135694748Y-110082431D01*
X135665643Y-110120361D01*
X135609772Y-110255245D01*
X135609771Y-110255247D01*
X135590715Y-110399998D01*
X135590715Y-110400001D01*
X135609771Y-110544752D01*
X135609773Y-110544757D01*
X135665642Y-110679638D01*
X135665645Y-110679644D01*
X135741875Y-110778987D01*
X135767070Y-110844156D01*
X135767500Y-110854474D01*
X135767500Y-114492030D01*
X135767499Y-114492048D01*
X135767499Y-114600356D01*
X135786255Y-114670356D01*
X135793566Y-114697639D01*
X135793567Y-114697642D01*
X135798729Y-114706583D01*
X135837434Y-114773622D01*
X135843924Y-114784862D01*
X135922204Y-114863142D01*
X135922210Y-114863147D01*
X137588535Y-116529471D01*
X137588550Y-116529488D01*
X137593922Y-116534860D01*
X137593923Y-116534861D01*
X137665139Y-116606077D01*
X137741251Y-116650020D01*
X137752360Y-116656434D01*
X137772913Y-116661941D01*
X137772918Y-116661942D01*
X137849643Y-116682501D01*
X137849644Y-116682501D01*
X137957954Y-116682501D01*
X137957970Y-116682500D01*
X140640201Y-116682500D01*
X140707240Y-116702185D01*
X140727882Y-116718819D01*
X140881181Y-116872118D01*
X140914666Y-116933441D01*
X140917500Y-116959799D01*
X140917500Y-117178569D01*
X140911546Y-117208501D01*
X140912648Y-117208721D01*
X140895500Y-117294928D01*
X140895500Y-117294931D01*
X140895500Y-117294933D01*
X140895500Y-117841876D01*
X140895501Y-117916000D01*
X140875817Y-117983039D01*
X140823013Y-118028794D01*
X140771501Y-118040000D01*
X140474000Y-118040000D01*
X140406961Y-118020315D01*
X140361206Y-117967511D01*
X140350000Y-117916000D01*
X140350000Y-117065999D01*
X140324986Y-117066000D01*
X140324985Y-117066000D01*
X140250892Y-117080737D01*
X140250890Y-117080738D01*
X140166876Y-117136876D01*
X140145728Y-117168526D01*
X140092115Y-117213331D01*
X140022790Y-117222038D01*
X139973736Y-117202737D01*
X139929532Y-117173201D01*
X139929514Y-117173191D01*
X139774107Y-117108820D01*
X139774095Y-117108817D01*
X139609115Y-117076000D01*
X139440885Y-117076000D01*
X139275904Y-117108817D01*
X139275892Y-117108820D01*
X139120485Y-117173191D01*
X139120472Y-117173198D01*
X138980608Y-117266653D01*
X138861652Y-117385610D01*
X138861651Y-117385612D01*
X138830613Y-117432061D01*
X139238536Y-117839983D01*
X139225000Y-117890504D01*
X139225000Y-119069496D01*
X139238536Y-119120015D01*
X138830614Y-119527937D01*
X138830614Y-119527938D01*
X138861651Y-119574387D01*
X138861652Y-119574389D01*
X138971081Y-119683819D01*
X139004565Y-119745142D01*
X138999581Y-119814834D01*
X138957709Y-119870767D01*
X138892245Y-119895184D01*
X138883399Y-119895500D01*
X137796744Y-119895500D01*
X137715609Y-119917239D01*
X137715608Y-119917240D01*
X137706420Y-119919702D01*
X137693869Y-119923065D01*
X137693867Y-119923066D01*
X137601631Y-119976319D01*
X137491180Y-120086771D01*
X137429857Y-120120255D01*
X137360165Y-120115271D01*
X137304232Y-120073399D01*
X137279815Y-120007935D01*
X137279499Y-119999089D01*
X137279499Y-119649936D01*
X137279499Y-119649934D01*
X137264734Y-119575699D01*
X137234511Y-119530468D01*
X137208484Y-119491515D01*
X137154203Y-119455246D01*
X137124301Y-119435266D01*
X137124299Y-119435265D01*
X137124296Y-119435264D01*
X137050069Y-119420500D01*
X136049936Y-119420500D01*
X135975698Y-119435266D01*
X135975696Y-119435267D01*
X135922388Y-119470886D01*
X135855711Y-119491763D01*
X135788331Y-119473277D01*
X135741641Y-119421298D01*
X135729499Y-119367786D01*
X135729499Y-119131612D01*
X135749184Y-119064575D01*
X135801988Y-119018820D01*
X135871146Y-119008876D01*
X135922390Y-119028512D01*
X135975895Y-119064263D01*
X135975896Y-119064264D01*
X136049980Y-119078999D01*
X136299999Y-119078999D01*
X136800000Y-119078999D01*
X137050015Y-119078999D01*
X137124106Y-119064262D01*
X137124109Y-119064261D01*
X137208123Y-119008123D01*
X137226616Y-118980447D01*
X138671000Y-118980447D01*
X139171447Y-118480000D01*
X139171447Y-118479999D01*
X138671000Y-117979552D01*
X138671000Y-118980447D01*
X137226616Y-118980447D01*
X137264263Y-118924104D01*
X137264264Y-118924103D01*
X137278999Y-118850021D01*
X137279000Y-118850018D01*
X137279000Y-118675000D01*
X136800000Y-118675000D01*
X136800000Y-119078999D01*
X136299999Y-119078999D01*
X136300000Y-119078998D01*
X136300000Y-118675000D01*
X135812135Y-118675000D01*
X135770343Y-118697820D01*
X135700651Y-118692836D01*
X135669124Y-118672574D01*
X135668639Y-118673301D01*
X135616433Y-118638418D01*
X135574301Y-118610266D01*
X135574299Y-118610265D01*
X135574296Y-118610264D01*
X135500071Y-118595500D01*
X135500067Y-118595500D01*
X135328500Y-118595500D01*
X135261461Y-118575815D01*
X135215706Y-118523011D01*
X135204500Y-118471500D01*
X135204500Y-118160355D01*
X135224185Y-118093316D01*
X135276989Y-118047561D01*
X135292488Y-118042555D01*
X135299296Y-118039734D01*
X135299301Y-118039734D01*
X135358799Y-117999978D01*
X135821000Y-117999978D01*
X135821000Y-118175000D01*
X136300000Y-118175000D01*
X136800000Y-118175000D01*
X137278999Y-118175000D01*
X137278999Y-117999985D01*
X137264262Y-117925893D01*
X137264261Y-117925890D01*
X137208123Y-117841876D01*
X137124104Y-117785736D01*
X137124103Y-117785735D01*
X137050021Y-117771000D01*
X136800000Y-117771000D01*
X136800000Y-118175000D01*
X136300000Y-118175000D01*
X136300000Y-117771000D01*
X136049985Y-117771000D01*
X135975893Y-117785737D01*
X135975890Y-117785738D01*
X135891876Y-117841876D01*
X135835736Y-117925895D01*
X135835735Y-117925896D01*
X135821000Y-117999978D01*
X135358799Y-117999978D01*
X135383484Y-117983484D01*
X135439734Y-117899301D01*
X135454500Y-117825067D01*
X135454499Y-116674934D01*
X135439734Y-116600699D01*
X135397491Y-116537479D01*
X135383483Y-116516514D01*
X135350263Y-116494317D01*
X135305459Y-116440705D01*
X135296752Y-116371380D01*
X135310729Y-116335858D01*
X135310061Y-116335581D01*
X135314731Y-116324305D01*
X135314734Y-116324301D01*
X135329500Y-116250067D01*
X135329499Y-115249934D01*
X135314734Y-115175699D01*
X135275502Y-115116985D01*
X135258484Y-115091515D01*
X135199340Y-115051997D01*
X135174301Y-115035266D01*
X135174299Y-115035265D01*
X135174297Y-115035264D01*
X135129307Y-115026315D01*
X135067397Y-114993929D01*
X135032823Y-114933213D01*
X135029500Y-114904698D01*
X135029500Y-106373200D01*
X135049185Y-106306161D01*
X135065814Y-106285524D01*
X136783820Y-104567518D01*
X136845142Y-104534034D01*
X136914834Y-104539018D01*
X136970767Y-104580890D01*
X136995184Y-104646354D01*
X136995500Y-104655200D01*
X136995500Y-110053329D01*
X136995500Y-110146671D01*
X137019659Y-110236832D01*
X137070393Y-110324707D01*
X137068807Y-110325622D01*
X137090322Y-110381269D01*
X137090077Y-110391873D01*
X137090715Y-110391873D01*
X137090715Y-110400001D01*
X137109771Y-110544752D01*
X137109773Y-110544757D01*
X137165642Y-110679638D01*
X137165645Y-110679644D01*
X137254525Y-110795473D01*
X137254526Y-110795474D01*
X137370355Y-110884354D01*
X137370361Y-110884357D01*
X137437801Y-110912291D01*
X137505246Y-110940228D01*
X137577623Y-110949756D01*
X137649999Y-110959285D01*
X137650000Y-110959285D01*
X137650001Y-110959285D01*
X137698251Y-110952932D01*
X137794754Y-110940228D01*
X137929643Y-110884355D01*
X138045474Y-110795474D01*
X138134355Y-110679643D01*
X138190228Y-110544754D01*
X138206072Y-110424405D01*
X138209285Y-110400001D01*
X138209285Y-110399998D01*
X138191965Y-110268438D01*
X138190228Y-110255246D01*
X138134355Y-110120358D01*
X138045474Y-110004526D01*
X137929643Y-109915645D01*
X137929640Y-109915644D01*
X137929638Y-109915642D01*
X137787246Y-109856662D01*
X137787917Y-109855041D01*
X137736743Y-109823846D01*
X137706216Y-109760998D01*
X137704500Y-109740440D01*
X137704500Y-104898199D01*
X137724185Y-104831160D01*
X137740814Y-104810523D01*
X143678390Y-98872946D01*
X143739711Y-98839463D01*
X143809403Y-98844447D01*
X143841551Y-98862251D01*
X143870357Y-98884355D01*
X143870358Y-98884355D01*
X143870359Y-98884356D01*
X143870361Y-98884357D01*
X143937801Y-98912291D01*
X144005246Y-98940228D01*
X144077623Y-98949756D01*
X144149999Y-98959285D01*
X144150000Y-98959285D01*
X144150001Y-98959285D01*
X144198251Y-98952932D01*
X144294754Y-98940228D01*
X144429643Y-98884355D01*
X144545474Y-98795474D01*
X144634355Y-98679643D01*
X144690228Y-98544754D01*
X144709285Y-98400000D01*
X144690228Y-98255246D01*
X144634355Y-98120358D01*
X144545474Y-98004526D01*
X144429643Y-97915645D01*
X144429640Y-97915644D01*
X144429638Y-97915642D01*
X144294757Y-97859773D01*
X144294752Y-97859771D01*
X144150001Y-97840715D01*
X144149996Y-97840715D01*
X144148165Y-97840956D01*
X144146620Y-97840715D01*
X144141873Y-97840715D01*
X144141873Y-97839974D01*
X144079130Y-97830189D01*
X144026875Y-97783809D01*
X144007991Y-97716539D01*
X144009042Y-97701843D01*
X144009285Y-97700000D01*
X143990228Y-97555246D01*
X143934355Y-97420358D01*
X143845474Y-97304526D01*
X143729643Y-97215645D01*
X143729640Y-97215644D01*
X143729638Y-97215642D01*
X143594757Y-97159773D01*
X143594755Y-97159772D01*
X143594754Y-97159772D01*
X143573715Y-97157002D01*
X143557384Y-97154852D01*
X143493487Y-97126585D01*
X143455017Y-97068260D01*
X143450631Y-97015731D01*
X143459285Y-96950000D01*
X143458594Y-96944754D01*
X143440228Y-96805247D01*
X143440228Y-96805246D01*
X143384355Y-96670358D01*
X143295474Y-96554526D01*
X143295470Y-96554522D01*
X143295467Y-96554519D01*
X143290815Y-96549866D01*
X143257333Y-96488541D01*
X143254500Y-96462189D01*
X143254500Y-96003330D01*
X143254500Y-96003329D01*
X143230341Y-95913168D01*
X143183671Y-95832332D01*
X143117668Y-95766329D01*
X141867668Y-94516329D01*
X141786832Y-94469659D01*
X141786833Y-94469659D01*
X141748116Y-94459285D01*
X141696671Y-94445500D01*
X141696669Y-94445500D01*
X141048201Y-94445500D01*
X140981162Y-94425815D01*
X140960520Y-94409181D01*
X130840819Y-84289480D01*
X130807334Y-84228157D01*
X130804500Y-84201799D01*
X130804500Y-83194796D01*
X130824185Y-83127757D01*
X130876989Y-83082002D01*
X130892494Y-83076139D01*
X131036265Y-83032527D01*
X131056978Y-83021456D01*
X131162717Y-82964937D01*
X131210770Y-82939252D01*
X131363725Y-82813725D01*
X131489252Y-82660770D01*
X131557951Y-82532243D01*
X131582525Y-82486269D01*
X131582525Y-82486268D01*
X131582527Y-82486265D01*
X131639965Y-82296916D01*
X131659360Y-82100000D01*
X131639965Y-81903084D01*
X131582527Y-81713735D01*
X131582525Y-81713732D01*
X131582525Y-81713730D01*
X131489255Y-81539235D01*
X131489251Y-81539228D01*
X131363725Y-81386274D01*
X131210771Y-81260748D01*
X131210764Y-81260744D01*
X131036269Y-81167474D01*
X130941590Y-81138754D01*
X130846916Y-81110035D01*
X130846914Y-81110034D01*
X130846916Y-81110034D01*
X130650000Y-81090640D01*
X130453085Y-81110034D01*
X130263730Y-81167474D01*
X130089235Y-81260744D01*
X130089228Y-81260748D01*
X129936274Y-81386274D01*
X129810748Y-81539228D01*
X129810744Y-81539235D01*
X129717474Y-81713730D01*
X129660034Y-81903085D01*
X129640640Y-82100000D01*
X129660034Y-82296914D01*
X129717474Y-82486269D01*
X129810744Y-82660764D01*
X129810748Y-82660771D01*
X129859653Y-82720361D01*
X129936275Y-82813725D01*
X129986868Y-82855246D01*
X130050164Y-82907191D01*
X130089499Y-82964937D01*
X130095500Y-83003045D01*
X130095500Y-84353329D01*
X130095500Y-84446671D01*
X130119659Y-84536832D01*
X130166329Y-84617668D01*
X140566329Y-95017668D01*
X140632332Y-95083671D01*
X140713168Y-95130341D01*
X140803329Y-95154500D01*
X141451799Y-95154500D01*
X141518838Y-95174185D01*
X141539480Y-95190819D01*
X141654480Y-95305819D01*
X141687965Y-95367142D01*
X141682981Y-95436834D01*
X141641109Y-95492767D01*
X141575645Y-95517184D01*
X141566799Y-95517500D01*
X133459799Y-95517500D01*
X133392760Y-95497815D01*
X133372118Y-95481181D01*
X125968819Y-88077882D01*
X125935334Y-88016559D01*
X125932500Y-87990201D01*
X125932500Y-83108862D01*
X125952185Y-83041823D01*
X125998047Y-82999504D01*
X126062541Y-82965031D01*
X127598520Y-82965031D01*
X127598520Y-82965032D01*
X127723920Y-83032060D01*
X127913185Y-83089473D01*
X128110000Y-83108857D01*
X128306814Y-83089473D01*
X128496078Y-83032060D01*
X128621479Y-82965032D01*
X128621479Y-82965031D01*
X128110001Y-82453553D01*
X128110000Y-82453553D01*
X127598520Y-82965031D01*
X126062541Y-82965031D01*
X126064502Y-82963983D01*
X126110770Y-82939252D01*
X126263725Y-82813725D01*
X126389252Y-82660770D01*
X126457951Y-82532243D01*
X126482525Y-82486269D01*
X126482525Y-82486268D01*
X126482527Y-82486265D01*
X126539965Y-82296916D01*
X126559360Y-82100000D01*
X127101142Y-82100000D01*
X127120526Y-82296814D01*
X127177938Y-82486074D01*
X127244967Y-82611478D01*
X127756447Y-82100000D01*
X127756447Y-82099999D01*
X128463553Y-82099999D01*
X128463553Y-82100000D01*
X128975031Y-82611479D01*
X128975032Y-82611479D01*
X129042060Y-82486078D01*
X129099473Y-82296814D01*
X129118857Y-82100000D01*
X129099473Y-81903185D01*
X129042060Y-81713920D01*
X128975032Y-81588520D01*
X128975031Y-81588520D01*
X128463553Y-82099999D01*
X127756447Y-82099999D01*
X127244967Y-81588520D01*
X127177938Y-81713925D01*
X127120526Y-81903185D01*
X127101142Y-82100000D01*
X126559360Y-82100000D01*
X126539965Y-81903084D01*
X126482527Y-81713735D01*
X126482525Y-81713732D01*
X126482525Y-81713730D01*
X126389255Y-81539235D01*
X126389251Y-81539228D01*
X126263725Y-81386274D01*
X126110771Y-81260748D01*
X126110764Y-81260744D01*
X126062539Y-81234967D01*
X127598520Y-81234967D01*
X128110000Y-81746447D01*
X128110001Y-81746447D01*
X128621478Y-81234967D01*
X128621478Y-81234966D01*
X128496074Y-81167938D01*
X128306814Y-81110526D01*
X128110000Y-81091142D01*
X127913185Y-81110526D01*
X127723925Y-81167938D01*
X127598520Y-81234967D01*
X126062539Y-81234967D01*
X125936269Y-81167474D01*
X125841590Y-81138754D01*
X125746916Y-81110035D01*
X125746914Y-81110034D01*
X125746916Y-81110034D01*
X125550000Y-81090640D01*
X125353085Y-81110034D01*
X125163730Y-81167474D01*
X124989235Y-81260744D01*
X124989228Y-81260748D01*
X124836274Y-81386274D01*
X124710748Y-81539228D01*
X124710744Y-81539235D01*
X124617474Y-81713730D01*
X124560034Y-81903085D01*
X124540640Y-82100000D01*
X124560034Y-82296914D01*
X124617474Y-82486269D01*
X124710744Y-82660764D01*
X124710748Y-82660771D01*
X124836274Y-82813725D01*
X124989228Y-82939251D01*
X124989235Y-82939255D01*
X125101953Y-82999504D01*
X125151797Y-83048466D01*
X125167500Y-83108862D01*
X125167500Y-88142030D01*
X125167499Y-88142048D01*
X125167499Y-88250356D01*
X125190257Y-88335290D01*
X125190257Y-88335292D01*
X125193564Y-88347635D01*
X125193565Y-88347639D01*
X125193566Y-88347640D01*
X125243923Y-88434861D01*
X125243925Y-88434863D01*
X125322204Y-88513142D01*
X125322210Y-88513147D01*
X132571381Y-95762318D01*
X132604866Y-95823641D01*
X132599882Y-95893333D01*
X132571381Y-95937680D01*
X131252641Y-97256421D01*
X131181424Y-97327637D01*
X131181422Y-97327639D01*
X131157164Y-97369658D01*
X131157162Y-97369660D01*
X131131068Y-97414854D01*
X131131067Y-97414855D01*
X131125842Y-97434355D01*
X131104999Y-97512143D01*
X131104999Y-97512145D01*
X131104999Y-97622846D01*
X131105000Y-97622859D01*
X131105000Y-102446500D01*
X131085315Y-102513539D01*
X131032511Y-102559294D01*
X130981001Y-102570500D01*
X130899936Y-102570500D01*
X130825698Y-102585266D01*
X130741515Y-102641515D01*
X130685266Y-102725699D01*
X130685264Y-102725703D01*
X130670500Y-102799928D01*
X130670500Y-103924700D01*
X130650815Y-103991739D01*
X130634181Y-104012381D01*
X127771336Y-106875225D01*
X127712944Y-106907109D01*
X127713095Y-106907669D01*
X127710786Y-106908287D01*
X127710013Y-106908710D01*
X127707711Y-106909111D01*
X127705244Y-106909772D01*
X127570361Y-106965643D01*
X127454526Y-107054526D01*
X127365643Y-107170361D01*
X127309772Y-107305245D01*
X127309771Y-107305247D01*
X127290715Y-107449998D01*
X127290715Y-107450001D01*
X127309771Y-107594752D01*
X127309773Y-107594757D01*
X127365642Y-107729638D01*
X127365645Y-107729644D01*
X127454525Y-107845473D01*
X127454526Y-107845474D01*
X127570355Y-107934354D01*
X127570361Y-107934357D01*
X127637801Y-107962291D01*
X127705246Y-107990228D01*
X127777623Y-107999756D01*
X127849999Y-108009285D01*
X127850000Y-108009285D01*
X127850001Y-108009285D01*
X127898251Y-108002932D01*
X127994754Y-107990228D01*
X128129643Y-107934355D01*
X128245474Y-107845474D01*
X128334355Y-107729643D01*
X128390228Y-107594754D01*
X128405382Y-107479644D01*
X128409285Y-107450001D01*
X128409285Y-107449999D01*
X128402044Y-107395000D01*
X128412809Y-107325964D01*
X128437299Y-107291136D01*
X130862618Y-104865816D01*
X130923939Y-104832333D01*
X130950288Y-104829499D01*
X131312200Y-104829499D01*
X131379239Y-104849184D01*
X131399881Y-104865818D01*
X131859181Y-105325117D01*
X131892666Y-105386440D01*
X131895500Y-105412796D01*
X131895500Y-105475064D01*
X131910821Y-105552091D01*
X131910821Y-105600470D01*
X131896000Y-105674984D01*
X131896000Y-106657552D01*
X131876315Y-106724591D01*
X131823511Y-106770346D01*
X131754353Y-106780290D01*
X131724549Y-106772113D01*
X131694754Y-106759772D01*
X131694752Y-106759771D01*
X131550001Y-106740715D01*
X131549999Y-106740715D01*
X131405247Y-106759771D01*
X131405245Y-106759772D01*
X131270361Y-106815643D01*
X131154526Y-106904526D01*
X131065643Y-107020361D01*
X131009772Y-107155245D01*
X131009771Y-107155247D01*
X130990715Y-107299998D01*
X130990715Y-107300001D01*
X131009771Y-107444752D01*
X131009773Y-107444757D01*
X131065642Y-107579638D01*
X131065642Y-107579639D01*
X131065644Y-107579642D01*
X131065645Y-107579643D01*
X131151955Y-107692124D01*
X131154530Y-107695479D01*
X131159181Y-107700130D01*
X131192666Y-107761453D01*
X131195500Y-107787811D01*
X131195500Y-110603329D01*
X131195500Y-110696671D01*
X131219659Y-110786832D01*
X131259266Y-110855435D01*
X131266328Y-110867666D01*
X131266330Y-110867669D01*
X131503764Y-111105103D01*
X131537249Y-111166426D01*
X131532265Y-111236118D01*
X131498496Y-111281225D01*
X131500151Y-111282880D01*
X131491516Y-111291514D01*
X131453102Y-111349006D01*
X131399490Y-111393811D01*
X131330165Y-111402518D01*
X131267137Y-111372364D01*
X131246898Y-111349006D01*
X131208484Y-111291515D01*
X131146353Y-111250001D01*
X131124301Y-111235266D01*
X131124299Y-111235265D01*
X131124296Y-111235264D01*
X131050069Y-111220500D01*
X130049936Y-111220500D01*
X129975698Y-111235266D01*
X129908538Y-111280141D01*
X129841860Y-111301018D01*
X129774480Y-111282533D01*
X129736546Y-111245929D01*
X129683484Y-111166516D01*
X129622570Y-111125815D01*
X129599301Y-111110267D01*
X129599299Y-111110266D01*
X129599296Y-111110265D01*
X129525069Y-111095501D01*
X128574936Y-111095501D01*
X128500698Y-111110267D01*
X128416515Y-111166516D01*
X128360266Y-111250700D01*
X128360264Y-111250704D01*
X128345500Y-111324929D01*
X128345500Y-112175064D01*
X128360266Y-112249302D01*
X128416515Y-112333485D01*
X128440874Y-112349761D01*
X128500699Y-112389735D01*
X128500702Y-112389735D01*
X128500703Y-112389736D01*
X128522206Y-112394013D01*
X128574933Y-112404501D01*
X129525066Y-112404500D01*
X129599301Y-112389735D01*
X129666460Y-112344859D01*
X129733137Y-112323982D01*
X129800517Y-112342466D01*
X129838453Y-112379071D01*
X129891515Y-112458484D01*
X129919014Y-112476858D01*
X129975699Y-112514734D01*
X129975702Y-112514734D01*
X129975703Y-112514735D01*
X130000666Y-112519700D01*
X130049933Y-112529500D01*
X130601798Y-112529499D01*
X130668837Y-112549183D01*
X130689479Y-112565818D01*
X130782480Y-112658819D01*
X130815965Y-112720142D01*
X130810981Y-112789834D01*
X130769109Y-112845767D01*
X130703645Y-112870184D01*
X130694799Y-112870500D01*
X130049936Y-112870500D01*
X129975698Y-112885266D01*
X129891516Y-112941515D01*
X129838453Y-113020929D01*
X129784840Y-113065733D01*
X129715515Y-113074440D01*
X129666461Y-113055140D01*
X129622398Y-113025698D01*
X129599301Y-113010265D01*
X129599300Y-113010264D01*
X129599299Y-113010264D01*
X129599296Y-113010263D01*
X129525069Y-112995499D01*
X128574936Y-112995499D01*
X128500698Y-113010265D01*
X128416515Y-113066514D01*
X128360266Y-113150698D01*
X128360264Y-113150702D01*
X128345500Y-113224927D01*
X128345500Y-114075062D01*
X128360266Y-114149300D01*
X128416515Y-114233483D01*
X128441235Y-114250000D01*
X128500699Y-114289733D01*
X128500702Y-114289733D01*
X128500703Y-114289734D01*
X128545691Y-114298683D01*
X128607602Y-114331067D01*
X128642176Y-114391783D01*
X128645500Y-114420300D01*
X128645500Y-114546747D01*
X128645500Y-114653253D01*
X128673066Y-114756131D01*
X128726320Y-114848369D01*
X128726322Y-114848371D01*
X129612886Y-115734936D01*
X129646371Y-115796259D01*
X129648144Y-115806431D01*
X129657084Y-115874340D01*
X129659772Y-115894753D01*
X129659773Y-115894757D01*
X129715642Y-116029638D01*
X129715645Y-116029644D01*
X129804525Y-116145473D01*
X129804526Y-116145474D01*
X129920355Y-116234354D01*
X129920361Y-116234357D01*
X129980543Y-116259285D01*
X130055246Y-116290228D01*
X130127623Y-116299756D01*
X130199999Y-116309285D01*
X130200000Y-116309285D01*
X130200001Y-116309285D01*
X130248251Y-116302932D01*
X130344754Y-116290228D01*
X130479643Y-116234355D01*
X130595474Y-116145474D01*
X130684355Y-116029643D01*
X130740228Y-115894754D01*
X130759285Y-115750000D01*
X130752959Y-115701952D01*
X130740228Y-115605247D01*
X130740228Y-115605246D01*
X130684355Y-115470358D01*
X130595474Y-115354526D01*
X130479643Y-115265645D01*
X130479640Y-115265644D01*
X130479638Y-115265642D01*
X130344757Y-115209773D01*
X130344755Y-115209772D01*
X130344754Y-115209772D01*
X130256431Y-115198144D01*
X130192535Y-115169877D01*
X130184936Y-115162886D01*
X129523524Y-114501474D01*
X129490039Y-114440151D01*
X129495023Y-114370459D01*
X129536895Y-114314526D01*
X129587015Y-114292176D01*
X129599301Y-114289733D01*
X129683484Y-114233483D01*
X129689620Y-114224301D01*
X129736546Y-114154071D01*
X129790158Y-114109265D01*
X129859483Y-114100558D01*
X129908538Y-114119859D01*
X129960501Y-114154579D01*
X129975699Y-114164734D01*
X129975702Y-114164734D01*
X129975703Y-114164735D01*
X130000666Y-114169700D01*
X130049933Y-114179500D01*
X131050066Y-114179499D01*
X131124301Y-114164734D01*
X131208484Y-114108484D01*
X131246899Y-114050991D01*
X131300509Y-114006188D01*
X131369834Y-113997481D01*
X131432862Y-114027635D01*
X131453098Y-114050988D01*
X131491516Y-114108484D01*
X131575699Y-114164734D01*
X131585854Y-114171519D01*
X131583936Y-114174388D01*
X131622400Y-114205382D01*
X131644467Y-114271675D01*
X131627190Y-114339375D01*
X131576054Y-114386987D01*
X131536732Y-114399044D01*
X131455246Y-114409772D01*
X131455245Y-114409772D01*
X131320361Y-114465643D01*
X131320358Y-114465644D01*
X131320358Y-114465645D01*
X131204526Y-114554526D01*
X131124757Y-114658484D01*
X131115643Y-114670361D01*
X131059772Y-114805245D01*
X131059771Y-114805247D01*
X131040715Y-114949998D01*
X131040715Y-114950000D01*
X131059771Y-115094752D01*
X131059773Y-115094757D01*
X131115642Y-115229638D01*
X131115645Y-115229644D01*
X131204525Y-115345473D01*
X131204526Y-115345474D01*
X131320355Y-115434354D01*
X131320361Y-115434357D01*
X131358127Y-115450000D01*
X131455246Y-115490228D01*
X131526761Y-115499643D01*
X131599999Y-115509285D01*
X131606584Y-115509285D01*
X131673623Y-115528970D01*
X131694265Y-115545604D01*
X132116329Y-115967668D01*
X132182332Y-116033671D01*
X132263168Y-116080341D01*
X132278595Y-116084474D01*
X132338255Y-116120839D01*
X132368784Y-116183686D01*
X132370501Y-116204249D01*
X132370501Y-116250066D01*
X132385265Y-116324296D01*
X132385266Y-116324301D01*
X132399117Y-116345030D01*
X132419994Y-116411708D01*
X132414675Y-116449916D01*
X132412066Y-116458513D01*
X132850000Y-116896447D01*
X132850001Y-116896447D01*
X133230628Y-116515818D01*
X133291951Y-116482333D01*
X133318307Y-116479499D01*
X133450066Y-116479499D01*
X133524301Y-116464734D01*
X133608484Y-116408484D01*
X133664734Y-116324301D01*
X133679500Y-116250067D01*
X133679499Y-115249934D01*
X133664734Y-115175699D01*
X133625502Y-115116985D01*
X133608484Y-115091515D01*
X133549340Y-115051997D01*
X133524301Y-115035266D01*
X133524299Y-115035265D01*
X133524296Y-115035264D01*
X133450069Y-115020500D01*
X132599936Y-115020500D01*
X132525698Y-115035266D01*
X132441514Y-115091516D01*
X132432880Y-115100151D01*
X132430535Y-115097806D01*
X132392255Y-115129787D01*
X132322929Y-115138483D01*
X132259906Y-115108318D01*
X132255103Y-115103764D01*
X132195604Y-115044265D01*
X132162119Y-114982942D01*
X132159285Y-114956584D01*
X132159285Y-114949998D01*
X132140228Y-114805247D01*
X132140228Y-114805246D01*
X132084355Y-114670358D01*
X131995474Y-114554526D01*
X131879643Y-114465645D01*
X131879639Y-114465643D01*
X131764764Y-114418060D01*
X131710361Y-114374219D01*
X131688296Y-114307925D01*
X131705575Y-114240225D01*
X131756713Y-114192615D01*
X131812213Y-114179499D01*
X132650066Y-114179499D01*
X132724301Y-114164734D01*
X132808484Y-114108484D01*
X132864734Y-114024301D01*
X132879500Y-113950067D01*
X132879499Y-113099934D01*
X132864734Y-113025699D01*
X132841893Y-112991515D01*
X132808484Y-112941515D01*
X132747571Y-112900815D01*
X132724301Y-112885266D01*
X132724299Y-112885265D01*
X132724296Y-112885264D01*
X132650071Y-112870500D01*
X132650067Y-112870500D01*
X132048201Y-112870500D01*
X131981162Y-112850815D01*
X131960520Y-112834181D01*
X131867519Y-112741180D01*
X131834034Y-112679857D01*
X131839018Y-112610165D01*
X131880890Y-112554232D01*
X131946354Y-112529815D01*
X131955200Y-112529499D01*
X132650064Y-112529499D01*
X132650066Y-112529499D01*
X132724301Y-112514734D01*
X132808484Y-112458484D01*
X132864734Y-112374301D01*
X132879500Y-112300067D01*
X132879499Y-111449934D01*
X132864734Y-111375699D01*
X132830814Y-111324935D01*
X132808484Y-111291515D01*
X132746353Y-111250001D01*
X132724301Y-111235266D01*
X132724299Y-111235265D01*
X132724296Y-111235264D01*
X132650071Y-111220500D01*
X132650067Y-111220500D01*
X132604249Y-111220500D01*
X132537210Y-111200815D01*
X132491455Y-111148011D01*
X132484476Y-111128602D01*
X132480341Y-111113168D01*
X132433671Y-111032332D01*
X132367668Y-110966329D01*
X131940819Y-110539480D01*
X131907334Y-110478157D01*
X131904500Y-110451799D01*
X131904500Y-108555201D01*
X131924185Y-108488162D01*
X131976989Y-108442407D01*
X132046147Y-108432463D01*
X132109703Y-108461488D01*
X132116181Y-108467520D01*
X132339252Y-108690591D01*
X132360905Y-108722995D01*
X132361581Y-108722605D01*
X132365643Y-108729641D01*
X132454525Y-108845473D01*
X132454526Y-108845474D01*
X132570355Y-108934354D01*
X132570361Y-108934357D01*
X132594190Y-108944227D01*
X132705246Y-108990228D01*
X132777623Y-108999756D01*
X132849999Y-109009285D01*
X132850000Y-109009285D01*
X132850001Y-109009285D01*
X132898251Y-109002932D01*
X132994754Y-108990228D01*
X133129643Y-108934355D01*
X133245474Y-108845474D01*
X133245476Y-108845472D01*
X133250134Y-108840815D01*
X133311459Y-108807333D01*
X133337811Y-108804500D01*
X133396669Y-108804500D01*
X133396671Y-108804500D01*
X133486832Y-108780341D01*
X133567668Y-108733671D01*
X133817666Y-108483672D01*
X133817668Y-108483671D01*
X133883671Y-108417668D01*
X133930341Y-108336832D01*
X133954500Y-108246671D01*
X133954500Y-107589646D01*
X133974185Y-107522607D01*
X133975400Y-107520753D01*
X133989734Y-107499301D01*
X133989735Y-107499299D01*
X134004499Y-107425071D01*
X134004500Y-107425067D01*
X134004499Y-106924934D01*
X133989734Y-106850699D01*
X133989732Y-106850696D01*
X133989178Y-106847909D01*
X133989179Y-106799527D01*
X134003999Y-106725018D01*
X134003999Y-105674986D01*
X133989178Y-105600473D01*
X133989179Y-105552091D01*
X133993409Y-105530826D01*
X134004500Y-105475067D01*
X134004499Y-104974934D01*
X134003902Y-104968872D01*
X134005708Y-104968694D01*
X134011175Y-104907600D01*
X134054037Y-104852422D01*
X134119927Y-104829177D01*
X134126565Y-104828999D01*
X134162500Y-104828999D01*
X134662500Y-104828999D01*
X135000015Y-104828999D01*
X135074106Y-104814262D01*
X135074109Y-104814261D01*
X135158123Y-104758123D01*
X135214263Y-104674104D01*
X135214264Y-104674103D01*
X135228999Y-104600021D01*
X135229000Y-104600018D01*
X135229000Y-103950000D01*
X134662500Y-103950000D01*
X134662500Y-104828999D01*
X134162500Y-104828999D01*
X134162500Y-103950000D01*
X133596001Y-103950000D01*
X133596001Y-104600016D01*
X133596598Y-104606078D01*
X133594662Y-104606268D01*
X133589232Y-104666909D01*
X133546365Y-104722083D01*
X133480473Y-104745323D01*
X133473847Y-104745500D01*
X133424936Y-104745500D01*
X133350698Y-104760266D01*
X133350696Y-104760267D01*
X133343889Y-104764816D01*
X133277212Y-104785693D01*
X133209832Y-104767208D01*
X133206111Y-104764816D01*
X133199302Y-104760266D01*
X133199296Y-104760264D01*
X133125069Y-104745500D01*
X132774936Y-104745500D01*
X132700698Y-104760266D01*
X132700696Y-104760267D01*
X132693889Y-104764816D01*
X132627212Y-104785693D01*
X132559832Y-104767208D01*
X132556111Y-104764816D01*
X132549302Y-104760266D01*
X132549296Y-104760264D01*
X132475071Y-104745500D01*
X132475067Y-104745500D01*
X132426666Y-104745500D01*
X132359627Y-104725815D01*
X132313872Y-104673011D01*
X132304260Y-104606167D01*
X132303903Y-104606132D01*
X132304046Y-104604676D01*
X132303928Y-104603853D01*
X132304397Y-104601115D01*
X132304498Y-104600074D01*
X132304500Y-104600067D01*
X132304499Y-102799978D01*
X133596000Y-102799978D01*
X133596000Y-103450000D01*
X134162500Y-103450000D01*
X134662500Y-103450000D01*
X135228999Y-103450000D01*
X135228999Y-102799985D01*
X135214262Y-102725893D01*
X135214261Y-102725890D01*
X135158123Y-102641876D01*
X135074104Y-102585736D01*
X135074103Y-102585735D01*
X135000021Y-102571000D01*
X134662500Y-102571000D01*
X134662500Y-103450000D01*
X134162500Y-103450000D01*
X134162500Y-102571000D01*
X133824985Y-102571000D01*
X133750893Y-102585737D01*
X133750890Y-102585738D01*
X133666876Y-102641876D01*
X133610736Y-102725895D01*
X133610735Y-102725896D01*
X133596000Y-102799978D01*
X132304499Y-102799978D01*
X132304499Y-102799934D01*
X132289734Y-102725699D01*
X132233725Y-102641876D01*
X132233484Y-102641515D01*
X132183019Y-102607796D01*
X132149301Y-102585266D01*
X132149299Y-102585265D01*
X132149296Y-102585264D01*
X132075071Y-102570500D01*
X132075067Y-102570500D01*
X131994000Y-102570500D01*
X131926961Y-102550815D01*
X131881206Y-102498011D01*
X131870000Y-102446500D01*
X131870000Y-97772299D01*
X131889685Y-97705260D01*
X131906319Y-97684618D01*
X133272118Y-96318819D01*
X133333441Y-96285334D01*
X133359799Y-96282500D01*
X141442553Y-96282500D01*
X141509592Y-96302185D01*
X141555347Y-96354989D01*
X141557115Y-96359049D01*
X141565644Y-96379642D01*
X141565645Y-96379644D01*
X141654525Y-96495473D01*
X141654526Y-96495474D01*
X141770355Y-96584354D01*
X141770361Y-96584357D01*
X141837801Y-96612291D01*
X141905246Y-96640228D01*
X141977623Y-96649756D01*
X142049999Y-96659285D01*
X142050000Y-96659285D01*
X142050001Y-96659285D01*
X142098251Y-96652932D01*
X142194754Y-96640228D01*
X142199879Y-96638104D01*
X142269347Y-96630633D01*
X142331827Y-96661906D01*
X142367482Y-96721993D01*
X142364991Y-96791819D01*
X142361899Y-96800110D01*
X142359773Y-96805243D01*
X142359771Y-96805247D01*
X142340715Y-96949998D01*
X142340715Y-96950001D01*
X142359771Y-97094752D01*
X142359773Y-97094757D01*
X142415642Y-97229638D01*
X142415645Y-97229644D01*
X142504525Y-97345473D01*
X142504526Y-97345474D01*
X142620355Y-97434354D01*
X142620357Y-97434355D01*
X142656756Y-97449432D01*
X142711159Y-97493272D01*
X142733225Y-97559565D01*
X142715947Y-97627265D01*
X142696985Y-97651674D01*
X134457332Y-105891329D01*
X134391330Y-105957330D01*
X134391328Y-105957333D01*
X134344659Y-106038167D01*
X134320500Y-106128330D01*
X134320500Y-114904699D01*
X134300815Y-114971738D01*
X134248011Y-115017493D01*
X134220692Y-115026316D01*
X134175701Y-115035265D01*
X134175698Y-115035266D01*
X134091515Y-115091515D01*
X134035266Y-115175699D01*
X134035264Y-115175703D01*
X134020500Y-115249928D01*
X134020500Y-116250063D01*
X134035266Y-116324301D01*
X134091515Y-116408484D01*
X134112100Y-116422238D01*
X134175699Y-116464734D01*
X134175700Y-116464734D01*
X134184796Y-116468502D01*
X134239200Y-116512343D01*
X134261265Y-116578637D01*
X134258962Y-116607253D01*
X134245500Y-116674934D01*
X134245500Y-117825063D01*
X134260266Y-117899301D01*
X134316515Y-117983484D01*
X134341211Y-117999985D01*
X134400699Y-118039734D01*
X134400703Y-118039734D01*
X134411985Y-118044409D01*
X134411013Y-118046754D01*
X134457595Y-118071115D01*
X134492174Y-118131828D01*
X134495500Y-118160355D01*
X134495500Y-118674089D01*
X134475815Y-118741128D01*
X134423011Y-118786883D01*
X134353853Y-118796827D01*
X134290297Y-118767802D01*
X134283819Y-118761770D01*
X133498371Y-117976322D01*
X133498369Y-117976320D01*
X133406131Y-117923066D01*
X133303253Y-117895500D01*
X133193309Y-117895500D01*
X133126270Y-117875815D01*
X133105628Y-117859181D01*
X132496446Y-117249999D01*
X133203553Y-117249999D01*
X133203553Y-117250001D01*
X133453998Y-117500446D01*
X133453999Y-117500445D01*
X133453999Y-116999553D01*
X133453998Y-116999552D01*
X133203553Y-117249999D01*
X132496446Y-117249999D01*
X132246000Y-116999553D01*
X132246001Y-117771500D01*
X132226317Y-117838539D01*
X132173513Y-117884294D01*
X132122001Y-117895500D01*
X131096744Y-117895500D01*
X131015609Y-117917239D01*
X131015608Y-117917240D01*
X131006420Y-117919702D01*
X130993869Y-117923065D01*
X130993867Y-117923066D01*
X130901631Y-117976320D01*
X130787680Y-118090270D01*
X130726356Y-118123754D01*
X130656664Y-118118769D01*
X130612318Y-118090269D01*
X127290820Y-114768771D01*
X127257335Y-114707448D01*
X127254501Y-114681090D01*
X127254501Y-113470300D01*
X127274186Y-113403261D01*
X127326990Y-113357506D01*
X127354309Y-113348682D01*
X127399302Y-113339734D01*
X127483485Y-113283484D01*
X127539735Y-113199301D01*
X127554501Y-113125067D01*
X127554500Y-112274934D01*
X127539735Y-112200699D01*
X127519462Y-112170358D01*
X127483485Y-112116515D01*
X127433020Y-112082796D01*
X127399302Y-112060266D01*
X127399300Y-112060265D01*
X127399297Y-112060264D01*
X127325070Y-112045500D01*
X126374937Y-112045500D01*
X126300699Y-112060266D01*
X126216516Y-112116515D01*
X126160267Y-112200699D01*
X126160265Y-112200703D01*
X126145501Y-112274928D01*
X126145501Y-113125063D01*
X126160267Y-113199301D01*
X126216516Y-113283484D01*
X126231258Y-113293334D01*
X126300700Y-113339734D01*
X126300703Y-113339734D01*
X126300704Y-113339735D01*
X126345692Y-113348684D01*
X126407603Y-113381068D01*
X126442177Y-113441784D01*
X126445501Y-113470301D01*
X126445501Y-114953255D01*
X126456937Y-114995936D01*
X126455274Y-115065786D01*
X126416110Y-115123648D01*
X126351881Y-115151151D01*
X126282979Y-115139564D01*
X126249481Y-115115709D01*
X122445047Y-111311275D01*
X122411562Y-111249952D01*
X122416546Y-111180260D01*
X122445046Y-111135913D01*
X122522066Y-111058892D01*
X122183363Y-110720190D01*
X121829809Y-110366636D01*
X122536916Y-110366636D01*
X122536916Y-110366638D01*
X122875618Y-110705340D01*
X122999377Y-110581581D01*
X122999378Y-110581579D01*
X123041343Y-110518777D01*
X123061058Y-110419670D01*
X123061058Y-110419667D01*
X123041345Y-110320565D01*
X123041344Y-110320564D01*
X122999378Y-110257757D01*
X122999375Y-110257754D01*
X122822586Y-110080966D01*
X122822585Y-110080966D01*
X122536916Y-110366636D01*
X121829809Y-110366636D01*
X121545604Y-110082431D01*
X121512119Y-110021108D01*
X121510710Y-110008010D01*
X121510346Y-110008059D01*
X121490228Y-109855247D01*
X121490228Y-109855246D01*
X121434355Y-109720358D01*
X121399075Y-109674380D01*
X121844659Y-109674380D01*
X122183363Y-110013084D01*
X122183364Y-110013084D01*
X122469033Y-109727413D01*
X122469033Y-109727412D01*
X122292247Y-109550627D01*
X122292239Y-109550621D01*
X122229437Y-109508656D01*
X122130331Y-109488942D01*
X122130328Y-109488942D01*
X122031225Y-109508654D01*
X122031224Y-109508655D01*
X121968416Y-109550622D01*
X121844659Y-109674380D01*
X121399075Y-109674380D01*
X121345474Y-109604526D01*
X121229643Y-109515645D01*
X121229640Y-109515644D01*
X121229638Y-109515642D01*
X121094757Y-109459773D01*
X121094754Y-109459772D01*
X121071390Y-109456696D01*
X121007494Y-109428428D01*
X120969024Y-109370103D01*
X120968194Y-109300238D01*
X120973017Y-109286304D01*
X120987379Y-109251631D01*
X120990228Y-109244754D01*
X121009285Y-109100000D01*
X121002387Y-109047609D01*
X121004758Y-109011490D01*
X121003439Y-109011317D01*
X121004500Y-109003257D01*
X121004500Y-107848220D01*
X121004500Y-107848218D01*
X120976934Y-107745340D01*
X120976934Y-107745339D01*
X120923680Y-107653102D01*
X117990819Y-104720241D01*
X117957334Y-104658918D01*
X117954500Y-104632560D01*
X117954500Y-96346749D01*
X117954499Y-96346745D01*
X117946548Y-96317071D01*
X117938045Y-96285334D01*
X117929783Y-96254498D01*
X117929783Y-96254497D01*
X117926936Y-96243872D01*
X117926935Y-96243871D01*
X117926934Y-96243870D01*
X117926934Y-96243868D01*
X117873680Y-96151631D01*
X117509730Y-95787681D01*
X117476245Y-95726358D01*
X117481229Y-95656666D01*
X117509730Y-95612319D01*
X119222049Y-93900000D01*
X121073680Y-92048369D01*
X121126934Y-91956131D01*
X121154500Y-91853253D01*
X121154500Y-91746747D01*
X121154500Y-82446747D01*
X121126934Y-82343869D01*
X121073680Y-82251631D01*
X121037113Y-82215064D01*
X121003628Y-82153741D01*
X121001855Y-82143567D01*
X120996120Y-82100000D01*
X120990228Y-82055246D01*
X120973016Y-82013695D01*
X120965547Y-81944227D01*
X120996821Y-81881747D01*
X121056910Y-81846094D01*
X121071388Y-81843304D01*
X121094754Y-81840228D01*
X121229643Y-81784355D01*
X121306190Y-81725618D01*
X121844659Y-81725618D01*
X121844659Y-81725619D01*
X121968412Y-81849372D01*
X121968420Y-81849378D01*
X122031222Y-81891343D01*
X122130329Y-81911058D01*
X122130332Y-81911058D01*
X122229434Y-81891345D01*
X122229435Y-81891344D01*
X122292240Y-81849379D01*
X122469033Y-81672585D01*
X122183364Y-81386916D01*
X122183363Y-81386916D01*
X121844659Y-81725618D01*
X121306190Y-81725618D01*
X121345474Y-81695474D01*
X121434355Y-81579643D01*
X121490228Y-81444754D01*
X121495621Y-81403788D01*
X121523885Y-81339894D01*
X121530878Y-81332293D01*
X121829810Y-81033362D01*
X122536916Y-81033362D01*
X122536916Y-81033364D01*
X122822585Y-81319033D01*
X122822586Y-81319033D01*
X122999373Y-81142246D01*
X122999378Y-81142239D01*
X123041343Y-81079437D01*
X123061058Y-80980330D01*
X123061058Y-80980327D01*
X123041345Y-80881225D01*
X123041344Y-80881224D01*
X122999379Y-80818419D01*
X122875618Y-80694659D01*
X122536916Y-81033362D01*
X121829810Y-81033362D01*
X122183363Y-80679810D01*
X122522066Y-80341106D01*
X122420046Y-80239086D01*
X122386561Y-80177763D01*
X122391545Y-80108071D01*
X122420042Y-80063729D01*
X128033756Y-74450014D01*
X132721001Y-74450014D01*
X132735737Y-74524106D01*
X132735738Y-74524109D01*
X132791876Y-74608123D01*
X132875895Y-74664263D01*
X132875896Y-74664264D01*
X132949980Y-74678999D01*
X133199999Y-74678999D01*
X133700000Y-74678999D01*
X133950015Y-74678999D01*
X134024106Y-74664262D01*
X134024109Y-74664261D01*
X134108124Y-74608123D01*
X134112319Y-74603929D01*
X134173642Y-74570444D01*
X134243334Y-74575428D01*
X134287681Y-74603929D01*
X134291875Y-74608123D01*
X134375895Y-74664263D01*
X134375896Y-74664264D01*
X134449980Y-74678999D01*
X134699999Y-74678999D01*
X134700000Y-74678998D01*
X134700000Y-74275000D01*
X135200000Y-74275000D01*
X135200000Y-74678999D01*
X135450015Y-74678999D01*
X135524106Y-74664262D01*
X135524109Y-74664261D01*
X135608124Y-74608123D01*
X135655578Y-74537104D01*
X135709190Y-74492298D01*
X135778515Y-74483591D01*
X135792877Y-74487668D01*
X135874980Y-74503999D01*
X136099999Y-74503999D01*
X136600000Y-74503999D01*
X136825015Y-74503999D01*
X136899106Y-74489262D01*
X136899109Y-74489261D01*
X136983123Y-74433123D01*
X137039263Y-74349104D01*
X137039264Y-74349103D01*
X137053999Y-74275021D01*
X137054000Y-74275018D01*
X137054000Y-74100000D01*
X136600000Y-74100000D01*
X136600000Y-74503999D01*
X136099999Y-74503999D01*
X136100000Y-74503998D01*
X136100000Y-74100000D01*
X135722000Y-74100000D01*
X135722000Y-74151000D01*
X135702315Y-74218039D01*
X135649511Y-74263794D01*
X135598000Y-74275000D01*
X135200000Y-74275000D01*
X134700000Y-74275000D01*
X133700000Y-74275000D01*
X133700000Y-74678999D01*
X133199999Y-74678999D01*
X133200000Y-74678998D01*
X133200000Y-74275000D01*
X132721001Y-74275000D01*
X132721001Y-74450014D01*
X128033756Y-74450014D01*
X128883792Y-73599978D01*
X132721000Y-73599978D01*
X132721000Y-73775000D01*
X133200000Y-73775000D01*
X133700000Y-73775000D01*
X134700000Y-73775000D01*
X134700000Y-73371000D01*
X135200000Y-73371000D01*
X135200000Y-73775000D01*
X135603000Y-73775000D01*
X135603000Y-73724000D01*
X135622685Y-73656961D01*
X135675489Y-73611206D01*
X135727000Y-73600000D01*
X137053999Y-73600000D01*
X137053999Y-73424985D01*
X137039262Y-73350893D01*
X137039261Y-73350890D01*
X136983124Y-73266877D01*
X136966998Y-73256102D01*
X136922193Y-73202490D01*
X136913484Y-73133165D01*
X136943638Y-73070137D01*
X137003081Y-73033418D01*
X137035888Y-73028999D01*
X137100015Y-73028999D01*
X137174106Y-73014262D01*
X137174109Y-73014261D01*
X137258123Y-72958123D01*
X137314263Y-72874104D01*
X137314264Y-72874103D01*
X137328999Y-72800021D01*
X137329000Y-72800018D01*
X137329000Y-72550000D01*
X136021001Y-72550000D01*
X136021001Y-72800014D01*
X136035737Y-72874106D01*
X136035738Y-72874109D01*
X136091874Y-72958121D01*
X136108000Y-72968896D01*
X136152806Y-73022508D01*
X136161515Y-73091833D01*
X136131361Y-73154861D01*
X136071919Y-73191581D01*
X136039112Y-73196000D01*
X135874985Y-73196000D01*
X135800893Y-73210737D01*
X135800890Y-73210738D01*
X135716875Y-73266876D01*
X135669420Y-73337897D01*
X135615808Y-73382701D01*
X135546483Y-73391408D01*
X135532127Y-73387331D01*
X135450021Y-73371000D01*
X135200000Y-73371000D01*
X134700000Y-73371000D01*
X134449985Y-73371000D01*
X134375893Y-73385737D01*
X134375890Y-73385738D01*
X134291875Y-73441876D01*
X134287681Y-73446071D01*
X134226358Y-73479556D01*
X134156666Y-73474572D01*
X134112319Y-73446071D01*
X134108124Y-73441876D01*
X134024104Y-73385736D01*
X134024103Y-73385735D01*
X133950021Y-73371000D01*
X133700000Y-73371000D01*
X133700000Y-73775000D01*
X133200000Y-73775000D01*
X133200000Y-73371000D01*
X132949985Y-73371000D01*
X132875893Y-73385737D01*
X132875890Y-73385738D01*
X132791876Y-73441876D01*
X132735736Y-73525895D01*
X132735735Y-73525896D01*
X132721000Y-73599978D01*
X128883792Y-73599978D01*
X129132320Y-73351450D01*
X129193641Y-73317967D01*
X129263333Y-73322951D01*
X129267410Y-73324555D01*
X129305246Y-73340228D01*
X129377623Y-73349756D01*
X129449999Y-73359285D01*
X129450000Y-73359285D01*
X129450001Y-73359285D01*
X129513767Y-73350890D01*
X129594754Y-73340228D01*
X129729643Y-73284355D01*
X129845474Y-73195474D01*
X129934355Y-73079643D01*
X129990228Y-72944754D01*
X129993303Y-72921392D01*
X130021568Y-72857497D01*
X130079892Y-72819025D01*
X130149757Y-72818193D01*
X130163694Y-72823017D01*
X130187202Y-72832754D01*
X130205246Y-72840228D01*
X130253497Y-72846580D01*
X130349998Y-72859285D01*
X130349998Y-72859284D01*
X130350000Y-72859285D01*
X130402389Y-72852387D01*
X130438511Y-72854755D01*
X130438685Y-72853439D01*
X130446744Y-72854500D01*
X130446747Y-72854500D01*
X134253251Y-72854500D01*
X134253253Y-72854500D01*
X134356131Y-72826934D01*
X134448369Y-72773680D01*
X135422071Y-71799978D01*
X136021000Y-71799978D01*
X136021000Y-72050000D01*
X136425000Y-72050000D01*
X136925000Y-72050000D01*
X137328999Y-72050000D01*
X137328999Y-71799985D01*
X137328988Y-71799928D01*
X137670500Y-71799928D01*
X137670500Y-72800063D01*
X137685266Y-72874301D01*
X137741515Y-72958484D01*
X137769128Y-72976934D01*
X137825699Y-73014734D01*
X137825702Y-73014734D01*
X137825703Y-73014735D01*
X137850666Y-73019700D01*
X137899933Y-73029500D01*
X138071500Y-73029499D01*
X138138539Y-73049183D01*
X138184294Y-73101987D01*
X138195500Y-73153499D01*
X138195500Y-74021500D01*
X138175815Y-74088539D01*
X138123011Y-74134294D01*
X138080855Y-74143473D01*
X138080996Y-74144904D01*
X138074937Y-74145500D01*
X138000698Y-74160266D01*
X137916515Y-74216515D01*
X137860266Y-74300699D01*
X137860264Y-74300703D01*
X137845500Y-74374928D01*
X137845500Y-75225063D01*
X137860266Y-75299301D01*
X137916515Y-75383484D01*
X137950234Y-75406014D01*
X138000699Y-75439734D01*
X138000702Y-75439734D01*
X138000703Y-75439735D01*
X138025666Y-75444700D01*
X138074933Y-75454500D01*
X139025066Y-75454499D01*
X139099301Y-75439734D01*
X139183484Y-75383484D01*
X139239734Y-75299301D01*
X139243872Y-75278500D01*
X139248684Y-75254309D01*
X139281068Y-75192398D01*
X139341784Y-75157824D01*
X139370301Y-75154500D01*
X139496501Y-75154500D01*
X139563540Y-75174185D01*
X139609295Y-75226989D01*
X139620501Y-75278500D01*
X139620501Y-75700066D01*
X139635265Y-75774296D01*
X139635266Y-75774301D01*
X139691515Y-75858484D01*
X139725234Y-75881014D01*
X139775699Y-75914734D01*
X139775702Y-75914734D01*
X139775703Y-75914735D01*
X139800666Y-75919700D01*
X139849933Y-75929500D01*
X140296500Y-75929499D01*
X140363539Y-75949183D01*
X140409294Y-76001987D01*
X140420500Y-76053499D01*
X140420500Y-76078329D01*
X140420500Y-76171671D01*
X140444659Y-76261832D01*
X140483908Y-76329815D01*
X140491328Y-76342666D01*
X140491330Y-76342669D01*
X140961988Y-76813326D01*
X140961998Y-76813337D01*
X140966328Y-76817667D01*
X140966329Y-76817668D01*
X141032332Y-76883671D01*
X141032334Y-76883672D01*
X141032335Y-76883673D01*
X141102707Y-76924302D01*
X141102706Y-76924302D01*
X141113160Y-76930337D01*
X141113162Y-76930337D01*
X141113168Y-76930341D01*
X141203329Y-76954500D01*
X141296671Y-76954500D01*
X142264166Y-76954500D01*
X142331205Y-76974185D01*
X142357610Y-77000122D01*
X142357883Y-76999850D01*
X142366518Y-77008486D01*
X142394210Y-77026989D01*
X142435391Y-77054505D01*
X142480196Y-77108117D01*
X142490500Y-77157607D01*
X142490500Y-77405421D01*
X142470815Y-77472460D01*
X142469602Y-77474312D01*
X142435265Y-77525700D01*
X142435264Y-77525701D01*
X142420500Y-77599928D01*
X142420500Y-78600063D01*
X142435266Y-78674301D01*
X142491515Y-78758484D01*
X142525234Y-78781014D01*
X142575699Y-78814734D01*
X142575702Y-78814734D01*
X142575703Y-78814735D01*
X142600666Y-78819700D01*
X142649933Y-78829500D01*
X143500066Y-78829499D01*
X143574301Y-78814734D01*
X143658484Y-78758484D01*
X143714734Y-78674301D01*
X143729500Y-78600067D01*
X143729499Y-77599934D01*
X143714734Y-77525699D01*
X143680398Y-77474312D01*
X143658484Y-77441515D01*
X143604465Y-77405421D01*
X143574301Y-77385266D01*
X143574299Y-77385265D01*
X143574296Y-77385264D01*
X143500071Y-77370500D01*
X143500067Y-77370500D01*
X143323500Y-77370500D01*
X143256461Y-77350815D01*
X143210706Y-77298011D01*
X143199500Y-77246500D01*
X143199500Y-77157607D01*
X143219185Y-77090568D01*
X143254607Y-77054506D01*
X143323484Y-77008484D01*
X143379734Y-76924301D01*
X143379734Y-76924300D01*
X143379735Y-76924299D01*
X143379735Y-76924296D01*
X143387815Y-76883673D01*
X143394500Y-76850067D01*
X143394499Y-76349934D01*
X143379734Y-76275699D01*
X143357334Y-76242176D01*
X143323484Y-76191515D01*
X143254901Y-76145690D01*
X143239301Y-76135266D01*
X143239299Y-76135265D01*
X143239296Y-76135264D01*
X143165069Y-76120500D01*
X142524936Y-76120500D01*
X142450698Y-76135266D01*
X142366518Y-76191513D01*
X142357883Y-76200150D01*
X142356839Y-76199106D01*
X142313656Y-76235196D01*
X142264166Y-76245500D01*
X141448200Y-76245500D01*
X141381161Y-76225815D01*
X141360519Y-76209181D01*
X141292518Y-76141180D01*
X141259033Y-76079857D01*
X141264017Y-76010165D01*
X141305889Y-75954232D01*
X141371353Y-75929815D01*
X141380199Y-75929499D01*
X141700064Y-75929499D01*
X141700066Y-75929499D01*
X141774301Y-75914734D01*
X141858484Y-75858484D01*
X141914734Y-75774301D01*
X141929500Y-75700067D01*
X141929499Y-73849934D01*
X141914734Y-73775699D01*
X141896068Y-73747765D01*
X141858484Y-73691515D01*
X141806769Y-73656961D01*
X141774301Y-73635266D01*
X141774299Y-73635265D01*
X141774296Y-73635264D01*
X141700069Y-73620500D01*
X139849936Y-73620500D01*
X139775698Y-73635266D01*
X139691515Y-73691515D01*
X139635266Y-73775699D01*
X139635264Y-73775703D01*
X139620500Y-73849928D01*
X139620500Y-74321500D01*
X139600815Y-74388539D01*
X139548011Y-74434294D01*
X139496500Y-74445500D01*
X139370300Y-74445500D01*
X139303261Y-74425815D01*
X139257506Y-74373011D01*
X139248682Y-74345689D01*
X139243871Y-74321500D01*
X139239734Y-74300699D01*
X139184502Y-74218039D01*
X139183484Y-74216515D01*
X139133019Y-74182796D01*
X139099301Y-74160266D01*
X139099299Y-74160265D01*
X139099296Y-74160264D01*
X139025071Y-74145500D01*
X139019006Y-74144903D01*
X139019215Y-74142773D01*
X138961461Y-74125815D01*
X138915706Y-74073011D01*
X138904500Y-74021500D01*
X138904500Y-73002061D01*
X138924185Y-72935022D01*
X138925398Y-72933170D01*
X138964734Y-72874301D01*
X138979500Y-72800067D01*
X138979499Y-71799934D01*
X138964734Y-71725699D01*
X138944555Y-71695500D01*
X138908484Y-71641515D01*
X138858019Y-71607796D01*
X138824301Y-71585266D01*
X138824299Y-71585265D01*
X138824296Y-71585264D01*
X138750069Y-71570500D01*
X137899936Y-71570500D01*
X137825698Y-71585266D01*
X137741515Y-71641515D01*
X137685266Y-71725699D01*
X137685264Y-71725703D01*
X137670500Y-71799928D01*
X137328988Y-71799928D01*
X137314262Y-71725893D01*
X137314261Y-71725890D01*
X137258123Y-71641876D01*
X137174104Y-71585736D01*
X137174103Y-71585735D01*
X137100021Y-71571000D01*
X136925000Y-71571000D01*
X136925000Y-72050000D01*
X136425000Y-72050000D01*
X136425000Y-71571000D01*
X136249985Y-71571000D01*
X136175893Y-71585737D01*
X136175890Y-71585738D01*
X136091876Y-71641876D01*
X136035736Y-71725895D01*
X136035735Y-71725896D01*
X136021000Y-71799978D01*
X135422071Y-71799978D01*
X139408821Y-67813227D01*
X139470142Y-67779744D01*
X139539834Y-67784728D01*
X139595767Y-67826600D01*
X139620184Y-67892064D01*
X139620500Y-67900910D01*
X139620500Y-69550063D01*
X139635266Y-69624301D01*
X139691515Y-69708484D01*
X139725234Y-69731014D01*
X139775699Y-69764734D01*
X139775702Y-69764734D01*
X139775703Y-69764735D01*
X139800666Y-69769700D01*
X139849933Y-69779500D01*
X141700066Y-69779499D01*
X141774301Y-69764734D01*
X141858484Y-69708484D01*
X141914734Y-69624301D01*
X141929500Y-69550067D01*
X141929499Y-67828499D01*
X141949184Y-67761461D01*
X142001987Y-67715706D01*
X142053499Y-67704500D01*
X142231089Y-67704500D01*
X142298128Y-67724185D01*
G37*
G04 #@! TD.AperFunction*
G04 #@! TA.AperFunction,Conductor*
G36*
X149473726Y-110402185D02*
G01*
X149505062Y-110431013D01*
X149554524Y-110495472D01*
X149554523Y-110495472D01*
X149670355Y-110584354D01*
X149670361Y-110584357D01*
X149716164Y-110603329D01*
X149805246Y-110640228D01*
X149929398Y-110656572D01*
X149993293Y-110684838D01*
X150000893Y-110691830D01*
X152867582Y-113558519D01*
X152867592Y-113558530D01*
X152871922Y-113562860D01*
X152871923Y-113562861D01*
X152943139Y-113634077D01*
X153030360Y-113684434D01*
X153127642Y-113710501D01*
X153127645Y-113710501D01*
X153235953Y-113710501D01*
X153235969Y-113710500D01*
X155521500Y-113710500D01*
X155588539Y-113730185D01*
X155634294Y-113782989D01*
X155645500Y-113834500D01*
X155645500Y-114031640D01*
X155625815Y-114098679D01*
X155573011Y-114144434D01*
X155505316Y-114154579D01*
X155400003Y-114140715D01*
X155399999Y-114140715D01*
X155255247Y-114159771D01*
X155255245Y-114159772D01*
X155120361Y-114215643D01*
X155120358Y-114215644D01*
X155120358Y-114215645D01*
X155004526Y-114304526D01*
X154917409Y-114418060D01*
X154915643Y-114420361D01*
X154859772Y-114555245D01*
X154859771Y-114555247D01*
X154840715Y-114699998D01*
X154840715Y-114706583D01*
X154821030Y-114773622D01*
X154804396Y-114794264D01*
X154614478Y-114984181D01*
X154553155Y-115017666D01*
X154526797Y-115020500D01*
X154249936Y-115020500D01*
X154175698Y-115035266D01*
X154091515Y-115091515D01*
X154035266Y-115175699D01*
X154035264Y-115175703D01*
X154020500Y-115249928D01*
X154020500Y-116250063D01*
X154035266Y-116324301D01*
X154091515Y-116408484D01*
X154112100Y-116422238D01*
X154175699Y-116464734D01*
X154175702Y-116464734D01*
X154175703Y-116464735D01*
X154192083Y-116467993D01*
X154249933Y-116479500D01*
X154381691Y-116479499D01*
X154448729Y-116499183D01*
X154469371Y-116515818D01*
X154850000Y-116896447D01*
X154850001Y-116896447D01*
X155287932Y-116458515D01*
X155285324Y-116449918D01*
X155284699Y-116380051D01*
X155300879Y-116345035D01*
X155314734Y-116324301D01*
X155329500Y-116250067D01*
X155329499Y-116032926D01*
X155349183Y-115965889D01*
X155401987Y-115920134D01*
X155471145Y-115910190D01*
X155534701Y-115939215D01*
X155559603Y-115973741D01*
X155561579Y-115972601D01*
X155565645Y-115979644D01*
X155654525Y-116095473D01*
X155654526Y-116095474D01*
X155770355Y-116184354D01*
X155770361Y-116184357D01*
X155818385Y-116204249D01*
X155905246Y-116240228D01*
X155977623Y-116249756D01*
X156049999Y-116259285D01*
X156050000Y-116259285D01*
X156050001Y-116259285D01*
X156120026Y-116250066D01*
X156194754Y-116240228D01*
X156329638Y-116184357D01*
X156329639Y-116184357D01*
X156329639Y-116184356D01*
X156329643Y-116184355D01*
X156428988Y-116108123D01*
X156494158Y-116082930D01*
X156504475Y-116082500D01*
X157292031Y-116082500D01*
X157292047Y-116082501D01*
X157299643Y-116082501D01*
X157400355Y-116082501D01*
X157400357Y-116082501D01*
X157497640Y-116056434D01*
X157498260Y-116056076D01*
X157584861Y-116006077D01*
X157656077Y-115934861D01*
X157656077Y-115934859D01*
X157666281Y-115924656D01*
X157666284Y-115924651D01*
X158324296Y-115266640D01*
X158385618Y-115233156D01*
X158455310Y-115238140D01*
X158511243Y-115280012D01*
X158519362Y-115292321D01*
X158543923Y-115334861D01*
X158622204Y-115413142D01*
X158622210Y-115413147D01*
X158780000Y-115570937D01*
X158813485Y-115632260D01*
X158808501Y-115701952D01*
X158780000Y-115746299D01*
X158501712Y-116024587D01*
X158501705Y-116024595D01*
X158459655Y-116087525D01*
X158459654Y-116087527D01*
X158439904Y-116186824D01*
X158439904Y-116186829D01*
X158459654Y-116286125D01*
X158501707Y-116349062D01*
X158501708Y-116349063D01*
X159332651Y-117180003D01*
X159332659Y-117180010D01*
X159348496Y-117190592D01*
X159393300Y-117244204D01*
X159402007Y-117313530D01*
X159371852Y-117376557D01*
X159367285Y-117381374D01*
X158661325Y-118087334D01*
X158600002Y-118120819D01*
X158530310Y-118115835D01*
X158526192Y-118114214D01*
X158394757Y-118059773D01*
X158394752Y-118059771D01*
X158250001Y-118040715D01*
X158249999Y-118040715D01*
X158105247Y-118059771D01*
X158105245Y-118059772D01*
X157970361Y-118115643D01*
X157970358Y-118115644D01*
X157970358Y-118115645D01*
X157854526Y-118204526D01*
X157765645Y-118320358D01*
X157765644Y-118320359D01*
X157765644Y-118320360D01*
X157741988Y-118377470D01*
X157698146Y-118431873D01*
X157631852Y-118453937D01*
X157564153Y-118436657D01*
X157539746Y-118417697D01*
X157098371Y-117976322D01*
X157098369Y-117976320D01*
X157006131Y-117923066D01*
X156903253Y-117895500D01*
X155578000Y-117895500D01*
X155510961Y-117875815D01*
X155465206Y-117823011D01*
X155454000Y-117771500D01*
X155453999Y-116999553D01*
X155453998Y-116999552D01*
X154937680Y-117515871D01*
X154876357Y-117549356D01*
X154806665Y-117544372D01*
X154762318Y-117515871D01*
X154246000Y-116999553D01*
X154246000Y-117787154D01*
X154226315Y-117854193D01*
X154173511Y-117899948D01*
X154154096Y-117906928D01*
X154093869Y-117923066D01*
X154093867Y-117923066D01*
X154093867Y-117923067D01*
X154001631Y-117976320D01*
X154001628Y-117976322D01*
X153416181Y-118561770D01*
X153354858Y-118595255D01*
X153285166Y-118590271D01*
X153229233Y-118548399D01*
X153204816Y-118482935D01*
X153204500Y-118474089D01*
X153204500Y-118160355D01*
X153224185Y-118093316D01*
X153276989Y-118047561D01*
X153292488Y-118042555D01*
X153299296Y-118039734D01*
X153299301Y-118039734D01*
X153383484Y-117983484D01*
X153439734Y-117899301D01*
X153454500Y-117825067D01*
X153454499Y-116674934D01*
X153441037Y-116607250D01*
X153447266Y-116537661D01*
X153490130Y-116482484D01*
X153515205Y-116468501D01*
X153524296Y-116464734D01*
X153524301Y-116464734D01*
X153608484Y-116408484D01*
X153664734Y-116324301D01*
X153679500Y-116250067D01*
X153679499Y-115249934D01*
X153664734Y-115175699D01*
X153625502Y-115116985D01*
X153608484Y-115091515D01*
X153549340Y-115051997D01*
X153524301Y-115035266D01*
X153524299Y-115035265D01*
X153524296Y-115035264D01*
X153448936Y-115020274D01*
X153387025Y-114987889D01*
X153361423Y-114944443D01*
X153358450Y-114945675D01*
X153355342Y-114938172D01*
X153355341Y-114938168D01*
X153308671Y-114857332D01*
X153242668Y-114791329D01*
X149795604Y-111344265D01*
X149762119Y-111282942D01*
X149759285Y-111256584D01*
X149759285Y-111249998D01*
X149742218Y-111120361D01*
X149740228Y-111105246D01*
X149684355Y-110970358D01*
X149595474Y-110854526D01*
X149479643Y-110765645D01*
X149479640Y-110765644D01*
X149479638Y-110765642D01*
X149344757Y-110709773D01*
X149344752Y-110709771D01*
X149200001Y-110690715D01*
X149199999Y-110690715D01*
X149055247Y-110709771D01*
X149055245Y-110709772D01*
X148920361Y-110765643D01*
X148920358Y-110765644D01*
X148920358Y-110765645D01*
X148804526Y-110854526D01*
X148727170Y-110955339D01*
X148715643Y-110970361D01*
X148659772Y-111105245D01*
X148659771Y-111105247D01*
X148640715Y-111249998D01*
X148640715Y-111250001D01*
X148659771Y-111394752D01*
X148659773Y-111394757D01*
X148715642Y-111529638D01*
X148715645Y-111529644D01*
X148804525Y-111645473D01*
X148804526Y-111645474D01*
X148920355Y-111734354D01*
X148920361Y-111734357D01*
X148939376Y-111742233D01*
X149055246Y-111790228D01*
X149095094Y-111795474D01*
X149199999Y-111809285D01*
X149206584Y-111809285D01*
X149273623Y-111828970D01*
X149294265Y-111845604D01*
X152409075Y-114960414D01*
X152442560Y-115021737D01*
X152437576Y-115091429D01*
X152424497Y-115116985D01*
X152385265Y-115175700D01*
X152385264Y-115175703D01*
X152370500Y-115249928D01*
X152370500Y-116250063D01*
X152385266Y-116324301D01*
X152389940Y-116335584D01*
X152388308Y-116336259D01*
X152404824Y-116389003D01*
X152386339Y-116456383D01*
X152349737Y-116494317D01*
X152316515Y-116516515D01*
X152260266Y-116600699D01*
X152260264Y-116600703D01*
X152245500Y-116674928D01*
X152245500Y-117825063D01*
X152260266Y-117899301D01*
X152316515Y-117983484D01*
X152341211Y-117999985D01*
X152400699Y-118039734D01*
X152400703Y-118039734D01*
X152411985Y-118044409D01*
X152411013Y-118046754D01*
X152457595Y-118071115D01*
X152492174Y-118131828D01*
X152495500Y-118160355D01*
X152495500Y-118471500D01*
X152475815Y-118538539D01*
X152423011Y-118584294D01*
X152371501Y-118595500D01*
X152199936Y-118595500D01*
X152125699Y-118610266D01*
X152083567Y-118638418D01*
X152016890Y-118659295D01*
X151949510Y-118640810D01*
X151929529Y-118625000D01*
X151450000Y-118625000D01*
X151450000Y-119028999D01*
X151700015Y-119028999D01*
X151774105Y-119014262D01*
X151777604Y-119011925D01*
X151844280Y-118991044D01*
X151911661Y-119009525D01*
X151958354Y-119061502D01*
X151970500Y-119115024D01*
X151970500Y-119284375D01*
X151950815Y-119351414D01*
X151898011Y-119397169D01*
X151828853Y-119407113D01*
X151777608Y-119387476D01*
X151774301Y-119385266D01*
X151774299Y-119385265D01*
X151774296Y-119385264D01*
X151700069Y-119370500D01*
X150699936Y-119370500D01*
X150625698Y-119385266D01*
X150541515Y-119441515D01*
X150485266Y-119525699D01*
X150485264Y-119525703D01*
X150470500Y-119599928D01*
X150470500Y-119949089D01*
X150450815Y-120016128D01*
X150398011Y-120061883D01*
X150328853Y-120071827D01*
X150265297Y-120042802D01*
X150258819Y-120036770D01*
X150198371Y-119976322D01*
X150198369Y-119976320D01*
X150106131Y-119923066D01*
X150003253Y-119895500D01*
X148816601Y-119895500D01*
X148749562Y-119875815D01*
X148703807Y-119823011D01*
X148693863Y-119753853D01*
X148722888Y-119690297D01*
X148728920Y-119683819D01*
X148838342Y-119574396D01*
X148838348Y-119574388D01*
X148869385Y-119527939D01*
X148869384Y-119527937D01*
X148461463Y-119120015D01*
X148475000Y-119069496D01*
X148475000Y-118479999D01*
X148528553Y-118479999D01*
X148528553Y-118480000D01*
X149028999Y-118980447D01*
X149029000Y-118980446D01*
X149029000Y-118800014D01*
X150471001Y-118800014D01*
X150485737Y-118874106D01*
X150485738Y-118874109D01*
X150541876Y-118958123D01*
X150625895Y-119014263D01*
X150625896Y-119014264D01*
X150699980Y-119028999D01*
X150949999Y-119028999D01*
X150950000Y-119028998D01*
X150950000Y-118625000D01*
X150471001Y-118625000D01*
X150471001Y-118800014D01*
X149029000Y-118800014D01*
X149029000Y-117979553D01*
X149028999Y-117979552D01*
X148528553Y-118479999D01*
X148475000Y-118479999D01*
X148475000Y-117949978D01*
X150471000Y-117949978D01*
X150471000Y-118125000D01*
X150950000Y-118125000D01*
X151450000Y-118125000D01*
X151928999Y-118125000D01*
X151928999Y-117949985D01*
X151914262Y-117875893D01*
X151914261Y-117875890D01*
X151858123Y-117791876D01*
X151774104Y-117735736D01*
X151774103Y-117735735D01*
X151700021Y-117721000D01*
X151450000Y-117721000D01*
X151450000Y-118125000D01*
X150950000Y-118125000D01*
X150950000Y-117721000D01*
X150699985Y-117721000D01*
X150625893Y-117735737D01*
X150625890Y-117735738D01*
X150541876Y-117791876D01*
X150485736Y-117875895D01*
X150485735Y-117875896D01*
X150471000Y-117949978D01*
X148475000Y-117949978D01*
X148475000Y-117890504D01*
X148461463Y-117839982D01*
X148869384Y-117432061D01*
X148869384Y-117432060D01*
X148838344Y-117385607D01*
X148838339Y-117385600D01*
X148719396Y-117266657D01*
X148719392Y-117266654D01*
X148579527Y-117173198D01*
X148579514Y-117173191D01*
X148424107Y-117108820D01*
X148424095Y-117108817D01*
X148259115Y-117076000D01*
X148090885Y-117076000D01*
X147925904Y-117108817D01*
X147925892Y-117108820D01*
X147770485Y-117173191D01*
X147770469Y-117173200D01*
X147726262Y-117202738D01*
X147659585Y-117223615D01*
X147592205Y-117205130D01*
X147554270Y-117168525D01*
X147533122Y-117136875D01*
X147449104Y-117080736D01*
X147449103Y-117080735D01*
X147375021Y-117066000D01*
X147350000Y-117066000D01*
X147350000Y-117916000D01*
X147330315Y-117983039D01*
X147277511Y-118028794D01*
X147226000Y-118040000D01*
X146928500Y-118040000D01*
X146861461Y-118020315D01*
X146815706Y-117967511D01*
X146804500Y-117916000D01*
X146804499Y-117294936D01*
X146804499Y-117294934D01*
X146789734Y-117220699D01*
X146789733Y-117220697D01*
X146789732Y-117220695D01*
X146770898Y-117192508D01*
X146750020Y-117125830D01*
X146750000Y-117123617D01*
X146750000Y-117065999D01*
X146724986Y-117066000D01*
X146724980Y-117066001D01*
X146677688Y-117075407D01*
X146608096Y-117069177D01*
X146552920Y-117026313D01*
X146529678Y-116960422D01*
X146529500Y-116953789D01*
X146529500Y-116052999D01*
X146549185Y-115985960D01*
X146601989Y-115940205D01*
X146653500Y-115928999D01*
X146724999Y-115928999D01*
X147225000Y-115928999D01*
X147400015Y-115928999D01*
X147474106Y-115914262D01*
X147474109Y-115914261D01*
X147558123Y-115858123D01*
X147614263Y-115774104D01*
X147614264Y-115774103D01*
X147628999Y-115700021D01*
X147629000Y-115700018D01*
X147629000Y-115450000D01*
X147225000Y-115450000D01*
X147225000Y-115928999D01*
X146724999Y-115928999D01*
X146725000Y-115928998D01*
X146725000Y-114471000D01*
X146653500Y-114471000D01*
X146586461Y-114451315D01*
X146540706Y-114398511D01*
X146529500Y-114347000D01*
X146529500Y-114178499D01*
X146549185Y-114111460D01*
X146601989Y-114065705D01*
X146653500Y-114054499D01*
X146775064Y-114054499D01*
X146775066Y-114054499D01*
X146849301Y-114039734D01*
X146899261Y-114006350D01*
X146908171Y-114000398D01*
X146974849Y-113979520D01*
X146977062Y-113979500D01*
X147021501Y-113979500D01*
X147088540Y-113999185D01*
X147134295Y-114051989D01*
X147145501Y-114103500D01*
X147145501Y-114150066D01*
X147156503Y-114205382D01*
X147160266Y-114224301D01*
X147223301Y-114318639D01*
X147221666Y-114319731D01*
X147247819Y-114367626D01*
X147242835Y-114437318D01*
X147225000Y-114465070D01*
X147225000Y-114950000D01*
X147628999Y-114950000D01*
X147628999Y-114699985D01*
X147614262Y-114625893D01*
X147614261Y-114625890D01*
X147578513Y-114572390D01*
X147557635Y-114505713D01*
X147576119Y-114438333D01*
X147628098Y-114391642D01*
X147681612Y-114379499D01*
X148225066Y-114379499D01*
X148299301Y-114364734D01*
X148383484Y-114308484D01*
X148439734Y-114224301D01*
X148454500Y-114150067D01*
X148454500Y-114150014D01*
X148796001Y-114150014D01*
X148810737Y-114224106D01*
X148810738Y-114224109D01*
X148866876Y-114308123D01*
X148950895Y-114364263D01*
X148950896Y-114364264D01*
X149024980Y-114378999D01*
X149199999Y-114378999D01*
X149700000Y-114378999D01*
X149875015Y-114378999D01*
X149949106Y-114364262D01*
X149949109Y-114364261D01*
X150033123Y-114308123D01*
X150089263Y-114224104D01*
X150089264Y-114224103D01*
X150103999Y-114150021D01*
X150104000Y-114150018D01*
X150104000Y-113900000D01*
X149700000Y-113900000D01*
X149700000Y-114378999D01*
X149199999Y-114378999D01*
X149200000Y-114378998D01*
X149200000Y-113900000D01*
X148796001Y-113900000D01*
X148796001Y-114150014D01*
X148454500Y-114150014D01*
X148454499Y-113149978D01*
X148796000Y-113149978D01*
X148796000Y-113400000D01*
X149200000Y-113400000D01*
X149700000Y-113400000D01*
X150103999Y-113400000D01*
X150103999Y-113149985D01*
X150089262Y-113075893D01*
X150089261Y-113075890D01*
X150033123Y-112991876D01*
X149949104Y-112935736D01*
X149949103Y-112935735D01*
X149875021Y-112921000D01*
X149700000Y-112921000D01*
X149700000Y-113400000D01*
X149200000Y-113400000D01*
X149200000Y-112921000D01*
X149024985Y-112921000D01*
X148950893Y-112935737D01*
X148950890Y-112935738D01*
X148866876Y-112991876D01*
X148810736Y-113075895D01*
X148810735Y-113075896D01*
X148796000Y-113149978D01*
X148454499Y-113149978D01*
X148454499Y-113149934D01*
X148439734Y-113075699D01*
X148406324Y-113025698D01*
X148383484Y-112991515D01*
X148314144Y-112945184D01*
X148299301Y-112935266D01*
X148299299Y-112935265D01*
X148299296Y-112935264D01*
X148225071Y-112920500D01*
X148225067Y-112920500D01*
X147811201Y-112920500D01*
X147744162Y-112900815D01*
X147698407Y-112848011D01*
X147688463Y-112778853D01*
X147717488Y-112715297D01*
X147723520Y-112708819D01*
X148033668Y-112398671D01*
X148033668Y-112398670D01*
X148033671Y-112398668D01*
X148037417Y-112392180D01*
X148080341Y-112317832D01*
X148104500Y-112227671D01*
X148104500Y-111887811D01*
X148124185Y-111820772D01*
X148140819Y-111800130D01*
X148145469Y-111795479D01*
X148145471Y-111795476D01*
X148145474Y-111795474D01*
X148234355Y-111679643D01*
X148290228Y-111544754D01*
X148304822Y-111433898D01*
X148309285Y-111400001D01*
X148309285Y-111399998D01*
X148290228Y-111255247D01*
X148290228Y-111255246D01*
X148234355Y-111120358D01*
X148145474Y-111004526D01*
X148029643Y-110915645D01*
X148029640Y-110915644D01*
X148029638Y-110915642D01*
X147894757Y-110859773D01*
X147894752Y-110859771D01*
X147750001Y-110840715D01*
X147749584Y-110840715D01*
X147749245Y-110840615D01*
X147741942Y-110839654D01*
X147742091Y-110838515D01*
X147682545Y-110821030D01*
X147636790Y-110768226D01*
X147626846Y-110699068D01*
X147655871Y-110635512D01*
X147661903Y-110629034D01*
X147872118Y-110418819D01*
X147933441Y-110385334D01*
X147959799Y-110382500D01*
X149406687Y-110382500D01*
X149473726Y-110402185D01*
G37*
G04 #@! TD.AperFunction*
G04 #@! TA.AperFunction,Conductor*
G36*
X140378126Y-118979574D02*
G01*
X140410219Y-119035160D01*
X140447016Y-119172485D01*
X140447017Y-119172488D01*
X140519488Y-119298011D01*
X140519490Y-119298013D01*
X140519491Y-119298015D01*
X140621985Y-119400509D01*
X140621986Y-119400510D01*
X140621988Y-119400511D01*
X140747511Y-119472982D01*
X140747512Y-119472982D01*
X140747515Y-119472984D01*
X140887525Y-119510500D01*
X140887528Y-119510500D01*
X141032472Y-119510500D01*
X141032475Y-119510500D01*
X141172485Y-119472984D01*
X141298015Y-119400509D01*
X141400509Y-119298015D01*
X141435156Y-119238003D01*
X141485720Y-119189789D01*
X141554327Y-119176565D01*
X141619192Y-119202532D01*
X141630223Y-119212323D01*
X142041580Y-119623680D01*
X142111612Y-119664113D01*
X142159827Y-119714681D01*
X142173049Y-119783288D01*
X142147081Y-119848152D01*
X142090167Y-119888680D01*
X142049611Y-119895500D01*
X140166601Y-119895500D01*
X140099562Y-119875815D01*
X140053807Y-119823011D01*
X140043863Y-119753853D01*
X140072888Y-119690297D01*
X140078920Y-119683819D01*
X140188342Y-119574396D01*
X140188348Y-119574388D01*
X140219385Y-119527939D01*
X140219384Y-119527937D01*
X139811463Y-119120015D01*
X139825000Y-119069496D01*
X139825000Y-118426447D01*
X140378126Y-118979574D01*
G37*
G04 #@! TD.AperFunction*
G04 #@! TA.AperFunction,Conductor*
G36*
X147875000Y-119069496D02*
G01*
X147888536Y-119120015D01*
X147480614Y-119527937D01*
X147480614Y-119527938D01*
X147511651Y-119574387D01*
X147511652Y-119574389D01*
X147621081Y-119683819D01*
X147654565Y-119745142D01*
X147649581Y-119814834D01*
X147607709Y-119870767D01*
X147542245Y-119895184D01*
X147533399Y-119895500D01*
X145650389Y-119895500D01*
X145583350Y-119875815D01*
X145537595Y-119823011D01*
X145527651Y-119753853D01*
X145556676Y-119690297D01*
X145588388Y-119664113D01*
X145658420Y-119623680D01*
X146069777Y-119212321D01*
X146131098Y-119178838D01*
X146200789Y-119183822D01*
X146256723Y-119225693D01*
X146264842Y-119238002D01*
X146299491Y-119298015D01*
X146401985Y-119400509D01*
X146401986Y-119400510D01*
X146401988Y-119400511D01*
X146527511Y-119472982D01*
X146527512Y-119472982D01*
X146527515Y-119472984D01*
X146667525Y-119510500D01*
X146667528Y-119510500D01*
X146812472Y-119510500D01*
X146812475Y-119510500D01*
X146952485Y-119472984D01*
X147078015Y-119400509D01*
X147180509Y-119298015D01*
X147252984Y-119172485D01*
X147289780Y-119035158D01*
X147321873Y-118979574D01*
X147875000Y-118426447D01*
X147875000Y-119069496D01*
G37*
G04 #@! TD.AperFunction*
G04 #@! TA.AperFunction,Conductor*
G36*
X144211029Y-59329342D02*
G01*
X144224021Y-59330718D01*
X144574594Y-59386676D01*
X144587347Y-59389408D01*
X144930079Y-59481982D01*
X144942499Y-59486052D01*
X145273536Y-59614195D01*
X145285467Y-59619553D01*
X145601178Y-59781858D01*
X145612474Y-59788440D01*
X145872951Y-59959239D01*
X145909328Y-59983092D01*
X145919871Y-59990830D01*
X146194581Y-60215674D01*
X146204243Y-60224471D01*
X146453740Y-60476996D01*
X146462428Y-60486772D01*
X146683931Y-60764161D01*
X146691542Y-60774797D01*
X146882602Y-61073984D01*
X146889050Y-61085363D01*
X147047530Y-61403001D01*
X147052744Y-61414996D01*
X147176888Y-61747566D01*
X147180809Y-61760043D01*
X147269232Y-62103828D01*
X147271818Y-62116649D01*
X147323540Y-62467854D01*
X147324760Y-62480876D01*
X147339203Y-62835551D01*
X147339046Y-62848629D01*
X147316048Y-63202879D01*
X147314513Y-63215867D01*
X147254336Y-63565705D01*
X147251442Y-63578460D01*
X147154749Y-63920016D01*
X147150528Y-63932395D01*
X147018396Y-64261873D01*
X147012894Y-64273739D01*
X146846794Y-64587464D01*
X146840073Y-64598684D01*
X146641853Y-64893169D01*
X146633988Y-64903618D01*
X146405859Y-65175580D01*
X146396937Y-65185144D01*
X146140476Y-65432485D01*
X146134104Y-65438219D01*
X146092470Y-65473154D01*
X146091269Y-65474466D01*
X146090887Y-65474837D01*
X146090328Y-65475469D01*
X146088983Y-65476962D01*
X146088446Y-65477547D01*
X146088126Y-65477953D01*
X146086934Y-65479296D01*
X146052863Y-65529694D01*
X146051713Y-65531366D01*
X146016886Y-65581105D01*
X146016056Y-65582700D01*
X146015785Y-65583155D01*
X146015421Y-65583884D01*
X146014525Y-65585639D01*
X146014145Y-65586368D01*
X146013932Y-65586864D01*
X146013130Y-65588468D01*
X145993304Y-65645847D01*
X145992626Y-65647757D01*
X145971817Y-65704932D01*
X145971432Y-65706673D01*
X145971290Y-65707176D01*
X145971131Y-65707953D01*
X145970720Y-65709881D01*
X145970526Y-65710754D01*
X145970446Y-65711308D01*
X145970092Y-65713035D01*
X145965792Y-65773601D01*
X145965631Y-65775623D01*
X145960331Y-65836215D01*
X145960410Y-65838028D01*
X145960403Y-65838540D01*
X145960445Y-65839241D01*
X145960548Y-65841226D01*
X145960588Y-65842158D01*
X145960654Y-65842715D01*
X145960760Y-65844483D01*
X145972277Y-65904071D01*
X145972646Y-65906065D01*
X145983217Y-65966010D01*
X145983755Y-65967715D01*
X145983879Y-65968204D01*
X145984117Y-65968917D01*
X145984737Y-65970828D01*
X145985006Y-65971682D01*
X145985210Y-65972194D01*
X145985771Y-65973877D01*
X146012314Y-66028445D01*
X146013188Y-66030279D01*
X146038909Y-66085437D01*
X146039868Y-66086943D01*
X146040115Y-66087385D01*
X146040524Y-66088004D01*
X146041633Y-66089713D01*
X146042126Y-66090487D01*
X146042449Y-66090920D01*
X146043416Y-66092384D01*
X146083163Y-66138205D01*
X146084483Y-66139752D01*
X146123618Y-66186391D01*
X146124931Y-66187594D01*
X146125274Y-66187947D01*
X146125802Y-66188415D01*
X146127306Y-66189771D01*
X146128021Y-66190426D01*
X146128472Y-66190782D01*
X146129772Y-66191935D01*
X146179993Y-66225886D01*
X146181666Y-66227038D01*
X146221202Y-66254719D01*
X146231571Y-66261980D01*
X146231574Y-66261981D01*
X146233150Y-66262802D01*
X146233573Y-66263054D01*
X146234225Y-66263380D01*
X146236049Y-66264311D01*
X146236882Y-66264745D01*
X146237395Y-66264965D01*
X146238949Y-66265742D01*
X146296303Y-66285557D01*
X146298056Y-66286178D01*
X146355407Y-66307053D01*
X146355409Y-66307053D01*
X146355412Y-66307054D01*
X146357134Y-66307436D01*
X146357592Y-66307565D01*
X146358279Y-66307706D01*
X146360307Y-66308139D01*
X146361255Y-66308349D01*
X146361820Y-66308431D01*
X146363503Y-66308775D01*
X146363509Y-66308777D01*
X146420772Y-66312840D01*
X146425021Y-66313216D01*
X147491806Y-66426242D01*
X147496241Y-66426794D01*
X148559924Y-66579007D01*
X148564392Y-66579731D01*
X149621769Y-66770735D01*
X149626143Y-66771608D01*
X150675820Y-67001154D01*
X150680208Y-67002197D01*
X151720820Y-67269984D01*
X151725168Y-67271188D01*
X152755243Y-67576837D01*
X152759521Y-67578191D01*
X153777799Y-67921330D01*
X153782016Y-67922838D01*
X154786995Y-68302960D01*
X154791208Y-68304642D01*
X155781625Y-68721268D01*
X155785772Y-68723103D01*
X156760274Y-69175662D01*
X156764311Y-69177627D01*
X157495069Y-69550063D01*
X157721629Y-69665531D01*
X157725632Y-69667664D01*
X158531664Y-70116329D01*
X158664452Y-70190243D01*
X158668374Y-70192521D01*
X159587452Y-70749082D01*
X159591288Y-70751502D01*
X160489418Y-71341316D01*
X160493128Y-71343851D01*
X161369074Y-71966105D01*
X161372694Y-71968776D01*
X161662222Y-72190819D01*
X162225327Y-72622671D01*
X162228875Y-72625497D01*
X163056991Y-73310108D01*
X163060407Y-73313039D01*
X163862955Y-74027496D01*
X163866259Y-74030547D01*
X164464753Y-74603929D01*
X164642151Y-74773884D01*
X164645366Y-74777080D01*
X165108345Y-75254309D01*
X165393502Y-75548242D01*
X165396600Y-75551554D01*
X166116062Y-76349591D01*
X166119037Y-76353015D01*
X166808830Y-77176825D01*
X166811677Y-77180355D01*
X167470865Y-78028819D01*
X167473582Y-78032451D01*
X168101316Y-78904476D01*
X168103898Y-78908205D01*
X168699308Y-79802584D01*
X168701747Y-79806396D01*
X168857362Y-80059771D01*
X169264068Y-80721979D01*
X169266371Y-80725887D01*
X169794826Y-81661410D01*
X169796984Y-81665399D01*
X170123845Y-82296914D01*
X170286658Y-82611479D01*
X170290878Y-82619631D01*
X170292873Y-82623666D01*
X170586057Y-83244757D01*
X170751543Y-83595330D01*
X170753403Y-83599466D01*
X171176223Y-84587231D01*
X171177911Y-84591382D01*
X171564339Y-85593985D01*
X171565892Y-85598246D01*
X171915384Y-86614279D01*
X171916781Y-86618594D01*
X172228893Y-87646762D01*
X172230128Y-87651120D01*
X172410771Y-88335288D01*
X172504410Y-88689937D01*
X172505488Y-88694342D01*
X172741614Y-89742574D01*
X172742529Y-89747017D01*
X172940148Y-90803108D01*
X172940901Y-90807580D01*
X173099775Y-91870255D01*
X173100363Y-91874752D01*
X173220263Y-92942477D01*
X173220687Y-92946993D01*
X173301462Y-94018424D01*
X173301720Y-94022952D01*
X173343257Y-95096585D01*
X173343350Y-95101120D01*
X173345597Y-96175606D01*
X173345523Y-96180141D01*
X173308474Y-97253938D01*
X173308235Y-97258467D01*
X173231939Y-98330227D01*
X173231534Y-98334744D01*
X173116099Y-99402956D01*
X173115530Y-99407456D01*
X172961100Y-100470780D01*
X172960366Y-100475256D01*
X172767159Y-101532195D01*
X172766262Y-101536641D01*
X172534528Y-102585813D01*
X172533469Y-102590223D01*
X172263519Y-103630231D01*
X172262299Y-103634599D01*
X171954507Y-104663997D01*
X171953129Y-104668318D01*
X171607882Y-105685819D01*
X171606346Y-105690087D01*
X171224125Y-106694270D01*
X171222434Y-106698478D01*
X170803757Y-107687980D01*
X170801914Y-107692124D01*
X170347314Y-108665689D01*
X170345320Y-108669763D01*
X169855431Y-109626030D01*
X169853290Y-109630028D01*
X169328739Y-110567773D01*
X169326452Y-110571690D01*
X168767983Y-111489583D01*
X168765555Y-111493414D01*
X168173889Y-112390273D01*
X168171323Y-112394013D01*
X167547240Y-113268655D01*
X167544539Y-113272298D01*
X166888887Y-114123533D01*
X166886054Y-114127075D01*
X166199712Y-114953760D01*
X166196751Y-114957196D01*
X165480657Y-115758205D01*
X165477573Y-115761531D01*
X164732628Y-116535854D01*
X164729424Y-116539064D01*
X163956688Y-117285598D01*
X163953369Y-117288689D01*
X163266423Y-117905401D01*
X163203388Y-117935539D01*
X163134065Y-117926812D01*
X163080465Y-117881993D01*
X163062641Y-117825017D01*
X163061969Y-117825151D01*
X163060720Y-117818876D01*
X163059605Y-117815309D01*
X163059586Y-117813172D01*
X163039874Y-117714069D01*
X163039872Y-117714065D01*
X162997908Y-117651262D01*
X162997906Y-117651259D01*
X162759242Y-117412597D01*
X161784144Y-118387697D01*
X161162597Y-119009242D01*
X161391419Y-119238063D01*
X161424904Y-119299386D01*
X161419920Y-119369078D01*
X161378049Y-119425012D01*
X161375972Y-119426533D01*
X160594811Y-119986382D01*
X160591077Y-119988956D01*
X159695444Y-120582504D01*
X159691618Y-120584940D01*
X158774882Y-121145333D01*
X158770969Y-121147628D01*
X157834355Y-121674120D01*
X157830362Y-121676270D01*
X156875089Y-122168173D01*
X156871019Y-122170175D01*
X155898428Y-122626799D01*
X155894288Y-122628651D01*
X154905631Y-123049409D01*
X154901426Y-123051108D01*
X153898077Y-123435416D01*
X153893813Y-123436961D01*
X152877044Y-123784331D01*
X152872725Y-123785719D01*
X151843923Y-124095676D01*
X151839558Y-124096904D01*
X151160669Y-124274635D01*
X150800165Y-124369014D01*
X150795767Y-124370081D01*
X149747048Y-124604014D01*
X149742604Y-124604920D01*
X148686066Y-124800338D01*
X148681591Y-124801081D01*
X147618622Y-124957728D01*
X147614124Y-124958307D01*
X146546125Y-125075979D01*
X146541608Y-125076393D01*
X145470039Y-125154926D01*
X145465511Y-125155175D01*
X144391765Y-125194469D01*
X144387230Y-125194552D01*
X143312770Y-125194552D01*
X143308235Y-125194469D01*
X142234488Y-125155175D01*
X142229960Y-125154926D01*
X141158391Y-125076393D01*
X141153874Y-125075979D01*
X140085875Y-124958307D01*
X140081377Y-124957728D01*
X139018408Y-124801081D01*
X139013933Y-124800338D01*
X137957395Y-124604920D01*
X137952951Y-124604014D01*
X137240936Y-124445188D01*
X136904223Y-124370079D01*
X136899847Y-124369017D01*
X135860441Y-124096904D01*
X135856076Y-124095676D01*
X134827274Y-123785719D01*
X134822955Y-123784331D01*
X133806186Y-123436961D01*
X133801922Y-123435416D01*
X132798573Y-123051108D01*
X132794368Y-123049409D01*
X131805711Y-122628651D01*
X131801571Y-122626799D01*
X130828980Y-122170175D01*
X130824910Y-122168173D01*
X129869637Y-121676270D01*
X129865644Y-121674120D01*
X129378786Y-121400446D01*
X132246000Y-121400446D01*
X132496447Y-121150000D01*
X132496447Y-121149999D01*
X132246000Y-120899552D01*
X132246000Y-121400446D01*
X129378786Y-121400446D01*
X128929030Y-121147628D01*
X128925117Y-121145333D01*
X128163068Y-120679499D01*
X128008375Y-120584936D01*
X128004555Y-120582504D01*
X127993132Y-120574934D01*
X127370216Y-120162119D01*
X127108922Y-119988956D01*
X127105188Y-119986382D01*
X126667940Y-119673011D01*
X126231846Y-119360467D01*
X126228215Y-119357763D01*
X126224961Y-119355246D01*
X125476582Y-118776320D01*
X125378370Y-118700346D01*
X125374834Y-118697506D01*
X124760153Y-118185003D01*
X124549581Y-118009434D01*
X124546154Y-118006469D01*
X124512571Y-117976320D01*
X124244588Y-117735735D01*
X123746630Y-117288689D01*
X123743311Y-117285598D01*
X123378794Y-116933441D01*
X122970558Y-116539046D01*
X122967389Y-116535872D01*
X122222415Y-115761519D01*
X122219342Y-115758205D01*
X122208698Y-115746299D01*
X121503248Y-114957196D01*
X121500287Y-114953760D01*
X121483228Y-114933213D01*
X120813934Y-114127061D01*
X120811112Y-114123533D01*
X120808282Y-114119859D01*
X120472902Y-113684434D01*
X120155460Y-113272298D01*
X120152759Y-113268655D01*
X119528676Y-112394013D01*
X119526110Y-112390273D01*
X118934444Y-111493414D01*
X118932016Y-111489583D01*
X118712382Y-111128595D01*
X118373535Y-110571670D01*
X118371272Y-110567793D01*
X117846707Y-109630024D01*
X117844568Y-109626030D01*
X117828995Y-109595632D01*
X117354671Y-108669747D01*
X117352685Y-108665689D01*
X117351617Y-108663402D01*
X116898076Y-107692104D01*
X116896242Y-107687980D01*
X116894708Y-107684355D01*
X116477565Y-106698478D01*
X116475874Y-106694270D01*
X116093653Y-105690087D01*
X116092117Y-105685819D01*
X115746870Y-104668318D01*
X115745492Y-104663997D01*
X115554458Y-104025090D01*
X115437691Y-103634567D01*
X115436488Y-103630262D01*
X115166520Y-102590184D01*
X115165480Y-102585852D01*
X114933728Y-101536599D01*
X114932848Y-101532237D01*
X114739629Y-100475236D01*
X114738899Y-100470780D01*
X114584469Y-99407456D01*
X114583900Y-99402956D01*
X114563648Y-99215549D01*
X114468462Y-98334720D01*
X114468060Y-98330227D01*
X114391762Y-97258438D01*
X114391526Y-97253967D01*
X114354475Y-96180102D01*
X114354402Y-96175644D01*
X114356649Y-95101104D01*
X114356742Y-95096585D01*
X114358370Y-95054526D01*
X114379823Y-94499998D01*
X116290715Y-94499998D01*
X116290715Y-94500001D01*
X116309771Y-94644752D01*
X116309773Y-94644757D01*
X116365642Y-94779638D01*
X116365645Y-94779644D01*
X116415609Y-94844757D01*
X116454526Y-94895474D01*
X116570357Y-94984355D01*
X116572972Y-94985438D01*
X116572974Y-94985439D01*
X116574842Y-94986945D01*
X116577399Y-94988421D01*
X116577168Y-94988819D01*
X116627377Y-95029281D01*
X116649441Y-95095575D01*
X116632161Y-95163274D01*
X116581024Y-95210884D01*
X116572978Y-95214559D01*
X116570361Y-95215642D01*
X116454526Y-95304526D01*
X116365643Y-95420361D01*
X116309772Y-95555245D01*
X116309771Y-95555247D01*
X116290715Y-95699998D01*
X116290715Y-95700001D01*
X116309771Y-95844752D01*
X116309773Y-95844757D01*
X116365642Y-95979638D01*
X116365645Y-95979644D01*
X116454525Y-96095473D01*
X116454526Y-96095474D01*
X116527702Y-96151625D01*
X116568905Y-96208053D01*
X116573059Y-96277799D01*
X116538846Y-96338719D01*
X116527702Y-96348375D01*
X116454528Y-96404523D01*
X116365643Y-96520361D01*
X116309772Y-96655245D01*
X116309771Y-96655247D01*
X116290715Y-96799998D01*
X116290715Y-96800001D01*
X116309771Y-96944752D01*
X116309773Y-96944757D01*
X116365642Y-97079638D01*
X116365642Y-97079639D01*
X116365644Y-97079642D01*
X116365645Y-97079643D01*
X116427131Y-97159773D01*
X116454530Y-97195479D01*
X116459181Y-97200130D01*
X116492666Y-97261453D01*
X116495500Y-97287811D01*
X116495500Y-105153329D01*
X116495500Y-105246671D01*
X116516520Y-105325117D01*
X116519659Y-105336832D01*
X116566328Y-105417666D01*
X116566330Y-105417669D01*
X119354396Y-108205735D01*
X119387881Y-108267058D01*
X119390715Y-108293416D01*
X119390715Y-108300001D01*
X119409771Y-108444752D01*
X119409773Y-108444757D01*
X119465642Y-108579638D01*
X119465645Y-108579644D01*
X119554525Y-108695473D01*
X119554526Y-108695474D01*
X119670355Y-108784354D01*
X119670361Y-108784357D01*
X119718991Y-108804500D01*
X119805246Y-108840228D01*
X119805252Y-108840228D01*
X119813096Y-108842331D01*
X119812371Y-108845035D01*
X119863806Y-108867772D01*
X119902294Y-108926086D01*
X119906690Y-108978653D01*
X119891665Y-109092775D01*
X119876119Y-109138579D01*
X119873068Y-109143864D01*
X119873067Y-109143866D01*
X119873066Y-109143869D01*
X119845500Y-109246747D01*
X119845500Y-110673718D01*
X119845500Y-110780224D01*
X119873066Y-110883102D01*
X119926320Y-110975340D01*
X120089436Y-111138456D01*
X120141353Y-111168430D01*
X120189567Y-111218995D01*
X120202791Y-111287602D01*
X120182455Y-111344705D01*
X120158185Y-111381028D01*
X120158183Y-111381031D01*
X120138433Y-111480327D01*
X120138433Y-111480332D01*
X120158184Y-111579630D01*
X120158184Y-111579631D01*
X120200236Y-111642566D01*
X120200239Y-111642569D01*
X120907432Y-112349761D01*
X120907435Y-112349764D01*
X120919537Y-112357850D01*
X120970369Y-112391815D01*
X120970370Y-112391815D01*
X120970371Y-112391816D01*
X121069668Y-112411567D01*
X121069670Y-112411567D01*
X121069672Y-112411567D01*
X121146785Y-112396228D01*
X121168971Y-112391815D01*
X121171279Y-112390273D01*
X121188556Y-112378729D01*
X121255233Y-112357850D01*
X121322613Y-112376334D01*
X121345128Y-112394148D01*
X128262833Y-119311854D01*
X128262834Y-119311855D01*
X128424659Y-119473680D01*
X128516897Y-119526934D01*
X128619775Y-119554500D01*
X128619777Y-119554500D01*
X130253258Y-119554500D01*
X130261317Y-119553439D01*
X130261490Y-119554758D01*
X130297609Y-119552387D01*
X130350000Y-119559285D01*
X130494754Y-119540228D01*
X130536305Y-119523016D01*
X130605773Y-119515548D01*
X130668253Y-119546823D01*
X130703905Y-119606912D01*
X130706696Y-119621390D01*
X130709772Y-119644754D01*
X130709773Y-119644757D01*
X130765642Y-119779638D01*
X130765645Y-119779644D01*
X130854525Y-119895473D01*
X130854526Y-119895474D01*
X130970355Y-119984354D01*
X130970361Y-119984357D01*
X131005928Y-119999089D01*
X131105246Y-120040228D01*
X131124798Y-120042802D01*
X131249999Y-120059285D01*
X131256584Y-120059285D01*
X131323623Y-120078970D01*
X131344265Y-120095604D01*
X131632332Y-120383671D01*
X131713168Y-120430341D01*
X131803329Y-120454500D01*
X131896671Y-120454500D01*
X132456691Y-120454500D01*
X132523730Y-120474185D01*
X132544372Y-120490819D01*
X133115871Y-121062318D01*
X133149356Y-121123641D01*
X133144372Y-121193333D01*
X133115871Y-121237680D01*
X132412067Y-121941484D01*
X132412067Y-121941485D01*
X132474980Y-121953999D01*
X133171500Y-121953999D01*
X133238539Y-121973683D01*
X133284294Y-122026487D01*
X133295500Y-122077999D01*
X133295500Y-122153329D01*
X133295500Y-122246671D01*
X133311517Y-122306447D01*
X133319659Y-122336832D01*
X133366328Y-122417666D01*
X133366330Y-122417669D01*
X133761988Y-122813326D01*
X133761998Y-122813337D01*
X133832333Y-122883672D01*
X133868409Y-122904500D01*
X133913168Y-122930341D01*
X134003329Y-122954500D01*
X134003331Y-122954500D01*
X136496669Y-122954500D01*
X136496671Y-122954500D01*
X136586832Y-122930341D01*
X136667668Y-122883671D01*
X137375450Y-122175889D01*
X138671000Y-122175889D01*
X138671000Y-123144116D01*
X138673709Y-123157735D01*
X138673710Y-123157735D01*
X139171447Y-122660000D01*
X139171447Y-122659999D01*
X138673710Y-122162262D01*
X138671000Y-122175889D01*
X137375450Y-122175889D01*
X137871985Y-121679354D01*
X138897907Y-121679354D01*
X139314644Y-122096091D01*
X139284940Y-122125795D01*
X139245444Y-122194204D01*
X139225000Y-122270504D01*
X139225000Y-123049496D01*
X139245444Y-123125796D01*
X139284940Y-123194205D01*
X139314643Y-123223908D01*
X138897907Y-123640644D01*
X138980608Y-123723346D01*
X139120472Y-123816801D01*
X139120485Y-123816808D01*
X139275892Y-123881179D01*
X139275904Y-123881182D01*
X139440883Y-123913999D01*
X139440886Y-123914000D01*
X139609114Y-123914000D01*
X139609116Y-123913999D01*
X139774095Y-123881182D01*
X139774107Y-123881179D01*
X139929514Y-123816808D01*
X139929527Y-123816801D01*
X140069388Y-123723348D01*
X140152092Y-123640644D01*
X139735356Y-123223908D01*
X139765060Y-123194205D01*
X139804556Y-123125796D01*
X139825000Y-123049496D01*
X139825000Y-122659999D01*
X139878553Y-122659999D01*
X139878553Y-122660000D01*
X140376288Y-123157735D01*
X140378999Y-123144112D01*
X140379000Y-123144107D01*
X140379000Y-122175888D01*
X140376289Y-122162263D01*
X140376288Y-122162262D01*
X139878553Y-122659999D01*
X139825000Y-122659999D01*
X139825000Y-122270504D01*
X139804556Y-122194204D01*
X139765060Y-122125795D01*
X139735356Y-122096091D01*
X140152092Y-121679354D01*
X140069391Y-121596653D01*
X139929527Y-121503198D01*
X139929514Y-121503191D01*
X139774107Y-121438820D01*
X139774095Y-121438817D01*
X139609115Y-121406000D01*
X139440885Y-121406000D01*
X139275904Y-121438817D01*
X139275892Y-121438820D01*
X139120485Y-121503191D01*
X139120472Y-121503198D01*
X138980610Y-121596652D01*
X138897907Y-121679354D01*
X137871985Y-121679354D01*
X138460520Y-121090819D01*
X138521843Y-121057334D01*
X138548201Y-121054500D01*
X141651799Y-121054500D01*
X141718838Y-121074185D01*
X141739480Y-121090819D01*
X142459181Y-121810520D01*
X142492666Y-121871843D01*
X142495500Y-121898201D01*
X142495500Y-122212189D01*
X142475815Y-122279228D01*
X142459185Y-122299866D01*
X142454532Y-122304519D01*
X142454527Y-122304524D01*
X142454526Y-122304526D01*
X142365645Y-122420358D01*
X142365643Y-122420361D01*
X142309772Y-122555245D01*
X142309771Y-122555247D01*
X142290715Y-122699998D01*
X142290715Y-122700001D01*
X142309771Y-122844752D01*
X142309773Y-122844757D01*
X142365642Y-122979638D01*
X142365645Y-122979644D01*
X142454525Y-123095473D01*
X142454526Y-123095474D01*
X142570355Y-123184354D01*
X142570361Y-123184357D01*
X142637801Y-123212291D01*
X142705246Y-123240228D01*
X142777623Y-123249756D01*
X142849999Y-123259285D01*
X142850000Y-123259285D01*
X142850001Y-123259285D01*
X142898251Y-123252932D01*
X142994754Y-123240228D01*
X143129643Y-123184355D01*
X143245474Y-123095474D01*
X143251625Y-123087457D01*
X143308049Y-123046256D01*
X143377795Y-123042099D01*
X143438716Y-123076310D01*
X143448365Y-123087445D01*
X143454526Y-123095474D01*
X143494042Y-123125796D01*
X143570355Y-123184354D01*
X143570361Y-123184357D01*
X143637801Y-123212291D01*
X143705246Y-123240228D01*
X143777623Y-123249756D01*
X143849999Y-123259285D01*
X143850000Y-123259285D01*
X143850001Y-123259285D01*
X143898251Y-123252932D01*
X143994754Y-123240228D01*
X144129643Y-123184355D01*
X144245474Y-123095474D01*
X144251625Y-123087457D01*
X144308049Y-123046256D01*
X144377795Y-123042099D01*
X144438716Y-123076310D01*
X144448365Y-123087445D01*
X144454526Y-123095474D01*
X144494042Y-123125796D01*
X144570355Y-123184354D01*
X144570361Y-123184357D01*
X144637801Y-123212291D01*
X144705246Y-123240228D01*
X144777623Y-123249756D01*
X144849999Y-123259285D01*
X144850000Y-123259285D01*
X144850001Y-123259285D01*
X144898251Y-123252932D01*
X144994754Y-123240228D01*
X145129643Y-123184355D01*
X145245474Y-123095474D01*
X145334355Y-122979643D01*
X145390228Y-122844754D01*
X145409285Y-122700000D01*
X145390228Y-122555246D01*
X145334355Y-122420358D01*
X145245474Y-122304526D01*
X145245470Y-122304522D01*
X145245467Y-122304519D01*
X145240815Y-122299866D01*
X145207333Y-122238541D01*
X145204500Y-122212189D01*
X145204500Y-122175889D01*
X147321000Y-122175889D01*
X147321000Y-123144116D01*
X147323709Y-123157735D01*
X147323710Y-123157735D01*
X147821447Y-122660000D01*
X147821447Y-122659999D01*
X147323710Y-122162262D01*
X147321000Y-122175889D01*
X145204500Y-122175889D01*
X145204500Y-121898201D01*
X145224185Y-121831162D01*
X145240819Y-121810520D01*
X145371985Y-121679354D01*
X147547907Y-121679354D01*
X147964644Y-122096091D01*
X147934940Y-122125795D01*
X147895444Y-122194204D01*
X147875000Y-122270504D01*
X147875000Y-123049496D01*
X147895444Y-123125796D01*
X147934940Y-123194205D01*
X147964643Y-123223908D01*
X147547907Y-123640644D01*
X147630608Y-123723346D01*
X147770472Y-123816801D01*
X147770485Y-123816808D01*
X147925892Y-123881179D01*
X147925904Y-123881182D01*
X148090883Y-123913999D01*
X148090886Y-123914000D01*
X148259114Y-123914000D01*
X148259116Y-123913999D01*
X148424095Y-123881182D01*
X148424107Y-123881179D01*
X148579514Y-123816808D01*
X148579527Y-123816801D01*
X148719388Y-123723348D01*
X148802092Y-123640644D01*
X148385356Y-123223908D01*
X148415060Y-123194205D01*
X148454556Y-123125796D01*
X148475000Y-123049496D01*
X148475000Y-122659999D01*
X148528553Y-122659999D01*
X148528553Y-122660000D01*
X149026288Y-123157735D01*
X149028999Y-123144112D01*
X149029000Y-123144107D01*
X149029000Y-122175888D01*
X149026289Y-122162263D01*
X149026288Y-122162262D01*
X148528553Y-122659999D01*
X148475000Y-122659999D01*
X148475000Y-122270504D01*
X148454556Y-122194204D01*
X148415060Y-122125795D01*
X148385356Y-122096091D01*
X148802092Y-121679354D01*
X148802092Y-121679353D01*
X148719396Y-121596657D01*
X148719392Y-121596654D01*
X148579527Y-121503198D01*
X148579514Y-121503191D01*
X148424107Y-121438820D01*
X148424095Y-121438817D01*
X148259115Y-121406000D01*
X148090885Y-121406000D01*
X147925904Y-121438817D01*
X147925892Y-121438820D01*
X147770485Y-121503191D01*
X147770472Y-121503198D01*
X147630610Y-121596652D01*
X147547907Y-121679354D01*
X145371985Y-121679354D01*
X145910520Y-121140819D01*
X145971843Y-121107334D01*
X145998201Y-121104500D01*
X149501799Y-121104500D01*
X149568838Y-121124185D01*
X149589480Y-121140819D01*
X151211988Y-122763326D01*
X151211998Y-122763337D01*
X151282333Y-122833672D01*
X151322750Y-122857006D01*
X151363168Y-122880341D01*
X151453329Y-122904500D01*
X151453331Y-122904500D01*
X153633065Y-122904500D01*
X153633067Y-122904500D01*
X153723228Y-122880341D01*
X153804064Y-122833671D01*
X154483671Y-122154064D01*
X154530341Y-122073228D01*
X154537663Y-122045904D01*
X154574028Y-121986244D01*
X154636875Y-121955716D01*
X154657437Y-121953999D01*
X155225014Y-121953999D01*
X155287932Y-121941484D01*
X154590819Y-121244371D01*
X154557334Y-121183048D01*
X154554500Y-121156690D01*
X154554500Y-121149999D01*
X155203553Y-121149999D01*
X155203553Y-121150001D01*
X155453998Y-121400446D01*
X155453999Y-121400445D01*
X155453999Y-120899553D01*
X155453998Y-120899552D01*
X155203553Y-121149999D01*
X154554500Y-121149999D01*
X154554500Y-121143309D01*
X154574185Y-121076270D01*
X154590819Y-121055628D01*
X154850000Y-120796447D01*
X155255627Y-120390819D01*
X155316950Y-120357334D01*
X155343308Y-120354500D01*
X156096669Y-120354500D01*
X156096671Y-120354500D01*
X156186832Y-120330341D01*
X156267668Y-120283671D01*
X156355734Y-120195604D01*
X156417057Y-120162119D01*
X156443416Y-120159285D01*
X156450001Y-120159285D01*
X156501211Y-120152543D01*
X156594754Y-120140228D01*
X156729643Y-120084355D01*
X156845474Y-119995474D01*
X156934355Y-119879643D01*
X156990228Y-119744754D01*
X156993303Y-119721392D01*
X157021568Y-119657497D01*
X157079892Y-119619025D01*
X157149757Y-119618193D01*
X157163694Y-119623017D01*
X157181681Y-119630467D01*
X157205246Y-119640228D01*
X157293567Y-119651855D01*
X157357462Y-119680119D01*
X157365063Y-119687112D01*
X157501631Y-119823680D01*
X157544017Y-119848152D01*
X157593864Y-119876932D01*
X157593865Y-119876932D01*
X157593868Y-119876934D01*
X157603973Y-119879641D01*
X157603978Y-119879644D01*
X157603979Y-119879643D01*
X157696747Y-119904500D01*
X157696749Y-119904500D01*
X158803251Y-119904500D01*
X158803253Y-119904500D01*
X158906131Y-119876934D01*
X158998369Y-119823680D01*
X160400020Y-118422028D01*
X160461342Y-118388544D01*
X160531034Y-118393528D01*
X160575381Y-118422028D01*
X160809044Y-118655689D01*
X161784144Y-117680591D01*
X162405690Y-117059044D01*
X162172027Y-116825383D01*
X162138542Y-116764060D01*
X162143526Y-116694368D01*
X162172024Y-116650024D01*
X166257510Y-112564537D01*
X166318831Y-112531054D01*
X166388523Y-112536038D01*
X166432870Y-112564539D01*
X166468095Y-112599764D01*
X166483662Y-112610165D01*
X166531029Y-112641815D01*
X166531030Y-112641815D01*
X166531031Y-112641816D01*
X166630328Y-112661567D01*
X166630330Y-112661567D01*
X166630332Y-112661567D01*
X166696530Y-112648399D01*
X166729631Y-112641815D01*
X166792564Y-112599765D01*
X167499764Y-111892564D01*
X167541815Y-111829631D01*
X167541947Y-111828970D01*
X167561567Y-111730332D01*
X167561567Y-111730327D01*
X167541815Y-111631029D01*
X167541815Y-111631028D01*
X167499765Y-111568095D01*
X167453025Y-111521355D01*
X167419540Y-111460032D01*
X167424524Y-111390340D01*
X167453023Y-111345996D01*
X167873680Y-110925340D01*
X167926934Y-110833102D01*
X167954500Y-110730224D01*
X167954500Y-110623718D01*
X167954500Y-109446747D01*
X167926934Y-109343869D01*
X167873680Y-109251631D01*
X167837113Y-109215064D01*
X167803628Y-109153741D01*
X167801855Y-109143567D01*
X167801198Y-109138579D01*
X167790228Y-109055246D01*
X167773016Y-109013695D01*
X167765547Y-108944227D01*
X167796821Y-108881747D01*
X167856910Y-108846094D01*
X167871388Y-108843304D01*
X167894754Y-108840228D01*
X168029643Y-108784355D01*
X168145474Y-108695474D01*
X168234355Y-108579643D01*
X168290228Y-108444754D01*
X168309285Y-108300000D01*
X168309285Y-108293415D01*
X168328970Y-108226376D01*
X168345604Y-108205734D01*
X169396093Y-107155245D01*
X170633671Y-105917668D01*
X170680341Y-105836832D01*
X170704500Y-105746671D01*
X170704500Y-105653329D01*
X170704500Y-97398201D01*
X170724185Y-97331162D01*
X170740819Y-97310520D01*
X170755735Y-97295604D01*
X170817058Y-97262119D01*
X170843416Y-97259285D01*
X170850001Y-97259285D01*
X170901211Y-97252543D01*
X170994754Y-97240228D01*
X171129643Y-97184355D01*
X171245474Y-97095474D01*
X171334355Y-96979643D01*
X171390228Y-96844754D01*
X171409285Y-96700000D01*
X171401136Y-96638105D01*
X171390228Y-96555247D01*
X171390228Y-96555246D01*
X171334355Y-96420358D01*
X171245474Y-96304526D01*
X171245472Y-96304524D01*
X171245471Y-96304523D01*
X171237457Y-96298374D01*
X171196255Y-96241945D01*
X171192101Y-96172199D01*
X171226315Y-96111279D01*
X171237443Y-96101636D01*
X171245474Y-96095474D01*
X171334355Y-95979643D01*
X171390228Y-95844754D01*
X171405382Y-95729644D01*
X171409285Y-95700001D01*
X171409285Y-95699998D01*
X171390228Y-95555247D01*
X171390228Y-95555246D01*
X171334355Y-95420358D01*
X171245474Y-95304526D01*
X171245472Y-95304524D01*
X171245471Y-95304523D01*
X171237457Y-95298374D01*
X171196255Y-95241945D01*
X171192101Y-95172199D01*
X171226315Y-95111279D01*
X171237443Y-95101636D01*
X171245474Y-95095474D01*
X171334355Y-94979643D01*
X171390228Y-94844754D01*
X171409285Y-94700000D01*
X171390228Y-94555246D01*
X171334355Y-94420358D01*
X171245474Y-94304526D01*
X171129643Y-94215645D01*
X171129640Y-94215644D01*
X171129638Y-94215642D01*
X170994757Y-94159773D01*
X170994752Y-94159771D01*
X170850001Y-94140715D01*
X170843416Y-94140715D01*
X170776377Y-94121030D01*
X170755735Y-94104396D01*
X170740819Y-94089480D01*
X170707334Y-94028157D01*
X170704500Y-94001799D01*
X170704500Y-85553330D01*
X170704500Y-85553329D01*
X170680341Y-85463168D01*
X170633671Y-85382332D01*
X170567668Y-85316329D01*
X168345604Y-83094265D01*
X168312119Y-83032942D01*
X168309285Y-83006584D01*
X168309285Y-82999998D01*
X168290228Y-82855247D01*
X168290228Y-82855246D01*
X168234355Y-82720358D01*
X168145474Y-82604526D01*
X168029643Y-82515645D01*
X168029640Y-82515644D01*
X168029638Y-82515642D01*
X167894757Y-82459773D01*
X167894755Y-82459772D01*
X167894754Y-82459772D01*
X167894752Y-82459771D01*
X167886904Y-82457669D01*
X167887626Y-82454970D01*
X167836163Y-82432202D01*
X167797694Y-82373876D01*
X167793309Y-82321349D01*
X167809285Y-82200000D01*
X167802632Y-82149469D01*
X167813397Y-82080437D01*
X167818172Y-82071306D01*
X167826934Y-82056132D01*
X167834922Y-82026320D01*
X167854500Y-81953253D01*
X167854500Y-80569777D01*
X167826934Y-80466899D01*
X167826934Y-80466898D01*
X167773680Y-80374661D01*
X167610563Y-80211544D01*
X167564133Y-80165114D01*
X167530648Y-80103791D01*
X167535632Y-80034099D01*
X167537255Y-80029976D01*
X167541812Y-80018973D01*
X167541814Y-80018971D01*
X167561566Y-79919670D01*
X167561566Y-79919667D01*
X167541814Y-79820369D01*
X167541814Y-79820368D01*
X167499762Y-79757433D01*
X167499759Y-79757430D01*
X166792566Y-79050238D01*
X166792563Y-79050235D01*
X166736453Y-79012744D01*
X166729630Y-79008185D01*
X166729629Y-79008184D01*
X166729628Y-79008184D01*
X166729627Y-79008183D01*
X166630331Y-78988433D01*
X166630327Y-78988433D01*
X166531028Y-79008184D01*
X166531027Y-79008184D01*
X166468096Y-79050234D01*
X166468090Y-79050239D01*
X166457867Y-79060462D01*
X166396543Y-79093945D01*
X166326851Y-79088958D01*
X166282508Y-79060459D01*
X158998371Y-71776322D01*
X158998369Y-71776320D01*
X158906131Y-71723066D01*
X158803253Y-71695500D01*
X157496747Y-71695500D01*
X157496744Y-71695500D01*
X157415609Y-71717239D01*
X157415608Y-71717240D01*
X157393868Y-71723066D01*
X157388583Y-71726116D01*
X157342773Y-71741666D01*
X157228652Y-71756690D01*
X157159617Y-71745924D01*
X157107361Y-71699544D01*
X157094094Y-71662623D01*
X157092331Y-71663096D01*
X157090228Y-71655251D01*
X157090228Y-71655246D01*
X157034355Y-71520358D01*
X156945474Y-71404526D01*
X156945471Y-71404524D01*
X156945470Y-71404522D01*
X156890972Y-71362704D01*
X156859071Y-71326327D01*
X156833673Y-71282335D01*
X156833669Y-71282330D01*
X155667669Y-70116330D01*
X155667668Y-70116329D01*
X155586832Y-70069659D01*
X155586833Y-70069659D01*
X155556778Y-70061606D01*
X155496671Y-70045500D01*
X155496669Y-70045500D01*
X146448201Y-70045500D01*
X146381162Y-70025815D01*
X146360520Y-70009181D01*
X146342519Y-69991180D01*
X146309034Y-69929857D01*
X146314018Y-69860165D01*
X146355890Y-69804232D01*
X146421354Y-69779815D01*
X146430200Y-69779499D01*
X147850064Y-69779499D01*
X147850066Y-69779499D01*
X147924301Y-69764734D01*
X148008484Y-69708484D01*
X148064734Y-69624301D01*
X148079500Y-69550067D01*
X148079499Y-67699934D01*
X148064734Y-67625699D01*
X148032515Y-67577480D01*
X148008484Y-67541515D01*
X147958019Y-67507796D01*
X147924301Y-67485266D01*
X147924299Y-67485265D01*
X147924296Y-67485264D01*
X147850069Y-67470500D01*
X145999936Y-67470500D01*
X145925698Y-67485266D01*
X145841515Y-67541515D01*
X145785266Y-67625699D01*
X145785264Y-67625703D01*
X145770500Y-67699928D01*
X145770500Y-69119799D01*
X145750815Y-69186838D01*
X145698011Y-69232593D01*
X145628853Y-69242537D01*
X145565297Y-69213512D01*
X145558819Y-69207480D01*
X145391953Y-69040614D01*
X145358468Y-68979291D01*
X145363452Y-68909599D01*
X145365058Y-68905518D01*
X145390228Y-68844754D01*
X145402932Y-68748251D01*
X145409285Y-68700001D01*
X145409285Y-68699998D01*
X145390228Y-68555247D01*
X145390228Y-68555246D01*
X145334355Y-68420358D01*
X145245474Y-68304526D01*
X145129643Y-68215645D01*
X145129640Y-68215644D01*
X145129638Y-68215642D01*
X144994757Y-68159773D01*
X144994752Y-68159771D01*
X144850001Y-68140715D01*
X144849999Y-68140715D01*
X144705247Y-68159771D01*
X144705245Y-68159772D01*
X144570361Y-68215643D01*
X144570358Y-68215644D01*
X144570358Y-68215645D01*
X144454526Y-68304526D01*
X144454525Y-68304527D01*
X144454524Y-68304528D01*
X144448375Y-68312542D01*
X144391947Y-68353744D01*
X144322201Y-68357899D01*
X144261281Y-68323686D01*
X144251625Y-68312542D01*
X144245474Y-68304526D01*
X144243433Y-68302960D01*
X144129643Y-68215645D01*
X144129640Y-68215644D01*
X144129638Y-68215642D01*
X143994757Y-68159773D01*
X143994752Y-68159771D01*
X143906431Y-68148144D01*
X143842534Y-68119877D01*
X143834935Y-68112886D01*
X142698371Y-66976322D01*
X142698369Y-66976320D01*
X142606131Y-66923066D01*
X142503253Y-66895500D01*
X139403253Y-66895500D01*
X139296747Y-66895500D01*
X139193868Y-66923066D01*
X139101631Y-66976320D01*
X139101628Y-66976322D01*
X134068770Y-72009181D01*
X134007447Y-72042666D01*
X133981089Y-72045500D01*
X130914797Y-72045500D01*
X130847758Y-72025815D01*
X130816423Y-71996989D01*
X130745474Y-71904526D01*
X130629643Y-71815645D01*
X130629640Y-71815644D01*
X130629638Y-71815642D01*
X130494757Y-71759773D01*
X130494755Y-71759772D01*
X130494754Y-71759772D01*
X130464012Y-71755724D01*
X130357223Y-71741665D01*
X130311414Y-71726116D01*
X130306134Y-71723068D01*
X130306135Y-71723068D01*
X130306131Y-71723066D01*
X130203253Y-71695500D01*
X128826282Y-71695500D01*
X128719776Y-71695500D01*
X128616897Y-71723066D01*
X128524660Y-71776320D01*
X128524657Y-71776322D01*
X121315113Y-78985865D01*
X121253790Y-79019350D01*
X121184098Y-79014366D01*
X121179978Y-79012744D01*
X121168970Y-79008184D01*
X121069672Y-78988433D01*
X121069668Y-78988433D01*
X120970369Y-79008184D01*
X120970368Y-79008184D01*
X120907433Y-79050236D01*
X120907430Y-79050239D01*
X120200238Y-79757432D01*
X120200235Y-79757435D01*
X120158184Y-79820370D01*
X120158183Y-79820371D01*
X120138433Y-79919667D01*
X120138433Y-79919672D01*
X120158184Y-80018971D01*
X120162746Y-80029985D01*
X120170212Y-80099455D01*
X120138934Y-80161933D01*
X120135865Y-80165114D01*
X120001631Y-80299349D01*
X119926322Y-80374657D01*
X119926320Y-80374660D01*
X119873066Y-80466897D01*
X119869226Y-80481230D01*
X119845500Y-80569776D01*
X119845500Y-81946747D01*
X119845500Y-82053253D01*
X119873066Y-82156131D01*
X119873068Y-82156134D01*
X119876116Y-82161414D01*
X119891665Y-82207223D01*
X119903452Y-82296747D01*
X119909655Y-82343869D01*
X119909772Y-82344752D01*
X119909772Y-82344754D01*
X119926983Y-82386306D01*
X119934450Y-82455776D01*
X119903175Y-82518254D01*
X119843085Y-82553906D01*
X119828609Y-82556696D01*
X119805246Y-82559772D01*
X119805245Y-82559772D01*
X119670361Y-82615643D01*
X119670358Y-82615644D01*
X119670358Y-82615645D01*
X119554526Y-82704526D01*
X119470736Y-82813724D01*
X119465643Y-82820361D01*
X119409772Y-82955245D01*
X119409771Y-82955247D01*
X119390715Y-83099998D01*
X119390715Y-83100001D01*
X119409771Y-83244752D01*
X119409773Y-83244757D01*
X119465642Y-83379638D01*
X119465642Y-83379639D01*
X119554530Y-83495479D01*
X119559181Y-83500130D01*
X119592666Y-83561453D01*
X119595500Y-83587811D01*
X119595500Y-91201798D01*
X119575815Y-91268837D01*
X119559181Y-91289479D01*
X116944264Y-93904396D01*
X116882941Y-93937881D01*
X116856583Y-93940715D01*
X116849999Y-93940715D01*
X116705247Y-93959771D01*
X116705245Y-93959772D01*
X116570361Y-94015643D01*
X116570358Y-94015644D01*
X116570358Y-94015645D01*
X116454526Y-94104526D01*
X116369262Y-94215645D01*
X116365643Y-94220361D01*
X116309772Y-94355245D01*
X116309771Y-94355247D01*
X116290715Y-94499998D01*
X114379823Y-94499998D01*
X114398279Y-94022944D01*
X114398537Y-94018424D01*
X114398747Y-94015643D01*
X114479313Y-92946981D01*
X114479736Y-92942477D01*
X114500473Y-92757810D01*
X114599639Y-91874722D01*
X114600220Y-91870284D01*
X114759107Y-90807524D01*
X114759841Y-90803166D01*
X114957480Y-89746965D01*
X114958374Y-89742625D01*
X115194523Y-88694290D01*
X115195575Y-88689990D01*
X115469885Y-87651068D01*
X115471089Y-87646818D01*
X115783227Y-86618563D01*
X115784605Y-86614309D01*
X116134112Y-85598229D01*
X116135636Y-85594048D01*
X116522106Y-84591335D01*
X116523755Y-84587281D01*
X116946600Y-83599455D01*
X116948440Y-83595363D01*
X117407147Y-82623621D01*
X117409095Y-82619683D01*
X117903028Y-81665373D01*
X117905158Y-81661436D01*
X118433643Y-80725861D01*
X118435915Y-80722004D01*
X118998276Y-79806357D01*
X119000661Y-79802630D01*
X119596121Y-78908175D01*
X119598662Y-78904505D01*
X120226426Y-78032438D01*
X120229134Y-78028819D01*
X120888336Y-77180336D01*
X120891154Y-77176843D01*
X121580972Y-76353002D01*
X121583937Y-76349591D01*
X122303429Y-75551521D01*
X122306465Y-75548275D01*
X123054660Y-74777052D01*
X123057818Y-74773913D01*
X123833767Y-74030521D01*
X123837016Y-74027521D01*
X124639618Y-73313016D01*
X124642980Y-73310131D01*
X125471147Y-72625478D01*
X125474648Y-72622689D01*
X126327331Y-71968757D01*
X126330898Y-71966124D01*
X127206896Y-71343833D01*
X127210555Y-71341332D01*
X128108728Y-70751491D01*
X128112530Y-70749092D01*
X129031657Y-70192502D01*
X129035515Y-70190261D01*
X129974386Y-69667653D01*
X129978351Y-69665540D01*
X130935709Y-69177616D01*
X130939703Y-69175672D01*
X131914241Y-68723096D01*
X131918360Y-68721273D01*
X132908813Y-68304632D01*
X132912980Y-68302969D01*
X133918000Y-67922832D01*
X133922183Y-67921336D01*
X134940493Y-67578186D01*
X134944740Y-67576842D01*
X135974845Y-67271184D01*
X135979165Y-67269987D01*
X137019803Y-67002194D01*
X137024166Y-67001156D01*
X138073866Y-66771606D01*
X138078219Y-66770737D01*
X139135616Y-66579729D01*
X139140067Y-66579008D01*
X140203765Y-66426793D01*
X140208186Y-66426243D01*
X141274947Y-66313219D01*
X141279206Y-66312843D01*
X141336492Y-66308778D01*
X141336499Y-66308775D01*
X141338201Y-66308428D01*
X141338734Y-66308350D01*
X141339576Y-66308164D01*
X141341640Y-66307724D01*
X141342383Y-66307572D01*
X141342877Y-66307432D01*
X141344578Y-66307054D01*
X141344593Y-66307053D01*
X141401896Y-66286195D01*
X141403539Y-66285612D01*
X141461052Y-66265743D01*
X141461060Y-66265737D01*
X141462593Y-66264972D01*
X141463085Y-66264760D01*
X141463881Y-66264346D01*
X141465745Y-66263395D01*
X141466447Y-66263043D01*
X141466877Y-66262788D01*
X141468425Y-66261982D01*
X141468426Y-66261980D01*
X141468429Y-66261980D01*
X141518371Y-66227009D01*
X141519783Y-66226037D01*
X141570229Y-66191936D01*
X141570232Y-66191932D01*
X141571512Y-66190798D01*
X141571927Y-66190470D01*
X141572585Y-66189868D01*
X141574132Y-66188474D01*
X141574752Y-66187924D01*
X141575109Y-66187557D01*
X141576376Y-66186395D01*
X141576381Y-66186392D01*
X141615553Y-66139705D01*
X141616655Y-66138413D01*
X141656583Y-66092387D01*
X141656588Y-66092375D01*
X141657531Y-66090949D01*
X141657856Y-66090513D01*
X141658333Y-66089765D01*
X141659449Y-66088044D01*
X141659907Y-66087349D01*
X141660160Y-66086897D01*
X141661083Y-66085446D01*
X141661090Y-66085439D01*
X141686762Y-66030381D01*
X141687630Y-66028559D01*
X141691948Y-66019680D01*
X141714229Y-65973879D01*
X141714231Y-65973864D01*
X141714775Y-65972238D01*
X141714972Y-65971743D01*
X141715233Y-65970917D01*
X141715870Y-65968955D01*
X141716131Y-65968169D01*
X141716262Y-65967654D01*
X141716780Y-65966010D01*
X141716784Y-65966002D01*
X141727367Y-65905978D01*
X141727688Y-65904240D01*
X141739239Y-65844490D01*
X141739239Y-65844483D01*
X141739343Y-65842763D01*
X141739405Y-65842235D01*
X141739444Y-65841346D01*
X141739552Y-65839270D01*
X141739600Y-65838470D01*
X141739593Y-65837958D01*
X141739667Y-65836226D01*
X141739669Y-65836220D01*
X141734363Y-65775581D01*
X141734214Y-65773705D01*
X141729909Y-65713037D01*
X141729905Y-65713027D01*
X141729558Y-65711325D01*
X141729481Y-65710800D01*
X141729298Y-65709972D01*
X141728866Y-65707942D01*
X141728703Y-65707146D01*
X141728562Y-65706646D01*
X141728183Y-65704939D01*
X141728183Y-65704937D01*
X141707402Y-65647844D01*
X141706734Y-65645960D01*
X141686873Y-65588475D01*
X141686088Y-65586904D01*
X141685894Y-65586452D01*
X141685535Y-65585763D01*
X141684591Y-65583911D01*
X141684193Y-65583115D01*
X141683909Y-65582638D01*
X141683111Y-65581105D01*
X141683110Y-65581101D01*
X141648253Y-65531320D01*
X141647121Y-65529674D01*
X141625760Y-65498077D01*
X141613067Y-65479300D01*
X141613066Y-65479299D01*
X141611892Y-65477975D01*
X141611579Y-65477578D01*
X141611041Y-65476991D01*
X141609681Y-65475481D01*
X141609100Y-65474826D01*
X141608708Y-65474444D01*
X141607518Y-65473145D01*
X141565892Y-65438217D01*
X141559518Y-65432482D01*
X141415828Y-65293902D01*
X141303061Y-65185144D01*
X141294145Y-65175586D01*
X141066013Y-64903620D01*
X141058148Y-64893171D01*
X140859923Y-64598678D01*
X140853202Y-64587458D01*
X140747101Y-64387057D01*
X140687103Y-64273733D01*
X140681607Y-64261882D01*
X140549470Y-63932391D01*
X140545251Y-63920017D01*
X140542427Y-63910043D01*
X140448558Y-63578460D01*
X140445665Y-63565708D01*
X140445664Y-63565705D01*
X140385485Y-63215866D01*
X140383951Y-63202879D01*
X140373914Y-63048267D01*
X140360952Y-62848616D01*
X140360796Y-62835566D01*
X140362244Y-62800000D01*
X142262943Y-62800000D01*
X142282481Y-63048267D01*
X142340617Y-63290423D01*
X142435921Y-63520509D01*
X142566040Y-63732844D01*
X142566041Y-63732846D01*
X142566044Y-63732849D01*
X142727781Y-63922219D01*
X142874371Y-64047419D01*
X142917153Y-64083958D01*
X142917155Y-64083959D01*
X143129490Y-64214078D01*
X143218470Y-64250934D01*
X143359572Y-64309381D01*
X143601730Y-64367518D01*
X143850000Y-64387057D01*
X144098270Y-64367518D01*
X144340428Y-64309381D01*
X144570509Y-64214078D01*
X144782849Y-64083956D01*
X144972219Y-63922219D01*
X145133956Y-63732849D01*
X145264078Y-63520509D01*
X145359381Y-63290428D01*
X145417518Y-63048270D01*
X145437057Y-62800000D01*
X145417518Y-62551730D01*
X145359381Y-62309572D01*
X145279470Y-62116650D01*
X145264078Y-62079490D01*
X145133959Y-61867155D01*
X145133958Y-61867153D01*
X145042477Y-61760043D01*
X144972219Y-61677781D01*
X144847017Y-61570849D01*
X144782846Y-61516041D01*
X144782844Y-61516040D01*
X144570509Y-61385921D01*
X144340423Y-61290617D01*
X144098266Y-61232481D01*
X144098267Y-61232481D01*
X143850000Y-61212943D01*
X143601732Y-61232481D01*
X143359576Y-61290617D01*
X143129490Y-61385921D01*
X142917155Y-61516040D01*
X142917153Y-61516041D01*
X142727781Y-61677781D01*
X142566041Y-61867153D01*
X142566040Y-61867155D01*
X142435921Y-62079490D01*
X142340617Y-62309576D01*
X142282481Y-62551732D01*
X142262943Y-62800000D01*
X140362244Y-62800000D01*
X140375239Y-62480870D01*
X140376459Y-62467855D01*
X140428184Y-62116634D01*
X140430763Y-62103846D01*
X140519190Y-61760039D01*
X140523110Y-61747568D01*
X140549161Y-61677781D01*
X140647263Y-61414974D01*
X140652458Y-61403024D01*
X140810956Y-61085348D01*
X140817387Y-61074000D01*
X141008466Y-60774783D01*
X141016056Y-60764177D01*
X141237577Y-60486765D01*
X141246243Y-60477013D01*
X141495759Y-60224468D01*
X141505417Y-60215674D01*
X141780135Y-59990823D01*
X141790661Y-59983098D01*
X142087528Y-59788437D01*
X142098821Y-59781858D01*
X142414543Y-59619547D01*
X142426442Y-59614204D01*
X142757508Y-59486048D01*
X142769919Y-59481982D01*
X143112637Y-59389413D01*
X143125411Y-59386676D01*
X143475978Y-59330718D01*
X143488968Y-59329342D01*
X143843466Y-59310621D01*
X143856532Y-59310621D01*
X144211029Y-59329342D01*
G37*
G04 #@! TD.AperFunction*
M02*
