M48
; DRILL file {KiCad 8.0.5} date 2024-12-10T21:35:01+0100
; FORMAT={-:-/ absolute / metric / decimal}
; #@! TF.CreationDate,2024-12-10T21:35:01+01:00
; #@! TF.GenerationSoftware,Kicad,Pcbnew,8.0.5
; #@! TF.FileFunction,Plated,1,2,PTH
FMAT,2
METRIC
; #@! TA.AperFunction,Plated,PTH,ViaDrill
T1C0.300
; #@! TA.AperFunction,Plated,PTH,ComponentDrill
T2C0.600
%
G90
G05
T1
X115.15Y-96.3
X116.85Y-94.5
X116.85Y-95.7
X116.85Y-96.8
X119.25Y-110.5
X119.95Y-83.1
X119.95Y-108.3
X120.45Y-82.2
X120.45Y-109.1
X120.95Y-81.3
X120.95Y-110.0
X127.85Y-107.45
X129.05Y-71.1
X129.45Y-72.8
X129.45Y-118.5
X129.95Y-120.8
X130.2Y-115.75
X130.35Y-72.3
X130.35Y-119.0
X131.25Y-119.5
X131.55Y-107.3
X131.6Y-114.95
X132.85Y-108.45
X136.15Y-110.4
X137.65Y-110.4
X138.1Y-117.7
X138.1Y-119.2
X140.55Y-111.028
X142.05Y-96.1
X142.45Y-93.9
X142.85Y-68.7
X142.85Y-80.6
X142.85Y-94.7
X142.85Y-122.7
X142.9Y-96.95
X143.25Y-67.0
X143.45Y-97.7
X143.65Y-93.8
X143.85Y-68.7
X143.85Y-71.95
X143.85Y-106.95
X143.85Y-120.2
X143.85Y-122.7
X144.15Y-98.4
X144.35Y-95.45
X144.45Y-124.4
X144.688Y-96.862
X144.85Y-68.7
X144.85Y-122.7
X145.35Y-95.1
X146.15Y-95.7
X147.75Y-111.4
X149.2Y-111.25
X149.85Y-117.7
X149.85Y-119.2
X149.95Y-110.1
X150.1Y-107.2
X152.756Y-111.856
X153.6Y-112.45
X153.85Y-81.0
X155.4Y-114.7
X156.05Y-115.7
X156.45Y-119.6
X156.55Y-71.8
X157.35Y-72.3
X157.35Y-119.1
X157.75Y-70.6
X158.25Y-72.8
X158.25Y-118.6
X158.65Y-120.2
X166.75Y-81.3
X166.75Y-110.1
X167.25Y-82.2
X167.25Y-109.2
X167.75Y-83.0
X167.75Y-108.3
X168.45Y-80.9
X170.85Y-94.7
X170.85Y-95.7
X170.85Y-96.7
X172.55Y-95.1
T2
X139.525Y-119.03G85X139.525Y-117.93
G05
X139.525Y-123.01G85X139.525Y-122.31
G05
X148.175Y-119.03G85X148.175Y-117.93
G05
X148.175Y-123.01G85X148.175Y-122.31
G05
M30
