G04 #@! TF.GenerationSoftware,KiCad,Pcbnew,8.0.0*
G04 #@! TF.CreationDate,2024-12-09T22:18:02+01:00*
G04 #@! TF.ProjectId,xmasOrnament2024,786d6173-4f72-46e6-916d-656e74323032,rev?*
G04 #@! TF.SameCoordinates,Original*
G04 #@! TF.FileFunction,Paste,Bot*
G04 #@! TF.FilePolarity,Positive*
%FSLAX46Y46*%
G04 Gerber Fmt 4.6, Leading zero omitted, Abs format (unit mm)*
G04 Created by KiCad (PCBNEW 8.0.0) date 2024-12-09 22:18:02*
%MOMM*%
%LPD*%
G01*
G04 APERTURE LIST*
G04 Aperture macros list*
%AMRotRect*
0 Rectangle, with rotation*
0 The origin of the aperture is its center*
0 $1 length*
0 $2 width*
0 $3 Rotation angle, in degrees counterclockwise*
0 Add horizontal line*
21,1,$1,$2,0,0,$3*%
G04 Aperture macros list end*
%ADD10C,1.500000*%
%ADD11RotRect,0.800000X0.950000X135.000000*%
%ADD12R,0.800000X0.950000*%
%ADD13R,0.900000X0.800000*%
%ADD14RotRect,1.000000X3.500000X225.000000*%
%ADD15RotRect,1.500000X3.400000X225.000000*%
%ADD16R,0.950000X0.800000*%
%ADD17RotRect,0.800000X0.950000X45.000000*%
%ADD18R,1.125000X1.750000*%
%ADD19RotRect,1.125000X1.750000X135.000000*%
%ADD20R,0.590000X0.450000*%
%ADD21R,0.300000X1.140000*%
%ADD22R,1.400000X0.450000*%
%ADD23R,1.880000X2.000000*%
%ADD24R,0.700000X1.100000*%
%ADD25R,0.250000X0.700000*%
%ADD26R,0.300000X0.450000*%
%ADD27R,1.600000X1.000000*%
%ADD28RotRect,0.800000X0.950000X225.000000*%
%ADD29R,1.800000X1.800000*%
G04 APERTURE END LIST*
D10*
X133190000Y-82100000D03*
X125550000Y-82100000D03*
D11*
X122183363Y-81033363D03*
X121016637Y-79866637D03*
D12*
X149450000Y-113650000D03*
X147800000Y-113650000D03*
X137725000Y-114000000D03*
X139375000Y-114000000D03*
D13*
X129050000Y-111750000D03*
X126850000Y-112700000D03*
X129050000Y-113650000D03*
D10*
X130650000Y-82100000D03*
D14*
X160674406Y-111838620D03*
X162088620Y-110424406D03*
D15*
X159684457Y-104696841D03*
X154946841Y-109434457D03*
D16*
X130550000Y-113525000D03*
X130550000Y-111875000D03*
D12*
X141525000Y-110100000D03*
X143175000Y-110100000D03*
D17*
X121016637Y-111533363D03*
X122183363Y-110366637D03*
D18*
X134412500Y-103700000D03*
X131487500Y-103700000D03*
D10*
X135750000Y-82000000D03*
D12*
X136675000Y-72300000D03*
X138325000Y-72300000D03*
D19*
X161784144Y-118034144D03*
X159715856Y-115965856D03*
D20*
X142845000Y-76600000D03*
X144955000Y-76600000D03*
D16*
X151200000Y-118375000D03*
X151200000Y-120025000D03*
D21*
X147200000Y-117890000D03*
X146400000Y-117890000D03*
X145100000Y-117890000D03*
X144100000Y-117890000D03*
X143600000Y-117890000D03*
X142600000Y-117890000D03*
X141300000Y-117890000D03*
X140500000Y-117890000D03*
X140800000Y-117890000D03*
X141600000Y-117890000D03*
X142100000Y-117890000D03*
X143100000Y-117890000D03*
X144600000Y-117890000D03*
X145600000Y-117890000D03*
X146100000Y-117890000D03*
X146900000Y-117890000D03*
D16*
X133450000Y-74025000D03*
X133450000Y-75675000D03*
X136550000Y-118425000D03*
X136550000Y-120075000D03*
D12*
X133225000Y-77200000D03*
X134875000Y-77200000D03*
X136375000Y-77100000D03*
X138025000Y-77100000D03*
D22*
X141650000Y-113575000D03*
X141650000Y-112925000D03*
X141650000Y-112275000D03*
X141650000Y-111625000D03*
X146050000Y-111625000D03*
X146050000Y-112275000D03*
X146050000Y-112925000D03*
X146050000Y-113575000D03*
D23*
X143850000Y-112600000D03*
D12*
X148600000Y-76700000D03*
X146950000Y-76700000D03*
D24*
X132850000Y-117250000D03*
X132850000Y-121150000D03*
X134850000Y-117250000D03*
X134850000Y-121150000D03*
D25*
X135350000Y-119200000D03*
X132350000Y-119200000D03*
D26*
X132300000Y-105225000D03*
X132950000Y-105225000D03*
X133600000Y-105225000D03*
X133600000Y-107175000D03*
X132950000Y-107175000D03*
X132300000Y-107175000D03*
D27*
X132950000Y-106200000D03*
D12*
X137725000Y-112500000D03*
X139375000Y-112500000D03*
D13*
X136350000Y-75750000D03*
X138550000Y-74800000D03*
X136350000Y-73850000D03*
D12*
X133025000Y-115750000D03*
X134675000Y-115750000D03*
X154675000Y-115750000D03*
X153025000Y-115750000D03*
X144487000Y-110096500D03*
X146137000Y-110096500D03*
D16*
X132150000Y-113525000D03*
X132150000Y-111875000D03*
X134950000Y-75675000D03*
X134950000Y-74025000D03*
D24*
X154850000Y-121150000D03*
X154850000Y-117250000D03*
X152850000Y-121150000D03*
X152850000Y-117250000D03*
D25*
X152350000Y-119200000D03*
X155350000Y-119200000D03*
D28*
X166683363Y-79866637D03*
X165516637Y-81033363D03*
D12*
X141025000Y-115200000D03*
X142675000Y-115200000D03*
D11*
X166683363Y-111783363D03*
X165516637Y-110616637D03*
D10*
X128110000Y-82100000D03*
D29*
X146925000Y-74775000D03*
X140775000Y-74775000D03*
X140775000Y-68625000D03*
X146925000Y-68625000D03*
D12*
X146975000Y-115200000D03*
X145325000Y-115200000D03*
X143075000Y-78100000D03*
X144725000Y-78100000D03*
M02*
