G04 #@! TF.GenerationSoftware,KiCad,Pcbnew,8.0.0*
G04 #@! TF.CreationDate,2024-12-09T22:18:02+01:00*
G04 #@! TF.ProjectId,xmasOrnament2024,786d6173-4f72-46e6-916d-656e74323032,rev?*
G04 #@! TF.SameCoordinates,Original*
G04 #@! TF.FileFunction,Legend,Bot*
G04 #@! TF.FilePolarity,Positive*
%FSLAX46Y46*%
G04 Gerber Fmt 4.6, Leading zero omitted, Abs format (unit mm)*
G04 Created by KiCad (PCBNEW 8.0.0) date 2024-12-09 22:18:02*
%MOMM*%
%LPD*%
G01*
G04 APERTURE LIST*
G04 Aperture macros list*
%AMRoundRect*
0 Rectangle with rounded corners*
0 $1 Rounding radius*
0 $2 $3 $4 $5 $6 $7 $8 $9 X,Y pos of 4 corners*
0 Add a 4 corners polygon primitive as box body*
4,1,4,$2,$3,$4,$5,$6,$7,$8,$9,$2,$3,0*
0 Add four circle primitives for the rounded corners*
1,1,$1+$1,$2,$3*
1,1,$1+$1,$4,$5*
1,1,$1+$1,$6,$7*
1,1,$1+$1,$8,$9*
0 Add four rect primitives between the rounded corners*
20,1,$1+$1,$2,$3,$4,$5,0*
20,1,$1+$1,$4,$5,$6,$7,0*
20,1,$1+$1,$6,$7,$8,$9,0*
20,1,$1+$1,$8,$9,$2,$3,0*%
%AMRotRect*
0 Rectangle, with rotation*
0 The origin of the aperture is its center*
0 $1 length*
0 $2 width*
0 $3 Rotation angle, in degrees counterclockwise*
0 Add horizontal line*
21,1,$1,$2,0,0,$3*%
G04 Aperture macros list end*
%ADD10C,0.100000*%
%ADD11C,0.127000*%
%ADD12C,0.200000*%
%ADD13C,1.500000*%
%ADD14RotRect,0.800000X0.950000X135.000000*%
%ADD15R,0.800000X0.950000*%
%ADD16R,0.900000X0.800000*%
%ADD17RoundRect,0.102000X-0.883883X1.590990X-1.590990X0.883883X0.883883X-1.590990X1.590990X-0.883883X0*%
%ADD18RoundRect,0.102000X-0.671751X1.732412X-1.732412X0.671751X0.671751X-1.732412X1.732412X-0.671751X0*%
%ADD19R,0.950000X0.800000*%
%ADD20RotRect,0.800000X0.950000X45.000000*%
%ADD21R,1.125000X1.750000*%
%ADD22RotRect,1.125000X1.750000X135.000000*%
%ADD23R,0.590000X0.450000*%
%ADD24C,0.100000*%
%ADD25R,0.300000X1.140000*%
%ADD26O,1.200000X2.000000*%
%ADD27O,1.200000X2.300000*%
%ADD28R,1.400000X0.450000*%
%ADD29R,1.880000X2.000000*%
%ADD30R,0.700000X1.100000*%
%ADD31R,0.250000X0.700000*%
%ADD32R,0.300000X0.450000*%
%ADD33R,1.600000X1.000000*%
%ADD34RotRect,0.800000X0.950000X225.000000*%
%ADD35R,1.800000X1.800000*%
G04 APERTURE END LIST*
D10*
X121325996Y-79592633D02*
X122457367Y-80724004D01*
X121874004Y-81307367D02*
X120742633Y-80175996D01*
X147825000Y-113237500D02*
X149425000Y-113237500D01*
X149425000Y-114062500D02*
X147825000Y-114062500D01*
X137750000Y-113587500D02*
X139350000Y-113587500D01*
X139350000Y-114412500D02*
X137750000Y-114412500D01*
X127300000Y-111240000D02*
X127300000Y-114160000D01*
X127300000Y-114160000D02*
X128600000Y-114160000D01*
X128600000Y-111240000D02*
X127300000Y-111240000D01*
X128600000Y-114160000D02*
X128600000Y-111240000D01*
D11*
X153461917Y-108798061D02*
X158835929Y-114172072D01*
X158835929Y-114172072D02*
X164422072Y-108585929D01*
X159048061Y-103211917D02*
X153461917Y-108798061D01*
X164422072Y-108585929D02*
X159048061Y-103211917D01*
D10*
X130137500Y-113500000D02*
X130137500Y-111900000D01*
X130962500Y-111900000D02*
X130962500Y-113500000D01*
X141550000Y-109687500D02*
X143150000Y-109687500D01*
X143150000Y-110512500D02*
X141550000Y-110512500D01*
X120742633Y-111224004D02*
X121874004Y-110092633D01*
X122457367Y-110675996D02*
X121325996Y-111807367D01*
X131350000Y-102900000D02*
X134550000Y-102900000D01*
X134550000Y-104500000D02*
X131350000Y-104500000D01*
X136700000Y-71887500D02*
X138300000Y-71887500D01*
X138300000Y-72712500D02*
X136700000Y-72712500D01*
X160184315Y-115302944D02*
X162447056Y-117565685D01*
X161315685Y-118697056D02*
X159052944Y-116434315D01*
X143000000Y-76100000D02*
X143000000Y-77100000D01*
X143000000Y-77100000D02*
X144800000Y-77100000D01*
X144400000Y-76100000D02*
X144400000Y-77100000D01*
X144800000Y-76100000D02*
X143000000Y-76100000D01*
X144800000Y-77100000D02*
X144800000Y-76100000D01*
X145050000Y-77000000D02*
G75*
G02*
X144950000Y-77000000I-50000J0D01*
G01*
X144950000Y-77000000D02*
G75*
G02*
X145050000Y-77000000I50000J0D01*
G01*
X150787500Y-120000000D02*
X150787500Y-118400000D01*
X151612500Y-118400000D02*
X151612500Y-120000000D01*
X139380000Y-117825000D02*
X139380000Y-125175000D01*
X139380000Y-125175000D02*
X148320000Y-125175000D01*
X148320000Y-117825000D02*
X139380000Y-117825000D01*
X148320000Y-125175000D02*
X148320000Y-117825000D01*
X133037500Y-75650000D02*
X133037500Y-74050000D01*
X133862500Y-74050000D02*
X133862500Y-75650000D01*
X136137500Y-120050000D02*
X136137500Y-118450000D01*
X136962500Y-118450000D02*
X136962500Y-120050000D01*
X133250000Y-76787500D02*
X134850000Y-76787500D01*
X134850000Y-77612500D02*
X133250000Y-77612500D01*
X136400000Y-76687500D02*
X138000000Y-76687500D01*
X138000000Y-77512500D02*
X136400000Y-77512500D01*
X141550000Y-114000000D02*
X141750000Y-114000000D01*
X141650000Y-113900000D02*
X141550000Y-114000000D01*
X141750000Y-114000000D02*
X141650000Y-113900000D01*
X142350000Y-111100000D02*
X142350000Y-114100000D01*
X142350000Y-114100000D02*
X145350000Y-114100000D01*
X142750000Y-111100000D02*
X142750000Y-114100000D01*
X145350000Y-111100000D02*
X142350000Y-111100000D01*
X145350000Y-114100000D02*
X145350000Y-111100000D01*
X146975000Y-76287500D02*
X148575000Y-76287500D01*
X148575000Y-77112500D02*
X146975000Y-77112500D01*
X132175000Y-117525000D02*
X132175000Y-120875000D01*
X132175000Y-120875000D02*
X135525000Y-120875000D01*
X132850000Y-119200000D02*
X133650000Y-119200000D01*
X132850000Y-120875000D02*
X132850000Y-117525000D01*
X133650000Y-119400000D02*
X134050000Y-119200000D01*
X134850000Y-119200000D02*
X134050000Y-119200000D01*
X134850000Y-120875000D02*
X134850000Y-117525000D01*
X135525000Y-117525000D02*
X132175000Y-117525000D01*
X135525000Y-120875000D02*
X135525000Y-117525000D01*
X131650000Y-105100000D02*
X131750000Y-105200000D01*
X131650000Y-105300000D02*
X131650000Y-105100000D01*
X131750000Y-105200000D02*
X131650000Y-105300000D01*
X134000000Y-107250000D02*
X131900000Y-107250000D01*
X131900000Y-105150000D01*
X134000000Y-105150000D01*
X134000000Y-107250000D01*
X137750000Y-112087500D02*
X139350000Y-112087500D01*
X139350000Y-112912500D02*
X137750000Y-112912500D01*
X136800000Y-73340000D02*
X136800000Y-76260000D01*
X136800000Y-76260000D02*
X138100000Y-76260000D01*
X138100000Y-73340000D02*
X136800000Y-73340000D01*
X138100000Y-76260000D02*
X138100000Y-73340000D01*
X133050000Y-115337500D02*
X134650000Y-115337500D01*
X134650000Y-116162500D02*
X133050000Y-116162500D01*
X153050000Y-115337500D02*
X154650000Y-115337500D01*
X154650000Y-116162500D02*
X153050000Y-116162500D01*
X144512000Y-109684000D02*
X146112000Y-109684000D01*
X145038000Y-109842500D02*
X145038000Y-110350500D01*
X145038000Y-110350500D02*
X145546000Y-110096500D01*
X145546000Y-109842500D02*
X145546000Y-110350500D01*
X145546000Y-110096500D02*
X145038000Y-109842500D01*
X146112000Y-110509000D02*
X144512000Y-110509000D01*
D12*
X146974000Y-110858500D02*
G75*
G02*
X146774000Y-110858500I-100000J0D01*
G01*
X146774000Y-110858500D02*
G75*
G02*
X146974000Y-110858500I100000J0D01*
G01*
D10*
X131737500Y-113500000D02*
X131737500Y-111900000D01*
X132562500Y-111900000D02*
X132562500Y-113500000D01*
X134537500Y-75650000D02*
X134537500Y-74050000D01*
X135362500Y-74050000D02*
X135362500Y-75650000D01*
X152175000Y-117525000D02*
X152175000Y-120875000D01*
X152175000Y-120875000D02*
X155525000Y-120875000D01*
X152850000Y-117525000D02*
X152850000Y-120875000D01*
X152850000Y-119200000D02*
X153650000Y-119200000D01*
X154050000Y-119000000D02*
X153650000Y-119200000D01*
X154850000Y-117525000D02*
X154850000Y-120875000D01*
X154850000Y-119200000D02*
X154050000Y-119200000D01*
X155525000Y-117525000D02*
X152175000Y-117525000D01*
X155525000Y-120875000D02*
X155525000Y-117525000D01*
X165242633Y-80724004D02*
X166374004Y-79592633D01*
X166957367Y-80175996D02*
X165825996Y-81307367D01*
X141050000Y-114787500D02*
X142650000Y-114787500D01*
X142650000Y-115612500D02*
X141050000Y-115612500D01*
X165825996Y-110342633D02*
X166957367Y-111474004D01*
X166374004Y-112057367D02*
X165242633Y-110925996D01*
X140100000Y-67950000D02*
X146450000Y-67950000D01*
X140100000Y-75450000D02*
X140100000Y-67950000D01*
X143100000Y-69075000D02*
X144600000Y-69075000D01*
X143850000Y-68325000D02*
X143100000Y-69075000D01*
X144600000Y-69075000D02*
X143850000Y-68325000D01*
X146450000Y-67950000D02*
X147600000Y-69000000D01*
X147600000Y-69000000D02*
X147600000Y-75450000D01*
X147600000Y-75450000D02*
X140100000Y-75450000D01*
X145350000Y-114787500D02*
X146950000Y-114787500D01*
X146950000Y-115612500D02*
X145350000Y-115612500D01*
X143100000Y-77687500D02*
X144700000Y-77687500D01*
X144700000Y-78512500D02*
X143100000Y-78512500D01*
%LPC*%
D13*
X133190000Y-82100000D03*
X125550000Y-82100000D03*
D14*
X122183363Y-81033363D03*
X121016637Y-79866637D03*
D15*
X149450000Y-113650000D03*
X147800000Y-113650000D03*
X137725000Y-114000000D03*
X139375000Y-114000000D03*
D16*
X129050000Y-111750000D03*
X126850000Y-112700000D03*
X129050000Y-113650000D03*
D13*
X130650000Y-82100000D03*
D17*
X160674406Y-111838620D03*
X162088620Y-110424406D03*
D18*
X159684457Y-104696841D03*
X154946841Y-109434457D03*
D19*
X130550000Y-113525000D03*
X130550000Y-111875000D03*
D15*
X141525000Y-110100000D03*
X143175000Y-110100000D03*
D20*
X121016637Y-111533363D03*
X122183363Y-110366637D03*
D21*
X134412500Y-103700000D03*
X131487500Y-103700000D03*
D13*
X135750000Y-82000000D03*
D15*
X136675000Y-72300000D03*
X138325000Y-72300000D03*
D22*
X161784144Y-118034144D03*
X159715856Y-115965856D03*
D23*
X142845000Y-76600000D03*
X144955000Y-76600000D03*
D19*
X151200000Y-118375000D03*
X151200000Y-120025000D03*
D24*
X146740000Y-118960000D03*
X140960000Y-118960000D03*
D25*
X147200000Y-117890000D03*
X146400000Y-117890000D03*
X145100000Y-117890000D03*
X144100000Y-117890000D03*
X143600000Y-117890000D03*
X142600000Y-117890000D03*
X141300000Y-117890000D03*
X140500000Y-117890000D03*
X140800000Y-117890000D03*
X141600000Y-117890000D03*
X142100000Y-117890000D03*
X143100000Y-117890000D03*
X144600000Y-117890000D03*
X145600000Y-117890000D03*
X146100000Y-117890000D03*
X146900000Y-117890000D03*
D26*
X148175000Y-122660000D03*
D27*
X148175000Y-118480000D03*
D26*
X139525000Y-122660000D03*
D27*
X139525000Y-118480000D03*
D19*
X133450000Y-74025000D03*
X133450000Y-75675000D03*
X136550000Y-118425000D03*
X136550000Y-120075000D03*
D15*
X133225000Y-77200000D03*
X134875000Y-77200000D03*
X136375000Y-77100000D03*
X138025000Y-77100000D03*
D28*
X141650000Y-113575000D03*
X141650000Y-112925000D03*
X141650000Y-112275000D03*
X141650000Y-111625000D03*
X146050000Y-111625000D03*
X146050000Y-112275000D03*
X146050000Y-112925000D03*
X146050000Y-113575000D03*
D29*
X143850000Y-112600000D03*
D15*
X148600000Y-76700000D03*
X146950000Y-76700000D03*
D30*
X132850000Y-117250000D03*
X132850000Y-121150000D03*
X134850000Y-117250000D03*
X134850000Y-121150000D03*
D31*
X135350000Y-119200000D03*
X132350000Y-119200000D03*
D32*
X132300000Y-105225000D03*
X132950000Y-105225000D03*
X133600000Y-105225000D03*
X133600000Y-107175000D03*
X132950000Y-107175000D03*
X132300000Y-107175000D03*
D33*
X132950000Y-106200000D03*
D15*
X137725000Y-112500000D03*
X139375000Y-112500000D03*
D16*
X136350000Y-75750000D03*
X138550000Y-74800000D03*
X136350000Y-73850000D03*
D15*
X133025000Y-115750000D03*
X134675000Y-115750000D03*
X154675000Y-115750000D03*
X153025000Y-115750000D03*
X144487000Y-110096500D03*
X146137000Y-110096500D03*
D19*
X132150000Y-113525000D03*
X132150000Y-111875000D03*
X134950000Y-75675000D03*
X134950000Y-74025000D03*
D30*
X154850000Y-121150000D03*
X154850000Y-117250000D03*
X152850000Y-121150000D03*
X152850000Y-117250000D03*
D31*
X152350000Y-119200000D03*
X155350000Y-119200000D03*
D34*
X166683363Y-79866637D03*
X165516637Y-81033363D03*
D15*
X141025000Y-115200000D03*
X142675000Y-115200000D03*
D14*
X166683363Y-111783363D03*
X165516637Y-110616637D03*
D13*
X128110000Y-82100000D03*
D35*
X146925000Y-74775000D03*
X140775000Y-74775000D03*
X140775000Y-68625000D03*
X146925000Y-68625000D03*
D15*
X146975000Y-115200000D03*
X145325000Y-115200000D03*
X143075000Y-78100000D03*
X144725000Y-78100000D03*
%LPD*%
M02*
