G04 #@! TF.GenerationSoftware,KiCad,Pcbnew,8.0.0*
G04 #@! TF.CreationDate,2024-12-09T22:18:02+01:00*
G04 #@! TF.ProjectId,xmasOrnament2024,786d6173-4f72-46e6-916d-656e74323032,rev?*
G04 #@! TF.SameCoordinates,Original*
G04 #@! TF.FileFunction,Copper,L1,Top*
G04 #@! TF.FilePolarity,Positive*
%FSLAX46Y46*%
G04 Gerber Fmt 4.6, Leading zero omitted, Abs format (unit mm)*
G04 Created by KiCad (PCBNEW 8.0.0) date 2024-12-09 22:18:02*
%MOMM*%
%LPD*%
G01*
G04 APERTURE LIST*
G04 Aperture macros list*
%AMRotRect*
0 Rectangle, with rotation*
0 The origin of the aperture is its center*
0 $1 length*
0 $2 width*
0 $3 Rotation angle, in degrees counterclockwise*
0 Add horizontal line*
21,1,$1,$2,0,0,$3*%
G04 Aperture macros list end*
G04 #@! TA.AperFunction,SMDPad,CuDef*
%ADD10R,0.700000X0.700000*%
G04 #@! TD*
G04 #@! TA.AperFunction,SMDPad,CuDef*
%ADD11RotRect,0.700000X0.700000X30.000000*%
G04 #@! TD*
G04 #@! TA.AperFunction,SMDPad,CuDef*
%ADD12RotRect,0.700000X0.700000X210.000000*%
G04 #@! TD*
G04 #@! TA.AperFunction,SMDPad,CuDef*
%ADD13RotRect,1.350000X0.400000X45.000000*%
G04 #@! TD*
G04 #@! TA.AperFunction,SMDPad,CuDef*
%ADD14RotRect,0.800000X0.950000X45.000000*%
G04 #@! TD*
G04 #@! TA.AperFunction,SMDPad,CuDef*
%ADD15RotRect,0.700000X0.700000X330.000000*%
G04 #@! TD*
G04 #@! TA.AperFunction,SMDPad,CuDef*
%ADD16RotRect,0.700000X0.700000X150.000000*%
G04 #@! TD*
G04 #@! TA.AperFunction,SMDPad,CuDef*
%ADD17RotRect,0.700000X0.700000X240.000000*%
G04 #@! TD*
G04 #@! TA.AperFunction,SMDPad,CuDef*
%ADD18RotRect,0.800000X0.950000X225.000000*%
G04 #@! TD*
G04 #@! TA.AperFunction,SMDPad,CuDef*
%ADD19RotRect,0.700000X0.700000X300.000000*%
G04 #@! TD*
G04 #@! TA.AperFunction,SMDPad,CuDef*
%ADD20RotRect,0.700000X0.700000X120.000000*%
G04 #@! TD*
G04 #@! TA.AperFunction,SMDPad,CuDef*
%ADD21RotRect,0.700000X0.700000X60.000000*%
G04 #@! TD*
G04 #@! TA.AperFunction,ComponentPad*
%ADD22O,1.200000X2.000000*%
G04 #@! TD*
G04 #@! TA.AperFunction,ComponentPad*
%ADD23O,1.200000X2.300000*%
G04 #@! TD*
G04 #@! TA.AperFunction,ViaPad*
%ADD24C,0.600000*%
G04 #@! TD*
G04 #@! TA.AperFunction,Conductor*
%ADD25C,0.256000*%
G04 #@! TD*
G04 #@! TA.AperFunction,Conductor*
%ADD26C,0.300000*%
G04 #@! TD*
G04 #@! TA.AperFunction,Conductor*
%ADD27C,0.200000*%
G04 #@! TD*
G04 APERTURE END LIST*
D10*
X143300000Y-123615000D03*
X144400000Y-123615000D03*
X144400000Y-121785000D03*
X143300000Y-121785000D03*
D11*
X119399901Y-109181186D03*
X119949901Y-110133814D03*
X121534727Y-109218814D03*
X120984727Y-108266186D03*
D12*
X168300099Y-82218814D03*
X167750099Y-81266186D03*
X166165273Y-82181186D03*
X166715273Y-83133814D03*
D13*
X139748781Y-95664645D03*
X140208400Y-96124264D03*
X140668019Y-96583883D03*
X141127639Y-97043503D03*
X141587258Y-97503122D03*
X142046878Y-97962742D03*
X142506497Y-98422361D03*
X142966117Y-98881981D03*
X143425736Y-99341600D03*
X143885355Y-99801219D03*
X147951219Y-95735355D03*
X147491600Y-95275736D03*
X147031981Y-94816117D03*
X146572361Y-94356497D03*
X146112742Y-93896878D03*
X145653122Y-93437258D03*
X145193503Y-92977639D03*
X144733883Y-92518019D03*
X144274264Y-92058400D03*
X143814645Y-91598781D03*
D14*
X146266637Y-99083363D03*
X147433363Y-97916637D03*
D15*
X119949901Y-81266186D03*
X119399901Y-82218814D03*
X120984727Y-83133814D03*
X121534727Y-82181186D03*
D10*
X115935000Y-95150000D03*
X115935000Y-96250000D03*
X117765000Y-96250000D03*
X117765000Y-95150000D03*
D16*
X167750099Y-110133814D03*
X168300099Y-109181186D03*
X166715273Y-108266186D03*
X166165273Y-109218814D03*
D17*
X158283814Y-71799901D03*
X157331186Y-71249901D03*
X156416186Y-72834727D03*
X157368814Y-73384727D03*
D18*
X141433363Y-92316637D03*
X140266637Y-93483363D03*
D19*
X130368814Y-71249901D03*
X129416186Y-71799901D03*
X130331186Y-73384727D03*
X131283814Y-72834727D03*
D20*
X157331186Y-120150099D03*
X158283814Y-119600099D03*
X157368814Y-118015273D03*
X156416186Y-118565273D03*
D21*
X129416186Y-119600099D03*
X130368814Y-120150099D03*
X131283814Y-118565273D03*
X130331186Y-118015273D03*
D10*
X144400000Y-67785000D03*
X143300000Y-67785000D03*
X143300000Y-69615000D03*
X144400000Y-69615000D03*
X171765000Y-96250000D03*
X171765000Y-95150000D03*
X169935000Y-95150000D03*
X169935000Y-96250000D03*
D22*
X148175000Y-122660000D03*
D23*
X148175000Y-118480000D03*
D22*
X139525000Y-122660000D03*
D23*
X139525000Y-118480000D03*
D24*
X129050000Y-71100000D03*
X168450000Y-80900000D03*
X115150000Y-96300000D03*
X172550000Y-95100000D03*
X157750000Y-70600000D03*
X138100000Y-117700000D03*
X133100000Y-119200000D03*
X138100000Y-119200000D03*
X143850000Y-120200000D03*
X149850000Y-119200000D03*
X158650000Y-120200000D03*
X119250000Y-110500000D03*
X154600000Y-119200000D03*
X149850000Y-117700000D03*
X144450000Y-124400000D03*
X143250000Y-67000000D03*
X142850000Y-94700000D03*
X143850000Y-71950000D03*
X143850000Y-106950000D03*
X129950000Y-120800000D03*
X156050000Y-115700000D03*
X132850000Y-108450000D03*
X130200000Y-115750000D03*
X149950000Y-110100000D03*
X170850000Y-95700000D03*
X120450000Y-82200000D03*
X143850000Y-122700000D03*
X130350000Y-119000000D03*
X130350000Y-72300000D03*
X116850000Y-95700000D03*
X157350000Y-72300000D03*
X120450000Y-109100000D03*
X167250000Y-109200000D03*
X143850000Y-68700000D03*
X157350000Y-119100000D03*
X167250000Y-82200000D03*
X136150000Y-110400000D03*
X140550000Y-111028000D03*
X152756000Y-111856000D03*
X147750000Y-111400000D03*
X142850000Y-68700000D03*
X153850000Y-81000000D03*
X141950000Y-80200000D03*
X146150000Y-95700000D03*
X144850000Y-68700000D03*
X156550000Y-71800000D03*
X166750000Y-81300000D03*
X158250000Y-72800000D03*
X167750000Y-83000000D03*
X170850000Y-94700000D03*
X167750000Y-108300000D03*
X170850000Y-96700000D03*
X158250000Y-118600000D03*
X166750000Y-110100000D03*
X131250000Y-119500000D03*
X142850000Y-122700000D03*
X144150000Y-98400000D03*
X149200000Y-111250000D03*
X137650000Y-110400000D03*
X143450000Y-97700000D03*
X156450000Y-119600000D03*
X144850000Y-122700000D03*
X145350000Y-95100000D03*
X131550000Y-107300000D03*
X150100000Y-107200000D03*
X144350000Y-95450000D03*
X142900000Y-96950000D03*
X142450000Y-93900000D03*
X143650000Y-93800000D03*
X120950000Y-110000000D03*
X129450000Y-118500000D03*
X116850000Y-96800000D03*
X119950000Y-108300000D03*
X119950000Y-83100000D03*
X116850000Y-94500000D03*
X120950000Y-81300000D03*
X129450000Y-72800000D03*
X127850000Y-107450000D03*
X144687608Y-96862392D03*
X155400000Y-114700000D03*
X153600000Y-112450000D03*
X142050000Y-96100000D03*
X131600000Y-114950000D03*
D25*
X132900000Y-108400000D02*
X148125500Y-108400000D01*
D26*
X130850000Y-116400000D02*
X155350000Y-116400000D01*
D25*
X149825500Y-110100000D02*
X149950000Y-110100000D01*
X148125500Y-108400000D02*
X149825500Y-110100000D01*
X132850000Y-108450000D02*
X132900000Y-108400000D01*
D26*
X155350000Y-116400000D02*
X156050000Y-115700000D01*
X130200000Y-115750000D02*
X130850000Y-116400000D01*
D27*
X117765000Y-95150000D02*
X117400000Y-95150000D01*
X120450000Y-109100000D02*
X120450000Y-108800913D01*
X167250000Y-82200000D02*
X167250000Y-82599087D01*
X130350000Y-118034087D02*
X130331186Y-118015273D01*
X130350000Y-119000000D02*
X130350000Y-118034087D01*
X167231186Y-109218814D02*
X167250000Y-109200000D01*
X156950913Y-119100000D02*
X156416186Y-118565273D01*
X169935000Y-96250000D02*
X170300000Y-96250000D01*
X117400000Y-95150000D02*
X116850000Y-95700000D01*
X157350000Y-119100000D02*
X156950913Y-119100000D01*
X143850000Y-68700000D02*
X144400000Y-69250000D01*
X121534727Y-82181186D02*
X120468814Y-82181186D01*
X167250000Y-82599087D02*
X166715273Y-83133814D01*
X144400000Y-69250000D02*
X144400000Y-69615000D01*
X166165273Y-109218814D02*
X167231186Y-109218814D01*
X130749087Y-72300000D02*
X131283814Y-72834727D01*
X157350000Y-73365913D02*
X157368814Y-73384727D01*
X120468814Y-82181186D02*
X120450000Y-82200000D01*
X130350000Y-72300000D02*
X130749087Y-72300000D01*
X170300000Y-96250000D02*
X170850000Y-95700000D01*
X143850000Y-122700000D02*
X143300000Y-122150000D01*
X143300000Y-122150000D02*
X143300000Y-121785000D01*
X157350000Y-72300000D02*
X157350000Y-73365913D01*
X120450000Y-108800913D02*
X120984727Y-108266186D01*
D25*
X140550000Y-111028000D02*
X136778000Y-111028000D01*
X136778000Y-111028000D02*
X136150000Y-110400000D01*
D27*
X148206000Y-111856000D02*
X147750000Y-111400000D01*
X152756000Y-111856000D02*
X148206000Y-111856000D01*
X147031981Y-94816117D02*
X147031981Y-94818019D01*
X143300000Y-69615000D02*
X143300000Y-69150000D01*
X143300000Y-69150000D02*
X142850000Y-68700000D01*
X142350000Y-80600000D02*
X141950000Y-80200000D01*
X153850000Y-81000000D02*
X153450000Y-80600000D01*
X147031981Y-94818019D02*
X146150000Y-95700000D01*
X153450000Y-80600000D02*
X142350000Y-80600000D01*
X144400000Y-68250000D02*
X144850000Y-68700000D01*
X156550000Y-71800000D02*
X156550000Y-72700913D01*
X144400000Y-67785000D02*
X144400000Y-68250000D01*
X156550000Y-72700913D02*
X156416186Y-72834727D01*
X166750000Y-81596459D02*
X166165273Y-82181186D01*
X158283814Y-72766186D02*
X158250000Y-72800000D01*
X166750000Y-81300000D02*
X166750000Y-81596459D01*
X158283814Y-71799901D02*
X158283814Y-72766186D01*
X170400000Y-95150000D02*
X170850000Y-94700000D01*
X169935000Y-95150000D02*
X170400000Y-95150000D01*
X167750000Y-82768913D02*
X168300099Y-82218814D01*
X167750000Y-83000000D02*
X167750000Y-82768913D01*
X171300000Y-96250000D02*
X170850000Y-96700000D01*
X167750000Y-108300000D02*
X166749087Y-108300000D01*
X166749087Y-108300000D02*
X166715273Y-108266186D01*
X171765000Y-96250000D02*
X171300000Y-96250000D01*
X158250000Y-118600000D02*
X157953541Y-118600000D01*
X166750000Y-110100000D02*
X167716285Y-110100000D01*
X157953541Y-118600000D02*
X157368814Y-118015273D01*
X167716285Y-110100000D02*
X167750099Y-110133814D01*
X143300000Y-123150000D02*
X142850000Y-122700000D01*
X131283814Y-119466186D02*
X131250000Y-119500000D01*
X131283814Y-118565273D02*
X131283814Y-119466186D01*
X143300000Y-123615000D02*
X143300000Y-123150000D01*
X148350000Y-110400000D02*
X137650000Y-110400000D01*
D25*
X143425736Y-99341600D02*
X144150000Y-98617336D01*
D27*
X149200000Y-111250000D02*
X148350000Y-110400000D01*
D25*
X144150000Y-98617336D02*
X144150000Y-98400000D01*
D27*
X143450000Y-97700000D02*
X143228858Y-97700000D01*
X143228858Y-97700000D02*
X142506497Y-98422361D01*
X144400000Y-121785000D02*
X144400000Y-122250000D01*
X144400000Y-122250000D02*
X144850000Y-122700000D01*
X156450000Y-119600000D02*
X156781087Y-119600000D01*
X156781087Y-119600000D02*
X157331186Y-120150099D01*
X134350000Y-106900000D02*
X131950000Y-106900000D01*
X131950000Y-106900000D02*
X131550000Y-107300000D01*
X135350000Y-107900000D02*
X134350000Y-106900000D01*
X145828858Y-95100000D02*
X145350000Y-95100000D01*
X150100000Y-107200000D02*
X149400000Y-107900000D01*
X149400000Y-107900000D02*
X135350000Y-107900000D01*
X146572361Y-94356497D02*
X145828858Y-95100000D01*
X144350000Y-95450000D02*
X145200000Y-96300000D01*
X145200000Y-96300000D02*
X147386574Y-96300000D01*
X147386574Y-96300000D02*
X147951219Y-95735355D01*
X142900000Y-96950000D02*
X142750000Y-97100000D01*
X142046878Y-97962742D02*
X142750000Y-97259620D01*
X143750000Y-96900000D02*
X145933363Y-99083363D01*
X145933363Y-99083363D02*
X146266637Y-99083363D01*
X142750000Y-97259620D02*
X142750000Y-97100000D01*
X142750000Y-97100000D02*
X142950000Y-96900000D01*
X142950000Y-96900000D02*
X143750000Y-96900000D01*
X142450000Y-93900000D02*
X144274264Y-92075736D01*
X144274264Y-92075736D02*
X144274264Y-92058400D01*
X144733883Y-92518019D02*
X144733883Y-92716117D01*
X144733883Y-92716117D02*
X143650000Y-93800000D01*
X120950000Y-110000000D02*
X120950000Y-109803541D01*
X129450000Y-118500000D02*
X129416186Y-118533814D01*
X120950000Y-109803541D02*
X121534727Y-109218814D01*
X129416186Y-118533814D02*
X129416186Y-119600099D01*
X119950000Y-108631087D02*
X119399901Y-109181186D01*
X117765000Y-96250000D02*
X117400000Y-96250000D01*
X117400000Y-96250000D02*
X116850000Y-96800000D01*
X119950000Y-108300000D02*
X119950000Y-108631087D01*
X120950913Y-83100000D02*
X120984727Y-83133814D01*
X116200000Y-95150000D02*
X116850000Y-94500000D01*
X119950000Y-83100000D02*
X120950913Y-83100000D01*
X115935000Y-95150000D02*
X116200000Y-95150000D01*
X129746459Y-72800000D02*
X130331186Y-73384727D01*
X129450000Y-72800000D02*
X129746459Y-72800000D01*
X120916186Y-81266186D02*
X120950000Y-81300000D01*
X119949901Y-81266186D02*
X120916186Y-81266186D01*
X143925216Y-96100000D02*
X145325216Y-97500000D01*
D25*
X131600000Y-113450000D02*
X131600000Y-114950000D01*
D27*
X147016726Y-97500000D02*
X147433363Y-97916637D01*
D25*
X127850000Y-107450000D02*
X127850000Y-109700000D01*
D27*
X155400000Y-113000000D02*
X155400000Y-114700000D01*
X142150000Y-95366726D02*
X140266637Y-93483363D01*
X142150000Y-96021142D02*
X142150000Y-95366726D01*
X145325216Y-97500000D02*
X147016726Y-97500000D01*
X154850000Y-112450000D02*
X155400000Y-113000000D01*
D25*
X127850000Y-109700000D02*
X131600000Y-113450000D01*
D27*
X153600000Y-112450000D02*
X154850000Y-112450000D01*
X142050000Y-96100000D02*
X143925216Y-96100000D01*
X141127639Y-97043503D02*
X142150000Y-96021142D01*
G04 #@! TA.AperFunction,Conductor*
G36*
X144221281Y-59079065D02*
G01*
X144233751Y-59080331D01*
X144595033Y-59135558D01*
X144607302Y-59138075D01*
X144961170Y-59229495D01*
X144973106Y-59233231D01*
X145315963Y-59359918D01*
X145327459Y-59364840D01*
X145655748Y-59525481D01*
X145655754Y-59525484D01*
X145666719Y-59531555D01*
X145977102Y-59724510D01*
X145987399Y-59731657D01*
X146276726Y-59954968D01*
X146286249Y-59963119D01*
X146551536Y-60214483D01*
X146560187Y-60223552D01*
X146798764Y-60500437D01*
X146806456Y-60510335D01*
X147015850Y-60809877D01*
X147022503Y-60820499D01*
X147200588Y-61139650D01*
X147206135Y-61150891D01*
X147300274Y-61368775D01*
X147349652Y-61483062D01*
X147351093Y-61486396D01*
X147355474Y-61498134D01*
X147369806Y-61543389D01*
X147465817Y-61846552D01*
X147468993Y-61858677D01*
X147543601Y-62216466D01*
X147545536Y-62228851D01*
X147583640Y-62592332D01*
X147584315Y-62604847D01*
X147585531Y-62970322D01*
X147584939Y-62982843D01*
X147549252Y-63346562D01*
X147547400Y-63358959D01*
X147475173Y-63717236D01*
X147472078Y-63729383D01*
X147364049Y-64078538D01*
X147359743Y-64090309D01*
X147217023Y-64426762D01*
X147211554Y-64438034D01*
X147035594Y-64758365D01*
X147029012Y-64769031D01*
X146821613Y-65069959D01*
X146813988Y-65079907D01*
X146577268Y-65358360D01*
X146568677Y-65367488D01*
X146313742Y-65612278D01*
X146298989Y-65624405D01*
X146284807Y-65634336D01*
X146281473Y-65637670D01*
X146270135Y-65650249D01*
X146267159Y-65653917D01*
X146255141Y-65675543D01*
X146248332Y-65686427D01*
X146234136Y-65706702D01*
X146232141Y-65710979D01*
X146225793Y-65726668D01*
X146224252Y-65731130D01*
X146220356Y-65755561D01*
X146217680Y-65768118D01*
X146211274Y-65792028D01*
X146210863Y-65796721D01*
X146210263Y-65813645D01*
X146210341Y-65818373D01*
X146215033Y-65842653D01*
X146216814Y-65855367D01*
X146218973Y-65880034D01*
X146218974Y-65880036D01*
X146220194Y-65884591D01*
X146225408Y-65900663D01*
X146227106Y-65905100D01*
X146227107Y-65905105D01*
X146227108Y-65905106D01*
X146227109Y-65905108D01*
X146239816Y-65926308D01*
X146245840Y-65937652D01*
X146256307Y-65960097D01*
X146259018Y-65963969D01*
X146269407Y-65977280D01*
X146272522Y-65980870D01*
X146272523Y-65980871D01*
X146272526Y-65980875D01*
X146291732Y-65996461D01*
X146301267Y-66005057D01*
X146318770Y-66022561D01*
X146322663Y-66025286D01*
X146336950Y-66034224D01*
X146341116Y-66036539D01*
X146341118Y-66036539D01*
X146341120Y-66036541D01*
X146364490Y-66044615D01*
X146376400Y-66049434D01*
X146398836Y-66059897D01*
X146403413Y-66061124D01*
X146419901Y-66064637D01*
X146424616Y-66065389D01*
X146424616Y-66065388D01*
X146424617Y-66065389D01*
X146446251Y-66065033D01*
X146461330Y-66065704D01*
X147516294Y-66177361D01*
X147520680Y-66177906D01*
X148587074Y-66330152D01*
X148591489Y-66330864D01*
X149651636Y-66521774D01*
X149655985Y-66522638D01*
X150708562Y-66751977D01*
X150712832Y-66752989D01*
X151756370Y-67020438D01*
X151760630Y-67021614D01*
X152793720Y-67326812D01*
X152797943Y-67328143D01*
X153819254Y-67670695D01*
X153823414Y-67672175D01*
X154831592Y-68051627D01*
X154835726Y-68053269D01*
X155436130Y-68304526D01*
X155829422Y-68469111D01*
X155833549Y-68470927D01*
X156642891Y-68844752D01*
X156811437Y-68922601D01*
X156815486Y-68924561D01*
X157776312Y-69411490D01*
X157780265Y-69413585D01*
X158722784Y-69935137D01*
X158726688Y-69937391D01*
X159036358Y-70123766D01*
X159352094Y-70313792D01*
X159649549Y-70492815D01*
X159653369Y-70495209D01*
X160555482Y-71083851D01*
X160559212Y-71086383D01*
X160822925Y-71272469D01*
X161439325Y-71707425D01*
X161442925Y-71710065D01*
X162299908Y-72362714D01*
X162303407Y-72365481D01*
X163136078Y-73048836D01*
X163139500Y-73051751D01*
X163946787Y-73764932D01*
X163950065Y-73767936D01*
X164295031Y-74095773D01*
X164730876Y-74509978D01*
X164734087Y-74513142D01*
X165487412Y-75283083D01*
X165490506Y-75286363D01*
X166215318Y-76083155D01*
X166218289Y-76086542D01*
X166913681Y-76909185D01*
X166916503Y-76912649D01*
X167581538Y-77760037D01*
X167584256Y-77763634D01*
X168218012Y-78634592D01*
X168220598Y-78638285D01*
X168822288Y-79531729D01*
X168824738Y-79535514D01*
X169393541Y-80450223D01*
X169395852Y-80454094D01*
X169708391Y-81000001D01*
X169925276Y-81378832D01*
X169931046Y-81388909D01*
X169933205Y-81392846D01*
X170433145Y-82344754D01*
X170434044Y-82346466D01*
X170436068Y-82350495D01*
X170901922Y-83321721D01*
X170903797Y-83325820D01*
X171334023Y-84313307D01*
X171335749Y-84317473D01*
X171729799Y-85319962D01*
X171731372Y-85324187D01*
X172088721Y-86340352D01*
X172090139Y-86344632D01*
X172410309Y-87373109D01*
X172411570Y-87377437D01*
X172694131Y-88416836D01*
X172695235Y-88421207D01*
X172939835Y-89470234D01*
X172940779Y-89474643D01*
X173147083Y-90531882D01*
X173147865Y-90536322D01*
X173315592Y-91600313D01*
X173316213Y-91604779D01*
X173445149Y-92674164D01*
X173445608Y-92678649D01*
X173535589Y-93752082D01*
X173535883Y-93756581D01*
X173586778Y-94832482D01*
X173586910Y-94836988D01*
X173598660Y-95914106D01*
X173598627Y-95918615D01*
X173571214Y-96995423D01*
X173571017Y-96999927D01*
X173504477Y-98075006D01*
X173504117Y-98079500D01*
X173398536Y-99151489D01*
X173398012Y-99155967D01*
X173253538Y-100223347D01*
X173252853Y-100227803D01*
X173069659Y-101289304D01*
X173068811Y-101293732D01*
X172847161Y-102347817D01*
X172846153Y-102352212D01*
X172586332Y-103397532D01*
X172585166Y-103401887D01*
X172287498Y-104437139D01*
X172286173Y-104441448D01*
X171951089Y-105465125D01*
X171949609Y-105469384D01*
X171577521Y-106480236D01*
X171575887Y-106484438D01*
X171167297Y-107481095D01*
X171165511Y-107485235D01*
X170720965Y-108466370D01*
X170719030Y-108470442D01*
X170239105Y-109434778D01*
X170237023Y-109438777D01*
X169722364Y-110385019D01*
X169720138Y-110388940D01*
X169171428Y-111315836D01*
X169169062Y-111319673D01*
X168587000Y-112226037D01*
X168584495Y-112229786D01*
X167969869Y-113114392D01*
X167967229Y-113118047D01*
X167320880Y-113979686D01*
X167318110Y-113983243D01*
X166640827Y-114820862D01*
X166637929Y-114824315D01*
X165930664Y-115636735D01*
X165927642Y-115640081D01*
X165191333Y-116426232D01*
X165188192Y-116429467D01*
X164423735Y-117188384D01*
X164420478Y-117191501D01*
X163628978Y-117922089D01*
X163625610Y-117925086D01*
X162808068Y-118626423D01*
X162804593Y-118629296D01*
X161962111Y-119300438D01*
X161958535Y-119303183D01*
X161092170Y-119943285D01*
X161088495Y-119945898D01*
X160199463Y-120554061D01*
X160195696Y-120556538D01*
X159285130Y-121131989D01*
X159281276Y-121134328D01*
X158350399Y-121676293D01*
X158346462Y-121678490D01*
X157396513Y-122186248D01*
X157392499Y-122188301D01*
X156424688Y-122661205D01*
X156420602Y-122663110D01*
X155436270Y-123100506D01*
X155432117Y-123102262D01*
X154432501Y-123503599D01*
X154428287Y-123505202D01*
X153414796Y-123869913D01*
X153410527Y-123871363D01*
X152384392Y-124199010D01*
X152380073Y-124200303D01*
X151342724Y-124490424D01*
X151338361Y-124491559D01*
X150291158Y-124743776D01*
X150286756Y-124744752D01*
X149231067Y-124958735D01*
X149226633Y-124959550D01*
X148163858Y-125135014D01*
X148159397Y-125135667D01*
X147090972Y-125272378D01*
X147086490Y-125272869D01*
X146013793Y-125370650D01*
X146009297Y-125370978D01*
X144933736Y-125429698D01*
X144929230Y-125429862D01*
X143852254Y-125449445D01*
X143847746Y-125449445D01*
X142770769Y-125429862D01*
X142766263Y-125429698D01*
X141690702Y-125370978D01*
X141686206Y-125370650D01*
X140613509Y-125272869D01*
X140609027Y-125272378D01*
X139540602Y-125135667D01*
X139536141Y-125135014D01*
X138473366Y-124959550D01*
X138468932Y-124958735D01*
X137413243Y-124744752D01*
X137408841Y-124743776D01*
X136361638Y-124491559D01*
X136357275Y-124490424D01*
X135319926Y-124200303D01*
X135315607Y-124199010D01*
X134289472Y-123871363D01*
X134285203Y-123869913D01*
X133648090Y-123640644D01*
X138897907Y-123640644D01*
X138980608Y-123723346D01*
X139120472Y-123816801D01*
X139120485Y-123816808D01*
X139275892Y-123881179D01*
X139275904Y-123881182D01*
X139440883Y-123913999D01*
X139440886Y-123914000D01*
X139609114Y-123914000D01*
X139609116Y-123913999D01*
X139774095Y-123881182D01*
X139774107Y-123881179D01*
X139929514Y-123816808D01*
X139929527Y-123816801D01*
X140069388Y-123723348D01*
X140152092Y-123640644D01*
X139735356Y-123223908D01*
X139765060Y-123194205D01*
X139804556Y-123125796D01*
X139825000Y-123049496D01*
X139825000Y-122660000D01*
X139878553Y-122660000D01*
X140376288Y-123157735D01*
X140378999Y-123144112D01*
X140379000Y-123144107D01*
X140379000Y-122700001D01*
X142290715Y-122700001D01*
X142309771Y-122844752D01*
X142309773Y-122844757D01*
X142365642Y-122979638D01*
X142365645Y-122979644D01*
X142454525Y-123095473D01*
X142454526Y-123095474D01*
X142570357Y-123184355D01*
X142618953Y-123204484D01*
X142673355Y-123248322D01*
X142695421Y-123314616D01*
X142695500Y-123319044D01*
X142695500Y-123990063D01*
X142710266Y-124064301D01*
X142766515Y-124148484D01*
X142800234Y-124171014D01*
X142850699Y-124204734D01*
X142850702Y-124204734D01*
X142850703Y-124204735D01*
X142875666Y-124209700D01*
X142924933Y-124219500D01*
X143675066Y-124219499D01*
X143677585Y-124218998D01*
X144149552Y-124218998D01*
X144149553Y-124218999D01*
X144650445Y-124218999D01*
X144650445Y-124218998D01*
X144400001Y-123968553D01*
X144400000Y-123968553D01*
X144149552Y-124218998D01*
X143677585Y-124218998D01*
X143749301Y-124204734D01*
X143833484Y-124148484D01*
X143889734Y-124064301D01*
X143904500Y-123990067D01*
X143904499Y-123808305D01*
X143924183Y-123741268D01*
X143940818Y-123720626D01*
X144312318Y-123349127D01*
X144373641Y-123315642D01*
X144443333Y-123320626D01*
X144487680Y-123349127D01*
X145003998Y-123865446D01*
X145003999Y-123865445D01*
X145003999Y-123640644D01*
X147547907Y-123640644D01*
X147630608Y-123723346D01*
X147770472Y-123816801D01*
X147770485Y-123816808D01*
X147925892Y-123881179D01*
X147925904Y-123881182D01*
X148090883Y-123913999D01*
X148090886Y-123914000D01*
X148259114Y-123914000D01*
X148259116Y-123913999D01*
X148424095Y-123881182D01*
X148424107Y-123881179D01*
X148579514Y-123816808D01*
X148579527Y-123816801D01*
X148719388Y-123723348D01*
X148802092Y-123640644D01*
X148385356Y-123223908D01*
X148415060Y-123194205D01*
X148454556Y-123125796D01*
X148475000Y-123049496D01*
X148475000Y-122660000D01*
X148528553Y-122660000D01*
X149026288Y-123157735D01*
X149028999Y-123144112D01*
X149029000Y-123144107D01*
X149029000Y-122175888D01*
X149026289Y-122162263D01*
X149026288Y-122162262D01*
X148528553Y-122659999D01*
X148528553Y-122660000D01*
X148475000Y-122660000D01*
X148475000Y-122270504D01*
X148454556Y-122194204D01*
X148415060Y-122125795D01*
X148385356Y-122096091D01*
X148802092Y-121679354D01*
X148802092Y-121679353D01*
X148719396Y-121596657D01*
X148719392Y-121596654D01*
X148579527Y-121503198D01*
X148579514Y-121503191D01*
X148424107Y-121438820D01*
X148424095Y-121438817D01*
X148259115Y-121406000D01*
X148090885Y-121406000D01*
X147925904Y-121438817D01*
X147925892Y-121438820D01*
X147770485Y-121503191D01*
X147770472Y-121503198D01*
X147630610Y-121596652D01*
X147547907Y-121679354D01*
X147964644Y-122096091D01*
X147934940Y-122125795D01*
X147895444Y-122194204D01*
X147875000Y-122270504D01*
X147875000Y-123049496D01*
X147895444Y-123125796D01*
X147934940Y-123194205D01*
X147964643Y-123223908D01*
X147547907Y-123640644D01*
X145003999Y-123640644D01*
X145003999Y-123319252D01*
X145023684Y-123252213D01*
X145076488Y-123206458D01*
X145080533Y-123204696D01*
X145129643Y-123184355D01*
X145182083Y-123144116D01*
X147321000Y-123144116D01*
X147323709Y-123157735D01*
X147323710Y-123157735D01*
X147821447Y-122660000D01*
X147821447Y-122659999D01*
X147323710Y-122162262D01*
X147321000Y-122175889D01*
X147321000Y-123144116D01*
X145182083Y-123144116D01*
X145245474Y-123095474D01*
X145334355Y-122979643D01*
X145390228Y-122844754D01*
X145409285Y-122700000D01*
X145404428Y-122663110D01*
X145390228Y-122555247D01*
X145390228Y-122555246D01*
X145334355Y-122420358D01*
X145245474Y-122304526D01*
X145129643Y-122215645D01*
X145129639Y-122215643D01*
X145081046Y-122195515D01*
X145026643Y-122151674D01*
X145004578Y-122085380D01*
X145004499Y-122081004D01*
X145004499Y-121409934D01*
X144989734Y-121335699D01*
X144950000Y-121276233D01*
X144933484Y-121251515D01*
X144881109Y-121216520D01*
X144849301Y-121195266D01*
X144849299Y-121195265D01*
X144849296Y-121195264D01*
X144775069Y-121180500D01*
X144024936Y-121180500D01*
X143950698Y-121195266D01*
X143918891Y-121216520D01*
X143852214Y-121237398D01*
X143784834Y-121218914D01*
X143781109Y-121216520D01*
X143749300Y-121195265D01*
X143749296Y-121195264D01*
X143675069Y-121180500D01*
X142924936Y-121180500D01*
X142850698Y-121195266D01*
X142766515Y-121251515D01*
X142710266Y-121335699D01*
X142710264Y-121335703D01*
X142695500Y-121409928D01*
X142695500Y-122080954D01*
X142675815Y-122147993D01*
X142623011Y-122193748D01*
X142618956Y-122195514D01*
X142570358Y-122215645D01*
X142454526Y-122304526D01*
X142365643Y-122420361D01*
X142309772Y-122555245D01*
X142309771Y-122555247D01*
X142290715Y-122699998D01*
X142290715Y-122700001D01*
X140379000Y-122700001D01*
X140379000Y-122175888D01*
X140376289Y-122162263D01*
X140376288Y-122162262D01*
X139878553Y-122659999D01*
X139878553Y-122660000D01*
X139825000Y-122660000D01*
X139825000Y-122270504D01*
X139804556Y-122194204D01*
X139765060Y-122125795D01*
X139735356Y-122096091D01*
X140152092Y-121679354D01*
X140069391Y-121596653D01*
X139929527Y-121503198D01*
X139929514Y-121503191D01*
X139774107Y-121438820D01*
X139774095Y-121438817D01*
X139609115Y-121406000D01*
X139440885Y-121406000D01*
X139275904Y-121438817D01*
X139275892Y-121438820D01*
X139120485Y-121503191D01*
X139120472Y-121503198D01*
X138980610Y-121596652D01*
X138897907Y-121679354D01*
X139314644Y-122096091D01*
X139284940Y-122125795D01*
X139245444Y-122194204D01*
X139225000Y-122270504D01*
X139225000Y-123049496D01*
X139245444Y-123125796D01*
X139284940Y-123194205D01*
X139314643Y-123223908D01*
X138897907Y-123640644D01*
X133648090Y-123640644D01*
X133271712Y-123505202D01*
X133267498Y-123503599D01*
X132372128Y-123144116D01*
X138671000Y-123144116D01*
X138673709Y-123157735D01*
X138673710Y-123157735D01*
X139171447Y-122660000D01*
X139171447Y-122659999D01*
X138673710Y-122162262D01*
X138671000Y-122175889D01*
X138671000Y-123144116D01*
X132372128Y-123144116D01*
X132267882Y-123102262D01*
X132263729Y-123100506D01*
X131279397Y-122663110D01*
X131275311Y-122661205D01*
X130307500Y-122188301D01*
X130303486Y-122186248D01*
X129973749Y-122010000D01*
X129353529Y-121678485D01*
X129349600Y-121676293D01*
X129212812Y-121596654D01*
X128892106Y-121409936D01*
X128418723Y-121134328D01*
X128414869Y-121131989D01*
X127504303Y-120556538D01*
X127500536Y-120554061D01*
X127491610Y-120547955D01*
X129849921Y-120547955D01*
X130283705Y-120798399D01*
X130192036Y-120456285D01*
X129849921Y-120547955D01*
X127491610Y-120547955D01*
X126611504Y-119945898D01*
X126607829Y-119943285D01*
X126270882Y-119694336D01*
X128680811Y-119694336D01*
X128687433Y-119795370D01*
X128732210Y-119886168D01*
X128732212Y-119886172D01*
X128732213Y-119886173D01*
X128789118Y-119936078D01*
X128896289Y-119997953D01*
X129323037Y-120244335D01*
X129438753Y-120311143D01*
X129510425Y-120335474D01*
X129611455Y-120328852D01*
X129702260Y-120284072D01*
X129752165Y-120227167D01*
X129843045Y-120069756D01*
X129893609Y-120021544D01*
X129918337Y-120011984D01*
X130062627Y-119973322D01*
X130425815Y-119876006D01*
X130495665Y-119877669D01*
X130553528Y-119916831D01*
X130577684Y-119963687D01*
X130766669Y-120668991D01*
X131079396Y-120127332D01*
X131080137Y-120125697D01*
X131080754Y-120124980D01*
X131082446Y-120122050D01*
X131083001Y-120122370D01*
X131125729Y-120072753D01*
X131192708Y-120052863D01*
X131209267Y-120053922D01*
X131250000Y-120059285D01*
X131250001Y-120059285D01*
X131298251Y-120052932D01*
X131394754Y-120040228D01*
X131529643Y-119984355D01*
X131645474Y-119895474D01*
X131734355Y-119779643D01*
X131790228Y-119644754D01*
X131805607Y-119527937D01*
X131809285Y-119500001D01*
X131809285Y-119499998D01*
X131790228Y-119355247D01*
X131790228Y-119355246D01*
X131734355Y-119220358D01*
X131710187Y-119188861D01*
X131684994Y-119123694D01*
X131699032Y-119055250D01*
X131701177Y-119051377D01*
X131727889Y-119005110D01*
X131994858Y-118542706D01*
X132019189Y-118471034D01*
X132012567Y-118370004D01*
X132005289Y-118355246D01*
X131967789Y-118279203D01*
X131967787Y-118279199D01*
X131910882Y-118229294D01*
X131895410Y-118220361D01*
X131478315Y-117979552D01*
X138671000Y-117979552D01*
X138671000Y-118980447D01*
X139171447Y-118480000D01*
X139171447Y-118479999D01*
X138671000Y-117979552D01*
X131478315Y-117979552D01*
X131261248Y-117854229D01*
X131189576Y-117829898D01*
X131189575Y-117829898D01*
X131181429Y-117830431D01*
X131151399Y-117832400D01*
X131083216Y-117817141D01*
X131034106Y-117767441D01*
X131032079Y-117763508D01*
X131015161Y-117729203D01*
X131015159Y-117729199D01*
X130970393Y-117689940D01*
X130958254Y-117679294D01*
X130958251Y-117679292D01*
X130530032Y-117432061D01*
X138830613Y-117432061D01*
X139238536Y-117839983D01*
X139225000Y-117890504D01*
X139225000Y-119069496D01*
X139238536Y-119120015D01*
X138830614Y-119527937D01*
X138830614Y-119527938D01*
X138861651Y-119574387D01*
X138861652Y-119574389D01*
X138980608Y-119693346D01*
X139120472Y-119786801D01*
X139120485Y-119786808D01*
X139275892Y-119851179D01*
X139275904Y-119851182D01*
X139440883Y-119883999D01*
X139440886Y-119884000D01*
X139609114Y-119884000D01*
X139609116Y-119883999D01*
X139774095Y-119851182D01*
X139774107Y-119851179D01*
X139929514Y-119786808D01*
X139929527Y-119786801D01*
X140069392Y-119693345D01*
X140069396Y-119693342D01*
X140188342Y-119574396D01*
X140188348Y-119574388D01*
X140219385Y-119527939D01*
X140219384Y-119527937D01*
X139811463Y-119120015D01*
X139825000Y-119069496D01*
X139825000Y-118480000D01*
X139878553Y-118480000D01*
X140378126Y-118979574D01*
X140410219Y-119035160D01*
X140435110Y-119128050D01*
X140447017Y-119172488D01*
X140519488Y-119298011D01*
X140519490Y-119298013D01*
X140519491Y-119298015D01*
X140621985Y-119400509D01*
X140621986Y-119400510D01*
X140621988Y-119400511D01*
X140747511Y-119472982D01*
X140747512Y-119472982D01*
X140747515Y-119472984D01*
X140887525Y-119510500D01*
X140887528Y-119510500D01*
X141032472Y-119510500D01*
X141032475Y-119510500D01*
X141172485Y-119472984D01*
X141298015Y-119400509D01*
X141400509Y-119298015D01*
X141472984Y-119172485D01*
X141510500Y-119032475D01*
X146189500Y-119032475D01*
X146215110Y-119128050D01*
X146227017Y-119172488D01*
X146299488Y-119298011D01*
X146299490Y-119298013D01*
X146299491Y-119298015D01*
X146401985Y-119400509D01*
X146401986Y-119400510D01*
X146401988Y-119400511D01*
X146527511Y-119472982D01*
X146527512Y-119472982D01*
X146527515Y-119472984D01*
X146667525Y-119510500D01*
X146667528Y-119510500D01*
X146812472Y-119510500D01*
X146812475Y-119510500D01*
X146952485Y-119472984D01*
X147078015Y-119400509D01*
X147180509Y-119298015D01*
X147252984Y-119172485D01*
X147289780Y-119035158D01*
X147321873Y-118979574D01*
X147821447Y-118480000D01*
X147821447Y-118479999D01*
X147321000Y-117979552D01*
X147321000Y-118463114D01*
X147301315Y-118530153D01*
X147248511Y-118575908D01*
X147179353Y-118585852D01*
X147115797Y-118556827D01*
X147109319Y-118550795D01*
X147078017Y-118519493D01*
X147078011Y-118519488D01*
X146952488Y-118447017D01*
X146952489Y-118447017D01*
X146941006Y-118443940D01*
X146812475Y-118409500D01*
X146667525Y-118409500D01*
X146538993Y-118443940D01*
X146527511Y-118447017D01*
X146401988Y-118519488D01*
X146401982Y-118519493D01*
X146299493Y-118621982D01*
X146299488Y-118621988D01*
X146227017Y-118747511D01*
X146227016Y-118747515D01*
X146189500Y-118887525D01*
X146189500Y-119032475D01*
X141510500Y-119032475D01*
X141510500Y-118887525D01*
X141472984Y-118747515D01*
X141413656Y-118644757D01*
X141400511Y-118621988D01*
X141400506Y-118621982D01*
X141298017Y-118519493D01*
X141298011Y-118519488D01*
X141172488Y-118447017D01*
X141172489Y-118447017D01*
X141161006Y-118443940D01*
X141032475Y-118409500D01*
X140887525Y-118409500D01*
X140758993Y-118443940D01*
X140747511Y-118447017D01*
X140621988Y-118519488D01*
X140621982Y-118519493D01*
X140590681Y-118550795D01*
X140529358Y-118584280D01*
X140459666Y-118579296D01*
X140403733Y-118537424D01*
X140379316Y-118471960D01*
X140379000Y-118463114D01*
X140379000Y-117979553D01*
X140378999Y-117979552D01*
X139878553Y-118479999D01*
X139878553Y-118480000D01*
X139825000Y-118480000D01*
X139825000Y-117890504D01*
X139811463Y-117839983D01*
X140219384Y-117432061D01*
X147480613Y-117432061D01*
X147888536Y-117839983D01*
X147875000Y-117890504D01*
X147875000Y-119069496D01*
X147888536Y-119120015D01*
X147480614Y-119527937D01*
X147480614Y-119527938D01*
X147511651Y-119574387D01*
X147511652Y-119574389D01*
X147630608Y-119693346D01*
X147770472Y-119786801D01*
X147770485Y-119786808D01*
X147925892Y-119851179D01*
X147925904Y-119851182D01*
X148090883Y-119883999D01*
X148090886Y-119884000D01*
X148259114Y-119884000D01*
X148259116Y-119883999D01*
X148424095Y-119851182D01*
X148424107Y-119851179D01*
X148579514Y-119786808D01*
X148579527Y-119786801D01*
X148719392Y-119693345D01*
X148719396Y-119693342D01*
X148838342Y-119574396D01*
X148838348Y-119574388D01*
X148869385Y-119527939D01*
X148869384Y-119527937D01*
X148461463Y-119120015D01*
X148475000Y-119069496D01*
X148475000Y-118480000D01*
X148528553Y-118480000D01*
X149028999Y-118980447D01*
X149029000Y-118980446D01*
X149029000Y-118471036D01*
X155680811Y-118471036D01*
X155705139Y-118542703D01*
X155705142Y-118542710D01*
X156031768Y-119108441D01*
X156048241Y-119176341D01*
X156025388Y-119242368D01*
X156022757Y-119245927D01*
X155965645Y-119320357D01*
X155965643Y-119320360D01*
X155909772Y-119455245D01*
X155909771Y-119455247D01*
X155890715Y-119599998D01*
X155890715Y-119600001D01*
X155909771Y-119744752D01*
X155909773Y-119744757D01*
X155965642Y-119879638D01*
X155965645Y-119879644D01*
X156054525Y-119995473D01*
X156054526Y-119995474D01*
X156170355Y-120084354D01*
X156170361Y-120084357D01*
X156237801Y-120112291D01*
X156305246Y-120140228D01*
X156377623Y-120149756D01*
X156449999Y-120159285D01*
X156450000Y-120159285D01*
X156543015Y-120147039D01*
X156612048Y-120157804D01*
X156664304Y-120204184D01*
X156666586Y-120207978D01*
X156995205Y-120777162D01*
X156995208Y-120777165D01*
X157045112Y-120834072D01*
X157135917Y-120878852D01*
X157236947Y-120885474D01*
X157308618Y-120861145D01*
X157958252Y-120486077D01*
X158015159Y-120436173D01*
X158059939Y-120345368D01*
X158066295Y-120248400D01*
X158368920Y-120248400D01*
X158802704Y-119997954D01*
X158802704Y-119997953D01*
X158460590Y-119906285D01*
X158368920Y-120248400D01*
X158066295Y-120248400D01*
X158066561Y-120244338D01*
X158042232Y-120172667D01*
X158023503Y-120140228D01*
X157951352Y-120015259D01*
X157934879Y-119947359D01*
X157938964Y-119921165D01*
X158074943Y-119413687D01*
X158111308Y-119354027D01*
X158174155Y-119323498D01*
X158226812Y-119326006D01*
X158589985Y-119423317D01*
X158590001Y-119423321D01*
X158932115Y-119514991D01*
X158679310Y-119077120D01*
X158662837Y-119009220D01*
X158685690Y-118943193D01*
X158688284Y-118939682D01*
X158734355Y-118879643D01*
X158790228Y-118744754D01*
X158809285Y-118600000D01*
X158807422Y-118585852D01*
X158792307Y-118471036D01*
X158790228Y-118455246D01*
X158734355Y-118320358D01*
X158645474Y-118204526D01*
X158529643Y-118115645D01*
X158529640Y-118115644D01*
X158529638Y-118115642D01*
X158394757Y-118059773D01*
X158394752Y-118059771D01*
X158250001Y-118040715D01*
X158249999Y-118040715D01*
X158175565Y-118050514D01*
X158106529Y-118039748D01*
X158054274Y-117993368D01*
X158051993Y-117989575D01*
X158046206Y-117979552D01*
X157901665Y-117729199D01*
X157704794Y-117388209D01*
X157694936Y-117376968D01*
X157654888Y-117331300D01*
X157564083Y-117286520D01*
X157463053Y-117279898D01*
X157463052Y-117279898D01*
X157463050Y-117279898D01*
X157391383Y-117304226D01*
X157391376Y-117304229D01*
X156741750Y-117679292D01*
X156684840Y-117729199D01*
X156667919Y-117763511D01*
X156620612Y-117814930D01*
X156553017Y-117832610D01*
X156548600Y-117832400D01*
X156526715Y-117830965D01*
X156510425Y-117829898D01*
X156510424Y-117829898D01*
X156510423Y-117829898D01*
X156438755Y-117854226D01*
X156438748Y-117854229D01*
X155789122Y-118229292D01*
X155732213Y-118279199D01*
X155687433Y-118370003D01*
X155680811Y-118471036D01*
X149029000Y-118471036D01*
X149029000Y-117979553D01*
X149028999Y-117979552D01*
X148528553Y-118479999D01*
X148528553Y-118480000D01*
X148475000Y-118480000D01*
X148475000Y-117890504D01*
X148461463Y-117839983D01*
X148869384Y-117432061D01*
X148869384Y-117432060D01*
X148838344Y-117385607D01*
X148838339Y-117385600D01*
X148719396Y-117266657D01*
X148719392Y-117266654D01*
X148579527Y-117173198D01*
X148579514Y-117173191D01*
X148424107Y-117108820D01*
X148424095Y-117108817D01*
X148259115Y-117076000D01*
X148090885Y-117076000D01*
X147925904Y-117108817D01*
X147925892Y-117108820D01*
X147770485Y-117173191D01*
X147770472Y-117173198D01*
X147630608Y-117266653D01*
X147511652Y-117385610D01*
X147511651Y-117385612D01*
X147480613Y-117432061D01*
X140219384Y-117432061D01*
X140219384Y-117432060D01*
X140188344Y-117385607D01*
X140188339Y-117385600D01*
X140069396Y-117266657D01*
X140069392Y-117266654D01*
X139929527Y-117173198D01*
X139929514Y-117173191D01*
X139774107Y-117108820D01*
X139774095Y-117108817D01*
X139609115Y-117076000D01*
X139440885Y-117076000D01*
X139275904Y-117108817D01*
X139275892Y-117108820D01*
X139120485Y-117173191D01*
X139120472Y-117173198D01*
X138980608Y-117266653D01*
X138861652Y-117385610D01*
X138861651Y-117385612D01*
X138830613Y-117432061D01*
X130530032Y-117432061D01*
X130308620Y-117304229D01*
X130236948Y-117279898D01*
X130236947Y-117279898D01*
X130211689Y-117281553D01*
X130135914Y-117286520D01*
X130045116Y-117331297D01*
X130045112Y-117331299D01*
X129995205Y-117388207D01*
X129701663Y-117896639D01*
X129651096Y-117944855D01*
X129582489Y-117958078D01*
X129578091Y-117957578D01*
X129450001Y-117940715D01*
X129449999Y-117940715D01*
X129305247Y-117959771D01*
X129305245Y-117959772D01*
X129170361Y-118015643D01*
X129170358Y-118015644D01*
X129170358Y-118015645D01*
X129054526Y-118104526D01*
X128977794Y-118204526D01*
X128965643Y-118220361D01*
X128909772Y-118355245D01*
X128909771Y-118355247D01*
X128890715Y-118499998D01*
X128890715Y-118500001D01*
X128909771Y-118644752D01*
X128909773Y-118644757D01*
X128965642Y-118779638D01*
X128965645Y-118779644D01*
X129036061Y-118871410D01*
X129061256Y-118936579D01*
X129061686Y-118946897D01*
X129061686Y-118971884D01*
X129045073Y-119033884D01*
X128705142Y-119622664D01*
X128680811Y-119694336D01*
X126270882Y-119694336D01*
X125741464Y-119303183D01*
X125737888Y-119300438D01*
X124895406Y-118629296D01*
X124891931Y-118626423D01*
X124074389Y-117925086D01*
X124071021Y-117922089D01*
X123754579Y-117630000D01*
X123279508Y-117191488D01*
X123276264Y-117188384D01*
X123260967Y-117173198D01*
X122511794Y-116429454D01*
X122508666Y-116426232D01*
X122425196Y-116337112D01*
X122071226Y-115959181D01*
X121875308Y-115750001D01*
X129640715Y-115750001D01*
X129659771Y-115894752D01*
X129659773Y-115894757D01*
X129715642Y-116029638D01*
X129715645Y-116029644D01*
X129804525Y-116145473D01*
X129804526Y-116145474D01*
X129920355Y-116234354D01*
X129920361Y-116234357D01*
X129962606Y-116251855D01*
X130055246Y-116290228D01*
X130143567Y-116301855D01*
X130207462Y-116330119D01*
X130215063Y-116337112D01*
X130601631Y-116723680D01*
X130693869Y-116776934D01*
X130796747Y-116804500D01*
X130796749Y-116804500D01*
X155403251Y-116804500D01*
X155403253Y-116804500D01*
X155506131Y-116776934D01*
X155598369Y-116723680D01*
X156034935Y-116287112D01*
X156096258Y-116253628D01*
X156106429Y-116251855D01*
X156194754Y-116240228D01*
X156329643Y-116184355D01*
X156445474Y-116095474D01*
X156534355Y-115979643D01*
X156590228Y-115844754D01*
X156608302Y-115707464D01*
X156609285Y-115700001D01*
X156609285Y-115699998D01*
X156590228Y-115555247D01*
X156590228Y-115555246D01*
X156534355Y-115420358D01*
X156445474Y-115304526D01*
X156329643Y-115215645D01*
X156329640Y-115215644D01*
X156329638Y-115215642D01*
X156194757Y-115159773D01*
X156194752Y-115159771D01*
X156050002Y-115140715D01*
X156050000Y-115140715D01*
X156032547Y-115143012D01*
X156017169Y-115145037D01*
X155948134Y-115134269D01*
X155895879Y-115087888D01*
X155876995Y-115020619D01*
X155886424Y-114974647D01*
X155940228Y-114844754D01*
X155959285Y-114700000D01*
X155955382Y-114670357D01*
X155940228Y-114555247D01*
X155940228Y-114555246D01*
X155884355Y-114420358D01*
X155795474Y-114304526D01*
X155795470Y-114304522D01*
X155795467Y-114304519D01*
X155790815Y-114299866D01*
X155757333Y-114238541D01*
X155754500Y-114212189D01*
X155754500Y-112953330D01*
X155749416Y-112934357D01*
X155730341Y-112863168D01*
X155683671Y-112782332D01*
X155617668Y-112716329D01*
X155613337Y-112711998D01*
X155613326Y-112711988D01*
X155067669Y-112166330D01*
X155067668Y-112166329D01*
X154986832Y-112119659D01*
X154986833Y-112119659D01*
X154956778Y-112111606D01*
X154896671Y-112095500D01*
X154896669Y-112095500D01*
X154087811Y-112095500D01*
X154020772Y-112075815D01*
X154000130Y-112059181D01*
X153995479Y-112054530D01*
X153995474Y-112054526D01*
X153879643Y-111965645D01*
X153879640Y-111965644D01*
X153879638Y-111965642D01*
X153744757Y-111909773D01*
X153744752Y-111909771D01*
X153600001Y-111890715D01*
X153599999Y-111890715D01*
X153447567Y-111910783D01*
X153378532Y-111900017D01*
X153326276Y-111853637D01*
X153308443Y-111804029D01*
X153296228Y-111711247D01*
X153296228Y-111711246D01*
X153240355Y-111576358D01*
X153151474Y-111460526D01*
X153035643Y-111371645D01*
X153035640Y-111371644D01*
X153035638Y-111371642D01*
X152900757Y-111315773D01*
X152900752Y-111315771D01*
X152756001Y-111296715D01*
X152755999Y-111296715D01*
X152611247Y-111315771D01*
X152611245Y-111315772D01*
X152476361Y-111371643D01*
X152476358Y-111371644D01*
X152476358Y-111371645D01*
X152360526Y-111460526D01*
X152360524Y-111460527D01*
X152360519Y-111460532D01*
X152355866Y-111465185D01*
X152294541Y-111498667D01*
X152268189Y-111501500D01*
X149867569Y-111501500D01*
X149800530Y-111481815D01*
X149754775Y-111429011D01*
X149744630Y-111361315D01*
X149750618Y-111315836D01*
X149759285Y-111250000D01*
X149749115Y-111172754D01*
X149742218Y-111120361D01*
X149740228Y-111105246D01*
X149684355Y-110970358D01*
X149595474Y-110854526D01*
X149479643Y-110765645D01*
X149479640Y-110765644D01*
X149479638Y-110765642D01*
X149344757Y-110709773D01*
X149344752Y-110709771D01*
X149200001Y-110690715D01*
X149193416Y-110690715D01*
X149126377Y-110671030D01*
X149105735Y-110654396D01*
X148567669Y-110116330D01*
X148567668Y-110116329D01*
X148486832Y-110069659D01*
X148486833Y-110069659D01*
X148456778Y-110061606D01*
X148396671Y-110045500D01*
X148396669Y-110045500D01*
X138137811Y-110045500D01*
X138070772Y-110025815D01*
X138050130Y-110009181D01*
X138045479Y-110004530D01*
X138045471Y-110004524D01*
X137929643Y-109915645D01*
X137929640Y-109915644D01*
X137929638Y-109915642D01*
X137794757Y-109859773D01*
X137794752Y-109859771D01*
X137650001Y-109840715D01*
X137649999Y-109840715D01*
X137505247Y-109859771D01*
X137505245Y-109859772D01*
X137370361Y-109915643D01*
X137370358Y-109915644D01*
X137370358Y-109915645D01*
X137254526Y-110004526D01*
X137168738Y-110116328D01*
X137165643Y-110120361D01*
X137109772Y-110255245D01*
X137109771Y-110255247D01*
X137090715Y-110399998D01*
X137090715Y-110400001D01*
X137103646Y-110498223D01*
X137092880Y-110567258D01*
X137046500Y-110619514D01*
X136979231Y-110638399D01*
X136912431Y-110617918D01*
X136893026Y-110602089D01*
X136741830Y-110450893D01*
X136708345Y-110389570D01*
X136706574Y-110379410D01*
X136690228Y-110255246D01*
X136634355Y-110120358D01*
X136545474Y-110004526D01*
X136429643Y-109915645D01*
X136429640Y-109915644D01*
X136429638Y-109915642D01*
X136294757Y-109859773D01*
X136294752Y-109859771D01*
X136150001Y-109840715D01*
X136149999Y-109840715D01*
X136005247Y-109859771D01*
X136005245Y-109859772D01*
X135870361Y-109915643D01*
X135870358Y-109915644D01*
X135870358Y-109915645D01*
X135754526Y-110004526D01*
X135668738Y-110116328D01*
X135665643Y-110120361D01*
X135609772Y-110255245D01*
X135609771Y-110255247D01*
X135590715Y-110399998D01*
X135590715Y-110400001D01*
X135609771Y-110544752D01*
X135609773Y-110544757D01*
X135665642Y-110679638D01*
X135665645Y-110679644D01*
X135754525Y-110795473D01*
X135754526Y-110795474D01*
X135870355Y-110884354D01*
X135870361Y-110884357D01*
X135898825Y-110896147D01*
X136005246Y-110940228D01*
X136129398Y-110956572D01*
X136193293Y-110984838D01*
X136200893Y-110991830D01*
X136467582Y-111258519D01*
X136467592Y-111258530D01*
X136471922Y-111262860D01*
X136471923Y-111262861D01*
X136543139Y-111334077D01*
X136586872Y-111359326D01*
X136586873Y-111359327D01*
X136630354Y-111384431D01*
X136630355Y-111384432D01*
X136630357Y-111384432D01*
X136630360Y-111384434D01*
X136727643Y-111410501D01*
X136727646Y-111410501D01*
X136835953Y-111410501D01*
X136835969Y-111410500D01*
X140095525Y-111410500D01*
X140162564Y-111430185D01*
X140171007Y-111436121D01*
X140270357Y-111512355D01*
X140270360Y-111512356D01*
X140270361Y-111512357D01*
X140337801Y-111540291D01*
X140405246Y-111568228D01*
X140467000Y-111576358D01*
X140549999Y-111587285D01*
X140550000Y-111587285D01*
X140550001Y-111587285D01*
X140598251Y-111580932D01*
X140694754Y-111568228D01*
X140829643Y-111512355D01*
X140945474Y-111423474D01*
X141034355Y-111307643D01*
X141090228Y-111172754D01*
X141109285Y-111028000D01*
X141106194Y-111004524D01*
X141091734Y-110894685D01*
X141102500Y-110825650D01*
X141148880Y-110773394D01*
X141214673Y-110754500D01*
X147315074Y-110754500D01*
X147382113Y-110774185D01*
X147427868Y-110826989D01*
X147437812Y-110896147D01*
X147408787Y-110959703D01*
X147390561Y-110976875D01*
X147354528Y-111004524D01*
X147354527Y-111004525D01*
X147354526Y-111004526D01*
X147277242Y-111105245D01*
X147265643Y-111120361D01*
X147209772Y-111255245D01*
X147209771Y-111255247D01*
X147190715Y-111399998D01*
X147190715Y-111400001D01*
X147209771Y-111544752D01*
X147209773Y-111544757D01*
X147265642Y-111679638D01*
X147265645Y-111679644D01*
X147354525Y-111795473D01*
X147354526Y-111795474D01*
X147470355Y-111884354D01*
X147470361Y-111884357D01*
X147485711Y-111890715D01*
X147605246Y-111940228D01*
X147677623Y-111949756D01*
X147749999Y-111959285D01*
X147756585Y-111959285D01*
X147823624Y-111978970D01*
X147844266Y-111995604D01*
X147917988Y-112069326D01*
X147917998Y-112069337D01*
X147988333Y-112139672D01*
X148028750Y-112163006D01*
X148069168Y-112186341D01*
X148159329Y-112210500D01*
X152268189Y-112210500D01*
X152335228Y-112230185D01*
X152355866Y-112246815D01*
X152360523Y-112251472D01*
X152476355Y-112340354D01*
X152476361Y-112340357D01*
X152543801Y-112368291D01*
X152611246Y-112396228D01*
X152683623Y-112405756D01*
X152755999Y-112415285D01*
X152756000Y-112415285D01*
X152900754Y-112396228D01*
X152900758Y-112396226D01*
X152908431Y-112395216D01*
X152977466Y-112405981D01*
X153029722Y-112452361D01*
X153047556Y-112501969D01*
X153059772Y-112594752D01*
X153059773Y-112594757D01*
X153115642Y-112729638D01*
X153115645Y-112729644D01*
X153204525Y-112845473D01*
X153204526Y-112845474D01*
X153320355Y-112934354D01*
X153320361Y-112934357D01*
X153387801Y-112962291D01*
X153455246Y-112990228D01*
X153527623Y-112999756D01*
X153599999Y-113009285D01*
X153600000Y-113009285D01*
X153600001Y-113009285D01*
X153648251Y-113002932D01*
X153744754Y-112990228D01*
X153879643Y-112934355D01*
X153995474Y-112845474D01*
X153995476Y-112845472D01*
X154000134Y-112840815D01*
X154061459Y-112807333D01*
X154087811Y-112804500D01*
X154651799Y-112804500D01*
X154718838Y-112824185D01*
X154739480Y-112840819D01*
X155009181Y-113110519D01*
X155042666Y-113171842D01*
X155045500Y-113198200D01*
X155045500Y-114212189D01*
X155025815Y-114279228D01*
X155009185Y-114299866D01*
X155004532Y-114304519D01*
X155004527Y-114304524D01*
X155004526Y-114304526D01*
X154915645Y-114420358D01*
X154915643Y-114420361D01*
X154859772Y-114555245D01*
X154859771Y-114555247D01*
X154840715Y-114699998D01*
X154840715Y-114700001D01*
X154859771Y-114844752D01*
X154859773Y-114844757D01*
X154915642Y-114979638D01*
X154915645Y-114979644D01*
X155004525Y-115095473D01*
X155004526Y-115095474D01*
X155120355Y-115184354D01*
X155120361Y-115184357D01*
X155135711Y-115190715D01*
X155255246Y-115240228D01*
X155327623Y-115249756D01*
X155399999Y-115259285D01*
X155400000Y-115259285D01*
X155432828Y-115254963D01*
X155501862Y-115265728D01*
X155554118Y-115312108D01*
X155573004Y-115379377D01*
X155563574Y-115425354D01*
X155509773Y-115555242D01*
X155509772Y-115555246D01*
X155498144Y-115643568D01*
X155469877Y-115707464D01*
X155462887Y-115715063D01*
X155218768Y-115959182D01*
X155157448Y-115992666D01*
X155131089Y-115995500D01*
X131068911Y-115995500D01*
X131001872Y-115975815D01*
X130981230Y-115959181D01*
X130787113Y-115765064D01*
X130753628Y-115703741D01*
X130751855Y-115693567D01*
X130744814Y-115640081D01*
X130740228Y-115605246D01*
X130684355Y-115470358D01*
X130595474Y-115354526D01*
X130479643Y-115265645D01*
X130479640Y-115265644D01*
X130479638Y-115265642D01*
X130344757Y-115209773D01*
X130344752Y-115209771D01*
X130200001Y-115190715D01*
X130199999Y-115190715D01*
X130055247Y-115209771D01*
X130055245Y-115209772D01*
X129920361Y-115265643D01*
X129920358Y-115265644D01*
X129920358Y-115265645D01*
X129804526Y-115354526D01*
X129754012Y-115420358D01*
X129715643Y-115470361D01*
X129659772Y-115605245D01*
X129659771Y-115605247D01*
X129640715Y-115749998D01*
X129640715Y-115750001D01*
X121875308Y-115750001D01*
X121772357Y-115640081D01*
X121769335Y-115636735D01*
X121062070Y-114824315D01*
X121059172Y-114820862D01*
X120843818Y-114554526D01*
X120381869Y-113983218D01*
X120379139Y-113979712D01*
X119732763Y-113118037D01*
X119730130Y-113114392D01*
X119657101Y-113009285D01*
X119115502Y-112229783D01*
X119112999Y-112226037D01*
X119103021Y-112210500D01*
X118530930Y-111319663D01*
X118528571Y-111315836D01*
X118523721Y-111307644D01*
X117979859Y-110388938D01*
X117977635Y-110385019D01*
X117920321Y-110279643D01*
X117887294Y-110218920D01*
X119301598Y-110218920D01*
X119552044Y-110652704D01*
X119552045Y-110652704D01*
X119643713Y-110310590D01*
X119301598Y-110218920D01*
X117887294Y-110218920D01*
X117462971Y-109438769D01*
X117460894Y-109434778D01*
X117450595Y-109414083D01*
X117287789Y-109086949D01*
X118664526Y-109086949D01*
X118688854Y-109158616D01*
X118688857Y-109158623D01*
X119063920Y-109808249D01*
X119063923Y-109808252D01*
X119113827Y-109865159D01*
X119204632Y-109909939D01*
X119305662Y-109916561D01*
X119377333Y-109892232D01*
X119534743Y-109801350D01*
X119602638Y-109784879D01*
X119628833Y-109788964D01*
X120136312Y-109924943D01*
X120195972Y-109961308D01*
X120226501Y-110024155D01*
X120223993Y-110076811D01*
X120145207Y-110370845D01*
X120145206Y-110370846D01*
X120035007Y-110782115D01*
X120548549Y-110485621D01*
X120616449Y-110469148D01*
X120662283Y-110482606D01*
X120662847Y-110481245D01*
X120740615Y-110513457D01*
X120805246Y-110540228D01*
X120839610Y-110544752D01*
X120949999Y-110559285D01*
X120950000Y-110559285D01*
X120950001Y-110559285D01*
X120998251Y-110552932D01*
X121094754Y-110540228D01*
X121229643Y-110484355D01*
X121345474Y-110395474D01*
X121434355Y-110279643D01*
X121490228Y-110144754D01*
X121506105Y-110024155D01*
X121510346Y-109991942D01*
X121512481Y-109992223D01*
X121528970Y-109936071D01*
X121571283Y-109895724D01*
X122110589Y-109584355D01*
X122161790Y-109554794D01*
X122161790Y-109554793D01*
X122161793Y-109554792D01*
X122218700Y-109504888D01*
X122263480Y-109414083D01*
X122270102Y-109313053D01*
X122245773Y-109241382D01*
X122137780Y-109054333D01*
X121870707Y-108591750D01*
X121820800Y-108534840D01*
X121820799Y-108534839D01*
X121786489Y-108517919D01*
X121735070Y-108470613D01*
X121717389Y-108403018D01*
X121717600Y-108398597D01*
X121720102Y-108360424D01*
X121707937Y-108324589D01*
X121695773Y-108288754D01*
X121676179Y-108254816D01*
X121320707Y-107639122D01*
X121310849Y-107627881D01*
X121270801Y-107582213D01*
X121179996Y-107537433D01*
X121078966Y-107530811D01*
X121078965Y-107530811D01*
X121078963Y-107530811D01*
X121007296Y-107555139D01*
X121007293Y-107555140D01*
X120441559Y-107881768D01*
X120373659Y-107898241D01*
X120307632Y-107875388D01*
X120304073Y-107872757D01*
X120229643Y-107815645D01*
X120229638Y-107815642D01*
X120094757Y-107759773D01*
X120094752Y-107759771D01*
X119950001Y-107740715D01*
X119949999Y-107740715D01*
X119805247Y-107759771D01*
X119805245Y-107759772D01*
X119670361Y-107815643D01*
X119670358Y-107815644D01*
X119670358Y-107815645D01*
X119554526Y-107904526D01*
X119468081Y-108017184D01*
X119465643Y-108020361D01*
X119409772Y-108155245D01*
X119409771Y-108155247D01*
X119390715Y-108299998D01*
X119390715Y-108300001D01*
X119402960Y-108393014D01*
X119392194Y-108462049D01*
X119345814Y-108514305D01*
X119342021Y-108516586D01*
X118772834Y-108845208D01*
X118715928Y-108895112D01*
X118671148Y-108985916D01*
X118664526Y-109086949D01*
X117287789Y-109086949D01*
X116980962Y-108470428D01*
X116979034Y-108466370D01*
X116978948Y-108466181D01*
X116534487Y-107485234D01*
X116532702Y-107481095D01*
X116519954Y-107450001D01*
X127290715Y-107450001D01*
X127309771Y-107594752D01*
X127309773Y-107594757D01*
X127365642Y-107729638D01*
X127365645Y-107729644D01*
X127441875Y-107828987D01*
X127467070Y-107894156D01*
X127467500Y-107904474D01*
X127467500Y-109642030D01*
X127467499Y-109642048D01*
X127467499Y-109649643D01*
X127467499Y-109750357D01*
X127492412Y-109843334D01*
X127493566Y-109847640D01*
X127543923Y-109934861D01*
X127543925Y-109934863D01*
X127622204Y-110013142D01*
X127622210Y-110013147D01*
X129413092Y-111804029D01*
X131181181Y-113572117D01*
X131214666Y-113633440D01*
X131217500Y-113659798D01*
X131217500Y-114495525D01*
X131197815Y-114562564D01*
X131191876Y-114571011D01*
X131115645Y-114670357D01*
X131115643Y-114670360D01*
X131059772Y-114805245D01*
X131059771Y-114805247D01*
X131040715Y-114949998D01*
X131040715Y-114950001D01*
X131059771Y-115094752D01*
X131059773Y-115094757D01*
X131115642Y-115229638D01*
X131115645Y-115229644D01*
X131204525Y-115345473D01*
X131204526Y-115345474D01*
X131320355Y-115434354D01*
X131320361Y-115434357D01*
X131387801Y-115462291D01*
X131455246Y-115490228D01*
X131527623Y-115499756D01*
X131599999Y-115509285D01*
X131600000Y-115509285D01*
X131600001Y-115509285D01*
X131648251Y-115502932D01*
X131744754Y-115490228D01*
X131879643Y-115434355D01*
X131995474Y-115345474D01*
X132084355Y-115229643D01*
X132140228Y-115094754D01*
X132155382Y-114979644D01*
X132159285Y-114950001D01*
X132159285Y-114949998D01*
X132140228Y-114805247D01*
X132140228Y-114805246D01*
X132084355Y-114670358D01*
X132063489Y-114643165D01*
X132008124Y-114571011D01*
X131982930Y-114505842D01*
X131982500Y-114495525D01*
X131982500Y-113510359D01*
X131982501Y-113510346D01*
X131982501Y-113399645D01*
X131982501Y-113399643D01*
X131956434Y-113302360D01*
X131945643Y-113283670D01*
X131906077Y-113215139D01*
X131834861Y-113143923D01*
X131834860Y-113143922D01*
X131829488Y-113138550D01*
X131829471Y-113138535D01*
X128268819Y-109577882D01*
X128235334Y-109516559D01*
X128232500Y-109490201D01*
X128232500Y-107904474D01*
X128252185Y-107837435D01*
X128258125Y-107828987D01*
X128334354Y-107729644D01*
X128334353Y-107729644D01*
X128334355Y-107729643D01*
X128390228Y-107594754D01*
X128405382Y-107479644D01*
X128409285Y-107450001D01*
X128409285Y-107449998D01*
X128390228Y-107305247D01*
X128390228Y-107305246D01*
X128388055Y-107300001D01*
X130990715Y-107300001D01*
X131009771Y-107444752D01*
X131009773Y-107444757D01*
X131065642Y-107579638D01*
X131065645Y-107579644D01*
X131154525Y-107695473D01*
X131154526Y-107695474D01*
X131270355Y-107784354D01*
X131270361Y-107784357D01*
X131337801Y-107812291D01*
X131405246Y-107840228D01*
X131445094Y-107845474D01*
X131549999Y-107859285D01*
X131550000Y-107859285D01*
X131550001Y-107859285D01*
X131598251Y-107852932D01*
X131694754Y-107840228D01*
X131829643Y-107784355D01*
X131945474Y-107695474D01*
X132034355Y-107579643D01*
X132090228Y-107444754D01*
X132101081Y-107362314D01*
X132129347Y-107298418D01*
X132187672Y-107259947D01*
X132224020Y-107254500D01*
X134151799Y-107254500D01*
X134218838Y-107274185D01*
X134239480Y-107290819D01*
X134754480Y-107805819D01*
X134787965Y-107867142D01*
X134782981Y-107936834D01*
X134741109Y-107992767D01*
X134675645Y-108017184D01*
X134666799Y-108017500D01*
X133239313Y-108017500D01*
X133172274Y-107997815D01*
X133163839Y-107991885D01*
X133129643Y-107965645D01*
X133129639Y-107965643D01*
X133129638Y-107965642D01*
X132994757Y-107909773D01*
X132994752Y-107909771D01*
X132850001Y-107890715D01*
X132849999Y-107890715D01*
X132705247Y-107909771D01*
X132705245Y-107909772D01*
X132570361Y-107965643D01*
X132570358Y-107965644D01*
X132570358Y-107965645D01*
X132535012Y-107992767D01*
X132454526Y-108054526D01*
X132365643Y-108170361D01*
X132309772Y-108305245D01*
X132309771Y-108305247D01*
X132290715Y-108449998D01*
X132290715Y-108450001D01*
X132309771Y-108594752D01*
X132309773Y-108594757D01*
X132365642Y-108729638D01*
X132365645Y-108729644D01*
X132454525Y-108845473D01*
X132454526Y-108845474D01*
X132570355Y-108934354D01*
X132570361Y-108934357D01*
X132637801Y-108962291D01*
X132705246Y-108990228D01*
X132752667Y-108996471D01*
X132849999Y-109009285D01*
X132850000Y-109009285D01*
X132850001Y-109009285D01*
X132898251Y-109002932D01*
X132994754Y-108990228D01*
X133129638Y-108934357D01*
X133129639Y-108934357D01*
X133129639Y-108934356D01*
X133129643Y-108934355D01*
X133245474Y-108845474D01*
X133256572Y-108831011D01*
X133313001Y-108789810D01*
X133354946Y-108782500D01*
X147915701Y-108782500D01*
X147982740Y-108802185D01*
X148003382Y-108818819D01*
X149379123Y-110194560D01*
X149404329Y-110238211D01*
X149406662Y-110237246D01*
X149465643Y-110379640D01*
X149465645Y-110379644D01*
X149554525Y-110495473D01*
X149554526Y-110495474D01*
X149670355Y-110584354D01*
X149670361Y-110584357D01*
X149737801Y-110612291D01*
X149805246Y-110640228D01*
X149877623Y-110649756D01*
X149949999Y-110659285D01*
X149950000Y-110659285D01*
X149950001Y-110659285D01*
X149999988Y-110652704D01*
X150094754Y-110640228D01*
X150229643Y-110584355D01*
X150345474Y-110495474D01*
X150434355Y-110379643D01*
X150490228Y-110244754D01*
X150503393Y-110144752D01*
X150509285Y-110100001D01*
X150509285Y-110099998D01*
X150490228Y-109955247D01*
X150490228Y-109955246D01*
X150434355Y-109820358D01*
X150345474Y-109704526D01*
X150229643Y-109615645D01*
X150229640Y-109615644D01*
X150229638Y-109615642D01*
X150094757Y-109559773D01*
X150094752Y-109559771D01*
X149950001Y-109540715D01*
X149949997Y-109540715D01*
X149884395Y-109549351D01*
X149815360Y-109538585D01*
X149780530Y-109514093D01*
X149579488Y-109313051D01*
X165429898Y-109313051D01*
X165436520Y-109414085D01*
X165481297Y-109504883D01*
X165481299Y-109504887D01*
X165481300Y-109504888D01*
X165538205Y-109554793D01*
X166139575Y-109901992D01*
X166187790Y-109952559D01*
X166201014Y-110021166D01*
X166200514Y-110025563D01*
X166190715Y-110099997D01*
X166190715Y-110100001D01*
X166209771Y-110244752D01*
X166209773Y-110244757D01*
X166265642Y-110379638D01*
X166265645Y-110379644D01*
X166354525Y-110495473D01*
X166354526Y-110495474D01*
X166470355Y-110584354D01*
X166470361Y-110584357D01*
X166537801Y-110612291D01*
X166605246Y-110640228D01*
X166677623Y-110649756D01*
X166749999Y-110659285D01*
X166750000Y-110659285D01*
X166750001Y-110659285D01*
X166799988Y-110652704D01*
X166894754Y-110640228D01*
X167029643Y-110584355D01*
X167089205Y-110538650D01*
X167154371Y-110513457D01*
X167222816Y-110527495D01*
X167226685Y-110529637D01*
X167321461Y-110584356D01*
X167739396Y-110825650D01*
X167772666Y-110844858D01*
X167844338Y-110869189D01*
X167945368Y-110862567D01*
X168036173Y-110817787D01*
X168086078Y-110760882D01*
X168461143Y-110111247D01*
X168485474Y-110039575D01*
X168478852Y-109938545D01*
X168477036Y-109934863D01*
X168434074Y-109847744D01*
X168434072Y-109847740D01*
X168426062Y-109840715D01*
X168377167Y-109797835D01*
X168354726Y-109784879D01*
X168219759Y-109706956D01*
X168171544Y-109656389D01*
X168161984Y-109631662D01*
X168095179Y-109382341D01*
X168095176Y-109382331D01*
X168088646Y-109357962D01*
X168606285Y-109357962D01*
X168697955Y-109700077D01*
X168948399Y-109266293D01*
X168606285Y-109357962D01*
X168088646Y-109357962D01*
X168026006Y-109124183D01*
X168027669Y-109054333D01*
X168066832Y-108996471D01*
X168113687Y-108972315D01*
X168818990Y-108783328D01*
X168357907Y-108517123D01*
X168309691Y-108466556D01*
X168296468Y-108397949D01*
X168296961Y-108393608D01*
X168309285Y-108300000D01*
X168307804Y-108288754D01*
X168292218Y-108170361D01*
X168290228Y-108155246D01*
X168234355Y-108020358D01*
X168145474Y-107904526D01*
X168029643Y-107815645D01*
X168029640Y-107815644D01*
X168029638Y-107815642D01*
X167894757Y-107759773D01*
X167894752Y-107759771D01*
X167750001Y-107740715D01*
X167749999Y-107740715D01*
X167605247Y-107759771D01*
X167605245Y-107759772D01*
X167470360Y-107815643D01*
X167470357Y-107815645D01*
X167395928Y-107872756D01*
X167330758Y-107897950D01*
X167262313Y-107883911D01*
X167258442Y-107881767D01*
X166692707Y-107555142D01*
X166621035Y-107530811D01*
X166621034Y-107530811D01*
X166595776Y-107532466D01*
X166520001Y-107537433D01*
X166429203Y-107582210D01*
X166429199Y-107582212D01*
X166379292Y-107639120D01*
X166004229Y-108288751D01*
X165979898Y-108360423D01*
X165982400Y-108398600D01*
X165967141Y-108466783D01*
X165917442Y-108515893D01*
X165913510Y-108517919D01*
X165879204Y-108534837D01*
X165879199Y-108534840D01*
X165829292Y-108591748D01*
X165454229Y-109241379D01*
X165429898Y-109313051D01*
X149579488Y-109313051D01*
X148732618Y-108466181D01*
X148699133Y-108404858D01*
X148704117Y-108335166D01*
X148745989Y-108279233D01*
X148811453Y-108254816D01*
X148820299Y-108254500D01*
X149446669Y-108254500D01*
X149446671Y-108254500D01*
X149536832Y-108230341D01*
X149617668Y-108183671D01*
X150005733Y-107795603D01*
X150067056Y-107762119D01*
X150093414Y-107759285D01*
X150100001Y-107759285D01*
X150151211Y-107752543D01*
X150244754Y-107740228D01*
X150379643Y-107684355D01*
X150495474Y-107595474D01*
X150584355Y-107479643D01*
X150640228Y-107344754D01*
X150659285Y-107200000D01*
X150640228Y-107055246D01*
X150584355Y-106920358D01*
X150495474Y-106804526D01*
X150379643Y-106715645D01*
X150379640Y-106715644D01*
X150379638Y-106715642D01*
X150244757Y-106659773D01*
X150244752Y-106659771D01*
X150100001Y-106640715D01*
X150099999Y-106640715D01*
X149955247Y-106659771D01*
X149955245Y-106659772D01*
X149820361Y-106715643D01*
X149820358Y-106715644D01*
X149820358Y-106715645D01*
X149704526Y-106804526D01*
X149627794Y-106904526D01*
X149615643Y-106920361D01*
X149559772Y-107055245D01*
X149559771Y-107055247D01*
X149540715Y-107199998D01*
X149540715Y-107206584D01*
X149521030Y-107273623D01*
X149504396Y-107294265D01*
X149289480Y-107509181D01*
X149228157Y-107542666D01*
X149201799Y-107545500D01*
X135548201Y-107545500D01*
X135481162Y-107525815D01*
X135460520Y-107509181D01*
X134567669Y-106616330D01*
X134567668Y-106616329D01*
X134486832Y-106569659D01*
X134486833Y-106569659D01*
X134456778Y-106561606D01*
X134396671Y-106545500D01*
X131903329Y-106545500D01*
X131843221Y-106561606D01*
X131813167Y-106569659D01*
X131732333Y-106616328D01*
X131732330Y-106616330D01*
X131644265Y-106704396D01*
X131582942Y-106737881D01*
X131556584Y-106740715D01*
X131549999Y-106740715D01*
X131405247Y-106759771D01*
X131405245Y-106759772D01*
X131270361Y-106815643D01*
X131154526Y-106904526D01*
X131065643Y-107020361D01*
X131009772Y-107155245D01*
X131009771Y-107155247D01*
X130990715Y-107299998D01*
X130990715Y-107300001D01*
X128388055Y-107300001D01*
X128334355Y-107170358D01*
X128245474Y-107054526D01*
X128129643Y-106965645D01*
X128129640Y-106965644D01*
X128129638Y-106965642D01*
X127994757Y-106909773D01*
X127994752Y-106909771D01*
X127850001Y-106890715D01*
X127849999Y-106890715D01*
X127705247Y-106909771D01*
X127705245Y-106909772D01*
X127570361Y-106965643D01*
X127454526Y-107054526D01*
X127365643Y-107170361D01*
X127309772Y-107305245D01*
X127309771Y-107305247D01*
X127290715Y-107449998D01*
X127290715Y-107450001D01*
X116519954Y-107450001D01*
X116519954Y-107450000D01*
X116124105Y-106484421D01*
X116122478Y-106480236D01*
X115887611Y-105842172D01*
X115750380Y-105469356D01*
X115748919Y-105465153D01*
X115413820Y-104441429D01*
X115412501Y-104437139D01*
X115114833Y-103401887D01*
X115113667Y-103397532D01*
X114853846Y-102352212D01*
X114852838Y-102347817D01*
X114631188Y-101293732D01*
X114630340Y-101289304D01*
X114525087Y-100679423D01*
X114447141Y-100227776D01*
X114446465Y-100223374D01*
X114301983Y-99155937D01*
X114301466Y-99151519D01*
X114195881Y-98079487D01*
X114195522Y-98075006D01*
X114128980Y-96999882D01*
X114128787Y-96995469D01*
X114103432Y-95999552D01*
X115331000Y-95999552D01*
X115331000Y-96500445D01*
X115581446Y-96250000D01*
X115581446Y-96249999D01*
X115331000Y-95999552D01*
X114103432Y-95999552D01*
X114101371Y-95918586D01*
X114101339Y-95914135D01*
X114105583Y-95525063D01*
X115330500Y-95525063D01*
X115345266Y-95599301D01*
X115401515Y-95683484D01*
X115429547Y-95702214D01*
X115485699Y-95739734D01*
X115485702Y-95739734D01*
X115485703Y-95739735D01*
X115510268Y-95744621D01*
X115559933Y-95754500D01*
X115741691Y-95754499D01*
X115808729Y-95774183D01*
X115829371Y-95790818D01*
X116200871Y-96162318D01*
X116234356Y-96223641D01*
X116229372Y-96293333D01*
X116200871Y-96337680D01*
X115684552Y-96853998D01*
X115684553Y-96853999D01*
X116190306Y-96853999D01*
X116257345Y-96873684D01*
X116303100Y-96926488D01*
X116308978Y-96942839D01*
X116365642Y-97079638D01*
X116365645Y-97079644D01*
X116454525Y-97195473D01*
X116454526Y-97195474D01*
X116570355Y-97284354D01*
X116570361Y-97284357D01*
X116590793Y-97292820D01*
X116705246Y-97340228D01*
X116777623Y-97349756D01*
X116849999Y-97359285D01*
X116850000Y-97359285D01*
X116850001Y-97359285D01*
X116898251Y-97352932D01*
X116994754Y-97340228D01*
X117129643Y-97284355D01*
X117245474Y-97195474D01*
X117334355Y-97079643D01*
X117390228Y-96944754D01*
X117390227Y-96944754D01*
X117393338Y-96937246D01*
X117394959Y-96937917D01*
X117426150Y-96886745D01*
X117488997Y-96856216D01*
X117509560Y-96854499D01*
X118140064Y-96854499D01*
X118140066Y-96854499D01*
X118214301Y-96839734D01*
X118298484Y-96783484D01*
X118354734Y-96699301D01*
X118369500Y-96625067D01*
X118369499Y-96000523D01*
X138870577Y-96000523D01*
X138890327Y-96099819D01*
X138932380Y-96162756D01*
X138932381Y-96162757D01*
X139250666Y-96481041D01*
X139250670Y-96481044D01*
X139250672Y-96481046D01*
X139313604Y-96523097D01*
X139313606Y-96523097D01*
X139314882Y-96523950D01*
X139349094Y-96558162D01*
X139349947Y-96559439D01*
X139349948Y-96559441D01*
X139362894Y-96578816D01*
X139391999Y-96622375D01*
X139392000Y-96622376D01*
X139710285Y-96940660D01*
X139710289Y-96940663D01*
X139710291Y-96940665D01*
X139773223Y-96982716D01*
X139773225Y-96982716D01*
X139774501Y-96983569D01*
X139808713Y-97017781D01*
X139809566Y-97019058D01*
X139809567Y-97019060D01*
X139822512Y-97038433D01*
X139851618Y-97081994D01*
X139851619Y-97081995D01*
X140169904Y-97400279D01*
X140169908Y-97400282D01*
X140169910Y-97400284D01*
X140232842Y-97442335D01*
X140232843Y-97442335D01*
X140234121Y-97443189D01*
X140268333Y-97477401D01*
X140269186Y-97478678D01*
X140269187Y-97478680D01*
X140295893Y-97518649D01*
X140311238Y-97541614D01*
X140311239Y-97541615D01*
X140629524Y-97859899D01*
X140629528Y-97859902D01*
X140629530Y-97859904D01*
X140692462Y-97901955D01*
X140692464Y-97901955D01*
X140693740Y-97902808D01*
X140727952Y-97937020D01*
X140728805Y-97938297D01*
X140728806Y-97938299D01*
X140739505Y-97954311D01*
X140770857Y-98001233D01*
X140770858Y-98001234D01*
X141089143Y-98319518D01*
X141089147Y-98319521D01*
X141089149Y-98319523D01*
X141152081Y-98361574D01*
X141152082Y-98361574D01*
X141153360Y-98362428D01*
X141187572Y-98396640D01*
X141188425Y-98397917D01*
X141188426Y-98397919D01*
X141209394Y-98429299D01*
X141230477Y-98460853D01*
X141230478Y-98460854D01*
X141548763Y-98779138D01*
X141548767Y-98779141D01*
X141548769Y-98779143D01*
X141611701Y-98821194D01*
X141611703Y-98821194D01*
X141612979Y-98822047D01*
X141647191Y-98856259D01*
X141648044Y-98857536D01*
X141648045Y-98857538D01*
X141665964Y-98884355D01*
X141690096Y-98920472D01*
X141690097Y-98920473D01*
X142008382Y-99238757D01*
X142008386Y-99238760D01*
X142008388Y-99238762D01*
X142071320Y-99280813D01*
X142071321Y-99280813D01*
X142072599Y-99281667D01*
X142106811Y-99315879D01*
X142107664Y-99317156D01*
X142107665Y-99317158D01*
X142134371Y-99357127D01*
X142149716Y-99380092D01*
X142149717Y-99380093D01*
X142468002Y-99698377D01*
X142468006Y-99698380D01*
X142468008Y-99698382D01*
X142530940Y-99740433D01*
X142530942Y-99740433D01*
X142532218Y-99741286D01*
X142566430Y-99775498D01*
X142567283Y-99776775D01*
X142567284Y-99776777D01*
X142593990Y-99816746D01*
X142609335Y-99839711D01*
X142609336Y-99839712D01*
X142927621Y-100157996D01*
X142927625Y-100157999D01*
X142927627Y-100158001D01*
X142990559Y-100200052D01*
X142990561Y-100200052D01*
X142991837Y-100200905D01*
X143026049Y-100235117D01*
X143026902Y-100236394D01*
X143026903Y-100236396D01*
X143053609Y-100276365D01*
X143068954Y-100299330D01*
X143068955Y-100299331D01*
X143387240Y-100617615D01*
X143387248Y-100617622D01*
X143450177Y-100659671D01*
X143450179Y-100659672D01*
X143549477Y-100679423D01*
X143549479Y-100679423D01*
X143549481Y-100679423D01*
X143615679Y-100666255D01*
X143648780Y-100659671D01*
X143711713Y-100617621D01*
X144701756Y-99627577D01*
X144743807Y-99564644D01*
X144762446Y-99470941D01*
X144763559Y-99465345D01*
X144763559Y-99465340D01*
X144743808Y-99366044D01*
X144701755Y-99303107D01*
X144701754Y-99303106D01*
X144446650Y-99048003D01*
X144413165Y-98986680D01*
X144418149Y-98916989D01*
X144458842Y-98861949D01*
X144545474Y-98795474D01*
X144634355Y-98679643D01*
X144678722Y-98572532D01*
X144722563Y-98518128D01*
X144788857Y-98496063D01*
X144856556Y-98513342D01*
X144880964Y-98532303D01*
X145364179Y-99015518D01*
X145397664Y-99076841D01*
X145398115Y-99079008D01*
X145408184Y-99129630D01*
X145408184Y-99129631D01*
X145450236Y-99192566D01*
X145450239Y-99192569D01*
X146157432Y-99899761D01*
X146157435Y-99899764D01*
X146188902Y-99920789D01*
X146220369Y-99941815D01*
X146220370Y-99941815D01*
X146220371Y-99941816D01*
X146319668Y-99961567D01*
X146319670Y-99961567D01*
X146319672Y-99961567D01*
X146385870Y-99948399D01*
X146418971Y-99941815D01*
X146481904Y-99899765D01*
X147083038Y-99298630D01*
X147125089Y-99235697D01*
X147133669Y-99192566D01*
X147144841Y-99136398D01*
X147144841Y-99136393D01*
X147125089Y-99037095D01*
X147125089Y-99037094D01*
X147083037Y-98974159D01*
X147083034Y-98974156D01*
X146375841Y-98266964D01*
X146375838Y-98266961D01*
X146328744Y-98235494D01*
X146312905Y-98224911D01*
X146312904Y-98224910D01*
X146312903Y-98224910D01*
X146312902Y-98224909D01*
X146213606Y-98205159D01*
X146213602Y-98205159D01*
X146114303Y-98224910D01*
X146114302Y-98224910D01*
X146051368Y-98266962D01*
X145922515Y-98395815D01*
X145861192Y-98429299D01*
X145791500Y-98424315D01*
X145747153Y-98395814D01*
X145417520Y-98066181D01*
X145384035Y-98004858D01*
X145389019Y-97935166D01*
X145430891Y-97879233D01*
X145496355Y-97854816D01*
X145505201Y-97854500D01*
X146451584Y-97854500D01*
X146518623Y-97874185D01*
X146564378Y-97926989D01*
X146573202Y-97954311D01*
X146574911Y-97962906D01*
X146616962Y-98025840D01*
X146616965Y-98025843D01*
X147324158Y-98733035D01*
X147324161Y-98733038D01*
X147355628Y-98754063D01*
X147387095Y-98775089D01*
X147387096Y-98775089D01*
X147387097Y-98775090D01*
X147486394Y-98794841D01*
X147486396Y-98794841D01*
X147486398Y-98794841D01*
X147565341Y-98779138D01*
X147585697Y-98775089D01*
X147648630Y-98733039D01*
X148249764Y-98131904D01*
X148291815Y-98068971D01*
X148300395Y-98025840D01*
X148311567Y-97969672D01*
X148311567Y-97969667D01*
X148291815Y-97870369D01*
X148291815Y-97870368D01*
X148249763Y-97807433D01*
X148249760Y-97807430D01*
X147542567Y-97100238D01*
X147542564Y-97100235D01*
X147495470Y-97068768D01*
X147479631Y-97058185D01*
X147479630Y-97058184D01*
X147479629Y-97058184D01*
X147479628Y-97058183D01*
X147380332Y-97038433D01*
X147380328Y-97038433D01*
X147281029Y-97058184D01*
X147281028Y-97058184D01*
X147218097Y-97100234D01*
X147218092Y-97100238D01*
X147200325Y-97118005D01*
X147139001Y-97151489D01*
X147080554Y-97150097D01*
X147063398Y-97145500D01*
X147063397Y-97145500D01*
X145523417Y-97145500D01*
X145456378Y-97125815D01*
X145435736Y-97109181D01*
X145283212Y-96956657D01*
X145249727Y-96895334D01*
X145246893Y-96868976D01*
X145246893Y-96862392D01*
X145243910Y-96839733D01*
X145237979Y-96794684D01*
X145248744Y-96725650D01*
X145295124Y-96673394D01*
X145360918Y-96654500D01*
X147433243Y-96654500D01*
X147433245Y-96654500D01*
X147523406Y-96630341D01*
X147525158Y-96629329D01*
X147528163Y-96627595D01*
X147538598Y-96625063D01*
X169330500Y-96625063D01*
X169345266Y-96699301D01*
X169401515Y-96783484D01*
X169434085Y-96805246D01*
X169485699Y-96839734D01*
X169485702Y-96839734D01*
X169485703Y-96839735D01*
X169510666Y-96844700D01*
X169559933Y-96854500D01*
X170230954Y-96854499D01*
X170297993Y-96874183D01*
X170343748Y-96926987D01*
X170345515Y-96931046D01*
X170365643Y-96979640D01*
X170365645Y-96979644D01*
X170454525Y-97095473D01*
X170454526Y-97095474D01*
X170570355Y-97184354D01*
X170570361Y-97184357D01*
X170637801Y-97212291D01*
X170705246Y-97240228D01*
X170777623Y-97249756D01*
X170849999Y-97259285D01*
X170850000Y-97259285D01*
X170850001Y-97259285D01*
X170898251Y-97252932D01*
X170994754Y-97240228D01*
X171129643Y-97184355D01*
X171245474Y-97095474D01*
X171334355Y-96979643D01*
X171354483Y-96931046D01*
X171398322Y-96876644D01*
X171464615Y-96854578D01*
X171468993Y-96854499D01*
X172140066Y-96854499D01*
X172214301Y-96839734D01*
X172298484Y-96783484D01*
X172354734Y-96699301D01*
X172369500Y-96625067D01*
X172369499Y-95874934D01*
X172354734Y-95800699D01*
X172333480Y-95768891D01*
X172298484Y-95716515D01*
X172233375Y-95673011D01*
X172214301Y-95660266D01*
X172214299Y-95660265D01*
X172214296Y-95660264D01*
X172140071Y-95645500D01*
X172140067Y-95645500D01*
X171958308Y-95645500D01*
X171891269Y-95625815D01*
X171870627Y-95609181D01*
X171499127Y-95237681D01*
X171465642Y-95176358D01*
X171467527Y-95150000D01*
X172118553Y-95150000D01*
X172368998Y-95400446D01*
X172368999Y-95400445D01*
X172368999Y-94899554D01*
X172368998Y-94899553D01*
X172118553Y-95149999D01*
X172118553Y-95150000D01*
X171467527Y-95150000D01*
X171470626Y-95106666D01*
X171499127Y-95062319D01*
X171765000Y-94796447D01*
X172015446Y-94546000D01*
X171469252Y-94546000D01*
X171402213Y-94526315D01*
X171356458Y-94473511D01*
X171354691Y-94469452D01*
X171334357Y-94420362D01*
X171334357Y-94420361D01*
X171306730Y-94384357D01*
X171245474Y-94304526D01*
X171129643Y-94215645D01*
X171129640Y-94215644D01*
X171129638Y-94215642D01*
X170994757Y-94159773D01*
X170994752Y-94159771D01*
X170850001Y-94140715D01*
X170849999Y-94140715D01*
X170705247Y-94159771D01*
X170705245Y-94159772D01*
X170570361Y-94215643D01*
X170570358Y-94215644D01*
X170570358Y-94215645D01*
X170520817Y-94253659D01*
X170454526Y-94304526D01*
X170365642Y-94420361D01*
X170365641Y-94420364D01*
X170345514Y-94468954D01*
X170301673Y-94523357D01*
X170235378Y-94545421D01*
X170230954Y-94545500D01*
X169559936Y-94545500D01*
X169485698Y-94560266D01*
X169401515Y-94616515D01*
X169345266Y-94700699D01*
X169345264Y-94700703D01*
X169330500Y-94774928D01*
X169330500Y-95525063D01*
X169342293Y-95584355D01*
X169345266Y-95599301D01*
X169363209Y-95626155D01*
X169366520Y-95631109D01*
X169387398Y-95697786D01*
X169368914Y-95765166D01*
X169366520Y-95768891D01*
X169345265Y-95800699D01*
X169345264Y-95800703D01*
X169330500Y-95874928D01*
X169330500Y-96625063D01*
X147538598Y-96625063D01*
X147596063Y-96611120D01*
X147614353Y-96613362D01*
X147615343Y-96613559D01*
X147615344Y-96613558D01*
X147615345Y-96613559D01*
X147681543Y-96600391D01*
X147714644Y-96593807D01*
X147777577Y-96551757D01*
X148767620Y-95561713D01*
X148809671Y-95498780D01*
X148819375Y-95449998D01*
X148829423Y-95399481D01*
X148829423Y-95399476D01*
X148809672Y-95300180D01*
X148767619Y-95237243D01*
X148767618Y-95237242D01*
X148449333Y-94918958D01*
X148449325Y-94918951D01*
X148385117Y-94876048D01*
X148350907Y-94841838D01*
X148308002Y-94777627D01*
X148307999Y-94777623D01*
X147989714Y-94459339D01*
X147989706Y-94459332D01*
X147925498Y-94416429D01*
X147891288Y-94382219D01*
X147848383Y-94318008D01*
X147848380Y-94318004D01*
X147530095Y-93999720D01*
X147530091Y-93999717D01*
X147465876Y-93956808D01*
X147431667Y-93922598D01*
X147388763Y-93858387D01*
X147388760Y-93858384D01*
X147070475Y-93540100D01*
X147070467Y-93540093D01*
X147006259Y-93497190D01*
X146972049Y-93462980D01*
X146929144Y-93398769D01*
X146929141Y-93398765D01*
X146610856Y-93080481D01*
X146610852Y-93080478D01*
X146546637Y-93037569D01*
X146512428Y-93003359D01*
X146469524Y-92939148D01*
X146469521Y-92939145D01*
X146151236Y-92620861D01*
X146151228Y-92620854D01*
X146087020Y-92577951D01*
X146052810Y-92543741D01*
X146009905Y-92479530D01*
X146009902Y-92479526D01*
X145691617Y-92161242D01*
X145691613Y-92161239D01*
X145627398Y-92118330D01*
X145593189Y-92084120D01*
X145550285Y-92019909D01*
X145550282Y-92019906D01*
X145231997Y-91701622D01*
X145231989Y-91701615D01*
X145167781Y-91658712D01*
X145133571Y-91624502D01*
X145090666Y-91560291D01*
X145090663Y-91560287D01*
X144772378Y-91242003D01*
X144772370Y-91241996D01*
X144708162Y-91199093D01*
X144673952Y-91164883D01*
X144631047Y-91100672D01*
X144631044Y-91100668D01*
X144312759Y-90782384D01*
X144312751Y-90782377D01*
X144249822Y-90740328D01*
X144249820Y-90740327D01*
X144150523Y-90720577D01*
X144150519Y-90720577D01*
X144051220Y-90740328D01*
X144051219Y-90740328D01*
X143988284Y-90782380D01*
X143988281Y-90782383D01*
X142998246Y-91772419D01*
X142998243Y-91772422D01*
X142956192Y-91835357D01*
X142956191Y-91835358D01*
X142936441Y-91934654D01*
X142936441Y-91934659D01*
X142956191Y-92033955D01*
X142998244Y-92096892D01*
X142998245Y-92096893D01*
X143287325Y-92385972D01*
X143320810Y-92447295D01*
X143315826Y-92516986D01*
X143287325Y-92561334D01*
X142544264Y-93304396D01*
X142482941Y-93337881D01*
X142456583Y-93340715D01*
X142449999Y-93340715D01*
X142305247Y-93359771D01*
X142305245Y-93359772D01*
X142170361Y-93415643D01*
X142170358Y-93415644D01*
X142170358Y-93415645D01*
X142054526Y-93504526D01*
X141993412Y-93584172D01*
X141965643Y-93620361D01*
X141909772Y-93755245D01*
X141909771Y-93755247D01*
X141890715Y-93899998D01*
X141890715Y-93899999D01*
X141909771Y-94044752D01*
X141909773Y-94044757D01*
X141965642Y-94179638D01*
X141965645Y-94179644D01*
X142054525Y-94295473D01*
X142054526Y-94295474D01*
X142170355Y-94384354D01*
X142170361Y-94384357D01*
X142235297Y-94411254D01*
X142305246Y-94440228D01*
X142377623Y-94449756D01*
X142449999Y-94459285D01*
X142450000Y-94459285D01*
X142450001Y-94459285D01*
X142498251Y-94452932D01*
X142594754Y-94440228D01*
X142729643Y-94384355D01*
X142845474Y-94295474D01*
X142934355Y-94179643D01*
X142960149Y-94117370D01*
X143003988Y-94062970D01*
X143070282Y-94040904D01*
X143137981Y-94058183D01*
X143173084Y-94089338D01*
X143254525Y-94195473D01*
X143254526Y-94195474D01*
X143370355Y-94284354D01*
X143370361Y-94284357D01*
X143419049Y-94304524D01*
X143505246Y-94340228D01*
X143577623Y-94349756D01*
X143649999Y-94359285D01*
X143650000Y-94359285D01*
X143650001Y-94359285D01*
X143698251Y-94352932D01*
X143794754Y-94340228D01*
X143929643Y-94284355D01*
X144045474Y-94195474D01*
X144134355Y-94079643D01*
X144190228Y-93944754D01*
X144204534Y-93836091D01*
X144209285Y-93800001D01*
X144209285Y-93793415D01*
X144228970Y-93726376D01*
X144245604Y-93705734D01*
X144338665Y-93612673D01*
X144399988Y-93579188D01*
X144469680Y-93584172D01*
X144514027Y-93612673D01*
X144695394Y-93794040D01*
X144758326Y-93836091D01*
X144758328Y-93836091D01*
X144759604Y-93836944D01*
X144793816Y-93871156D01*
X144794669Y-93872433D01*
X144794670Y-93872435D01*
X144821376Y-93912404D01*
X144836721Y-93935369D01*
X144836722Y-93935370D01*
X145155007Y-94253654D01*
X145155011Y-94253657D01*
X145155013Y-94253659D01*
X145217945Y-94295710D01*
X145217946Y-94295710D01*
X145219224Y-94296564D01*
X145253436Y-94330776D01*
X145254289Y-94332053D01*
X145254290Y-94332055D01*
X145272485Y-94359285D01*
X145279757Y-94370169D01*
X145300634Y-94436847D01*
X145282149Y-94504227D01*
X145230169Y-94550916D01*
X145208750Y-94558833D01*
X145205248Y-94559771D01*
X145070361Y-94615643D01*
X145070358Y-94615644D01*
X145070358Y-94615645D01*
X144954526Y-94704526D01*
X144891671Y-94786441D01*
X144865643Y-94820361D01*
X144824901Y-94918720D01*
X144781059Y-94973124D01*
X144714765Y-94995188D01*
X144647066Y-94977908D01*
X144634856Y-94969645D01*
X144629642Y-94965644D01*
X144629638Y-94965642D01*
X144494757Y-94909773D01*
X144494752Y-94909771D01*
X144350001Y-94890715D01*
X144349999Y-94890715D01*
X144205247Y-94909771D01*
X144205245Y-94909772D01*
X144070361Y-94965643D01*
X144070358Y-94965644D01*
X144070358Y-94965645D01*
X143954526Y-95054526D01*
X143866347Y-95169444D01*
X143865643Y-95170361D01*
X143809772Y-95305245D01*
X143809771Y-95305247D01*
X143790715Y-95449998D01*
X143790715Y-95450001D01*
X143810833Y-95602812D01*
X143808009Y-95603183D01*
X143806682Y-95659242D01*
X143767526Y-95717109D01*
X143703301Y-95744621D01*
X143688565Y-95745500D01*
X142628500Y-95745500D01*
X142561461Y-95725815D01*
X142515706Y-95673011D01*
X142504500Y-95621500D01*
X142504500Y-95320054D01*
X142503860Y-95317667D01*
X142503855Y-95317649D01*
X142488349Y-95259782D01*
X142480341Y-95229894D01*
X142480340Y-95229893D01*
X142480340Y-95229891D01*
X142472114Y-95215644D01*
X142472112Y-95215642D01*
X142433671Y-95149058D01*
X142367668Y-95083055D01*
X142367667Y-95083054D01*
X142363337Y-95078724D01*
X142363326Y-95078714D01*
X141115023Y-93830410D01*
X141081538Y-93769087D01*
X141086522Y-93699395D01*
X141099596Y-93673848D01*
X141125089Y-93635697D01*
X141125090Y-93635693D01*
X141144841Y-93536398D01*
X141144841Y-93536393D01*
X141125089Y-93437095D01*
X141125089Y-93437094D01*
X141083037Y-93374159D01*
X141083034Y-93374156D01*
X140375841Y-92666964D01*
X140375838Y-92666961D01*
X140328744Y-92635494D01*
X140312905Y-92624911D01*
X140312904Y-92624910D01*
X140312903Y-92624910D01*
X140312902Y-92624909D01*
X140213606Y-92605159D01*
X140213602Y-92605159D01*
X140114303Y-92624910D01*
X140114302Y-92624910D01*
X140051367Y-92666962D01*
X140051364Y-92666965D01*
X139450238Y-93268092D01*
X139450235Y-93268095D01*
X139408184Y-93331030D01*
X139408183Y-93331031D01*
X139388433Y-93430327D01*
X139388433Y-93430332D01*
X139408184Y-93529630D01*
X139408184Y-93529631D01*
X139450236Y-93592566D01*
X139450239Y-93592569D01*
X140157432Y-94299761D01*
X140157435Y-94299764D01*
X140178644Y-94313935D01*
X140220369Y-94341815D01*
X140220370Y-94341815D01*
X140220371Y-94341816D01*
X140319668Y-94361567D01*
X140319670Y-94361567D01*
X140319672Y-94361567D01*
X140385870Y-94348399D01*
X140418971Y-94341815D01*
X140457114Y-94316329D01*
X140523791Y-94295451D01*
X140591171Y-94313935D01*
X140613686Y-94331750D01*
X141742362Y-95460426D01*
X141775847Y-95521749D01*
X141770863Y-95591441D01*
X141730169Y-95646482D01*
X141660424Y-95700000D01*
X141654526Y-95704526D01*
X141601077Y-95774183D01*
X141565643Y-95820361D01*
X141535134Y-95894016D01*
X141491292Y-95948420D01*
X141424998Y-95970484D01*
X141357299Y-95953204D01*
X141332892Y-95934244D01*
X141166133Y-95767486D01*
X141166125Y-95767479D01*
X141101917Y-95724576D01*
X141067707Y-95690366D01*
X141024802Y-95626155D01*
X141024799Y-95626151D01*
X140706514Y-95307867D01*
X140706506Y-95307860D01*
X140642298Y-95264957D01*
X140608088Y-95230747D01*
X140565183Y-95166536D01*
X140565180Y-95166532D01*
X140246895Y-94848248D01*
X140246887Y-94848241D01*
X140183958Y-94806192D01*
X140183956Y-94806191D01*
X140084659Y-94786441D01*
X140084655Y-94786441D01*
X139985356Y-94806192D01*
X139985355Y-94806192D01*
X139922420Y-94848244D01*
X139922417Y-94848247D01*
X138932382Y-95838283D01*
X138932379Y-95838286D01*
X138890328Y-95901221D01*
X138890327Y-95901222D01*
X138870577Y-96000518D01*
X138870577Y-96000523D01*
X118369499Y-96000523D01*
X118369499Y-95874934D01*
X118354734Y-95800699D01*
X118333479Y-95768890D01*
X118312602Y-95702214D01*
X118331086Y-95634834D01*
X118333480Y-95631109D01*
X118354734Y-95599301D01*
X118369500Y-95525067D01*
X118369499Y-94774934D01*
X118354734Y-94700699D01*
X118336068Y-94672765D01*
X118298484Y-94616515D01*
X118248019Y-94582796D01*
X118214301Y-94560266D01*
X118214299Y-94560265D01*
X118214296Y-94560264D01*
X118140071Y-94545500D01*
X118140067Y-94545500D01*
X117524020Y-94545500D01*
X117456981Y-94525815D01*
X117411226Y-94473011D01*
X117401081Y-94437685D01*
X117398800Y-94420362D01*
X117390228Y-94355246D01*
X117334355Y-94220358D01*
X117245474Y-94104526D01*
X117129643Y-94015645D01*
X117129640Y-94015644D01*
X117129638Y-94015642D01*
X116994757Y-93959773D01*
X116994752Y-93959771D01*
X116850001Y-93940715D01*
X116849999Y-93940715D01*
X116705247Y-93959771D01*
X116705245Y-93959772D01*
X116570361Y-94015643D01*
X116570358Y-94015644D01*
X116570358Y-94015645D01*
X116454526Y-94104526D01*
X116369262Y-94215645D01*
X116365643Y-94220361D01*
X116309772Y-94355245D01*
X116309772Y-94355247D01*
X116298918Y-94437686D01*
X116270651Y-94501583D01*
X116212326Y-94540053D01*
X116175979Y-94545500D01*
X115559936Y-94545500D01*
X115485698Y-94560266D01*
X115401515Y-94616515D01*
X115345266Y-94700699D01*
X115345264Y-94700703D01*
X115330500Y-94774928D01*
X115330500Y-95525063D01*
X114105583Y-95525063D01*
X114113090Y-94836950D01*
X114113219Y-94832521D01*
X114164117Y-93756562D01*
X114164410Y-93752082D01*
X114174166Y-93635697D01*
X114254393Y-92678622D01*
X114254850Y-92674164D01*
X114304351Y-92263606D01*
X140555668Y-92263606D01*
X140575380Y-92362708D01*
X140575381Y-92362709D01*
X140617349Y-92425518D01*
X140617352Y-92425522D01*
X141324478Y-93132646D01*
X141324486Y-93132652D01*
X141387288Y-93174617D01*
X141486395Y-93194332D01*
X141486398Y-93194332D01*
X141585500Y-93174619D01*
X141585502Y-93174618D01*
X141648308Y-93132651D01*
X141772066Y-93008892D01*
X141433363Y-92670190D01*
X141079811Y-92316638D01*
X141786916Y-92316638D01*
X142125618Y-92655340D01*
X142249377Y-92531581D01*
X142249378Y-92531579D01*
X142291343Y-92468777D01*
X142311058Y-92369670D01*
X142311058Y-92369667D01*
X142291345Y-92270565D01*
X142291344Y-92270564D01*
X142249378Y-92207757D01*
X142249375Y-92207754D01*
X142072586Y-92030966D01*
X142072585Y-92030966D01*
X141786916Y-92316636D01*
X141786916Y-92316638D01*
X141079811Y-92316638D01*
X140741106Y-91977933D01*
X140617348Y-92101691D01*
X140575382Y-92164496D01*
X140555668Y-92263603D01*
X140555668Y-92263606D01*
X114304351Y-92263606D01*
X114381423Y-91624380D01*
X141094659Y-91624380D01*
X141433363Y-91963084D01*
X141433364Y-91963084D01*
X141719033Y-91677413D01*
X141719033Y-91677412D01*
X141542247Y-91500627D01*
X141542239Y-91500621D01*
X141479437Y-91458656D01*
X141380331Y-91438942D01*
X141380328Y-91438942D01*
X141281225Y-91458654D01*
X141281224Y-91458655D01*
X141218416Y-91500622D01*
X141094659Y-91624380D01*
X114381423Y-91624380D01*
X114383793Y-91604722D01*
X114384399Y-91600370D01*
X114552136Y-90536305D01*
X114552916Y-90531882D01*
X114759230Y-89474593D01*
X114760153Y-89470284D01*
X115004766Y-88421198D01*
X115005868Y-88416836D01*
X115288429Y-87377437D01*
X115289690Y-87373109D01*
X115609879Y-86344571D01*
X115611257Y-86340412D01*
X115968648Y-85324130D01*
X115970178Y-85320019D01*
X116364267Y-84317431D01*
X116365958Y-84313349D01*
X116796216Y-83325787D01*
X116798061Y-83321754D01*
X117136259Y-82616669D01*
X118881007Y-82616669D01*
X119342092Y-82882875D01*
X119390307Y-82933442D01*
X119403531Y-83002049D01*
X119403031Y-83006447D01*
X119390715Y-83099998D01*
X119390715Y-83100001D01*
X119409771Y-83244752D01*
X119409773Y-83244757D01*
X119465642Y-83379638D01*
X119465645Y-83379644D01*
X119554525Y-83495473D01*
X119554526Y-83495474D01*
X119670355Y-83584354D01*
X119670361Y-83584357D01*
X119737801Y-83612291D01*
X119805246Y-83640228D01*
X119877623Y-83649756D01*
X119949999Y-83659285D01*
X119950000Y-83659285D01*
X119950001Y-83659285D01*
X119998251Y-83652932D01*
X120094754Y-83640228D01*
X120229643Y-83584355D01*
X120304072Y-83527242D01*
X120369238Y-83502049D01*
X120437683Y-83516087D01*
X120441557Y-83518232D01*
X120960405Y-83817787D01*
X121007294Y-83844858D01*
X121078966Y-83869189D01*
X121179996Y-83862567D01*
X121270801Y-83817787D01*
X121320706Y-83760882D01*
X121695771Y-83111247D01*
X121720102Y-83039575D01*
X121717600Y-83001399D01*
X121732857Y-82933218D01*
X121782555Y-82884107D01*
X121786478Y-82882084D01*
X121820801Y-82865159D01*
X121870706Y-82808254D01*
X122245771Y-82158619D01*
X122270101Y-82086949D01*
X165429898Y-82086949D01*
X165454226Y-82158616D01*
X165454229Y-82158623D01*
X165829292Y-82808249D01*
X165879199Y-82865159D01*
X165913509Y-82882079D01*
X165964929Y-82929385D01*
X165982610Y-82996980D01*
X165982400Y-83001399D01*
X165979898Y-83039576D01*
X166004226Y-83111244D01*
X166004229Y-83111251D01*
X166379292Y-83760877D01*
X166394077Y-83777737D01*
X166429199Y-83817787D01*
X166520004Y-83862567D01*
X166621034Y-83869189D01*
X166692705Y-83844860D01*
X167332810Y-83475293D01*
X167400707Y-83458821D01*
X167463226Y-83480458D01*
X167463322Y-83480293D01*
X167464182Y-83480790D01*
X167466734Y-83481673D01*
X167470273Y-83484290D01*
X167470357Y-83484355D01*
X167470360Y-83484356D01*
X167470361Y-83484357D01*
X167513074Y-83502049D01*
X167605246Y-83540228D01*
X167677623Y-83549756D01*
X167749999Y-83559285D01*
X167750000Y-83559285D01*
X167750001Y-83559285D01*
X167798251Y-83552932D01*
X167894754Y-83540228D01*
X168029643Y-83484355D01*
X168145474Y-83395474D01*
X168234355Y-83279643D01*
X168290228Y-83144754D01*
X168309285Y-83000000D01*
X168309275Y-82999926D01*
X168309285Y-82999864D01*
X168309285Y-82991873D01*
X168310531Y-82991873D01*
X168320036Y-82930893D01*
X168366412Y-82878634D01*
X168370160Y-82876379D01*
X168830262Y-82610738D01*
X168927162Y-82554794D01*
X168927162Y-82554793D01*
X168927165Y-82554792D01*
X168984072Y-82504888D01*
X169028852Y-82414083D01*
X169035474Y-82313053D01*
X169011145Y-82241382D01*
X168963364Y-82158623D01*
X168636079Y-81591750D01*
X168625462Y-81579643D01*
X168586173Y-81534841D01*
X168495368Y-81490061D01*
X168394338Y-81483439D01*
X168394337Y-81483439D01*
X168394335Y-81483439D01*
X168322668Y-81507767D01*
X168165258Y-81598647D01*
X168097358Y-81615119D01*
X168071166Y-81611034D01*
X167563688Y-81475056D01*
X167504027Y-81438691D01*
X167473498Y-81375844D01*
X167476006Y-81323187D01*
X167538647Y-81089408D01*
X168056285Y-81089408D01*
X168398400Y-81181078D01*
X168147954Y-80747294D01*
X168147953Y-80747294D01*
X168056285Y-81089408D01*
X167538647Y-81089408D01*
X167573322Y-80960000D01*
X167664991Y-80617883D01*
X167227120Y-80870689D01*
X167159220Y-80887162D01*
X167093193Y-80864309D01*
X167089656Y-80861695D01*
X167029643Y-80815645D01*
X167029640Y-80815644D01*
X167029638Y-80815642D01*
X166894757Y-80759773D01*
X166894752Y-80759771D01*
X166750001Y-80740715D01*
X166749999Y-80740715D01*
X166605247Y-80759771D01*
X166605245Y-80759772D01*
X166470361Y-80815643D01*
X166470358Y-80815644D01*
X166470358Y-80815645D01*
X166354526Y-80904526D01*
X166281266Y-81000001D01*
X166265643Y-81020361D01*
X166209772Y-81155245D01*
X166209771Y-81155247D01*
X166190715Y-81299998D01*
X166190715Y-81300001D01*
X166200514Y-81374433D01*
X166189748Y-81443468D01*
X166143368Y-81495724D01*
X166139575Y-81498005D01*
X165538210Y-81845205D01*
X165481300Y-81895112D01*
X165436520Y-81985916D01*
X165429898Y-82086949D01*
X122270101Y-82086949D01*
X122270102Y-82086947D01*
X122263480Y-81985917D01*
X122247387Y-81953284D01*
X122218702Y-81895116D01*
X122218700Y-81895112D01*
X122189860Y-81869820D01*
X122161795Y-81845207D01*
X122161792Y-81845205D01*
X121560424Y-81498006D01*
X121512208Y-81447439D01*
X121498985Y-81378832D01*
X121499479Y-81374478D01*
X121509285Y-81300000D01*
X121507804Y-81288753D01*
X121490228Y-81155247D01*
X121490228Y-81155246D01*
X121434355Y-81020358D01*
X121345474Y-80904526D01*
X121229643Y-80815645D01*
X121229640Y-80815644D01*
X121229638Y-80815642D01*
X121094757Y-80759773D01*
X121094752Y-80759771D01*
X120950001Y-80740715D01*
X120949999Y-80740715D01*
X120805247Y-80759771D01*
X120805245Y-80759772D01*
X120670360Y-80815643D01*
X120670357Y-80815645D01*
X120610796Y-80861348D01*
X120545627Y-80886542D01*
X120477182Y-80872503D01*
X120473310Y-80870359D01*
X119927335Y-80555142D01*
X119855663Y-80530811D01*
X119855662Y-80530811D01*
X119830404Y-80532466D01*
X119754629Y-80537433D01*
X119663831Y-80582210D01*
X119663827Y-80582212D01*
X119613920Y-80639120D01*
X119238857Y-81288751D01*
X119214526Y-81360423D01*
X119214526Y-81360424D01*
X119214526Y-81360425D01*
X119216393Y-81388909D01*
X119221148Y-81461457D01*
X119265925Y-81552255D01*
X119265927Y-81552259D01*
X119265928Y-81552260D01*
X119322833Y-81602165D01*
X119480241Y-81693044D01*
X119528454Y-81743608D01*
X119538014Y-81768336D01*
X119587570Y-81953284D01*
X119587572Y-81953287D01*
X119673993Y-82275816D01*
X119672330Y-82345665D01*
X119633167Y-82403528D01*
X119586312Y-82427684D01*
X118881007Y-82616669D01*
X117136259Y-82616669D01*
X117263955Y-82350446D01*
X117265930Y-82346515D01*
X117377697Y-82133705D01*
X118751599Y-82133705D01*
X119093713Y-82042036D01*
X119002043Y-81699921D01*
X118751599Y-82133705D01*
X117377697Y-82133705D01*
X117766816Y-81392803D01*
X117768921Y-81388966D01*
X118304151Y-80454086D01*
X118306458Y-80450223D01*
X118308179Y-80447456D01*
X118462056Y-80200001D01*
X141390715Y-80200001D01*
X141409771Y-80344752D01*
X141409773Y-80344757D01*
X141465642Y-80479638D01*
X141465645Y-80479644D01*
X141554525Y-80595473D01*
X141554526Y-80595474D01*
X141670355Y-80684354D01*
X141670361Y-80684357D01*
X141737801Y-80712291D01*
X141805246Y-80740228D01*
X141858918Y-80747294D01*
X141949999Y-80759285D01*
X141956585Y-80759285D01*
X142023624Y-80778970D01*
X142044266Y-80795604D01*
X142061988Y-80813326D01*
X142061998Y-80813337D01*
X142132333Y-80883672D01*
X142168451Y-80904524D01*
X142213168Y-80930341D01*
X142303329Y-80954500D01*
X153175980Y-80954500D01*
X153243019Y-80974185D01*
X153288774Y-81026989D01*
X153298919Y-81062315D01*
X153309771Y-81144752D01*
X153309773Y-81144757D01*
X153365642Y-81279638D01*
X153365645Y-81279644D01*
X153454525Y-81395473D01*
X153454526Y-81395474D01*
X153570355Y-81484354D01*
X153570361Y-81484357D01*
X153584132Y-81490061D01*
X153705246Y-81540228D01*
X153777623Y-81549756D01*
X153849999Y-81559285D01*
X153850000Y-81559285D01*
X153850001Y-81559285D01*
X153903399Y-81552255D01*
X153994754Y-81540228D01*
X154129643Y-81484355D01*
X154245474Y-81395474D01*
X154334355Y-81279643D01*
X154390228Y-81144754D01*
X154405732Y-81026989D01*
X154409285Y-81000001D01*
X154409285Y-80999998D01*
X154390228Y-80855247D01*
X154390228Y-80855246D01*
X154334355Y-80720358D01*
X154245474Y-80604526D01*
X154129643Y-80515645D01*
X154129640Y-80515644D01*
X154129638Y-80515642D01*
X153994757Y-80459773D01*
X153994752Y-80459771D01*
X153850001Y-80440715D01*
X153843416Y-80440715D01*
X153776377Y-80421030D01*
X153755735Y-80404396D01*
X153667669Y-80316330D01*
X153667668Y-80316329D01*
X153586832Y-80269659D01*
X153586833Y-80269659D01*
X153556778Y-80261606D01*
X153496671Y-80245500D01*
X153496669Y-80245500D01*
X142624020Y-80245500D01*
X142556981Y-80225815D01*
X142511226Y-80173011D01*
X142501081Y-80137685D01*
X142490228Y-80055247D01*
X142490228Y-80055246D01*
X142434355Y-79920358D01*
X142345474Y-79804526D01*
X142229643Y-79715645D01*
X142229640Y-79715644D01*
X142229638Y-79715642D01*
X142094757Y-79659773D01*
X142094752Y-79659771D01*
X141950001Y-79640715D01*
X141949999Y-79640715D01*
X141805247Y-79659771D01*
X141805245Y-79659772D01*
X141670361Y-79715643D01*
X141554526Y-79804526D01*
X141465643Y-79920361D01*
X141409772Y-80055245D01*
X141409771Y-80055247D01*
X141390715Y-80199998D01*
X141390715Y-80200001D01*
X118462056Y-80200001D01*
X118875268Y-79535501D01*
X118877711Y-79531729D01*
X119479418Y-78638260D01*
X119481969Y-78634617D01*
X120115770Y-77763597D01*
X120118433Y-77760072D01*
X120783525Y-76912612D01*
X120786290Y-76909218D01*
X121481737Y-76086510D01*
X121484681Y-76083155D01*
X122209529Y-75286323D01*
X122212550Y-75283121D01*
X122965927Y-74513126D01*
X122969106Y-74509994D01*
X123749961Y-73767910D01*
X123753184Y-73764957D01*
X124560526Y-73051727D01*
X124563884Y-73048866D01*
X125396618Y-72365459D01*
X125400064Y-72362734D01*
X126027360Y-71885007D01*
X128767883Y-71885007D01*
X129020689Y-72322879D01*
X129037162Y-72390779D01*
X129014309Y-72456806D01*
X129011679Y-72460364D01*
X128965644Y-72520358D01*
X128965643Y-72520360D01*
X128909772Y-72655245D01*
X128909771Y-72655247D01*
X128890715Y-72799998D01*
X128890715Y-72800001D01*
X128909771Y-72944752D01*
X128909773Y-72944757D01*
X128965642Y-73079638D01*
X128965645Y-73079644D01*
X129054525Y-73195473D01*
X129054526Y-73195474D01*
X129170355Y-73284354D01*
X129170361Y-73284357D01*
X129237801Y-73312291D01*
X129305246Y-73340228D01*
X129371763Y-73348985D01*
X129449999Y-73359285D01*
X129449999Y-73359284D01*
X129450000Y-73359285D01*
X129524435Y-73349485D01*
X129593467Y-73360250D01*
X129645723Y-73406630D01*
X129648005Y-73410424D01*
X129995205Y-74011789D01*
X129995207Y-74011791D01*
X129995208Y-74011793D01*
X130045112Y-74068700D01*
X130135917Y-74113480D01*
X130236947Y-74120102D01*
X130308618Y-74095773D01*
X130501606Y-73984350D01*
X130958249Y-73720707D01*
X130958249Y-73720706D01*
X130958252Y-73720705D01*
X131015159Y-73670801D01*
X131032079Y-73636491D01*
X131079384Y-73585071D01*
X131146979Y-73567389D01*
X131151401Y-73567600D01*
X131189575Y-73570102D01*
X131261246Y-73545773D01*
X131579272Y-73362160D01*
X131910877Y-73170707D01*
X131910877Y-73170706D01*
X131910880Y-73170705D01*
X131967787Y-73120801D01*
X132012567Y-73029996D01*
X132019189Y-72928966D01*
X132019188Y-72928964D01*
X155680811Y-72928964D01*
X155687433Y-73029998D01*
X155732210Y-73120796D01*
X155732212Y-73120800D01*
X155732213Y-73120801D01*
X155789118Y-73170706D01*
X156438753Y-73545771D01*
X156510425Y-73570102D01*
X156548597Y-73567600D01*
X156616781Y-73582857D01*
X156665892Y-73632555D01*
X156667920Y-73636490D01*
X156684839Y-73670798D01*
X156684840Y-73670800D01*
X156684841Y-73670801D01*
X156741746Y-73720706D01*
X156741748Y-73720707D01*
X157344490Y-74068699D01*
X157391381Y-74095771D01*
X157463053Y-74120102D01*
X157564083Y-74113480D01*
X157654888Y-74068700D01*
X157704793Y-74011795D01*
X158051994Y-73410422D01*
X158102559Y-73362209D01*
X158171166Y-73348985D01*
X158175533Y-73349481D01*
X158250000Y-73359285D01*
X158250001Y-73359285D01*
X158328237Y-73348985D01*
X158394754Y-73340228D01*
X158529643Y-73284355D01*
X158645474Y-73195474D01*
X158734355Y-73079643D01*
X158790228Y-72944754D01*
X158809285Y-72800000D01*
X158790228Y-72655246D01*
X158734355Y-72520358D01*
X158688651Y-72460795D01*
X158663457Y-72395626D01*
X158677495Y-72327181D01*
X158679626Y-72323332D01*
X158994858Y-71777334D01*
X159019189Y-71705662D01*
X159012567Y-71604632D01*
X158967787Y-71513827D01*
X158910882Y-71463922D01*
X158910879Y-71463920D01*
X158261248Y-71088857D01*
X158189576Y-71064526D01*
X158189575Y-71064526D01*
X158164317Y-71066181D01*
X158088542Y-71071148D01*
X157997744Y-71115925D01*
X157997740Y-71115927D01*
X157947833Y-71172835D01*
X157856956Y-71330239D01*
X157806389Y-71378455D01*
X157781663Y-71388014D01*
X157568220Y-71445206D01*
X157568218Y-71445207D01*
X157274183Y-71523993D01*
X157204334Y-71522330D01*
X157146471Y-71483167D01*
X157122315Y-71436312D01*
X156933328Y-70731008D01*
X156674187Y-71179856D01*
X156623620Y-71228072D01*
X156558127Y-71240694D01*
X156558127Y-71240715D01*
X156558022Y-71240715D01*
X156555013Y-71241295D01*
X156550626Y-71240797D01*
X156550003Y-71240715D01*
X156549998Y-71240715D01*
X156405247Y-71259771D01*
X156405245Y-71259772D01*
X156270361Y-71315643D01*
X156270358Y-71315644D01*
X156270358Y-71315645D01*
X156154526Y-71404526D01*
X156070654Y-71513831D01*
X156065643Y-71520361D01*
X156009772Y-71655245D01*
X156009771Y-71655247D01*
X155990715Y-71799998D01*
X155990715Y-71800001D01*
X156009771Y-71944752D01*
X156009773Y-71944757D01*
X156065642Y-72079638D01*
X156065646Y-72079645D01*
X156065696Y-72079710D01*
X156065720Y-72079774D01*
X156069707Y-72086678D01*
X156068629Y-72087299D01*
X156090887Y-72144880D01*
X156076845Y-72213324D01*
X156074703Y-72217191D01*
X155705142Y-72857292D01*
X155680811Y-72928964D01*
X132019188Y-72928964D01*
X131994860Y-72857295D01*
X131994857Y-72857289D01*
X131619794Y-72207663D01*
X131609936Y-72196422D01*
X131569888Y-72150754D01*
X131479083Y-72105974D01*
X131378053Y-72099352D01*
X131378052Y-72099352D01*
X131378050Y-72099352D01*
X131306383Y-72123680D01*
X131241525Y-72161126D01*
X131173625Y-72177598D01*
X131107598Y-72154745D01*
X131091845Y-72141419D01*
X130966756Y-72016330D01*
X130966755Y-72016329D01*
X130885919Y-71969659D01*
X130885920Y-71969659D01*
X130864848Y-71964013D01*
X130812693Y-71950037D01*
X130753035Y-71913674D01*
X130746417Y-71905755D01*
X130745474Y-71904526D01*
X130745472Y-71904524D01*
X130740521Y-71898071D01*
X130742778Y-71896338D01*
X130715898Y-71847111D01*
X130720882Y-71777419D01*
X130762754Y-71721486D01*
X130775057Y-71713370D01*
X130995880Y-71585879D01*
X131052787Y-71535975D01*
X131097567Y-71445170D01*
X131104189Y-71344140D01*
X131079860Y-71272469D01*
X131079857Y-71272463D01*
X130704794Y-70622837D01*
X130686169Y-70601599D01*
X157416293Y-70601599D01*
X157507962Y-70943713D01*
X157850077Y-70852043D01*
X157416293Y-70601599D01*
X130686169Y-70601599D01*
X130654888Y-70565928D01*
X130564083Y-70521148D01*
X130463053Y-70514526D01*
X130463052Y-70514526D01*
X130463050Y-70514526D01*
X130391383Y-70538854D01*
X130391376Y-70538857D01*
X129741750Y-70913920D01*
X129684841Y-70963827D01*
X129640061Y-71054631D01*
X129633439Y-71155664D01*
X129657767Y-71227331D01*
X129657768Y-71227334D01*
X129748646Y-71384739D01*
X129765119Y-71452639D01*
X129761034Y-71478832D01*
X129625056Y-71986311D01*
X129588691Y-72045972D01*
X129525844Y-72076501D01*
X129473187Y-72073993D01*
X129150659Y-71987572D01*
X129150655Y-71987570D01*
X128767883Y-71885007D01*
X126027360Y-71885007D01*
X126257100Y-71710045D01*
X126260648Y-71707444D01*
X126693445Y-71402045D01*
X128897294Y-71402045D01*
X129239408Y-71493713D01*
X129331078Y-71151598D01*
X128897294Y-71402044D01*
X128897294Y-71402045D01*
X126693445Y-71402045D01*
X127140798Y-71086374D01*
X127144517Y-71083851D01*
X127163985Y-71071148D01*
X128046661Y-70495189D01*
X128050417Y-70492835D01*
X128973327Y-69937381D01*
X128977215Y-69935137D01*
X129919734Y-69413585D01*
X129923664Y-69411502D01*
X130884534Y-68924551D01*
X130888531Y-68922615D01*
X131370497Y-68700001D01*
X142290715Y-68700001D01*
X142309771Y-68844752D01*
X142309773Y-68844757D01*
X142365642Y-68979638D01*
X142365645Y-68979644D01*
X142454525Y-69095473D01*
X142454526Y-69095474D01*
X142570357Y-69184355D01*
X142618953Y-69204484D01*
X142673355Y-69248322D01*
X142695421Y-69314616D01*
X142695500Y-69319044D01*
X142695500Y-69990063D01*
X142710266Y-70064301D01*
X142766515Y-70148484D01*
X142800234Y-70171014D01*
X142850699Y-70204734D01*
X142850702Y-70204734D01*
X142850703Y-70204735D01*
X142875666Y-70209700D01*
X142924933Y-70219500D01*
X143675066Y-70219499D01*
X143749301Y-70204734D01*
X143781109Y-70183479D01*
X143847786Y-70162602D01*
X143915166Y-70181086D01*
X143918891Y-70183480D01*
X143950699Y-70204734D01*
X143950703Y-70204735D01*
X143975666Y-70209700D01*
X144024933Y-70219500D01*
X144775066Y-70219499D01*
X144849301Y-70204734D01*
X144933484Y-70148484D01*
X144989734Y-70064301D01*
X145004500Y-69990067D01*
X145004499Y-69319044D01*
X145024183Y-69252006D01*
X145076987Y-69206251D01*
X145081047Y-69204484D01*
X145081145Y-69204443D01*
X145129643Y-69184355D01*
X145245474Y-69095474D01*
X145334355Y-68979643D01*
X145390228Y-68844754D01*
X145409285Y-68700000D01*
X145406852Y-68681522D01*
X145390228Y-68555247D01*
X145390228Y-68555246D01*
X145334355Y-68420358D01*
X145245474Y-68304526D01*
X145129643Y-68215645D01*
X145129639Y-68215643D01*
X145081046Y-68195515D01*
X145026643Y-68151674D01*
X145004578Y-68085380D01*
X145004499Y-68081004D01*
X145004499Y-67409934D01*
X144989734Y-67335699D01*
X144971068Y-67307765D01*
X144933484Y-67251515D01*
X144883019Y-67217796D01*
X144849301Y-67195266D01*
X144849299Y-67195265D01*
X144849296Y-67195264D01*
X144775069Y-67180500D01*
X144024936Y-67180500D01*
X143950698Y-67195266D01*
X143866515Y-67251515D01*
X143810266Y-67335699D01*
X143810264Y-67335703D01*
X143795500Y-67409928D01*
X143795500Y-67591691D01*
X143775815Y-67658730D01*
X143759181Y-67679372D01*
X143387681Y-68050872D01*
X143326358Y-68084357D01*
X143256666Y-68079373D01*
X143212319Y-68050872D01*
X142696000Y-67534553D01*
X142696000Y-68080747D01*
X142676315Y-68147786D01*
X142623511Y-68193541D01*
X142619456Y-68195307D01*
X142570358Y-68215645D01*
X142454526Y-68304526D01*
X142365643Y-68420361D01*
X142309772Y-68555245D01*
X142309771Y-68555247D01*
X142290715Y-68699998D01*
X142290715Y-68700001D01*
X131370497Y-68700001D01*
X131866468Y-68470918D01*
X131870558Y-68469119D01*
X132864291Y-68053261D01*
X132868388Y-68051634D01*
X133876602Y-67672169D01*
X133880728Y-67670701D01*
X134902072Y-67328138D01*
X134906263Y-67326816D01*
X135399848Y-67181000D01*
X143049553Y-67181000D01*
X143300000Y-67431446D01*
X143550446Y-67181000D01*
X143049553Y-67181000D01*
X135399848Y-67181000D01*
X135939384Y-67021609D01*
X135943615Y-67020442D01*
X136987180Y-66752986D01*
X136991424Y-66751980D01*
X138044024Y-66522636D01*
X138048353Y-66521776D01*
X139108519Y-66330862D01*
X139112916Y-66330153D01*
X140179325Y-66177905D01*
X140183699Y-66177362D01*
X141238660Y-66065705D01*
X141253739Y-66065034D01*
X141272066Y-66065335D01*
X141275380Y-66065390D01*
X141275380Y-66065389D01*
X141275384Y-66065390D01*
X141275387Y-66065388D01*
X141280134Y-66064631D01*
X141296554Y-66061132D01*
X141301162Y-66059897D01*
X141301164Y-66059897D01*
X141323595Y-66049436D01*
X141335486Y-66044623D01*
X141358881Y-66036542D01*
X141358883Y-66036539D01*
X141358886Y-66036539D01*
X141363057Y-66034221D01*
X141377309Y-66025305D01*
X141381219Y-66022566D01*
X141381227Y-66022563D01*
X141398739Y-66005049D01*
X141408264Y-65996465D01*
X141427475Y-65980876D01*
X141427479Y-65980870D01*
X141430612Y-65977258D01*
X141440951Y-65964011D01*
X141443687Y-65960102D01*
X141443693Y-65960097D01*
X141454159Y-65937652D01*
X141460173Y-65926326D01*
X141472895Y-65905106D01*
X141472895Y-65905101D01*
X141474602Y-65900643D01*
X141479791Y-65884644D01*
X141481025Y-65880037D01*
X141481027Y-65880034D01*
X141483183Y-65855375D01*
X141484962Y-65842671D01*
X141489660Y-65818372D01*
X141489660Y-65818370D01*
X141489738Y-65813595D01*
X141489143Y-65796801D01*
X141488726Y-65792032D01*
X141482324Y-65768140D01*
X141479645Y-65755567D01*
X141475749Y-65731136D01*
X141474192Y-65726628D01*
X141467881Y-65711032D01*
X141465863Y-65706702D01*
X141451672Y-65686436D01*
X141444857Y-65675542D01*
X141432840Y-65653916D01*
X141429850Y-65650232D01*
X141418541Y-65637684D01*
X141415195Y-65634338D01*
X141401017Y-65624411D01*
X141386255Y-65612278D01*
X141131323Y-65367489D01*
X141122732Y-65358361D01*
X140886012Y-65079908D01*
X140878387Y-65069960D01*
X140670988Y-64769032D01*
X140664406Y-64758365D01*
X140664405Y-64758364D01*
X140488448Y-64438039D01*
X140482976Y-64426762D01*
X140381219Y-64186878D01*
X140340250Y-64090297D01*
X140335953Y-64078549D01*
X140227919Y-63729374D01*
X140224826Y-63717230D01*
X140213202Y-63659570D01*
X140152599Y-63358959D01*
X140150748Y-63346574D01*
X140145055Y-63288547D01*
X140115059Y-62982827D01*
X140114468Y-62970340D01*
X140115034Y-62800001D01*
X142512746Y-62800001D01*
X142533061Y-63032206D01*
X142533063Y-63032217D01*
X142593389Y-63257360D01*
X142593391Y-63257364D01*
X142593392Y-63257368D01*
X142607931Y-63288547D01*
X142691902Y-63468624D01*
X142691903Y-63468626D01*
X142691904Y-63468627D01*
X142825604Y-63659570D01*
X142990430Y-63824396D01*
X143181373Y-63958096D01*
X143392632Y-64056608D01*
X143617788Y-64116938D01*
X143783653Y-64131449D01*
X143849998Y-64137254D01*
X143850000Y-64137254D01*
X143850002Y-64137254D01*
X143908053Y-64132175D01*
X144082212Y-64116938D01*
X144307368Y-64056608D01*
X144518627Y-63958096D01*
X144709570Y-63824396D01*
X144874396Y-63659570D01*
X145008096Y-63468627D01*
X145106608Y-63257368D01*
X145166938Y-63032212D01*
X145187254Y-62800000D01*
X145166938Y-62567788D01*
X145106608Y-62342632D01*
X145008096Y-62131373D01*
X144874396Y-61940430D01*
X144709570Y-61775604D01*
X144518627Y-61641904D01*
X144518626Y-61641903D01*
X144518624Y-61641902D01*
X144406724Y-61589722D01*
X144307368Y-61543392D01*
X144307364Y-61543391D01*
X144307360Y-61543389D01*
X144082217Y-61483063D01*
X144082213Y-61483062D01*
X144082212Y-61483062D01*
X144082211Y-61483061D01*
X144082206Y-61483061D01*
X143850002Y-61462746D01*
X143849998Y-61462746D01*
X143617793Y-61483061D01*
X143617782Y-61483063D01*
X143392639Y-61543389D01*
X143392630Y-61543393D01*
X143181375Y-61641902D01*
X143077154Y-61714878D01*
X142990430Y-61775604D01*
X142990428Y-61775605D01*
X142990425Y-61775608D01*
X142825608Y-61940425D01*
X142691902Y-62131375D01*
X142593393Y-62342630D01*
X142593389Y-62342639D01*
X142533063Y-62567782D01*
X142533061Y-62567793D01*
X142512746Y-62799998D01*
X142512746Y-62800001D01*
X140115034Y-62800001D01*
X140115683Y-62604847D01*
X140116358Y-62592335D01*
X140130028Y-62461935D01*
X140154464Y-62228842D01*
X140156396Y-62216476D01*
X140231006Y-61858676D01*
X140234182Y-61846553D01*
X140256650Y-61775608D01*
X140344531Y-61498119D01*
X140348897Y-61486420D01*
X140493866Y-61150886D01*
X140499411Y-61139652D01*
X140557606Y-61035359D01*
X140677501Y-60820489D01*
X140684136Y-60809895D01*
X140893547Y-60510328D01*
X140901230Y-60500444D01*
X141139810Y-60223554D01*
X141148457Y-60214489D01*
X141413756Y-59963113D01*
X141423264Y-59954975D01*
X141712610Y-59731648D01*
X141722883Y-59724518D01*
X142033301Y-59531541D01*
X142044230Y-59525491D01*
X142372538Y-59364841D01*
X142384041Y-59359917D01*
X142384055Y-59359912D01*
X142726886Y-59233233D01*
X142738821Y-59229497D01*
X143092700Y-59138074D01*
X143104961Y-59135559D01*
X143466249Y-59080330D01*
X143478715Y-59079065D01*
X143843735Y-59060593D01*
X143856263Y-59060593D01*
X144221281Y-59079065D01*
G37*
G04 #@! TD.AperFunction*
M02*
